<?xml version="1.0" encoding="UTF-8"?>
<!DOCTYPE svg PUBLIC "-//W3C//DTD SVG 1.1//EN" "http://www.w3.org/Graphics/SVG/1.1/DTD/svg11.dtd">
<!-- Creator: CorelDRAW -->
<svg xmlns="http://www.w3.org/2000/svg" xml:space="preserve" width="209.999mm" height="209.999mm" version="1.1" style="shape-rendering:geometricPrecision; text-rendering:geometricPrecision; image-rendering:optimizeQuality; fill-rule:evenodd; clip-rule:evenodd"
viewBox="0 0 11609.09 11609.08"
 xmlns:xlink="http://www.w3.org/1999/xlink"
 xmlns:xodm="http://www.corel.com/coreldraw/odm/2003">
 <defs>
  <style type="text/css">
   <![CDATA[
    .fil0 {fill:none}
    .fil3 {fill:#F4B736;fill-rule:nonzero;fill-opacity:0.101961}
    .fil4 {fill:#3F7B7A;fill-rule:nonzero;fill-opacity:0.321569}
    .fil2 {fill:#F4B736;fill-rule:nonzero;fill-opacity:0.321569}
    .fil1 {fill:white;fill-rule:nonzero;fill-opacity:0.321569}
   ]]>
  </style>
 </defs>
 <g id="Layer_x0020_1">
  <metadata id="CorelCorpID_0Corel-Layer"/>
  <rect class="fil0" x="-0" y="0.02" width="11609.09" height="11609.08"/>
  <g id="_2919878805152">
   <g>
    <g>
     <g>
      <g>
       <path class="fil1" d="M126.84 8938.02c-0.01,68.53 40.83,127.44 99.29,153.4 1.56,0.71 3.09,1.53 4.52,2.44 3.91,2.45 7.26,5.64 9.9,9.34 3.4,4.75 5.67,10.37 6.44,16.37l2.54 19.7c7.95,2.59 16.05,4.44 24.21,5.56 3.73,0.54 7.47,0.9 11.22,1.1 2.72,0.18 5.43,0.25 8.15,0.25l0.24 0c2.64,-0.01 5.3,-0.08 7.92,-0.25 2.03,0 4.06,-0.14 6.05,-0.4 3.34,-0.45 6.47,-0.82 9.67,-1.39l0.01 0c6.66,-1.14 13.25,-2.76 19.71,-4.85l2.55 -19.71c0.04,-0.27 0.08,-0.5 0.11,-0.71 0.85,-5.75 3.05,-11.1 6.33,-15.68 1.04,-1.46 2.23,-2.86 3.51,-4.14 0,-0.01 0.01,-0.01 0.01,-0.04 0,0 0,-0.01 0.02,-0.01 0.01,-0.01 0.06,-0.08 0.09,-0.15 1.92,-1.91 4.02,-3.6 6.34,-5.04 1.42,-0.92 2.9,-1.69 4.46,-2.38 1.04,-0.48 2.08,-0.95 3.1,-1.43 1.03,-0.49 2.05,-0.96 3.05,-1.48 8.12,-4 15.84,-8.63 23.12,-13.88 8.89,-6.37 17.13,-13.6 24.62,-21.57l0.01 -0.02c27.63,-29.45 44.76,-68.97 45.39,-112.55 0.24,-15.72 -1.74,-31.02 -5.62,-45.56 -6.63,-24.86 -18.83,-47.55 -35.18,-66.53 -3.57,-4.15 -7.33,-8.11 -11.26,-11.87 -5.59,-5.35 -11.59,-10.34 -17.89,-14.89 -0.02,-0.01 -0.03,-0.02 -0.03,-0.02 -9.04,-6.5 -18.76,-12.15 -29.02,-16.76 -5.1,-2.3 -10.35,-4.34 -15.71,-6.11 -1.92,-0.64 -3.85,-1.24 -5.8,-1.8l-0.02 0c-8.25,-2.4 -16.77,-4.18 -25.49,-5.25 -1.19,-0.15 -2.38,-0.3 -3.59,-0.41l-0.01 0c-4.06,-0.43 -8.18,-0.69 -12.32,-0.78 -0.36,-0.02 -0.71,-0.02 -1.04,-0.03 -1.06,-0.04 -2.13,-0.06 -3.19,-0.06 -0.5,0 -0.98,0 -1.48,0.02 -5.11,0.07 -10.22,0.32 -15.21,0.83 -1.24,0.11 -2.46,0.25 -3.68,0.4 -8.61,1.05 -17,2.76 -25.17,5.11l-0.01 0c-25.97,7.4 -49.33,21 -68.46,39.12 -22.22,21.04 -38.68,48.15 -46.8,78.71l0 0.02c-3.68,13.84 -5.63,28.38 -5.64,43.36z"/>
      </g>
      <g>
       <path class="fil2" d="M301.28 9145.93c1.02,0 2.02,-0.04 3.04,-0.11 1,-0.05 2.01,-0.17 3,-0.29 3.35,-0.45 6.48,-0.82 9.66,-1.39l0.02 0c6.66,-1.14 13.25,-2.76 19.71,-4.85l2.57 -19.71c0.03,-0.27 0.08,-0.5 0.1,-0.71 0.85,-5.75 3.05,-11.1 6.34,-15.68 1.04,-1.46 2.22,-2.86 3.5,-4.14 0,-0.01 0.01,-0.01 0.01,-0.04 0,0 0,-0.01 0.02,-0.01 0.02,-0.01 0.05,-0.08 0.1,-0.15 1.91,-1.91 4.02,-3.6 6.33,-5.04 1.43,-0.92 2.9,-1.69 4.47,-2.38 0.42,-0.19 0.86,-0.39 1.3,-0.56 0.75,-0.75 1.37,-1.39 2.11,-2.16 28.37,-81.76 62.26,-226.74 -18.66,-309.78 -0.12,-0.11 -0.15,-0.16 -0.15,-0.16 -1.93,-0.64 -3.85,-1.24 -5.81,-1.8l-0.01 0c-8.26,-2.4 -16.77,-4.18 -25.51,-5.25 -1.18,-0.15 -2.37,-0.3 -3.57,-0.41l-0.01 0c0,0 0,0.01 0.01,0.03 1.32,2.42 66.8,124.5 -8.57,374.58z"/>
      </g>
      <g>
       <path class="fil3" d="M389.42 9074.67c0,0 0.02,-0.01 0.05,-0.02 41.74,-29.92 69.17,-78.77 69.98,-134.11 0.23,-15.72 -1.74,-31.02 -5.62,-45.56 -8.08,-30.28 -24.42,-57.32 -46.44,-78.4 -5.58,-5.32 -11.58,-10.32 -17.87,-14.85 0.03,0.01 0.04,0.04 0.07,0.08 3.61,4.2 90.34,107.76 -0.17,272.87z"/>
      </g>
      <g>
       <path class="fil2" d="M284.97 9145.93c-2.02,0 -4.04,-0.14 -6.04,-0.41 -3.35,-0.45 -6.46,-0.81 -9.66,-1.38l-0.01 0c-6.65,-1.14 -13.24,-2.78 -19.71,-4.86l-2.55 -19.71c-0.03,-0.26 -0.07,-0.51 -0.1,-0.71 -0.85,-5.75 -3.05,-11.1 -6.34,-15.68 -1.03,-1.46 -2.22,-2.86 -3.49,-4.14 0,-0.03 -0.01,-0.03 -0.01,-0.04 0,0 0,-0.01 -0.02,-0.01 -0.02,-0.02 -0.05,-0.08 -0.12,-0.15 -1.91,-1.91 -4.02,-3.6 -6.32,-5.05 -1.81,-1.15 -3.72,-2.1 -5.76,-2.92 -0.74,-0.75 -1.36,-1.4 -2.11,-2.16 -28.37,-81.84 -62.25,-226.95 18.88,-309.94 1.92,-0.64 3.86,-1.24 5.8,-1.81l0.02 0c8.25,-2.4 16.76,-4.17 25.48,-5.24 1.21,-0.13 2.38,-0.29 3.59,-0.4l0.01 0c0,0 -67.61,121.99 8.46,374.61z"/>
      </g>
      <g>
       <path class="fil2" d="M196.57 9074.65c-41.75,-29.92 -69.19,-78.79 -69.98,-134.16 -0.23,-15.72 1.74,-31.02 5.62,-45.56 8.08,-30.27 24.43,-57.31 46.46,-78.38 5.61,-5.34 11.6,-10.33 17.9,-14.87 -1.89,2.15 -91.42,106.1 -0.01,272.98z"/>
      </g>
      <g>
       <path class="fil1" d="M252.14 9147.45l82.44 0c2.81,0 5.06,-2.29 5.06,-5.1 0,-2.81 -2.26,-5.1 -5.06,-5.1l-82.44 0c-2.79,0 -5.06,2.29 -5.06,5.1 0,2.81 2.27,5.1 5.06,5.1z"/>
      </g>
      <g>
       <path class="fil4" d="M143 9005.05c9.38,-3.21 32.86,-10.37 68.57,-15.46l67.65 243.86 -11.19 0 -125.03 -228.4zm175.67 228.4l-11.19 0 67.66 -243.68c35.66,5.19 59.36,12.37 68.52,15.47l-124.99 228.2zm-36.45 0l-67.76 -244.29c21.62,-2.95 47.51,-5.09 77.24,-5.15l-0.03 249.44 -9.45 0zm12.37 -249.44c29.76,0.08 55.86,2.3 77.68,5.34l-67.79 244.1 -9.91 0 0.02 -249.44zm-161.02 20.74c0.75,1.86 2.84,2.76 4.7,2.01 0.05,-0.03 0.82,-0.33 1.96,-0.74l124.5 227.43 -4.44 0c-0.68,0 -1.23,0.55 -1.23,1.23l0 0.3c0,0.69 0.55,1.25 1.23,1.25l1.71 0 0.01 20.46c-0.01,9.81 5.57,18.31 13.71,22.44 3.37,1.72 7.18,2.7 11.23,2.69l12.33 0.01c13.77,0.02 24.95,-11.25 24.95,-25.13l0 -20.46 1.71 0c0.69,0 1.24,-0.56 1.24,-1.25l0 -0.3c0,-0.69 -0.56,-1.25 -1.24,-1.25l-3.97 0 124.47 -227.24c0.92,0.34 1.56,0.57 1.61,0.6 0.43,0.16 0.88,0.25 1.32,0.25 1.44,0 2.8,-0.87 3.36,-2.31 0.73,-1.86 -0.17,-3.97 -2.03,-4.72 -0.59,-0.24 -59.85,-23.3 -157.55,-23.31 -99.3,-0.01 -155.25,22.34 -157.6,23.29 -1.84,0.75 -2.73,2.87 -1.98,4.74z"/>
      </g>
     </g>
    </g>
   </g>
  </g>
 </g>
</svg>
