<?xml version="1.0" encoding="UTF-8"?>
<!DOCTYPE svg PUBLIC "-//W3C//DTD SVG 1.1//EN" "http://www.w3.org/Graphics/SVG/1.1/DTD/svg11.dtd">
<!-- Creator: CorelDRAW -->
<svg xmlns="http://www.w3.org/2000/svg" xml:space="preserve" width="198.21mm" height="241.509mm" version="1.1" style="shape-rendering:geometricPrecision; text-rendering:geometricPrecision; image-rendering:optimizeQuality; fill-rule:evenodd; clip-rule:evenodd"
viewBox="0 0 3822.13 4657.07"
 xmlns:xlink="http://www.w3.org/1999/xlink"
 xmlns:xodm="http://www.corel.com/coreldraw/odm/2003">
 <defs>
  <style type="text/css">
   <![CDATA[
    .fil0 {fill:none}
    .fil3 {fill:#3F7B7A;fill-rule:nonzero}
    .fil2 {fill:#C63F35;fill-rule:nonzero}
    .fil1 {fill:white;fill-rule:nonzero}
    .fil6 {fill:#3F7B7A;fill-rule:nonzero;fill-opacity:0.321569}
    .fil5 {fill:#F4B736;fill-rule:nonzero;fill-opacity:0.321569}
    .fil4 {fill:white;fill-rule:nonzero;fill-opacity:0.321569}
   ]]>
  </style>
 </defs>
 <g id="Layer_x0020_1">
  <metadata id="CorelCorpID_0Corel-Layer"/>
  <rect class="fil0" x="-0" y="-0" width="3822.13" height="4657.07"/>
  <g id="_1432772141184">
   <path class="fil1" d="M1185 3683.56c-0,35.7 21.27,66.38 51.72,79.91 0.82,0.37 1.61,0.79 2.36,1.26 2.03,1.28 3.78,2.94 5.15,4.86 1.78,2.48 2.96,5.4 3.36,8.53l1.32 10.26c4.15,1.34 8.37,2.31 12.62,2.89 1.94,0.28 3.89,0.46 5.84,0.57 1.41,0.09 2.83,0.13 4.24,0.13l0.13 0c1.38,0 2.76,-0.04 4.13,-0.13 1.05,-0 2.11,-0.07 3.15,-0.21 1.74,-0.24 3.37,-0.43 5.03,-0.73l0.01 0c3.47,-0.59 6.9,-1.44 10.27,-2.53l1.33 -10.27c0.02,-0.13 0.04,-0.26 0.05,-0.37 0.44,-2.99 1.59,-5.78 3.3,-8.16 0.54,-0.76 1.16,-1.49 1.82,-2.16 0,-0.01 0.01,-0.01 0.01,-0.02 0,0 0,-0.01 0.01,-0.01 0.01,-0.01 0.03,-0.04 0.05,-0.08 1,-1 2.09,-1.88 3.3,-2.63 0.74,-0.47 1.51,-0.88 2.32,-1.24 0.54,-0.24 1.09,-0.49 1.62,-0.74 0.53,-0.25 1.06,-0.5 1.59,-0.77 4.23,-2.08 8.25,-4.5 12.04,-7.23 4.64,-3.33 8.93,-7.09 12.82,-11.24l0.01 -0.01c14.39,-15.34 23.32,-35.93 23.65,-58.63 0.12,-8.19 -0.9,-16.16 -2.93,-23.74 -3.45,-12.94 -9.81,-24.77 -18.32,-34.65 -1.86,-2.16 -3.82,-4.22 -5.87,-6.18 -2.91,-2.79 -6.03,-5.38 -9.32,-7.75 -0.01,-0.01 -0.01,-0.02 -0.01,-0.02 -4.71,-3.38 -9.77,-6.32 -15.12,-8.73 -2.65,-1.2 -5.39,-2.26 -8.18,-3.19 -1,-0.33 -2,-0.64 -3.02,-0.94l-0.01 0c-4.3,-1.25 -8.74,-2.18 -13.29,-2.73 -0.62,-0.08 -1.24,-0.15 -1.86,-0.22l-0.01 0c-2.12,-0.22 -4.25,-0.36 -6.42,-0.41 -0.18,-0.01 -0.37,-0.01 -0.54,-0.02 -0.55,-0.01 -1.11,-0.03 -1.66,-0.03 -0.26,0 -0.51,0 -0.77,0.01 -2.66,0.03 -5.32,0.17 -7.92,0.43 -0.64,0.06 -1.27,0.13 -1.91,0.21 -4.49,0.55 -8.86,1.44 -13.11,2.66l-0.01 0c-13.52,3.86 -25.69,10.94 -35.66,20.38 -11.57,10.96 -20.15,25.08 -24.38,41l0 0.01c-1.92,7.21 -2.93,14.78 -2.94,22.59z"/>
   <path class="fil2" d="M1275.86 3791.87c0.53,0 1.06,-0.02 1.58,-0.06 0.52,-0.03 1.05,-0.08 1.57,-0.15 1.74,-0.23 3.37,-0.43 5.03,-0.73l0.01 0c3.47,-0.59 6.9,-1.44 10.27,-2.53l1.33 -10.26c0.02,-0.14 0.04,-0.26 0.05,-0.37 0.44,-3 1.59,-5.79 3.3,-8.17 0.54,-0.76 1.16,-1.49 1.82,-2.16 0,-0.01 0.01,-0.01 0.01,-0.02 0,0 0,-0.01 0.01,-0.01 0.01,-0.01 0.03,-0.04 0.05,-0.08 1,-1 2.09,-1.88 3.3,-2.63 0.74,-0.47 1.51,-0.88 2.32,-1.23 0.22,-0.1 0.45,-0.2 0.68,-0.3 0.39,-0.39 0.71,-0.72 1.1,-1.13 14.78,-42.59 32.43,-118.11 -9.71,-161.36 -0.06,-0.06 -0.08,-0.09 -0.08,-0.09 -1,-0.33 -2.01,-0.64 -3.02,-0.94l-0.01 0c-4.3,-1.25 -8.74,-2.18 -13.29,-2.74 -0.62,-0.07 -1.24,-0.15 -1.86,-0.21l-0.01 0c0,0 0,0.01 0.01,0.02 0.69,1.26 34.8,64.85 -4.46,195.13z"/>
   <path class="fil2" d="M1321.78 3754.75c0,0 0.01,-0.01 0.02,-0.02 21.74,-15.59 36.03,-41.02 36.45,-69.86 0.12,-8.19 -0.9,-16.16 -2.93,-23.74 -4.21,-15.77 -12.72,-29.86 -24.19,-40.84 -2.91,-2.78 -6.03,-5.38 -9.3,-7.74 0.01,0.01 0.01,0.02 0.03,0.04 1.88,2.19 47.05,56.14 -0.08,142.15z"/>
   <path class="fil2" d="M1267.37 3791.87c-1.05,0 -2.1,-0.07 -3.15,-0.21 -1.74,-0.24 -3.37,-0.43 -5.03,-0.73l-0.01 0c-3.47,-0.59 -6.9,-1.44 -10.27,-2.53l-1.33 -10.27c-0.01,-0.13 -0.04,-0.27 -0.05,-0.37 -0.44,-2.99 -1.59,-5.79 -3.3,-8.16 -0.54,-0.77 -1.16,-1.49 -1.82,-2.16 0,-0.01 -0.01,-0.01 -0.01,-0.02 0,0 0,-0.01 -0.01,-0.01 -0.01,-0.01 -0.03,-0.04 -0.06,-0.08 -0.99,-1 -2.09,-1.88 -3.3,-2.63 -0.94,-0.6 -1.94,-1.1 -3,-1.53 -0.39,-0.4 -0.71,-0.73 -1.09,-1.12 -14.78,-42.63 -32.43,-118.22 9.83,-161.45 1,-0.33 2.01,-0.64 3.03,-0.94l0.01 0c4.3,-1.25 8.74,-2.17 13.28,-2.73 0.63,-0.08 1.24,-0.15 1.87,-0.21l0.01 0c0,0 -35.22,63.54 4.4,195.14z"/>
   <path class="fil2" d="M1221.32 3754.73c-21.75,-15.59 -36.04,-41.04 -36.45,-69.88 -0.12,-8.19 0.9,-16.16 2.93,-23.73 4.21,-15.78 12.73,-29.86 24.2,-40.84 2.92,-2.78 6.04,-5.38 9.32,-7.75 -0.98,1.12 -47.62,55.27 -0,142.2z"/>
   <path class="fil1" d="M1250.27 3792.65l42.94 0c1.46,0 2.64,-1.19 2.64,-2.65 0,-1.47 -1.18,-2.66 -2.64,-2.66l-42.94 0c-1.46,0 -2.64,1.19 -2.64,2.66 0,1.47 1.18,2.65 2.64,2.65z"/>
   <path class="fil3" d="M1193.41 3718.48c4.89,-1.68 17.12,-5.4 35.72,-8.05l35.24 127.02 -5.83 0 -65.13 -118.97zm91.51 118.98l-5.83 0 35.24 -126.93c18.58,2.7 30.92,6.44 35.7,8.06l-65.11 118.87zm-18.99 -0l-35.29 -127.25c11.26,-1.53 24.75,-2.65 40.24,-2.68l-0.02 129.93 -4.92 -0zm6.45 -129.93c15.51,0.04 29.09,1.19 40.46,2.78l-35.31 127.15 -5.17 0 0.01 -129.93zm-83.87 10.8c0.39,0.97 1.48,1.44 2.45,1.05 0.03,-0.01 0.43,-0.16 1.02,-0.38l64.85 118.46 -2.31 0c-0.35,0 -0.64,0.29 -0.64,0.65l0 0.16c0,0.36 0.29,0.65 0.64,0.65l0.89 0 0 10.66c-0,5.11 2.9,9.54 7.14,11.69 1.76,0.9 3.74,1.4 5.85,1.4l6.43 0c7.18,0.01 12.99,-5.86 12.99,-13.09l0 -10.66 0.89 0c0.35,0 0.64,-0.29 0.64,-0.65l0 -0.16c0,-0.36 -0.29,-0.65 -0.64,-0.65l-2.07 0 64.84 -118.37c0.48,0.17 0.81,0.3 0.84,0.31 0.23,0.09 0.46,0.13 0.69,0.13 0.75,0 1.46,-0.45 1.75,-1.2 0.38,-0.97 -0.09,-2.07 -1.06,-2.45 -0.3,-0.12 -31.18,-12.14 -82.07,-12.15 -51.72,-0.01 -80.87,11.64 -82.09,12.13 -0.96,0.39 -1.43,1.49 -1.04,2.47z"/>
   <path class="fil4" d="M218.24 3939.97c-0,20.25 12.06,37.64 29.33,45.31 0.46,0.21 0.91,0.45 1.33,0.72 1.16,0.72 2.14,1.66 2.93,2.76 1,1.4 1.67,3.06 1.9,4.84l0.75 5.82c2.35,0.77 4.74,1.31 7.15,1.64 1.1,0.16 2.21,0.26 3.31,0.32 0.8,0.05 1.61,0.07 2.41,0.07l0.07 0c0.78,-0 1.57,-0.03 2.34,-0.07 0.6,0 1.2,-0.04 1.79,-0.12 0.99,-0.13 1.91,-0.24 2.85,-0.41l0 0c1.97,-0.34 3.91,-0.82 5.82,-1.43l0.76 -5.82c0.01,-0.08 0.02,-0.15 0.03,-0.21 0.25,-1.7 0.9,-3.28 1.87,-4.63 0.31,-0.43 0.66,-0.84 1.04,-1.22 0,-0 0,-0 0,-0.01 0,0 0,-0 0,-0 0,-0 0.02,-0.02 0.03,-0.04 0.57,-0.56 1.19,-1.06 1.87,-1.49 0.42,-0.27 0.86,-0.5 1.32,-0.7 0.31,-0.14 0.62,-0.28 0.92,-0.42 0.3,-0.14 0.61,-0.28 0.9,-0.44 2.4,-1.18 4.68,-2.55 6.83,-4.1 2.63,-1.88 5.06,-4.02 7.27,-6.38l0 -0c8.16,-8.7 13.22,-20.38 13.41,-33.25 0.07,-4.65 -0.51,-9.16 -1.66,-13.46 -1.96,-7.34 -5.56,-14.05 -10.39,-19.65 -1.05,-1.23 -2.17,-2.4 -3.33,-3.51 -1.65,-1.58 -3.42,-3.05 -5.28,-4.4 -0,-0 -0.01,-0.01 -0.01,-0.01 -2.67,-1.92 -5.54,-3.59 -8.57,-4.95 -1.51,-0.68 -3.06,-1.28 -4.64,-1.8 -0.57,-0.19 -1.14,-0.37 -1.72,-0.53l-0 0c-2.44,-0.71 -4.96,-1.24 -7.53,-1.55 -0.35,-0.04 -0.7,-0.09 -1.06,-0.12l-0 0c-1.2,-0.13 -2.42,-0.2 -3.64,-0.23 -0.11,-0 -0.21,-0 -0.31,-0.01 -0.31,-0.01 -0.63,-0.02 -0.94,-0.02 -0.15,0 -0.29,0 -0.44,0.01 -1.51,0.02 -3.02,0.09 -4.49,0.24 -0.37,0.03 -0.73,0.07 -1.08,0.12 -2.54,0.31 -5.03,0.82 -7.44,1.51l-0 0c-7.67,2.19 -14.57,6.2 -20.22,11.56 -6.56,6.21 -11.43,14.22 -13.82,23.25l0 0c-1.09,4.09 -1.66,8.38 -1.67,12.81z"/>
   <path class="fil5" d="M269.76 4001.38c0.3,0 0.6,-0.01 0.9,-0.03 0.29,-0.02 0.59,-0.05 0.89,-0.08 0.99,-0.13 1.91,-0.24 2.85,-0.41l0 0c1.97,-0.34 3.91,-0.82 5.82,-1.43l0.76 -5.82c0.01,-0.08 0.02,-0.15 0.03,-0.21 0.25,-1.7 0.9,-3.28 1.87,-4.63 0.31,-0.43 0.66,-0.84 1.03,-1.22 0,-0 0,-0 0,-0.01 0,0 0,-0 0.01,-0 0,-0 0.02,-0.02 0.03,-0.04 0.56,-0.56 1.19,-1.06 1.87,-1.49 0.42,-0.27 0.86,-0.5 1.32,-0.7 0.13,-0.05 0.25,-0.11 0.39,-0.17 0.22,-0.22 0.4,-0.41 0.62,-0.64 8.38,-24.15 18.39,-66.98 -5.51,-91.51 -0.03,-0.03 -0.04,-0.05 -0.04,-0.05 -0.57,-0.19 -1.14,-0.37 -1.72,-0.53l-0 0c-2.44,-0.71 -4.95,-1.24 -7.53,-1.55 -0.35,-0.04 -0.7,-0.09 -1.05,-0.12l-0 0c0,0 0,0 0,0.01 0.39,0.72 19.73,36.78 -2.53,110.65z"/>
   <path class="fil5" d="M295.8 3980.33c0,0 0,-0 0.01,-0.01 12.33,-8.84 20.43,-23.27 20.67,-39.62 0.07,-4.65 -0.51,-9.16 -1.66,-13.46 -2.39,-8.95 -7.21,-16.93 -13.72,-23.16 -1.65,-1.57 -3.42,-3.05 -5.28,-4.39 0.01,0 0.01,0.01 0.02,0.02 1.07,1.24 26.69,31.83 -0.05,80.61z"/>
   <path class="fil5" d="M264.94 4001.38c-0.6,0 -1.19,-0.04 -1.78,-0.12 -0.99,-0.13 -1.91,-0.24 -2.86,-0.41l-0 0c-1.96,-0.34 -3.91,-0.82 -5.82,-1.44l-0.76 -5.82c-0.01,-0.08 -0.02,-0.15 -0.03,-0.21 -0.25,-1.7 -0.9,-3.28 -1.87,-4.63 -0.3,-0.43 -0.66,-0.84 -1.03,-1.22 0,-0.01 -0,-0.01 -0,-0.01 0,0 0,-0 -0.01,-0 -0,-0 -0.02,-0.02 -0.03,-0.04 -0.56,-0.56 -1.19,-1.06 -1.87,-1.49 -0.54,-0.34 -1.1,-0.62 -1.7,-0.86 -0.22,-0.22 -0.4,-0.41 -0.62,-0.64 -8.38,-24.18 -18.39,-67.04 5.58,-91.55 0.57,-0.19 1.14,-0.36 1.72,-0.54l0.01 0c2.44,-0.71 4.95,-1.23 7.53,-1.55 0.35,-0.04 0.7,-0.08 1.06,-0.12l0 0c0,0 -19.97,36.03 2.5,110.66z"/>
   <path class="fil5" d="M238.83 3980.33c-12.33,-8.84 -20.44,-23.27 -20.67,-39.63 -0.07,-4.65 0.51,-9.17 1.66,-13.46 2.39,-8.94 7.22,-16.93 13.72,-23.16 1.66,-1.58 3.43,-3.05 5.29,-4.39 -0.56,0.63 -27,31.34 -0,80.64z"/>
   <path class="fil4" d="M255.25 4001.83l24.35 0c0.83,0 1.49,-0.68 1.49,-1.51 0,-0.83 -0.67,-1.51 -1.49,-1.51l-24.35 0c-0.82,0 -1.49,0.68 -1.49,1.51 0,0.83 0.67,1.51 1.49,1.51z"/>
   <path class="fil6" d="M223.01 3959.77c2.77,-0.95 9.71,-3.06 20.26,-4.57l19.98 72.04 -3.31 0 -36.93 -67.47zm51.89 67.47l-3.31 0 19.99 -71.98c10.53,1.53 17.54,3.66 20.24,4.57l-36.92 67.41zm-10.77 0l-20.02 -72.16c6.38,-0.87 14.04,-1.5 22.82,-1.52l-0.01 73.68 -2.79 0zm3.65 -73.68c8.79,0.02 16.5,0.68 22.95,1.58l-20.02 72.11 -2.93 0 0.01 -73.68zm-47.56 6.13c0.22,0.55 0.84,0.82 1.39,0.59 0.01,-0.01 0.24,-0.1 0.58,-0.22l36.78 67.18 -1.31 0c-0.2,0 -0.36,0.16 -0.36,0.37l0 0.09c0,0.2 0.16,0.37 0.36,0.37l0.51 0 0 6.05c-0,2.9 1.65,5.41 4.05,6.63 1,0.51 2.12,0.8 3.32,0.79l3.64 0c4.07,0 7.37,-3.32 7.37,-7.42l0 -6.05 0.51 0c0.2,0 0.37,-0.17 0.37,-0.37l0 -0.09c0,-0.2 -0.17,-0.37 -0.37,-0.37l-1.17 0 36.77 -67.12c0.27,0.1 0.46,0.17 0.48,0.18 0.13,0.05 0.26,0.07 0.39,0.07 0.43,0 0.83,-0.26 0.99,-0.68 0.22,-0.55 -0.05,-1.17 -0.6,-1.39 -0.17,-0.07 -17.68,-6.88 -46.54,-6.89 -29.33,-0 -45.86,6.6 -46.55,6.88 -0.54,0.22 -0.81,0.85 -0.59,1.4z"/>
  </g>
 </g>
</svg>
