<?xml version="1.0" encoding="UTF-8"?>
<!DOCTYPE svg PUBLIC "-//W3C//DTD SVG 1.1//EN" "http://www.w3.org/Graphics/SVG/1.1/DTD/svg11.dtd">
<!-- Creator: CorelDRAW -->
<svg xmlns="http://www.w3.org/2000/svg" xml:space="preserve" width="209.999mm" height="209.999mm" version="1.1" style="shape-rendering:geometricPrecision; text-rendering:geometricPrecision; image-rendering:optimizeQuality; fill-rule:evenodd; clip-rule:evenodd"
viewBox="0 0 11609.09 11609.08"
 xmlns:xlink="http://www.w3.org/1999/xlink"
 xmlns:xodm="http://www.corel.com/coreldraw/odm/2003">
 <defs>
  <style type="text/css">
   <![CDATA[
    .fil0 {fill:none}
    .fil3 {fill:#3F7B7A;fill-rule:nonzero}
    .fil2 {fill:#C63F35;fill-rule:nonzero}
    .fil1 {fill:white;fill-rule:nonzero}
   ]]>
  </style>
 </defs>
 <g id="Layer_x0020_1">
  <metadata id="CorelCorpID_0Corel-Layer"/>
  <rect class="fil0" x="-0" y="0.02" width="11609.09" height="11609.08"/>
  <g id="_2884208465040">
   <g>
    <g>
     <g>
      <path class="fil1" d="M3461.13 8003.11c-0.02,129.54 77.16,240.84 187.64,289.92 2.96,1.34 5.85,2.87 8.55,4.59 7.38,4.64 13.71,10.66 18.7,17.65 6.45,8.99 10.73,19.6 12.18,30.96l4.8 37.24c15.04,4.86 30.36,8.38 45.77,10.5 7.05,1.01 14.12,1.69 21.21,2.08 5.13,0.34 10.26,0.47 15.4,0.45l0.46 0c5,0 10.01,-0.14 14.97,-0.45 3.83,-0.01 7.66,-0.27 11.42,-0.76 6.33,-0.86 12.23,-1.55 18.27,-2.63l0.03 0c12.59,-2.13 25.04,-5.22 37.25,-9.18l4.84 -37.24c0.07,-0.5 0.14,-0.95 0.2,-1.34 1.6,-10.86 5.77,-20.98 11.98,-29.62 1.96,-2.76 4.2,-5.42 6.61,-7.82 0,-0.03 0.02,-0.03 0.02,-0.06 0,0 0,-0.03 0.03,-0.03 0.03,-0.02 0.12,-0.14 0.2,-0.28 3.63,-3.65 7.6,-6.83 11.97,-9.54 2.69,-1.71 5.49,-3.19 8.43,-4.49 1.97,-0.88 3.94,-1.78 5.88,-2.68 1.93,-0.93 3.84,-1.82 5.76,-2.8 15.33,-7.56 29.93,-16.32 43.69,-26.22 16.82,-12.07 32.39,-25.71 46.52,-40.78l0.03 -0.02c52.2,-55.65 84.59,-130.35 85.79,-212.72 0.44,-29.73 -3.27,-58.63 -10.63,-86.12 -12.53,-46.97 -35.58,-89.85 -66.47,-125.72 -6.76,-7.85 -13.85,-15.32 -21.3,-22.44 -10.57,-10.11 -21.89,-19.53 -33.8,-28.13 -0.03,-0.03 -0.06,-0.06 -0.06,-0.06 -17.09,-12.27 -35.45,-22.95 -54.85,-31.68 -9.62,-4.34 -19.54,-8.19 -29.68,-11.56 -3.63,-1.19 -7.26,-2.33 -10.96,-3.39l-0.03 0c-15.61,-4.54 -31.7,-7.9 -48.2,-9.92 -2.24,-0.28 -4.49,-0.55 -6.77,-0.78l-0.03 0c-7.67,-0.8 -15.43,-1.3 -23.28,-1.49 -0.66,-0.03 -1.34,-0.03 -1.97,-0.06 -2.01,-0.05 -4.02,-0.11 -6.02,-0.11 -0.95,0 -1.86,0 -2.81,0.04 -9.64,0.12 -19.32,0.6 -28.75,1.57 -2.33,0.23 -4.63,0.47 -6.93,0.75 -16.27,1.98 -32.16,5.24 -47.58,9.66l-0.03 0c-49.06,14 -93.22,39.68 -129.38,73.95 -41.99,39.76 -73.1,91 -88.43,148.76l0 0.03c-6.97,26.15 -10.65,53.63 -10.67,81.95z"/>
     </g>
     <g>
      <path class="fil2" d="M3790.81 8396.05c1.91,0 3.83,-0.07 5.74,-0.2 1.89,-0.11 3.79,-0.31 5.68,-0.56 6.33,-0.84 12.23,-1.55 18.27,-2.63l0.03 0c12.59,-2.13 25.04,-5.21 37.26,-9.16l4.84 -37.24c0.07,-0.51 0.15,-0.95 0.2,-1.34 1.6,-10.87 5.77,-20.99 11.97,-29.63 1.97,-2.76 4.21,-5.43 6.62,-7.83 0,-0.02 0.03,-0.02 0.03,-0.05 0,0 0,-0.03 0.02,-0.03 0.03,-0.03 0.12,-0.15 0.2,-0.28 3.63,-3.64 7.59,-6.83 11.96,-9.54 2.69,-1.72 5.49,-3.19 8.43,-4.48 0.8,-0.38 1.64,-0.74 2.46,-1.07 1.41,-1.42 2.58,-2.63 3.99,-4.09 53.62,-154.53 117.67,-428.52 -35.25,-585.47 -0.22,-0.2 -0.3,-0.32 -0.3,-0.32 -3.63,-1.19 -7.28,-2.33 -10.96,-3.39l-0.03 0c-15.61,-4.54 -31.7,-7.91 -48.2,-9.93 -2.24,-0.27 -4.49,-0.55 -6.77,-0.77l-0.03 0c0,0 0,0.04 0.03,0.05 2.5,4.58 126.26,235.3 -16.19,707.96z"/>
     </g>
     <g>
      <path class="fil2" d="M3957.39 8261.37c0,0 0.03,-0.03 0.08,-0.06 78.89,-56.55 130.72,-148.84 132.25,-253.46 0.45,-29.73 -3.27,-58.64 -10.61,-86.12 -15.27,-57.23 -46.14,-108.36 -87.77,-148.17 -10.55,-10.08 -21.87,-19.51 -33.75,-28.07 0.03,0.03 0.06,0.08 0.11,0.13 6.84,7.96 170.73,203.67 -0.3,515.73z"/>
     </g>
     <g>
      <path class="fil2" d="M3759.98 8396.05c-3.81,0 -7.63,-0.26 -11.42,-0.77 -6.31,-0.86 -12.22,-1.55 -18.24,-2.63l-0.04 0c-12.58,-2.14 -25.03,-5.22 -37.26,-9.19l-4.83 -37.24c-0.05,-0.48 -0.13,-0.97 -0.18,-1.34 -1.61,-10.86 -5.79,-20.99 -11.99,-29.62 -1.97,-2.79 -4.2,-5.42 -6.61,-7.83 0,-0.04 -0.03,-0.04 -0.03,-0.07 0,0 0,-0.03 -0.03,-0.03 -0.02,-0.03 -0.11,-0.14 -0.21,-0.27 -3.6,-3.63 -7.6,-6.82 -11.95,-9.55 -3.43,-2.17 -7.05,-3.97 -10.91,-5.53 -1.39,-1.43 -2.58,-2.65 -3.96,-4.07 -53.64,-154.67 -117.66,-428.94 35.67,-585.79 3.64,-1.21 7.3,-2.33 10.98,-3.41l0.02 0c15.61,-4.54 31.7,-7.89 48.18,-9.9 2.27,-0.28 4.51,-0.55 6.78,-0.77l0.03 0.01c0,0 -127.79,230.54 15.98,708z"/>
     </g>
     <g>
      <path class="fil2" d="M3592.91 8261.32c-78.9,-56.56 -130.76,-148.9 -132.25,-253.55 -0.44,-29.73 3.29,-58.64 10.63,-86.11 15.28,-57.24 46.18,-108.34 87.81,-148.15 10.6,-10.09 21.93,-19.52 33.83,-28.11 -3.55,4.07 -172.76,200.54 -0.01,515.92z"/>
     </g>
     <g>
      <path class="fil1" d="M3697.93 8398.92l155.81 0c5.29,0 9.57,-4.31 9.57,-9.63 0,-5.33 -4.28,-9.65 -9.57,-9.65l-155.81 0c-5.28,0 -9.57,4.31 -9.57,9.65 0,5.32 4.29,9.63 9.57,9.63z"/>
     </g>
     <g>
      <path class="fil3" d="M3491.65 8129.8c17.73,-6.08 62.11,-19.59 129.6,-29.22l127.85 460.87 -21.16 0 -236.3 -431.66zm332.02 431.67l-21.15 0 127.87 -460.52c67.4,9.78 112.19,23.37 129.52,29.24l-236.24 431.28zm-68.9 -0.01l-128.06 -461.68c40.85,-5.57 89.8,-9.6 146,-9.72l-0.07 471.41 -17.87 -0.01zm23.39 -471.4c56.26,0.13 105.56,4.33 146.79,10.07l-128.1 461.34 -18.75 0 0.05 -471.41zm-304.32 39.17c1.41,3.52 5.37,5.21 8.88,3.79 0.11,-0.04 1.54,-0.59 3.71,-1.38l235.28 429.82 -8.39 0c-1.29,0 -2.33,1.06 -2.33,2.34l0 0.57c0,1.3 1.04,2.34 2.33,2.34l3.25 0 0.02 38.68c-0.02,18.55 10.53,34.6 25.9,42.41 6.38,3.26 13.59,5.09 21.22,5.09l23.32 0c26.04,0.03 47.14,-21.25 47.14,-47.48l0.01 -38.68 3.25 0c1.28,0 2.33,-1.06 2.33,-2.34l0 -0.57c0,-1.3 -1.05,-2.36 -2.33,-2.36l-7.51 0 235.25 -429.47c1.73,0.62 2.95,1.08 3.05,1.12 0.82,0.32 1.66,0.48 2.5,0.48 2.71,0 5.29,-1.65 6.34,-4.37 1.38,-3.52 -0.33,-7.51 -3.84,-8.91 -1.11,-0.44 -113.11,-44.05 -297.76,-44.08 -187.65,-0.03 -293.41,42.22 -297.83,44.02 -3.49,1.42 -5.17,5.43 -3.76,8.95z"/>
     </g>
    </g>
   </g>
  </g>
 </g>
</svg>
