<?xml version="1.0" encoding="UTF-8"?>
<!DOCTYPE svg PUBLIC "-//W3C//DTD SVG 1.1//EN" "http://www.w3.org/Graphics/SVG/1.1/DTD/svg11.dtd">
<!-- Creator: CorelDRAW -->
<svg xmlns="http://www.w3.org/2000/svg" xml:space="preserve" width="208.81mm" height="241.509mm" version="1.1" style="shape-rendering:geometricPrecision; text-rendering:geometricPrecision; image-rendering:optimizeQuality; fill-rule:evenodd; clip-rule:evenodd"
viewBox="0 0 4287.68 4959.11"
 xmlns:xlink="http://www.w3.org/1999/xlink"
 xmlns:xodm="http://www.corel.com/coreldraw/odm/2003">
 <defs>
  <style type="text/css">
   <![CDATA[
    .fil0 {fill:none}
    .fil1 {fill:white;fill-rule:nonzero}
   ]]>
  </style>
 </defs>
 <g id="Layer_x0020_1">
  <metadata id="CorelCorpID_0Corel-Layer"/>
  <rect class="fil0" x="112.74" y="-0" width="4070.02" height="4959.11"/>
  <g id="_1432568527776">
   <path class="fil1" d="M-0 4711.7c0,-252.55 208.64,-338.38 365.19,-326.32 156.56,12.07 159.27,-165.16 307.08,-250.15 155.28,-89.29 349,-30.44 503.81,-107.42 132.54,-65.92 176.33,-223.53 282.81,-322.48 80.62,-74.92 196.54,-112.63 310.19,-110.42 113.64,2.22 224.45,42.34 316.78,104.3 34.97,23.47 68.01,50.57 90.82,84.69 20.49,30.65 31.91,65.72 42.03,100.59 36.37,125.43 58.59,254.46 66.18,384.22 6.14,105.37 1.38,215.98 -53.09,308.39 -104.83,177.84 -337.43,133.21 -520.91,133.33 -208.57,0.16 -417.16,0.32 -625.75,0.47l-1063.72 0.78c-7.14,0 -14.29,0.01 -21.43,0.01z"/>
   <path class="fil1" d="M3392.6 4148.84l0.38 -2.74c16.62,-114.9 133.7,-211.48 244.65,-227.93 123.79,-18.34 255.64,51.31 309.54,163.51 41.92,87.29 42.37,197.74 113.27,264.03 43.79,40.94 106.68,56.28 152.03,95.53 42.51,36.79 65.68,91.77 74.42,147.12 8.74,55.35 -56.23,56.83 -115.72,68.7 -142.38,0.91 -180.97,-58.68 -320.24,-32.11 -143.45,27.37 -280.61,19.15 -425.99,7.89 -3.47,-135.54 -23.47,-136.38 -26.93,-271.93 -1.74,-67.33 -14.4,-145.41 -5.41,-212.09z"/>
   <path class="fil1" d="M594.37 3983.83c-12.32,1.62 -23.59,7.77 -28.68,19.29l-2.01 4 -2.76 -3.35c-7.88,-8.86 -16.59,-18.7 -29.11,-20 13.09,-3.53 25.37,7.12 33.47,16.3l-4.77 0.64c5.57,-12.78 20.42,-20.24 33.85,-16.88z"/>
   <path class="fil1" d="M470.6 4036.26c-12.32,1.62 -23.59,7.77 -28.68,19.29l-2 4 -2.76 -3.35c-7.88,-8.86 -16.59,-18.7 -29.11,-20 13.09,-3.53 25.37,7.12 33.47,16.3l-4.77 0.64c5.57,-12.78 20.42,-20.24 33.85,-16.88z"/>
   <path class="fil1" d="M371.6 3975.67c-12.31,1.62 -23.59,7.77 -28.67,19.29l-2 3.99 -2.77 -3.34c-7.88,-8.86 -16.59,-18.7 -29.11,-20 13.09,-3.53 25.37,7.12 33.47,16.29 0,0 -4.76,0.65 -4.76,0.65 5.57,-12.78 20.42,-20.24 33.85,-16.88z"/>
   <path class="fil1" d="M4147.02 3791.16c-12.32,1.62 -23.59,7.77 -28.68,19.29l-2.01 3.99 -2.76 -3.34c-7.88,-8.86 -16.59,-18.7 -29.11,-20 13.09,-3.53 25.37,7.12 33.47,16.3l-4.77 0.64c5.57,-12.78 20.42,-20.24 33.85,-16.88z"/>
   <path class="fil1" d="M4023.24 3843.59c-12.32,1.62 -23.59,7.77 -28.68,19.29l-2 4 -2.76 -3.35c-7.88,-8.86 -16.59,-18.7 -29.11,-20 13.09,-3.53 25.37,7.12 33.47,16.3l-4.77 0.64c5.57,-12.78 20.42,-20.24 33.85,-16.88z"/>
   <path class="fil1" d="M3924.23 3783.01c-12.32,1.62 -23.59,7.77 -28.68,19.29l-2 4 -2.77 -3.35c-7.88,-8.86 -16.59,-18.7 -29.11,-20 13.09,-3.53 25.37,7.12 33.47,16.3l-4.76 0.64c5.57,-12.78 20.42,-20.24 33.85,-16.88z"/>
  </g>
 </g>
</svg>
