<?xml version="1.0" encoding="UTF-8"?>
<!DOCTYPE svg PUBLIC "-//W3C//DTD SVG 1.1//EN" "http://www.w3.org/Graphics/SVG/1.1/DTD/svg11.dtd">
<!-- Creator: CorelDRAW -->
<svg xmlns="http://www.w3.org/2000/svg" xml:space="preserve" width="209.999mm" height="209.999mm" version="1.1" style="shape-rendering:geometricPrecision; text-rendering:geometricPrecision; image-rendering:optimizeQuality; fill-rule:evenodd; clip-rule:evenodd"
viewBox="0 0 11609.09 11609.08"
 xmlns:xlink="http://www.w3.org/1999/xlink"
 xmlns:xodm="http://www.corel.com/coreldraw/odm/2003">
 <defs>
  <style type="text/css">
   <![CDATA[
    .fil0 {fill:none}
    .fil1 {fill:white}
    .fil2 {fill:white;fill-rule:nonzero}
   ]]>
  </style>
 </defs>
 <g id="Layer_x0020_1">
  <metadata id="CorelCorpID_0Corel-Layer"/>
  <rect class="fil0" x="-0" y="0.02" width="11609.09" height="11609.08"/>
  <g id="_2884351985072">
   <path class="fil1" d="M11609.09 10415.56l0 -846.44c-54.04,-30.28 -105.73,-63.68 -150.86,-105.88 -219.46,-205.21 -220.86,-547.12 -350.63,-817.33 -166.84,-347.33 -575.01,-562.95 -958.21,-506.17 -343.46,50.91 -705.91,349.9 -757.34,705.59l-1.19 8.46c-27.85,206.43 11.36,448.11 16.74,656.55 10.73,419.58 72.64,422.19 83.37,841.77 450.03,34.84 874.63,60.28 1318.69,-24.43 361.14,-68.9 503.64,49.34 799.43,87.89z"/>
   <path class="fil1" d="M-0 9584.76l0 1010.64 2247.95 -1.65c645.7,-0.49 1291.4,-0.98 1937.06,-1.47 567.96,-0.37 1288.02,137.81 1612.52,-412.73 168.61,-286.07 183.35,-628.46 164.35,-954.64 -23.48,-401.7 -92.29,-801.09 -204.87,-1189.38 -31.33,-107.93 -66.66,-216.51 -130.1,-311.38 -70.61,-105.6 -172.93,-189.51 -281.16,-262.16 -285.83,-191.81 -628.86,-316.02 -980.63,-322.87 -351.82,-6.86 -710.63,109.89 -960.21,341.81 -329.62,306.29 -465.17,794.2 -875.46,998.25 -479.22,238.28 -1078.91,56.11 -1559.59,332.51 -457.55,263.11 -465.92,811.72 -950.59,774.36 -6.39,-0.49 -12.82,-0.9 -19.26,-1.29z"/>
  </g>
  <g id="_2884351968560">
   <g>
    <g>
     <g>
      <path class="fil2" d="M11586.75 7754.62c-32.7,4.3 -62.62,20.64 -76.13,51.21l-5.33 10.61 -7.34 -8.88c-20.92,-23.53 -44.06,-49.65 -77.3,-53.1 34.76,-9.38 67.37,18.91 88.88,43.27l-12.65 1.71c14.79,-33.93 54.23,-53.74 89.88,-44.82z"/>
     </g>
     <g>
      <path class="fil2" d="M11258.11 7893.82c-32.7,4.3 -62.63,20.64 -76.14,51.21l-5.32 10.6 -7.34 -8.88c-20.92,-23.53 -44.05,-49.65 -77.29,-53.1 34.75,-9.38 67.36,18.91 88.87,43.27l-12.65 1.71c14.78,-33.93 54.22,-53.73 89.88,-44.82z"/>
     </g>
     <g>
      <path class="fil2" d="M10995.21 7732.97c-32.7,4.3 -62.62,20.64 -76.13,51.21l-5.32 10.61 -7.35 -8.88c-20.92,-23.53 -44.05,-49.65 -77.29,-53.1 34.75,-9.38 67.36,18.91 88.87,43.27l-12.65 1.71c14.79,-33.93 54.23,-53.73 89.88,-44.82z"/>
     </g>
    </g>
   </g>
  </g>
  <g id="_2884351974848">
   <g>
    <g>
     <g>
      <path class="fil2" d="M1372.58 8329.28c-32.7,4.3 -62.62,20.64 -76.13,51.21l-5.33 10.61 -7.34 -8.88c-20.92,-23.53 -44.06,-49.65 -77.3,-53.1 34.76,-9.38 67.37,18.91 88.88,43.27l-12.65 1.71c14.79,-33.93 54.23,-53.74 89.88,-44.82z"/>
     </g>
     <g>
      <path class="fil2" d="M1043.94 8468.49c-32.7,4.3 -62.63,20.64 -76.14,51.21l-5.32 10.6 -7.34 -8.88c-20.92,-23.53 -44.05,-49.65 -77.29,-53.1 34.75,-9.38 67.36,18.91 88.87,43.27l-12.65 1.71c14.78,-33.93 54.22,-53.73 89.88,-44.82z"/>
     </g>
     <g>
      <path class="fil2" d="M781.04 8307.64c-32.7,4.3 -62.62,20.64 -76.13,51.21l-5.32 10.61 -7.35 -8.88c-20.92,-23.53 -44.05,-49.65 -77.29,-53.1 34.75,-9.38 67.36,18.91 88.87,43.27l-12.65 1.71c14.79,-33.93 54.23,-53.73 89.88,-44.82z"/>
     </g>
    </g>
   </g>
  </g>
 </g>
</svg>
