<?xml version="1.0" encoding="UTF-8"?>
<!DOCTYPE svg PUBLIC "-//W3C//DTD SVG 1.1//EN" "http://www.w3.org/Graphics/SVG/1.1/DTD/svg11.dtd">
<!-- Creator: CorelDRAW -->
<svg xmlns="http://www.w3.org/2000/svg" xml:space="preserve" width="209.999mm" height="209.999mm" version="1.1" style="shape-rendering:geometricPrecision; text-rendering:geometricPrecision; image-rendering:optimizeQuality; fill-rule:evenodd; clip-rule:evenodd"
viewBox="0 0 11609.09 11609.08"
 xmlns:xlink="http://www.w3.org/1999/xlink"
 xmlns:xodm="http://www.corel.com/coreldraw/odm/2003">
 <defs>
  <style type="text/css">
   <![CDATA[
    .fil0 {fill:none}
    .fil1 {fill:white;fill-rule:nonzero}
   ]]>
  </style>
 </defs>
 <g id="Layer_x0020_1">
  <metadata id="CorelCorpID_0Corel-Layer"/>
  <rect class="fil0" x="-0" y="0.02" width="11609.09" height="11609.08"/>
  <g id="_2884216454336">
   <g>
    <g>
     <path class="fil1" d="M8131.41 6884.47l-1265.5 -0.02c53.24,-71.33 105.79,-137.25 205.12,-134.7 32.75,0.86 67,9.42 97.3,-2.98 19.67,-8.04 34.82,-23.95 49.33,-39.42 140.47,-149.61 321.88,-354.27 527.42,-157.15 38.72,37.13 66.55,90.53 117.84,107.01 17.15,5.67 35.28,6.43 53.2,8.91 109.07,15.89 198.69,111.35 215.28,218.36z"/>
    </g>
    <g>
     <path class="fil1" d="M6156.06 6044.13c20.44,-56.9 77.73,-98.64 138.36,-100.84 11.36,-0.4 23.11,0.39 33.68,-3.77 15.26,-5.99 24.77,-20.81 34.04,-34.28 31.97,-46.44 75.28,-87.91 129.47,-103.89 54.18,-15.98 120.05,-0.71 151.44,46.12 20.68,30.86 28.61,75.17 63.33,88.68 7.89,3.08 16.42,4.09 24.56,6.42 40.22,11.55 89.46,62.1 75.84,101.55l-650.72 0z"/>
    </g>
    <g>
     <path class="fil1" d="M9522.69 7020.59c24.22,-67.26 92.12,-116.62 163.99,-119.19 13.46,-0.49 27.4,0.45 39.92,-4.46 18.09,-7.07 29.34,-24.6 40.34,-40.53 37.88,-54.88 89.21,-103.9 153.45,-122.79 64.22,-18.89 142.28,-0.83 179.46,54.5 24.55,36.49 33.93,88.89 75.08,104.84 9.35,3.64 19.46,4.84 29.12,7.58 47.67,13.65 106.01,73.43 89.89,120.04l-771.24 0z"/>
    </g>
    <g>
     <path class="fil1" d="M3919.08 6846.37c20.89,-57.97 79.41,-100.52 141.36,-102.74 11.59,-0.41 23.59,0.4 34.4,-3.84 15.6,-6.09 25.3,-21.2 34.76,-34.93 32.66,-47.29 76.91,-89.57 132.27,-105.84 55.36,-16.27 122.61,-0.71 154.69,46.98 21.14,31.46 29.22,76.6 64.69,90.37 8.06,3.13 16.77,4.15 25.1,6.53 41.1,11.76 91.39,63.28 77.47,103.46l-664.73 0z"/>
    </g>
   </g>
  </g>
 </g>
</svg>
