<?xml version="1.0" encoding="UTF-8"?>
<!DOCTYPE svg PUBLIC "-//W3C//DTD SVG 1.1//EN" "http://www.w3.org/Graphics/SVG/1.1/DTD/svg11.dtd">
<!-- Creator: CorelDRAW -->
<svg xmlns="http://www.w3.org/2000/svg" xml:space="preserve" width="198.21mm" height="241.509mm" version="1.1" style="shape-rendering:geometricPrecision; text-rendering:geometricPrecision; image-rendering:optimizeQuality; fill-rule:evenodd; clip-rule:evenodd"
viewBox="0 0 3822.13 4657.07"
 xmlns:xlink="http://www.w3.org/1999/xlink"
 xmlns:xodm="http://www.corel.com/coreldraw/odm/2003">
 <defs>
  <style type="text/css">
   <![CDATA[
    .fil0 {fill:none}
    .fil1 {fill:white;fill-rule:nonzero}
   ]]>
  </style>
 </defs>
 <g id="Layer_x0020_1">
  <metadata id="CorelCorpID_0Corel-Layer"/>
  <rect class="fil0" x="-0" y="-0" width="3822.13" height="4657.07"/>
  <g id="_1432770265936">
   <path class="fil1" d="M2488.21 3253.62l-732.75 -0.01c30.82,-41.3 61.26,-79.47 118.77,-77.99 18.96,0.5 38.79,5.46 56.34,-1.73 11.39,-4.65 20.16,-13.87 28.57,-22.83 81.33,-86.63 186.37,-205.13 305.39,-91 22.42,21.5 38.53,52.42 68.23,61.96 9.93,3.29 20.42,3.73 30.8,5.16 63.15,9.2 115.05,64.48 124.65,126.43z"/>
   <path class="fil1" d="M1344.43 2767.05c11.83,-32.95 45,-57.12 80.11,-58.39 6.58,-0.23 13.38,0.23 19.5,-2.18 8.84,-3.47 14.34,-12.05 19.71,-19.85 18.51,-26.89 43.59,-50.91 74.97,-60.15 31.37,-9.25 69.51,-0.41 87.68,26.7 11.97,17.87 16.57,43.53 36.67,51.35 4.57,1.78 9.51,2.37 14.22,3.72 23.29,6.69 51.8,35.96 43.91,58.8l-376.78 0z"/>
   <path class="fil1" d="M3293.8 3332.44c14.02,-38.94 53.34,-67.53 94.95,-69.01 7.79,-0.28 15.87,0.26 23.12,-2.58 10.47,-4.1 16.99,-14.24 23.36,-23.47 21.93,-31.77 51.65,-60.16 88.85,-71.1 37.18,-10.94 82.38,-0.48 103.91,31.55 14.22,21.13 19.64,51.47 43.47,60.71 5.42,2.11 11.27,2.8 16.87,4.39 27.6,7.91 61.38,42.51 52.04,69.51l-446.57 0z"/>
   <path class="fil1" d="M49.16 3231.57c12.09,-33.56 45.98,-58.2 81.85,-59.48 6.71,-0.24 13.66,0.23 19.92,-2.22 9.03,-3.53 14.65,-12.28 20.13,-20.22 18.91,-27.38 44.53,-51.86 76.59,-61.29 32.05,-9.42 71,-0.41 89.57,27.2 12.24,18.21 16.92,44.36 37.46,52.33 4.66,1.81 9.71,2.4 14.53,3.78 23.8,6.81 52.91,36.64 44.86,59.91l-384.9 0z"/>
   <path class="fil1" d="M2435.63 3211.43c1.2,-13.55 3.11,-26.88 5.65,-39.94l-10.41 -1.99c-2.61,13.42 -4.55,27.09 -5.79,41l10.55 0.93z"/>
  </g>
 </g>
</svg>
