<?xml version="1.0" encoding="UTF-8"?>
<!DOCTYPE svg PUBLIC "-//W3C//DTD SVG 1.1//EN" "http://www.w3.org/Graphics/SVG/1.1/DTD/svg11.dtd">
<!-- Creator: CorelDRAW -->
<svg xmlns="http://www.w3.org/2000/svg" xml:space="preserve" width="209.999mm" height="209.999mm" version="1.1" style="shape-rendering:geometricPrecision; text-rendering:geometricPrecision; image-rendering:optimizeQuality; fill-rule:evenodd; clip-rule:evenodd"
viewBox="0 0 11609.09 11609.08"
 xmlns:xlink="http://www.w3.org/1999/xlink"
 xmlns:xodm="http://www.corel.com/coreldraw/odm/2003">
 <defs>
  <style type="text/css">
   <![CDATA[
    .fil0 {fill:none}
    .fil1 {fill:#90E463}
    .fil5 {fill:white}
    .fil2 {fill:#31AE4A;fill-rule:nonzero}
    .fil3 {fill:#78CA5A;fill-rule:nonzero}
    .fil4 {fill:#90E463;fill-rule:nonzero}
    .fil6 {fill:white;fill-rule:nonzero}
   ]]>
  </style>
 </defs>
 <g id="Layer_x0020_1">
  <metadata id="CorelCorpID_0Corel-Layer"/>
  <rect class="fil0" x="-0" y="0.02" width="11609.09" height="11609.08"/>
  <g id="_2920229587120">
   <g>
    <g>
     <rect class="fil1" x="-0" y="10226.11" width="11609.08" height="1382.97"/>
    </g>
    <g>
     <path class="fil2" d="M6938.07 8948.19c-538.89,340.09 -1023.1,774.42 -1434.59,1282.67l-644.51 0c532.86,-621.84 1255.19,-1079.16 2079.1,-1282.67z"/>
    </g>
    <g>
     <path class="fil2" d="M8689.15 8904.91c-614.67,319.11 -1161.96,772.4 -1610.96,1325.97l-787.4 0c471.47,-581.55 1043.58,-1059.49 1686.45,-1400.25l0.29 0c243.14,3.68 480.9,29.32 711.61,74.28z"/>
    </g>
    <g>
     <path class="fil2" d="M9735.44 9266.32c-406.1,255.44 -771.3,581.87 -1081.82,964.56l-787.4 0.02c390.06,-480.96 859.83,-879.99 1385.96,-1172.11 166.35,58.63 327.67,127.93 483.26,207.53z"/>
    </g>
    <g>
     <path class="fil2" d="M10586.21 9848.2c-126.8,117.95 -246.46,246.14 -357.51,382.71l-787.69 0.01c216.97,-266.78 463.09,-504.27 732.71,-705.81 144.56,98.93 282.37,206.52 412.49,323.09z"/>
    </g>
    <g>
     <path class="fil3" d="M7977.31 8830.63c-642.88,340.72 -1214.95,818.7 -1686.42,1400.25l-787.39 0c411.45,-508.25 895.7,-942.58 1434.59,-1282.67l0.32 0c311.2,-77.29 636.82,-118.26 972.49,-118.26 22.15,0 44.3,0.35 66.42,0.67z"/>
    </g>
    <g>
     <path class="fil3" d="M9252.22 9058.78c-526.14,292.12 -995.96,691.14 -1385.98,1172.09l-788.01 0c449,-553.57 996.29,-1006.85 1610.96,-1325.97l0.32 0c192.85,37.96 380.65,89.25 562.71,153.88z"/>
    </g>
    <g>
     <path class="fil3" d="M10173.75 9525.09c-269.61,201.53 -515.78,439.02 -732.72,705.8l-787.38 -0.01c310.52,-382.66 675.68,-709.11 1081.82,-964.58 151.85,76.94 298.41,163.54 438.27,258.79z"/>
    </g>
    <g>
     <path class="fil3" d="M10962.11 10230.92l-733.38 0c111.01,-136.58 230.71,-264.78 357.47,-382.71 133.8,118.57 259.23,246.81 375.91,382.71z"/>
    </g>
    <g>
     <path class="fil2" d="M6710.9 10428.9l-4360.23 0c524.62,-612.32 1306.74,-1000.72 2180.32,-1000.72 873.17,0 1655.28,388.4 2179.9,1000.72z"/>
    </g>
    <g>
     <path class="fil4" d="M9558.09 8383.66c0,0 -468.37,1505.56 0,1505.56 468.41,0 0,-1505.56 0,-1505.56z"/>
    </g>
    <g>
     <rect class="fil5" x="9540.79" y="8726.14" width="34.67" height="1350.46"/>
    </g>
    <g>
     <path class="fil4" d="M7224.86 8186.02c0,0 -468.37,1505.57 0,1505.57 468.41,0 0,-1505.57 0,-1505.57z"/>
    </g>
    <g>
     <rect class="fil5" x="7207.53" y="8528.55" width="34.67" height="1350.46"/>
    </g>
    <g>
     <path class="fil4" d="M6916.07 8063.46c0,0 -339.41,1090.87 0,1090.87 339.37,0 0,-1090.87 0,-1090.87z"/>
    </g>
    <g>
     <rect class="fil5" x="6903.52" y="8311.59" width="25.1" height="978.5"/>
    </g>
    <g>
     <path class="fil2" d="M6880.64 9654.72c416.54,262.86 790.81,598.59 1108.87,991.48l498.19 0c-411.88,-480.66 -970.2,-834.18 -1607.06,-991.48z"/>
    </g>
    <g>
     <path class="fil2" d="M5527.1 9621.2c475.1,246.64 898.14,597.06 1245.24,1024.96l608.59 0c-364.42,-449.55 -806.65,-819.02 -1303.56,-1082.36l-0.25 0c-187.92,2.81 -371.69,22.64 -550.02,57.4z"/>
    </g>
    <g>
     <path class="fil2" d="M4718.35 9900.56c313.91,197.45 596.2,449.76 836.21,745.63l608.62 -0.02c-301.5,-371.77 -664.61,-680.2 -1071.3,-906 -128.59,45.31 -253.26,98.86 -373.53,160.39z"/>
    </g>
    <g>
     <path class="fil2" d="M4060.79 10350.4c97.94,91.13 190.49,190.25 276.3,295.82l608.86 0c-167.69,-206.22 -357.96,-389.79 -566.34,-545.56 -111.71,76.47 -218.25,159.63 -318.82,249.74z"/>
    </g>
    <g>
     <path class="fil3" d="M6077.38 9563.87c496.9,263.37 939.11,632.84 1303.56,1082.36l608.62 0c-318.06,-392.88 -692.36,-728.62 -1108.87,-991.48l-0.29 0c-240.53,-59.73 -492.23,-91.39 -751.69,-91.39 -17.1,0 -34.22,0.25 -51.32,0.51z"/>
    </g>
    <g>
     <path class="fil3" d="M5091.86 9740.15c406.69,225.8 769.85,534.23 1071.29,906l609.17 0c-347.1,-427.9 -770.14,-778.32 -1245.25,-1024.95l-0.25 0c-149.07,29.35 -294.2,69.01 -434.96,118.95z"/>
    </g>
    <g>
     <path class="fil3" d="M4379.54 10100.62c208.41,155.76 398.65,339.34 566.35,545.59l608.62 -0.01c-240.01,-295.82 -522.31,-548.16 -836.2,-745.62 -117.41,59.47 -230.68,126.39 -338.77,200.04z"/>
    </g>
    <g>
     <path class="fil3" d="M3762.27 10567.79l566.86 0c-85.77,-105.59 -178.33,-204.69 -276.3,-295.83 -103.41,91.65 -200.35,190.78 -290.56,295.83z"/>
    </g>
    <g>
     <path class="fil3" d="M1739.56 10470.74c0,54.72 -133.45,99.1 -298.06,99.1 -164.63,0 -298.08,-44.37 -298.08,-99.1 0,-54.75 133.45,-99.13 298.08,-99.13 164.61,0 298.06,44.37 298.06,99.13z"/>
    </g>
    <g>
     <path class="fil6" d="M8185.55 9638.79c0,0 21.17,241.03 67.3,324.85 46.15,83.82 45.04,457.65 45.04,457.65l149.92 0c0,0 -77.8,-275.7 -66.66,-433.3 11.14,-157.57 140.22,-501.54 140.22,-501.54l-73.56 9.85 -132.32 434.24c0,0 -59.26,-93.91 -62.65,-209.61 -3.41,-115.7 0,-146.91 0,-146.91l-67.3 64.77z"/>
    </g>
    <g>
     <path class="fil3" d="M8560.93 9572.56c-241.07,104.83 -524.58,101.7 -750.78,-9.03 64.18,88.58 179.16,140.24 268.72,169.9 143.07,47.42 296.93,42.51 442.63,14.38 52.39,-10.09 104.82,-23.21 152.98,-48.55 97.37,-51.27 172.39,-153.79 198.67,-271.45 15.5,-69.35 13.73,-143.12 -3.38,-211.97 -53.37,165.15 -159.21,302.5 -308.84,356.72z"/>
    </g>
    <g>
     <path class="fil4" d="M8560.93 9572.58c149.64,-54.22 255.47,-191.57 308.84,-356.72 -11.91,-47.95 -31.2,-93.49 -57.54,-133.44 -41.35,-62.67 -98.69,-112.34 -129.81,-182.15 -64.69,-145.13 -99.13,-288.67 -246.16,-359.92 -99.76,-48.34 -202.47,-14.4 -285.5,61.49 -83.29,76.13 -137.81,191.17 -147.7,311.68 -2.61,31.63 -2.35,64.07 -11.33,94.17 -15.17,50.87 -53.93,87.18 -89.06,123.3 -81.93,84.24 -157.64,200.23 -138.4,323.45 6.51,41.54 23.04,77.59 45.85,109.1 226.2,110.73 509.71,113.86 750.78,9.03z"/>
    </g>
    <g>
     <path class="fil3" d="M9892.07 10920.14c0,54.73 -133.45,99.1 -298.06,99.1 -164.61,0 -298.08,-44.37 -298.08,-99.1 0,-54.75 133.47,-99.12 298.08,-99.12 164.61,0 298.06,44.37 298.06,99.12z"/>
    </g>
    <g>
     <path class="fil3" d="M9333.24 10583.03c0,34.95 -85.17,63.25 -190.26,63.25 -105.05,0 -190.22,-28.3 -190.22,-63.25 0,-34.93 85.17,-63.25 190.22,-63.25 105.08,0 190.26,28.32 190.26,63.25z"/>
    </g>
    <g>
     <path class="fil4" d="M1798.68 9032.02c0,0 -384.45,1352.38 0,1352.38 384.46,0 0,-1352.38 0,-1352.38z"/>
    </g>
    <g>
     <rect class="fil5" x="1784.43" y="9339.64" width="28.49" height="1213.07"/>
    </g>
    <g>
     <path class="fil3" d="M9142.92 10336.51c-236.13,0 -282.77,-333.31 -254.08,-732.42l165.44 23.17 -161 -78.69c23.42,-267 77.43,-557.39 129.15,-794.36l67.53 22.48 -61 -52.06c59.3,-267.25 113.96,-459.24 113.96,-459.24 0,0 117.75,413.8 195.2,871.66l-117.55 64.92 128.08 0c25.98,162.85 46.01,329.17 52.98,482.16l-154.9 98.42 157.64 -20.44c5.27,325.27 -57.4,574.39 -261.45,574.39z"/>
    </g>
    <g>
     <path class="fil6" d="M9121.15 8760.27l0 1834.15 43.62 0 0 -1834.15c0,-13.08 -9.77,-23.7 -21.82,-23.7 -12.03,0 -21.8,10.62 -21.8,23.7z"/>
    </g>
    <g>
     <path class="fil2" d="M9848.2 9978.67l129.35 -28.21c-9.91,379.39 -103.4,656.03 -353.87,656.03 -220.96,0 -319.7,-215.38 -346.93,-526.65l205.11 49.55 -210.4 -131.7c-9.28,-200.47 6.55,-433.51 36.08,-671.4l262.5 63.32 -250.25 -156.45c38.82,-281.67 94.53,-564.97 147.49,-804.44l126.83 7.79 -112.04 -73.4c75.31,-332.14 141.6,-565.43 141.6,-565.43 0,0 138.63,487.21 242.66,1056.1l0 0.22c-74.29,51.16 -157.86,108.95 -157.86,108.95l172.41 -26.14c39.04,223.2 71.33,455.56 87.16,673.72l-190.97 145.63 197.31 -40.83c2.74,57.58 4.21,113.79 4.21,168.16l-130.41 95.18z"/>
    </g>
    <g>
     <path class="fil6" d="M9594.02 8468.72l0 2487.37 59.16 0 0 -2487.37c0,-17.75 -13.25,-32.15 -29.58,-32.15 -16.35,0 -29.58,14.4 -29.58,32.15z"/>
    </g>
    <g>
     <path class="fil2" d="M1471.6 10316.32c-7.17,0.92 -14.77,1.17 -22.37,1.17 -7.6,0 -14.99,-0.24 -22.16,-1.17 -153,-13.99 -221.56,-175.72 -240.14,-404.19l166.7 18.59 -170.71 -93.58c-6.77,-192.7 16.03,-422.08 50.65,-647.33l150.87 88.09 -143.9 -132.13c78.69,-489.5 208.69,-946.66 208.69,-946.66 0,0 163.34,574.83 234.87,1125.82l-134 228.25 149.6 -93.13c44.33,441.08 14.16,833.79 -228.1,856.28z"/>
    </g>
    <g>
     <path class="fil6" d="M1427.02 8705.18l0 1876.04 44.61 0 0 -1876.04c0,-13.39 -9.99,-24.25 -22.31,-24.25 -12.32,0 -22.31,10.86 -22.31,24.25z"/>
    </g>
    <g>
     <path class="fil4" d="M4317.17 8647.73c0,0 -415.92,1463.07 0,1463.07 415.91,0 0,-1463.07 0,-1463.07z"/>
    </g>
    <g>
     <rect class="fil5" x="4301.78" y="8980.57" width="30.82" height="1312.34"/>
    </g>
    <g>
     <path class="fil6" d="M3557.92 9397.47c8.29,127.65 -18.94,257.75 -77.15,368.96 -55.77,106.53 -137.93,193.96 -198.57,297.29 -90.68,154.55 -130.02,343.92 -109.24,525.86 -57.9,1.65 -115.8,3.3 -173.69,4.93 63.33,-294.93 120.79,-603.66 54.5,-897.81 18.35,0.31 36.73,0.61 55.1,0.92 20.6,113.65 30.49,229.56 29.5,345.38 145.69,-70.38 257.11,-219.28 290.89,-388.63 2.92,-14.62 -4.39,-37.77 -16.32,-30.37l144.98 -226.53z"/>
    </g>
    <g>
     <path class="fil4" d="M2752.8 9730.72c316.54,68.82 654.17,68.82 949.59,-68.81 99.64,-54.13 185.09,-133.88 234.31,-229.47 -47.04,-65.83 -129.75,-88.51 -186.33,-144.93 -111.57,-111.26 -106.87,-300.54 -231.59,-403.15 -104.6,-86.05 -249.19,-98.09 -370.59,-62.28 -140.32,41.38 -231.96,144.11 -315.04,267.13 -75.59,111.95 -191.8,148.08 -272.37,249.23 -45.06,56.55 -61.19,134.38 -52.25,209.09 57.78,90.09 159.06,160.06 244.27,183.2z"/>
    </g>
    <g>
     <path class="fil3" d="M3936.69 9432.4c-49.19,95.63 -134.67,175.35 -234.28,229.5 -295.42,137.61 -633.07,137.61 -949.62,68.79 -85.21,-23.14 -186.49,-93.08 -244.25,-183.2 3.99,33.35 12.95,66.07 26.62,95.97 44.26,96.94 130.33,165.89 223.85,203.04 141.5,56.25 316.46,62.99 465.96,71.05 165.4,8.96 333.92,-3.9 490.91,-64.79 81.63,-31.67 162.08,-78.62 212.26,-155.46 50.16,-76.81 62.08,-188.86 9.5,-263.77l-0.95 -1.14z"/>
    </g>
    <g>
     <path class="fil6" d="M6679.92 10730.69l-492.17 0c3.06,-34.58 12.22,-67.28 26.3,-96.73l106.42 52.06 -94.61 -74.13c19.11,-32.42 44.55,-60.05 74.4,-80.84l68.15 102.82 -47.85 -115.59c30.69,-17.29 65.11,-27.71 101.54,-29.51l11.75 126.04 11.73 -126.04c36.43,1.81 70.93,12.22 101.62,29.51l-47.87 115.59 68.17 -102.82c29.85,20.88 55.19,48.43 74.4,80.84l-94.61 74.13 106.35 -52.06c14.08,29.44 23.23,62.15 26.29,96.73z"/>
    </g>
    <g>
     <path class="fil3" d="M7108.61 10778.11l-622.06 0c3.87,-43.69 15.43,-85.01 33.25,-122.23l134.51 65.78 -119.6 -93.66c24.17,-41.01 56.32,-75.93 94.03,-102.21l86.16 129.98 -60.49 -146.1c38.8,-21.87 82.3,-35.04 128.35,-37.33l14.83 159.33 14.83 -159.33c46.07,2.29 89.65,15.46 128.47,37.33l-60.52 146.1 86.16 -129.98c37.72,26.39 69.75,61.2 94.03,102.21l-119.57 93.66 134.4 -65.78c17.81,37.22 29.36,78.53 33.23,122.23z"/>
    </g>
    <g>
     <path class="fil3" d="M2945.02 10457.76l-593.11 0c3.69,-41.69 14.69,-81.07 31.69,-116.54l128.26 62.72 -114.05 -89.32c23.06,-39.07 53.69,-72.39 89.65,-97.45l82.15 123.97 -57.68 -139.32c36.99,-20.84 78.47,-33.43 122.39,-35.59l14.12 151.89 14.14 -151.89c43.92,2.16 85.48,14.75 122.47,35.59l-57.68 139.32 82.15 -123.97c35.96,25.18 66.51,58.38 89.65,97.45l-114.02 89.32 128.16 -62.72c16.98,35.47 27.98,74.85 31.69,116.54z"/>
    </g>
    <g>
     <path class="fil3" d="M3944.62 10783.17l-57.01 0c-13.82,0 -24.98,-12.16 -24.98,-27.15l0 -2.27c0,-15 11.16,-27.13 24.98,-27.13l57.01 0c13.8,0 24.98,12.13 24.98,27.13l0 2.27c0,15 -11.18,27.15 -24.98,27.15z"/>
    </g>
    <g>
     <path class="fil3" d="M4496.68 10783.17l-433.6 0c-13.8,0 -24.98,-12.16 -24.98,-27.15l0 -2.27c0,-15 11.18,-27.13 24.98,-27.13l433.6 0c13.8,0 24.98,12.13 24.98,27.13l0 2.27c0,15 -11.18,27.15 -24.98,27.15z"/>
    </g>
   </g>
  </g>
 </g>
</svg>
