<?xml version="1.0" encoding="UTF-8"?>
<!DOCTYPE svg PUBLIC "-//W3C//DTD SVG 1.1//EN" "http://www.w3.org/Graphics/SVG/1.1/DTD/svg11.dtd">
<!-- Creator: CorelDRAW -->
<svg xmlns="http://www.w3.org/2000/svg" xml:space="preserve" width="198.21mm" height="241.509mm" version="1.1" style="shape-rendering:geometricPrecision; text-rendering:geometricPrecision; image-rendering:optimizeQuality; fill-rule:evenodd; clip-rule:evenodd"
viewBox="0 0 3822.13 4657.07"
 xmlns:xlink="http://www.w3.org/1999/xlink"
 xmlns:xodm="http://www.corel.com/coreldraw/odm/2003">
 <defs>
  <style type="text/css">
   <![CDATA[
    .fil0 {fill:none}
    .fil1 {fill:#78CA5A}
    .fil3 {fill:#90E463}
    .fil6 {fill:white}
    .fil4 {fill:#31AE4A;fill-rule:nonzero}
    .fil2 {fill:#78CA5A;fill-rule:nonzero}
    .fil5 {fill:#90E463;fill-rule:nonzero}
    .fil7 {fill:white;fill-rule:nonzero}
   ]]>
  </style>
 </defs>
 <g id="Layer_x0020_1">
  <metadata id="CorelCorpID_0Corel-Layer"/>
  <rect class="fil0" x="-0" y="-0" width="3822.13" height="4657.07"/>
  <g id="_1432560551632">
   <polygon class="fil1" points="829.99,4141.85 812.41,4136.47 813.11,4145.37 824.36,4172.68 918.41,4242.64 1168.3,4226.79 1283.28,4149.84 1283.62,4107.86 1268.88,4099.79 1257.31,4124.64 1219.52,4149.15 1100.49,4178.13 993.4,4189.94 "/>
   <path class="fil2" d="M2916.61 3978.71c-144.97,80.49 -274.41,190.43 -381.87,322.94l-217.12 0c123.71,-152.52 274.5,-277.42 443.86,-365.34l0.09 0c53.13,10.46 104.88,24.59 155.04,42.4z"/>
   <rect class="fil3" x="0" y="4350.19" width="3822.12" height="306.89"/>
   <path class="fil4" d="M2271.46 3950.58c-177.42,111.97 -336.84,254.96 -472.31,422.3l-212.2 0c175.44,-204.73 413.25,-355.3 684.51,-422.3z"/>
   <path class="fil4" d="M2848 3933.81c-202.37,105.06 -382.56,254.3 -530.38,436.55l-259.24 0c155.22,-191.47 343.58,-348.82 555.24,-461.01l0.1 0c80.05,1.21 158.33,9.65 234.29,24.46z"/>
   <path class="fil4" d="M3192.46 4055.31c-133.7,84.1 -253.94,191.57 -356.17,317.57l-259.24 0.01c128.42,-158.35 283.08,-289.72 456.3,-385.9 54.77,19.3 107.88,42.12 159.11,68.32z"/>
   <path class="fil4" d="M3472.57 4246.87c-41.75,38.83 -81.14,81.04 -117.7,126l-259.34 0c71.44,-87.84 152.47,-166.02 241.24,-232.38 47.59,32.57 92.96,67.99 135.8,106.38z"/>
   <path class="fil2" d="M2613.61 3911.87c-211.66,112.18 -400.01,269.54 -555.23,461.01l-259.24 0c135.46,-167.34 294.89,-310.33 472.31,-422.3l0.11 0c102.46,-25.45 209.66,-38.93 320.18,-38.93 7.29,0 14.58,0.12 21.87,0.22z"/>
   <path class="fil2" d="M3033.37 3986.98c-173.22,96.18 -327.91,227.55 -456.31,385.89l-259.44 0c147.83,-182.26 328.01,-331.49 530.38,-436.56l0.11 0c63.49,12.5 125.32,29.38 185.26,50.66z"/>
   <path class="fil2" d="M3336.77 4140.5c-88.76,66.35 -169.81,144.54 -241.24,232.37l-259.23 -0c102.24,-125.99 222.46,-233.46 356.17,-317.57 50,25.33 98.25,53.84 144.29,85.2z"/>
   <path class="fil2" d="M3596.32 4372.88l-241.45 0c36.55,-44.97 75.96,-87.17 117.69,-126 44.05,39.04 85.35,81.26 123.76,126z"/>
   <path class="fil4" d="M2196.69 4435.55l-1435.54 0c172.72,-201.59 430.23,-329.47 717.84,-329.47 287.48,0 544.98,127.88 717.7,329.47z"/>
   <path class="fil5" d="M3134.08 3762.2c0,0 -154.21,495.68 0,495.68 154.22,0 0,-495.68 0,-495.68z"/>
   <rect class="fil6" x="3128.4" y="3874.94" width="11.4" height="444.61"/>
   <path class="fil5" d="M2365.89 3697.14c0,0 -154.21,495.68 0,495.68 154.22,0 0,-495.68 0,-495.68z"/>
   <rect class="fil6" x="2360.19" y="3809.88" width="11.4" height="444.61"/>
   <path class="fil5" d="M2264.23 3656.79c0,0 -111.74,359.15 0,359.15 111.73,0 0,-359.15 0,-359.15z"/>
   <rect class="fil6" x="2260.1" y="3738.49" width="8.27" height="322.16"/>
   <path class="fil4" d="M2252.57 4180.67c137.14,86.54 260.36,197.08 365.08,326.43l164.02 0c-135.6,-158.25 -319.42,-274.64 -529.1,-326.43z"/>
   <path class="fil4" d="M1806.92 4169.65c156.42,81.2 295.7,196.57 409.98,337.45l200.37 0c-119.98,-148.01 -265.58,-269.65 -429.18,-356.35l-0.08 0c-61.87,0.93 -122.37,7.45 -181.09,18.9z"/>
   <path class="fil4" d="M1540.66 4261.62c103.35,65.01 196.29,148.08 275.31,245.48l200.38 -0c-99.26,-122.4 -218.81,-223.95 -352.71,-298.29 -42.34,14.92 -83.38,32.55 -122.98,52.81z"/>
   <path class="fil4" d="M1324.16 4409.71c32.24,30 62.71,62.64 90.97,97.4l200.46 0c-55.21,-67.89 -117.85,-128.33 -186.46,-179.62 -36.78,25.18 -71.86,52.55 -104.96,82.22z"/>
   <path class="fil2" d="M1988.1 4150.75c163.6,86.71 309.19,208.36 429.18,356.35l200.38 0c-104.72,-129.35 -227.95,-239.89 -365.08,-326.43l-0.1 0c-79.19,-19.67 -162.06,-30.09 -247.48,-30.09 -5.63,0 -11.27,0.08 -16.9,0.17z"/>
   <path class="fil2" d="M1663.63 4208.81c133.9,74.34 253.46,175.88 352.71,298.29l200.56 0c-114.28,-140.88 -253.56,-256.25 -409.98,-337.45l-0.08 0c-49.08,9.66 -96.86,22.72 -143.2,39.17z"/>
   <path class="fil2" d="M1429.12 4327.48c68.62,51.28 131.25,111.72 186.46,179.63l200.38 -0c-79.02,-97.39 -171.96,-180.47 -275.3,-245.48 -38.65,19.58 -75.95,41.61 -111.53,65.86z"/>
   <path class="fil2" d="M1225.9 4507.1l189.3 0c-28.64,-43.98 -59.55,-85.25 -92.27,-123.21 -34.53,38.17 -66.91,79.46 -97.03,123.21z"/>
   <path class="fil2" d="M559.93 4449.33c0,18.02 -43.94,32.63 -98.13,32.63 -54.2,0 -98.14,-14.61 -98.14,-32.63 0,-18.02 43.94,-32.63 98.14,-32.63 54.2,0 98.13,14.61 98.13,32.63z"/>
   <path class="fil7" d="M2682.18 4175.43c0,0 6.97,79.36 22.16,106.95 15.2,27.6 14.83,150.68 14.83,150.68l49.36 0c0,0 -25.61,-90.77 -21.95,-142.66 3.67,-51.88 46.17,-165.12 46.17,-165.12l-24.22 3.24 -43.56 142.97c0,0 -19.51,-30.92 -20.63,-69.01 -1.12,-38.09 0,-48.37 0,-48.37l-22.16 21.32z"/>
   <path class="fil2" d="M2805.76 4153.63c-79.37,34.51 -172.71,33.48 -247.18,-2.97 21.13,29.16 58.99,46.17 88.47,55.94 47.11,15.61 97.76,13.99 145.73,4.74 17.25,-3.32 34.51,-7.64 50.37,-15.99 32.06,-16.88 56.76,-50.63 65.41,-89.37 5.1,-22.83 4.52,-47.12 -1.11,-69.79 -17.57,54.37 -52.41,99.59 -101.68,117.44z"/>
   <path class="fil5" d="M2805.76 4153.63c49.27,-17.85 84.11,-63.07 101.68,-117.44 -3.92,-15.79 -10.27,-30.78 -18.94,-43.93 -13.61,-20.63 -32.49,-36.99 -42.74,-59.97 -21.3,-47.78 -32.64,-95.04 -81.04,-118.5 -32.84,-15.91 -66.66,-4.74 -94,20.24 -27.42,25.06 -45.37,62.94 -48.62,102.62 -0.86,10.41 -0.77,21.09 -3.73,31 -5,16.75 -17.76,28.71 -29.32,40.6 -26.97,27.74 -51.9,65.92 -45.56,106.49 2.14,13.68 7.58,25.54 15.09,35.92 74.47,36.45 167.82,37.48 247.18,2.97z"/>
   <path class="fil2" d="M3244.03 4597.3c0,18.02 -43.94,32.63 -98.13,32.63 -54.2,0 -98.14,-14.61 -98.14,-32.63 0,-18.02 43.94,-32.63 98.14,-32.63 54.2,0 98.13,14.61 98.13,32.63z"/>
   <path class="fil2" d="M3060.03 4486.31c0,11.51 -28.04,20.82 -62.64,20.82 -34.59,0 -62.63,-9.32 -62.63,-20.82 0,-11.5 28.04,-20.82 62.63,-20.82 34.6,0 62.64,9.32 62.64,20.82z"/>
   <path class="fil5" d="M579.39 3975.66c0,0 -126.57,445.25 0,445.25 126.58,0 0,-445.25 0,-445.25z"/>
   <rect class="fil6" x="574.71" y="4076.92" width="9.39" height="399.39"/>
   <path class="fil2" d="M2997.39 4405.15c-77.74,0 -93.1,-109.74 -83.65,-241.14l54.47 7.63 -53.01 -25.91c7.71,-87.91 25.49,-183.51 42.52,-261.53l22.23 7.4 -20.09 -17.14c19.52,-87.99 37.52,-151.2 37.52,-151.2 0,0 38.77,136.24 64.27,286.98l-38.7 21.38 42.17 0c8.55,53.62 15.15,108.38 17.44,158.75l-51 32.4 51.9 -6.73c1.73,107.09 -18.9,189.11 -86.08,189.11z"/>
   <path class="fil7" d="M2990.22 3886.18l0 603.87 14.36 0 0 -603.87c0,-4.31 -3.22,-7.8 -7.18,-7.8 -3.96,0 -7.18,3.49 -7.18,7.8z"/>
   <path class="fil4" d="M3229.57 4287.33l42.59 -9.29c-3.26,124.91 -34.04,215.99 -116.51,215.99 -72.74,0 -105.26,-70.91 -114.22,-173.39l67.53 16.31 -69.27 -43.36c-3.06,-66 2.15,-142.73 11.88,-221.05l86.43 20.85 -82.39 -51.51c12.78,-92.74 31.12,-186.01 48.56,-264.85l41.76 2.57 -36.89 -24.17c24.79,-109.36 46.62,-186.16 46.62,-186.16 0,0 45.65,160.41 79.9,347.7l0 0.07c-24.46,16.84 -51.97,35.87 -51.97,35.87l56.76 -8.61c12.85,73.48 23.49,149.99 28.7,221.81l-62.87 47.95 64.96 -13.44c0.9,18.96 1.39,37.47 1.39,55.37l-42.94 31.34z"/>
   <path class="fil7" d="M3145.9 3790.2l0 818.93 19.48 0 0 -818.93c0,-5.84 -4.36,-10.59 -9.74,-10.59 -5.38,0 -9.74,4.74 -9.74,10.59z"/>
   <path class="fil4" d="M471.72 4398.5c-2.36,0.3 -4.86,0.39 -7.36,0.39 -2.5,0 -4.93,-0.08 -7.3,-0.39 -50.37,-4.6 -72.94,-57.85 -79.06,-133.07l54.88 6.12 -56.2 -30.81c-2.23,-63.44 5.28,-138.96 16.68,-213.12l49.67 29 -47.38 -43.5c25.91,-161.16 68.71,-311.68 68.71,-311.68 0,0 53.78,189.26 77.33,370.66l-44.12 75.14 49.25 -30.66c14.59,145.22 4.66,274.51 -75.1,281.92z"/>
   <path class="fil7" d="M457.04 3868.06l0 617.66 14.69 0 0 -617.66c0,-4.41 -3.29,-7.98 -7.34,-7.98 -4.06,0 -7.34,3.58 -7.34,7.98z"/>
   <path class="fil5" d="M1408.58 3849.14c0,0 -136.93,481.69 0,481.69 136.93,0 0,-481.69 0,-481.69z"/>
   <rect class="fil6" x="1403.49" y="3958.71" width="10.15" height="432.08"/>
   <path class="fil7" d="M1158.6 4095.99c2.73,42.02 -6.24,84.86 -25.4,121.48 -18.36,35.07 -45.41,63.86 -65.37,97.88 -29.86,50.88 -42.81,113.23 -35.97,173.13 -19.06,0.54 -38.13,1.09 -57.18,1.63 20.85,-97.1 39.77,-198.75 17.94,-295.59 6.04,0.1 12.09,0.2 18.14,0.3 6.78,37.42 10.04,75.58 9.71,113.71 47.97,-23.17 84.65,-72.19 95.77,-127.95 0.96,-4.82 -1.45,-12.43 -5.38,-10l47.73 -74.58z"/>
   <path class="fil5" d="M893.54 4205.69c104.21,22.66 215.37,22.66 312.64,-22.66 32.8,-17.82 60.94,-44.08 77.14,-75.55 -15.49,-21.67 -42.71,-29.14 -61.35,-47.72 -36.73,-36.63 -35.18,-98.95 -76.25,-132.73 -34.44,-28.33 -82.04,-32.29 -122.01,-20.51 -46.2,13.63 -76.37,47.45 -103.72,87.95 -24.89,36.85 -63.15,48.75 -89.67,82.05 -15.21,19.09 -20.05,44.98 -17.2,68.84 19.02,29.66 52.37,52.7 80.42,60.32z"/>
   <path class="fil2" d="M1283.31 4107.48c-16.2,31.48 -44.34,57.73 -77.13,75.56 -97.26,45.31 -208.43,45.31 -312.64,22.65 -28.06,-7.62 -61.4,-30.65 -80.41,-60.32 1.31,10.98 4.26,21.75 8.76,31.6 14.57,31.92 42.91,54.62 73.7,66.85 46.58,18.52 104.19,20.74 153.41,23.39 54.46,2.95 109.94,-1.28 161.62,-21.33 26.88,-10.43 53.36,-25.89 69.88,-51.18 16.52,-25.29 20.44,-62.18 3.13,-86.84l-0.31 -0.38z"/>
   <path class="fil7" d="M2186.48 4534.93l-162.04 0c1.01,-11.38 4.02,-22.15 8.66,-31.84l35.04 17.14 -31.15 -24.41c6.29,-10.67 14.67,-19.77 24.49,-26.62l22.44 33.85 -15.75 -38.06c10.1,-5.69 21.44,-9.12 33.43,-9.71l3.87 41.5 3.86 -41.5c11.99,0.59 23.35,4.02 33.46,9.71l-15.76 38.06 22.44 -33.85c9.83,6.87 18.17,15.94 24.49,26.62l-31.15 24.41 35.01 -17.14c4.64,9.69 7.65,20.46 8.66,31.84z"/>
   <path class="fil2" d="M2327.61 4550.53l-204.8 0c1.27,-14.39 5.08,-27.99 10.95,-40.24l44.28 21.66 -39.37 -30.84c7.96,-13.5 18.54,-25 30.96,-33.65l28.37 42.79 -19.92 -48.1c12.77,-7.2 27.09,-11.54 42.26,-12.29l4.88 52.46 4.88 -52.46c15.17,0.75 29.52,5.09 42.3,12.29l-19.92 48.1 28.37 -42.79c12.42,8.69 22.97,20.15 30.96,33.65l-39.37 30.84 44.25 -21.66c5.86,12.25 9.66,25.86 10.94,40.24z"/>
   <path class="fil2" d="M956.82 4445.07l-195.27 0c1.21,-13.73 4.84,-26.69 10.43,-38.37l42.23 20.65 -37.55 -29.41c7.59,-12.86 17.68,-23.83 29.52,-32.08l27.05 40.81 -18.99 -45.87c12.18,-6.86 25.83,-11.01 40.29,-11.72l4.65 50.01 4.66 -50.01c14.46,0.71 28.14,4.86 40.32,11.72l-18.99 45.87 27.05 -40.81c11.84,8.29 21.9,19.22 29.52,32.08l-37.54 29.41 42.2 -20.65c5.59,11.68 9.21,24.64 10.43,38.37z"/>
   <path class="fil2" d="M1285.91 4552.21l-18.77 0c-4.55,0 -8.22,-4 -8.22,-8.94l0 -0.75c0,-4.94 3.67,-8.93 8.22,-8.93l18.77 0c4.54,0 8.22,4 8.22,8.93l0 0.75c0,4.94 -3.68,8.94 -8.22,8.94z"/>
   <path class="fil2" d="M1467.68 4552.21l-142.76 0c-4.54,0 -8.22,-4 -8.22,-8.94l0 -0.75c0,-4.94 3.68,-8.93 8.22,-8.93l142.76 0c4.54,0 8.22,4 8.22,8.93l0 0.75c0,4.94 -3.68,8.94 -8.22,8.94z"/>
  </g>
 </g>
</svg>
