<?xml version="1.0" encoding="UTF-8"?>
<!DOCTYPE svg PUBLIC "-//W3C//DTD SVG 1.1//EN" "http://www.w3.org/Graphics/SVG/1.1/DTD/svg11.dtd">
<!-- Creator: CorelDRAW -->
<svg xmlns="http://www.w3.org/2000/svg" xml:space="preserve" width="198.21mm" height="241.509mm" version="1.1" style="shape-rendering:geometricPrecision; text-rendering:geometricPrecision; image-rendering:optimizeQuality; fill-rule:evenodd; clip-rule:evenodd"
viewBox="0 0 3822.13 4657.07"
 xmlns:xlink="http://www.w3.org/1999/xlink"
 xmlns:xodm="http://www.corel.com/coreldraw/odm/2003">
 <defs>
  <style type="text/css">
   <![CDATA[
    .fil0 {fill:none}
    .fil1 {fill:#005983;fill-rule:nonzero}
    .fil2 {fill:#0C6B9A;fill-rule:nonzero}
   ]]>
  </style>
 </defs>
 <g id="Layer_x0020_1">
  <metadata id="CorelCorpID_0Corel-Layer"/>
  <rect class="fil0" x="-0" y="-0" width="3822.13" height="4657.07"/>
  <g id="_1432682978672">
   <path class="fil1" d="M1602.25 3752.96l-335.31 0c-61.74,0 -120.98,24.36 -164.64,67.74l-599.61 595.56 969.79 0 129.77 -663.3z"/>
   <path class="fil1" d="M2722.57 3752.95l335.31 0c61.75,0 120.98,21.97 164.63,61.08l599.61 537.04 -969.78 0 -129.78 -598.12z"/>
   <path class="fil2" d="M3432 4350.72l-2474.64 0 712.34 -707.42c40.63,-40.47 95.83,-63.17 153.36,-63.17l30.25 0c57.52,0 112.73,-22.7 153.36,-63.05l177.86 -176.78c3.31,-3.28 6.62,-6.46 10.15,-9.32 18,-15.79 38.42,-28.4 60.28,-37.28 24.73,-10.2 51.45,-15.91 78.71,-16.34 1.44,-0.11 2.87,-0.11 4.3,-0.11 57.53,0 112.73,22.69 153.36,63.04l503.34 499.95 437.32 510.47z"/>
   <path class="fil1" d="M2333.68 3277.36l0 1073.36 -1157.05 0 1018.06 -1019.74c18,-15.79 38.42,-28.39 60.28,-37.28 24.73,-10.2 51.45,-15.9 78.71,-16.34z"/>
  </g>
 </g>
</svg>
