<?xml version="1.0" encoding="UTF-8"?>
<!DOCTYPE svg PUBLIC "-//W3C//DTD SVG 1.1//EN" "http://www.w3.org/Graphics/SVG/1.1/DTD/svg11.dtd">
<!-- Creator: CorelDRAW -->
<svg xmlns="http://www.w3.org/2000/svg" xml:space="preserve" width="209.999mm" height="209.999mm" version="1.1" style="shape-rendering:geometricPrecision; text-rendering:geometricPrecision; image-rendering:optimizeQuality; fill-rule:evenodd; clip-rule:evenodd"
viewBox="0 0 11609.09 11609.08"
 xmlns:xlink="http://www.w3.org/1999/xlink"
 xmlns:xodm="http://www.corel.com/coreldraw/odm/2003">
 <defs>
  <style type="text/css">
   <![CDATA[
    .fil0 {fill:none}
    .fil1 {fill:#005983;fill-rule:nonzero}
    .fil2 {fill:#0C6B9A;fill-rule:nonzero}
   ]]>
  </style>
 </defs>
 <g id="Layer_x0020_1">
  <metadata id="CorelCorpID_0Corel-Layer"/>
  <rect class="fil0" x="-0" y="0.02" width="11609.09" height="11609.08"/>
  <g id="_2920228937888">
   <g>
    <g>
     <g>
      <path class="fil1" d="M4732.4 8336.2l-1038.72 0c-191.27,0 -374.75,77.04 -510,214.21l-1857.45 1883.33 3004.16 0 402.01 -2097.53z"/>
     </g>
     <g>
      <path class="fil1" d="M8202.92 8336.2l1038.72 0c191.3,0 374.75,69.47 510,193.15l1857.45 1698.25 -3004.12 0 -402.04 -1891.4z"/>
     </g>
     <g>
      <path class="fil2" d="M10400.54 10226.48l-7665.82 0 2206.65 -2237.03c125.85,-127.98 296.87,-199.76 475.06,-199.76l93.71 0c178.2,0 349.21,-71.78 475.07,-199.4l550.98 -559.02c10.25,-10.39 20.53,-20.45 31.46,-29.47 55.76,-49.94 119.03,-89.82 186.74,-117.89 76.6,-32.26 159.38,-50.31 243.84,-51.67 4.47,-0.33 8.9,-0.33 13.33,-0.33 178.2,0 349.2,71.74 475.06,199.36l1559.23 1580.95 1354.69 1614.25z"/>
     </g>
     <g>
      <path class="fil1" d="M6998.2 6832.24l0 3394.23 -3584.27 0 3153.69 -3224.67c55.75,-49.94 119.03,-89.8 186.74,-117.9 76.6,-32.26 159.39,-50.27 243.84,-51.67z"/>
     </g>
    </g>
   </g>
  </g>
 </g>
</svg>
