<?xml version="1.0" encoding="UTF-8"?>
<!DOCTYPE svg PUBLIC "-//W3C//DTD SVG 1.1//EN" "http://www.w3.org/Graphics/SVG/1.1/DTD/svg11.dtd">
<!-- Creator: CorelDRAW -->
<svg xmlns="http://www.w3.org/2000/svg" xml:space="preserve" width="209.999mm" height="209.999mm" version="1.1" style="shape-rendering:geometricPrecision; text-rendering:geometricPrecision; image-rendering:optimizeQuality; fill-rule:evenodd; clip-rule:evenodd"
viewBox="0 0 11609.09 11609.08"
 xmlns:xlink="http://www.w3.org/1999/xlink"
 xmlns:xodm="http://www.corel.com/coreldraw/odm/2003">
 <defs>
  <style type="text/css">
   <![CDATA[
    .fil0 {fill:none}
    .fil1 {fill:#D4F2FF;fill-rule:nonzero}
    .fil2 {fill:white;fill-rule:nonzero}
   ]]>
  </style>
 </defs>
 <g id="Layer_x0020_1">
  <metadata id="CorelCorpID_0Corel-Layer"/>
  <rect class="fil0" x="-0" y="0.02" width="11609.09" height="11609.08"/>
  <g id="_2884219556256">
   <g>
    <g>
     <path class="fil1" d="M9371.25 7985.26l-64.57 0 -7.27 388.51c25.92,-27.88 51.89,-55.76 77.57,-83.75l-5.73 -304.77z"/>
    </g>
    <g>
     <path class="fil2" d="M9299.36 8373.78l-16.92 906.31 113.01 0.02 -18.51 -990.09c-25.67,27.98 -51.64,55.86 -77.57,83.77z"/>
    </g>
    <g>
     <path class="fil1" d="M8666.84 7452.78l-90.64 0 -10.2 545.36c36.37,-39.16 72.82,-78.28 108.84,-117.56l-8 -427.8z"/>
    </g>
    <g>
     <path class="fil2" d="M8565.99 7998.14l-23.77 1272.19 158.63 -0.01 -26.03 -1389.75c-36.01,39.29 -72.47,78.43 -108.83,117.56z"/>
    </g>
   </g>
  </g>
 </g>
</svg>
