<?xml version="1.0" encoding="UTF-8"?>
<!DOCTYPE svg PUBLIC "-//W3C//DTD SVG 1.1//EN" "http://www.w3.org/Graphics/SVG/1.1/DTD/svg11.dtd">
<!-- Creator: CorelDRAW -->
<svg xmlns="http://www.w3.org/2000/svg" xml:space="preserve" width="198.21mm" height="241.509mm" version="1.1" style="shape-rendering:geometricPrecision; text-rendering:geometricPrecision; image-rendering:optimizeQuality; fill-rule:evenodd; clip-rule:evenodd"
viewBox="0 0 3822.13 4657.07"
 xmlns:xlink="http://www.w3.org/1999/xlink"
 xmlns:xodm="http://www.corel.com/coreldraw/odm/2003">
 <defs>
  <style type="text/css">
   <![CDATA[
    .fil0 {fill:none}
    .fil1 {fill:#D4F2FF;fill-rule:nonzero}
    .fil2 {fill:white;fill-rule:nonzero}
   ]]>
  </style>
 </defs>
 <g id="Layer_x0020_1">
  <metadata id="CorelCorpID_0Corel-Layer"/>
  <rect class="fil0" x="-0" y="-0" width="3822.13" height="4657.07"/>
  <g id="_1432765084736">
   <path class="fil1" d="M2969.17 3484.82l-27.38 0 -3.09 164.75c10.99,-11.82 22.01,-23.65 32.89,-35.51l-2.43 -129.23z"/>
   <path class="fil2" d="M2938.7 3649.56l-7.18 384.31 47.92 0.01 -7.85 -419.84c-10.89,11.87 -21.9,23.69 -32.89,35.52z"/>
   <path class="fil1" d="M2670.48 3259.02l-38.44 0 -4.33 231.25c15.42,-16.6 30.88,-33.19 46.15,-49.85l-3.39 -181.4z"/>
   <path class="fil2" d="M2627.72 3490.28l-10.08 539.46 67.27 -0 -11.04 -589.31c-15.27,16.66 -30.73,33.26 -46.15,49.85z"/>
  </g>
 </g>
</svg>
