<?xml version="1.0" encoding="UTF-8"?>
<!DOCTYPE svg PUBLIC "-//W3C//DTD SVG 1.1//EN" "http://www.w3.org/Graphics/SVG/1.1/DTD/svg11.dtd">
<!-- Creator: CorelDRAW -->
<svg xmlns="http://www.w3.org/2000/svg" xml:space="preserve" width="198.21mm" height="241.509mm" version="1.1" style="shape-rendering:geometricPrecision; text-rendering:geometricPrecision; image-rendering:optimizeQuality; fill-rule:evenodd; clip-rule:evenodd"
viewBox="0 0 3822.13 4657.07"
 xmlns:xlink="http://www.w3.org/1999/xlink"
 xmlns:xodm="http://www.corel.com/coreldraw/odm/2003">
 <defs>
  <style type="text/css">
   <![CDATA[
    .fil0 {fill:none}
    .fil2 {fill:#0068B3;fill-rule:nonzero}
    .fil1 {fill:white;fill-rule:nonzero}
   ]]>
  </style>
 </defs>
 <g id="Layer_x0020_1">
  <metadata id="CorelCorpID_0Corel-Layer"/>
  <rect class="fil0" x="-0" y="-0" width="3822.13" height="4657.07"/>
  <g id="_1432678079872">
   <path class="fil1" d="M2857.23 3224.41c-75.73,-6.66 -147.45,6.22 -207.47,33.54l405.77 35.68c-54.25,-37.37 -122.59,-62.57 -198.3,-69.22z"/>
   <path class="fil1" d="M2516.78 3096.27c32.04,68.45 79.15,123.72 132.98,161.68l-171.77 -366.88c-5.46,65.35 6.74,136.74 38.79,205.2z"/>
   <path class="fil1" d="M2575.28 3453.18c43.66,-61.8 68.28,-129.95 74.47,-195.23l-233.99 331.19c59.71,-27.98 115.84,-74.16 159.52,-135.96z"/>
   <path class="fil1" d="M2646.65 3292.71c-19.32,-1.7 -33.6,-18.64 -31.89,-37.84 1.71,-19.19 18.76,-33.38 38.09,-31.68 19.33,1.71 33.6,18.63 31.9,37.84 -1.71,19.2 -18.77,33.39 -38.1,31.68z"/>
   <path class="fil2" d="M2648.25 3274.82c-9.38,-0.83 -16.3,-9.05 -15.47,-18.36 0.82,-9.31 9.11,-16.2 18.48,-15.37 9.38,0.82 16.3,9.05 15.47,18.36 -0.82,9.3 -9.11,16.19 -18.48,15.37z"/>
   <path class="fil1" d="M2275.05 3147.19c32.27,-108.12 110.13,-195.14 209.86,-241.33l-4.48 -9.53c-102.43,47.42 -182.39,136.79 -215.54,247.86l10.16 2.99z"/>
   <path class="fil1" d="M2260.4 3223.71c1.2,-13.55 3.11,-26.88 5.65,-39.94l-10.41 -1.99c-2.61,13.42 -4.55,27.09 -5.79,41l10.55 0.93z"/>
   <path class="fil1" d="M2803.38 3615.03c-47.29,20.12 -99.14,31.18 -153.16,31.18 -11.55,0 -23.21,-0.51 -34.94,-1.54 -68.78,-6.05 -131.82,-29.44 -185.12,-65.45l-5.96 8.71c54.75,36.99 119.51,61.03 190.14,67.23 12.04,1.06 24.01,1.58 35.87,1.58 55.48,0 108.77,-11.37 157.34,-32.04l-4.19 -9.68z"/>
   <path class="fil1" d="M2860.85 3584.73c-9.79,6.24 -19.87,12.06 -30.2,17.43l4.91 9.33c10.62,-5.51 20.98,-11.49 31.03,-17.91l-5.74 -8.85z"/>
   <path class="fil1" d="M2926.76 2984.03c70.83,70.73 113.89,167.95 113.89,273.48 0,11.47 -0.51,23.04 -1.54,34.68l10.56 0.93c1.06,-11.95 1.58,-23.82 1.58,-35.61 0,-108.4 -44.26,-208.29 -116.98,-280.9l-7.51 7.42z"/>
   <path class="fil1" d="M2872.67 2938.96c9.95,6.87 19.55,14.18 28.77,21.91l6.83 -8.05c-9.46,-7.93 -19.33,-15.44 -29.53,-22.49l-6.07 8.64z"/>
  </g>
 </g>
</svg>
