<?xml version="1.0" encoding="UTF-8"?>
<!DOCTYPE svg PUBLIC "-//W3C//DTD SVG 1.1//EN" "http://www.w3.org/Graphics/SVG/1.1/DTD/svg11.dtd">
<!-- Creator: CorelDRAW -->
<svg xmlns="http://www.w3.org/2000/svg" xml:space="preserve" width="209.999mm" height="209.999mm" version="1.1" style="shape-rendering:geometricPrecision; text-rendering:geometricPrecision; image-rendering:optimizeQuality; fill-rule:evenodd; clip-rule:evenodd"
viewBox="0 0 11609.09 11609.08"
 xmlns:xlink="http://www.w3.org/1999/xlink"
 xmlns:xodm="http://www.corel.com/coreldraw/odm/2003">
 <defs>
  <style type="text/css">
   <![CDATA[
    .fil0 {fill:none}
    .fil2 {fill:#0068B3;fill-rule:nonzero}
    .fil1 {fill:white;fill-rule:nonzero}
   ]]>
  </style>
 </defs>
 <g id="Layer_x0020_1">
  <metadata id="CorelCorpID_0Corel-Layer"/>
  <rect class="fil0" x="-0" y="0.02" width="11609.09" height="11609.08"/>
  <g id="_2884464238464">
   <path class="fil1" d="M9469.75 8303.92c-17.16,-123.27 -64.47,-232.98 -130.8,-318.67l92.01 660.58c40.42,-100.35 55.96,-218.67 38.8,-341.92z"/>
   <path class="fil1" d="M9551.4 7713.46c-98.87,76.38 -170.9,171.91 -212.44,271.8l529.97 -409.39c-107.7,15.39 -218.67,61.18 -317.54,137.59z"/>
   <path class="fil1" d="M8995.72 7938.47c116.04,46.86 235.34,61.01 343.19,46.78l-621.93 -251.14c67.29,84.96 162.7,157.47 278.74,204.36z"/>
   <path class="fil1" d="M9333.83 8042.55c-31.85,-2.81 -55.38,-30.7 -52.56,-62.36 2.85,-31.63 30.91,-55.01 62.78,-52.2 31.88,2.81 55.38,30.73 52.58,62.34 -2.85,31.69 -30.93,55.03 -62.81,52.23z"/>
   <path class="fil2" d="M9336.47 8013.06c-15.48,-1.36 -26.88,-14.9 -25.52,-30.27 1.39,-15.35 15.03,-26.67 30.47,-25.32 15.46,1.36 26.88,14.91 25.49,30.24 -1.34,15.36 -15.01,26.73 -30.44,25.35z"/>
   <path class="fil1" d="M9379.89 7346.57c186.74,11.61 356.2,103.72 467.67,245.8l13.81 -10.68c-114.52,-145.92 -288.51,-240.52 -480.4,-252.43l-1.08 17.31z"/>
   <path class="fil1" d="M9250.65 7351.44c22.37,-3.06 44.6,-4.96 66.7,-5.73l-0.65 -17.33c-22.63,0.77 -45.49,2.71 -68.47,5.86l2.42 17.2z"/>
   <path class="fil1" d="M8818.13 8362.12c-49.97,-68.03 -87,-146.65 -106.91,-232.87 -4.27,-18.41 -7.77,-37.19 -10.42,-56.29 -15.59,-111.99 -1.01,-221.19 37.56,-319.52l-16.28 -6.31c-39.63,101.01 -54.61,213.22 -38.58,328.21 2.73,19.58 6.3,38.85 10.67,57.8 20.48,88.51 58.51,169.33 109.86,239.21l14.1 -10.23z"/>
   <path class="fil1" d="M8888.37 8442.63c-13.72,-13.3 -26.87,-27.25 -39.33,-41.75l-13.29 11.28c12.85,14.91 26.34,29.21 40.4,42.88l12.22 -12.41z"/>
   <path class="fil1" d="M9884.15 8326.17c-88.28,139.08 -229.6,243.69 -400.28,282.64 -18.54,4.21 -37.45,7.67 -56.65,10.3l2.4 17.2c19.71,-2.71 39.11,-6.26 58.17,-10.6 175.31,-40 320.5,-147.46 411.14,-290.28l-14.79 -9.26z"/>
   <path class="fil1" d="M9937.09 8223.25c-7.45,18.4 -15.74,36.41 -24.82,53.98l15.55 7.91c9.34,-18.02 17.87,-36.54 25.48,-55.41l-16.21 -6.48z"/>
  </g>
 </g>
</svg>
