<?xml version="1.0" encoding="UTF-8"?>
<!DOCTYPE svg PUBLIC "-//W3C//DTD SVG 1.1//EN" "http://www.w3.org/Graphics/SVG/1.1/DTD/svg11.dtd">
<!-- Creator: CorelDRAW -->
<svg xmlns="http://www.w3.org/2000/svg" xml:space="preserve" width="198.21mm" height="241.509mm" version="1.1" style="shape-rendering:geometricPrecision; text-rendering:geometricPrecision; image-rendering:optimizeQuality; fill-rule:evenodd; clip-rule:evenodd"
viewBox="0 0 3822.13 4657.07"
 xmlns:xlink="http://www.w3.org/1999/xlink"
 xmlns:xodm="http://www.corel.com/coreldraw/odm/2003">
 <defs>
  <style type="text/css">
   <![CDATA[
    .fil0 {fill:none}
    .fil2 {fill:#0068B3;fill-rule:nonzero}
    .fil1 {fill:white;fill-rule:nonzero}
   ]]>
  </style>
 </defs>
 <g id="Layer_x0020_1">
  <metadata id="CorelCorpID_0Corel-Layer"/>
  <rect class="fil0" x="-0" y="-0" width="3822.13" height="4657.07"/>
  <g id="_1432680666112">
   <path class="fil1" d="M3010.95 3621.79c-7.42,-53.28 -27.87,-100.7 -56.54,-137.74l39.77 285.54c17.47,-43.38 24.19,-94.52 16.77,-147.8z"/>
   <path class="fil1" d="M3046.24 3366.56c-42.74,33.02 -73.87,74.31 -91.83,117.49l229.08 -176.96c-46.55,6.65 -94.52,26.45 -137.26,59.47z"/>
   <path class="fil1" d="M2806.06 3463.82c50.16,20.26 101.73,26.37 148.34,20.22l-268.83 -108.56c29.08,36.72 70.33,68.06 120.49,88.33z"/>
   <path class="fil1" d="M2952.2 3508.81c-13.77,-1.21 -23.94,-13.27 -22.72,-26.95 1.23,-13.68 13.36,-23.78 27.14,-22.57 13.78,1.21 23.94,13.28 22.73,26.94 -1.23,13.69 -13.37,23.79 -27.15,22.57z"/>
   <path class="fil2" d="M2953.34 3496.07c-6.69,-0.59 -11.62,-6.44 -11.03,-13.08 0.6,-6.64 6.5,-11.53 13.17,-10.95 6.68,0.59 11.62,6.44 11.02,13.07 -0.58,6.64 -6.49,11.55 -13.16,10.96z"/>
   <path class="fil1" d="M2972.1 3207.97c80.72,5.02 153.97,44.84 202.15,106.25l5.97 -4.62c-49.5,-63.08 -124.71,-103.97 -207.65,-109.11l-0.47 7.48z"/>
   <path class="fil1" d="M2916.25 3210.08c9.67,-1.32 19.28,-2.14 28.83,-2.48l-0.28 -7.49c-9.78,0.34 -19.66,1.17 -29.6,2.53l1.05 7.43z"/>
   <path class="fil1" d="M2729.3 3646.95c-21.6,-29.41 -37.61,-63.39 -46.21,-100.66 -1.85,-7.96 -3.36,-16.08 -4.51,-24.33 -6.74,-48.41 -0.43,-95.61 16.24,-138.11l-7.04 -2.73c-17.13,43.66 -23.61,92.16 -16.67,141.87 1.18,8.47 2.72,16.79 4.61,24.98 8.85,38.26 25.29,73.19 47.49,103.4l6.1 -4.42z"/>
   <path class="fil1" d="M2759.65 3681.75c-5.93,-5.75 -11.61,-11.78 -17,-18.05l-5.74 4.87c5.55,6.45 11.39,12.62 17.46,18.53l5.28 -5.36z"/>
   <path class="fil1" d="M3190.08 3631.41c-38.16,60.12 -99.25,105.34 -173.02,122.17 -8.01,1.82 -16.19,3.32 -24.49,4.45l1.04 7.43c8.52,-1.17 16.91,-2.71 25.14,-4.58 75.78,-17.29 138.54,-63.74 177.72,-125.48l-6.39 -4z"/>
   <path class="fil1" d="M3212.95 3586.92c-3.22,7.95 -6.81,15.74 -10.73,23.33l6.72 3.42c4.04,-7.79 7.72,-15.79 11.01,-23.95l-7.01 -2.8z"/>
  </g>
 </g>
</svg>
