<?xml version="1.0" encoding="UTF-8"?>
<!DOCTYPE svg PUBLIC "-//W3C//DTD SVG 1.1//EN" "http://www.w3.org/Graphics/SVG/1.1/DTD/svg11.dtd">
<!-- Creator: CorelDRAW -->
<svg xmlns="http://www.w3.org/2000/svg" xml:space="preserve" width="209.999mm" height="209.999mm" version="1.1" style="shape-rendering:geometricPrecision; text-rendering:geometricPrecision; image-rendering:optimizeQuality; fill-rule:evenodd; clip-rule:evenodd"
viewBox="0 0 11609.09 11609.08"
 xmlns:xlink="http://www.w3.org/1999/xlink"
 xmlns:xodm="http://www.corel.com/coreldraw/odm/2003">
 <defs>
  <style type="text/css">
   <![CDATA[
    .fil0 {fill:none}
    .fil2 {fill:#0068B3;fill-rule:nonzero}
    .fil1 {fill:white;fill-rule:nonzero}
   ]]>
  </style>
 </defs>
 <g id="Layer_x0020_1">
  <metadata id="CorelCorpID_0Corel-Layer"/>
  <rect class="fil0" x="-0" y="0.02" width="11609.09" height="11609.08"/>
  <g id="_2884213415712">
   <path class="fil1" d="M9093.02 7374.44c-175.19,-15.42 -341.13,14.4 -479.98,77.6l938.74 82.55c-125.51,-86.44 -283.6,-144.75 -458.76,-160.15z"/>
   <path class="fil1" d="M8305.44 7077.99c74.13,158.37 183.1,286.21 307.63,374.05l-397.39 -848.76c-12.63,151.18 15.59,316.34 89.76,474.71z"/>
   <path class="fil1" d="M8440.76 7903.7c101.01,-142.97 157.97,-300.64 172.3,-451.65l-541.33 766.19c138.13,-64.74 268.01,-171.57 369.03,-314.54z"/>
   <path class="fil1" d="M8605.89 7532.45c-44.71,-3.93 -77.74,-43.13 -73.78,-87.55 3.96,-44.4 43.4,-77.22 88.12,-73.28 44.72,3.96 77.74,43.1 73.81,87.53 -3.96,44.42 -43.42,77.24 -88.15,73.3z"/>
   <path class="fil2" d="M8609.62 7491.05c-21.69,-1.91 -37.72,-20.92 -35.79,-42.47 1.9,-21.55 21.07,-37.49 42.75,-35.56 21.7,1.89 37.72,20.93 35.8,42.47 -1.9,21.52 -21.07,37.46 -42.76,35.55z"/>
   <path class="fil1" d="M7746.21 7195.78c74.65,-250.12 254.79,-451.46 485.5,-558.3l-10.35 -22.05c-236.97,109.7 -421.95,316.44 -498.65,573.42l23.51 6.93z"/>
   <path class="fil1" d="M7712.31 7372.82c2.79,-31.34 7.21,-62.18 13.09,-92.4l-24.09 -4.6c-6.03,31.05 -10.53,62.68 -13.39,94.86l24.4 2.14z"/>
   <path class="fil1" d="M8968.49 8278.12c-109.4,46.55 -229.36,72.14 -354.32,72.14 -26.73,0 -53.71,-1.17 -80.83,-3.55 -159.12,-14 -304.96,-68.1 -428.26,-151.43l-13.78 20.14c126.66,85.56 276.49,141.19 439.88,155.54 27.86,2.46 55.54,3.65 82.98,3.65 128.35,0 251.62,-26.3 364.01,-74.12l-9.69 -22.38z"/>
   <path class="fil1" d="M9101.42 8208.02c-22.65,14.43 -45.97,27.9 -69.86,40.33l11.36 21.58c24.56,-12.75 48.53,-26.58 71.78,-41.44l-13.28 -20.47z"/>
   <path class="fil1" d="M9253.91 6818.32c163.86,163.63 263.49,388.54 263.49,632.7 0,26.52 -1.18,53.29 -3.56,80.23l24.42 2.14c2.45,-27.65 3.65,-55.12 3.65,-82.38 0,-250.78 -102.38,-481.88 -270.63,-649.87l-17.39 17.17z"/>
   <path class="fil1" d="M9128.78 6714.07c23.01,15.89 45.23,32.81 66.55,50.68l15.81 -18.62c-21.89,-18.36 -44.72,-35.72 -68.31,-52.04l-14.05 19.98z"/>
  </g>
 </g>
</svg>
