<?xml version="1.0" encoding="UTF-8"?>
<!DOCTYPE svg PUBLIC "-//W3C//DTD SVG 1.1//EN" "http://www.w3.org/Graphics/SVG/1.1/DTD/svg11.dtd">
<!-- Creator: CorelDRAW -->
<svg xmlns="http://www.w3.org/2000/svg" xml:space="preserve" width="285.997mm" height="373.102mm" version="1.1" style="shape-rendering:geometricPrecision; text-rendering:geometricPrecision; image-rendering:optimizeQuality; fill-rule:evenodd; clip-rule:evenodd"
viewBox="0 0 4416.01 5760.96"
 xmlns:xlink="http://www.w3.org/1999/xlink"
 xmlns:xodm="http://www.corel.com/coreldraw/odm/2003">
 <defs>
  <style type="text/css">
   <![CDATA[
    .str1 {stroke:white;stroke-width:14.31;stroke-miterlimit:22.9256}
    .str2 {stroke:white;stroke-width:14.32;stroke-miterlimit:22.9256}
    .str0 {stroke:white;stroke-width:14.33;stroke-miterlimit:22.9256}
    .str3 {stroke:white;stroke-width:14.33;stroke-miterlimit:22.9256}
    .str4 {stroke:white;stroke-width:3.02;stroke-miterlimit:22.9256}
    .fil1 {fill:none;fill-rule:nonzero}
    .fil5 {fill:#5C5112}
    .fil3 {fill:#66980A}
    .fil6 {fill:#86613E}
    .fil4 {fill:#A0C433}
    .fil0 {fill:black;fill-rule:nonzero}
    .fil8 {fill:#66980A;fill-rule:nonzero}
    .fil2 {fill:#78CA5A;fill-rule:nonzero}
    .fil9 {fill:#8B6340;fill-rule:nonzero}
    .fil7 {fill:#A1C533;fill-rule:nonzero}
   ]]>
  </style>
 </defs>
 <g id="Layer_x0020_1">
  <metadata id="CorelCorpID_0Corel-Layer"/>
  <g id="_2739600927440">
   <path class="fil0" d="M251.66 581.94c0,2.32 1.88,4.2 4.2,4.2 2.32,0 4.2,-1.88 4.2,-4.2 0,-2.32 -1.88,-4.2 -4.2,-4.2 -2.32,0 -4.2,1.88 -4.2,4.2z"/>
   <path class="fil0" d="M251.66 519.58c0,2.32 1.88,4.2 4.2,4.2 2.32,0 4.2,-1.88 4.2,-4.2 0,-2.32 -1.88,-4.2 -4.2,-4.2 -2.32,0 -4.2,1.88 -4.2,4.2z"/>
   <path class="fil0" d="M251.66 457.18c0,2.32 1.88,4.2 4.2,4.2 2.32,0 4.2,-1.88 4.2,-4.2 0,-2.32 -1.88,-4.2 -4.2,-4.2 -2.32,0 -4.2,1.88 -4.2,4.2z"/>
   <path class="fil0" d="M251.66 394.79c0,2.32 1.88,4.2 4.2,4.2 2.32,0 4.2,-1.88 4.2,-4.2 0,-2.32 -1.88,-4.2 -4.2,-4.2 -2.32,0 -4.2,1.88 -4.2,4.2z"/>
   <path class="fil0" d="M201.33 581.94c0,2.32 1.88,4.2 4.2,4.2 2.32,0 4.2,-1.88 4.2,-4.2 0,-2.32 -1.88,-4.2 -4.2,-4.2 -2.32,0 -4.2,1.88 -4.2,4.2z"/>
   <path class="fil0" d="M201.33 519.58c0,2.32 1.88,4.2 4.2,4.2 2.32,0 4.2,-1.88 4.2,-4.2 0,-2.32 -1.88,-4.2 -4.2,-4.2 -2.32,0 -4.2,1.88 -4.2,4.2z"/>
   <path class="fil0" d="M201.33 457.18c0,2.32 1.88,4.2 4.2,4.2 2.32,0 4.2,-1.88 4.2,-4.2 0,-2.32 -1.88,-4.2 -4.2,-4.2 -2.32,0 -4.2,1.88 -4.2,4.2z"/>
   <path class="fil0" d="M201.33 394.79c0,2.32 1.88,4.2 4.2,4.2 2.32,0 4.2,-1.88 4.2,-4.2 0,-2.32 -1.88,-4.2 -4.2,-4.2 -2.32,0 -4.2,1.88 -4.2,4.2z"/>
   <path class="fil0" d="M151 581.94c0,2.32 1.88,4.2 4.2,4.2 2.32,0 4.2,-1.88 4.2,-4.2 0,-2.32 -1.88,-4.2 -4.2,-4.2 -2.32,0 -4.2,1.88 -4.2,4.2z"/>
   <path class="fil0" d="M151 519.58c0,2.32 1.88,4.2 4.2,4.2 2.32,0 4.2,-1.88 4.2,-4.2 0,-2.32 -1.88,-4.2 -4.2,-4.2 -2.32,0 -4.2,1.88 -4.2,4.2z"/>
   <path class="fil0" d="M151 457.18c0,2.32 1.88,4.2 4.2,4.2 2.32,0 4.2,-1.88 4.2,-4.2 0,-2.32 -1.88,-4.2 -4.2,-4.2 -2.32,0 -4.2,1.88 -4.2,4.2z"/>
   <path class="fil0" d="M151 394.79c0,2.32 1.88,4.2 4.2,4.2 2.32,0 4.2,-1.88 4.2,-4.2 0,-2.32 -1.88,-4.2 -4.2,-4.2 -2.32,0 -4.2,1.88 -4.2,4.2z"/>
   <path class="fil0" d="M100.66 581.94c0,2.32 1.88,4.2 4.2,4.2 2.32,0 4.2,-1.88 4.2,-4.2 0,-2.32 -1.88,-4.2 -4.2,-4.2 -2.32,0 -4.2,1.88 -4.2,4.2z"/>
   <path class="fil0" d="M100.66 519.58c0,2.32 1.88,4.2 4.2,4.2 2.32,0 4.2,-1.88 4.2,-4.2 0,-2.32 -1.88,-4.2 -4.2,-4.2 -2.32,0 -4.2,1.88 -4.2,4.2z"/>
   <path class="fil0" d="M100.66 457.18c0,2.32 1.88,4.2 4.2,4.2 2.32,0 4.2,-1.88 4.2,-4.2 0,-2.32 -1.88,-4.2 -4.2,-4.2 -2.32,0 -4.2,1.88 -4.2,4.2z"/>
   <path class="fil0" d="M100.66 394.79c0,2.32 1.88,4.2 4.2,4.2 2.32,0 4.2,-1.88 4.2,-4.2 0,-2.32 -1.88,-4.2 -4.2,-4.2 -2.32,0 -4.2,1.88 -4.2,4.2z"/>
   <path class="fil0" d="M50.33 581.94c0,2.32 1.88,4.2 4.2,4.2 2.32,0 4.2,-1.88 4.2,-4.2 0,-2.32 -1.88,-4.2 -4.2,-4.2 -2.32,0 -4.2,1.88 -4.2,4.2z"/>
   <path class="fil0" d="M50.33 519.58c0,2.32 1.88,4.2 4.2,4.2 2.32,0 4.2,-1.88 4.2,-4.2 0,-2.32 -1.88,-4.2 -4.2,-4.2 -2.32,0 -4.2,1.88 -4.2,4.2z"/>
   <path class="fil0" d="M50.33 457.18c0,2.32 1.88,4.2 4.2,4.2 2.32,0 4.2,-1.88 4.2,-4.2 0,-2.32 -1.88,-4.2 -4.2,-4.2 -2.32,0 -4.2,1.88 -4.2,4.2z"/>
   <path class="fil0" d="M50.33 394.79c0,2.32 1.88,4.2 4.2,4.2 2.32,0 4.2,-1.88 4.2,-4.2 0,-2.32 -1.88,-4.2 -4.2,-4.2 -2.32,0 -4.2,1.88 -4.2,4.2z"/>
   <path class="fil0" d="M-0 581.94c0,2.32 1.88,4.2 4.2,4.2 2.32,0 4.2,-1.88 4.2,-4.2 0,-2.32 -1.88,-4.2 -4.2,-4.2 -2.32,0 -4.2,1.88 -4.2,4.2z"/>
   <path class="fil0" d="M0 519.58c0,2.32 1.88,4.2 4.2,4.2 2.32,0 4.2,-1.88 4.2,-4.2 0,-2.32 -1.88,-4.2 -4.2,-4.2 -2.32,0 -4.2,1.88 -4.2,4.2z"/>
   <path class="fil0" d="M0 457.18c0,2.32 1.88,4.2 4.2,4.2 2.32,0 4.2,-1.88 4.2,-4.2 0,-2.32 -1.88,-4.2 -4.2,-4.2 -2.32,0 -4.2,1.88 -4.2,4.2z"/>
   <path class="fil0" d="M0 394.79c0,2.32 1.88,4.2 4.2,4.2 2.32,0 4.2,-1.88 4.2,-4.2 0,-2.32 -1.88,-4.2 -4.2,-4.2 -2.32,0 -4.2,1.88 -4.2,4.2z"/>
   <path class="fil0" d="M3788.88 191.35c0,2.32 1.88,4.2 4.2,4.2 2.32,0 4.2,-1.88 4.2,-4.2 0,-2.32 -1.88,-4.2 -4.2,-4.2 -2.32,0 -4.2,1.88 -4.2,4.2z"/>
   <path class="fil0" d="M3788.88 128.99c0,2.32 1.88,4.2 4.2,4.2 2.32,0 4.2,-1.88 4.2,-4.2 0,-2.32 -1.88,-4.2 -4.2,-4.2 -2.32,0 -4.2,1.88 -4.2,4.2z"/>
   <path class="fil0" d="M3788.88 66.59c0,2.32 1.88,4.2 4.2,4.2 2.32,0 4.2,-1.88 4.2,-4.2 0,-2.32 -1.88,-4.2 -4.2,-4.2 -2.32,0 -4.2,1.88 -4.2,4.2z"/>
   <path class="fil0" d="M3788.88 4.2c0,2.32 1.88,4.2 4.2,4.2 2.32,0 4.2,-1.88 4.2,-4.2 0,-2.32 -1.88,-4.2 -4.2,-4.2 -2.32,0 -4.2,1.88 -4.2,4.2z"/>
   <path class="fil0" d="M3738.54 191.35c0,2.32 1.88,4.2 4.2,4.2 2.32,0 4.2,-1.88 4.2,-4.2 0,-2.32 -1.88,-4.2 -4.2,-4.2 -2.32,0 -4.2,1.88 -4.2,4.2z"/>
   <path class="fil0" d="M3738.54 128.99c0,2.32 1.88,4.2 4.2,4.2 2.32,0 4.2,-1.88 4.2,-4.2 0,-2.32 -1.88,-4.2 -4.2,-4.2 -2.32,0 -4.2,1.88 -4.2,4.2z"/>
   <path class="fil0" d="M3738.54 66.59c0,2.32 1.88,4.2 4.2,4.2 2.32,0 4.2,-1.88 4.2,-4.2 0,-2.32 -1.88,-4.2 -4.2,-4.2 -2.32,0 -4.2,1.88 -4.2,4.2z"/>
   <path class="fil0" d="M3738.54 4.2c0,2.32 1.88,4.2 4.2,4.2 2.32,0 4.2,-1.88 4.2,-4.2 0,-2.32 -1.88,-4.2 -4.2,-4.2 -2.32,0 -4.2,1.88 -4.2,4.2z"/>
   <path class="fil0" d="M3688.21 191.35c0,2.32 1.88,4.2 4.2,4.2 2.32,0 4.2,-1.88 4.2,-4.2 0,-2.32 -1.88,-4.2 -4.2,-4.2 -2.32,0 -4.2,1.88 -4.2,4.2z"/>
   <path class="fil0" d="M3688.21 128.99c0,2.32 1.88,4.2 4.2,4.2 2.32,0 4.2,-1.88 4.2,-4.2 0,-2.32 -1.88,-4.2 -4.2,-4.2 -2.32,0 -4.2,1.88 -4.2,4.2z"/>
   <path class="fil0" d="M3688.21 66.59c0,2.32 1.88,4.2 4.2,4.2 2.32,0 4.2,-1.88 4.2,-4.2 0,-2.32 -1.88,-4.2 -4.2,-4.2 -2.32,0 -4.2,1.88 -4.2,4.2z"/>
   <path class="fil0" d="M3688.21 4.2c0,2.32 1.88,4.2 4.2,4.2 2.32,0 4.2,-1.88 4.2,-4.2 0,-2.32 -1.88,-4.2 -4.2,-4.2 -2.32,0 -4.2,1.88 -4.2,4.2z"/>
   <path class="fil0" d="M3637.88 191.35c0,2.32 1.88,4.2 4.2,4.2 2.32,0 4.2,-1.88 4.2,-4.2 0,-2.32 -1.88,-4.2 -4.2,-4.2 -2.32,0 -4.2,1.88 -4.2,4.2z"/>
   <path class="fil0" d="M3637.88 128.99c0,2.32 1.88,4.2 4.2,4.2 2.32,0 4.2,-1.88 4.2,-4.2 0,-2.32 -1.88,-4.2 -4.2,-4.2 -2.32,0 -4.2,1.88 -4.2,4.2z"/>
   <path class="fil0" d="M3637.88 66.59c0,2.32 1.88,4.2 4.2,4.2 2.32,0 4.2,-1.88 4.2,-4.2 0,-2.32 -1.88,-4.2 -4.2,-4.2 -2.32,0 -4.2,1.88 -4.2,4.2z"/>
   <path class="fil0" d="M3637.88 4.2c0,2.32 1.88,4.2 4.2,4.2 2.32,0 4.2,-1.88 4.2,-4.2 0,-2.32 -1.88,-4.2 -4.2,-4.2 -2.32,0 -4.2,1.88 -4.2,4.2z"/>
   <path class="fil0" d="M3587.55 191.35c0,2.32 1.88,4.2 4.2,4.2 2.32,0 4.2,-1.88 4.2,-4.2 0,-2.32 -1.88,-4.2 -4.2,-4.2 -2.32,0 -4.2,1.88 -4.2,4.2z"/>
   <path class="fil0" d="M3587.55 128.99c0,2.32 1.88,4.2 4.2,4.2 2.32,0 4.2,-1.88 4.2,-4.2 0,-2.32 -1.88,-4.2 -4.2,-4.2 -2.32,0 -4.2,1.88 -4.2,4.2z"/>
   <path class="fil0" d="M3587.55 66.59c0,2.32 1.88,4.2 4.2,4.2 2.32,0 4.2,-1.88 4.2,-4.2 0,-2.32 -1.88,-4.2 -4.2,-4.2 -2.32,0 -4.2,1.88 -4.2,4.2z"/>
   <path class="fil0" d="M3587.55 4.2c0,2.32 1.88,4.2 4.2,4.2 2.32,0 4.2,-1.88 4.2,-4.2 0,-2.32 -1.88,-4.2 -4.2,-4.2 -2.32,0 -4.2,1.88 -4.2,4.2z"/>
   <path class="fil0" d="M3537.22 191.35c0,2.32 1.88,4.2 4.2,4.2 2.32,0 4.2,-1.88 4.2,-4.2 0,-2.32 -1.88,-4.2 -4.2,-4.2 -2.32,0 -4.2,1.88 -4.2,4.2z"/>
   <path class="fil0" d="M3537.22 128.99c0,2.32 1.88,4.2 4.2,4.2 2.32,0 4.2,-1.88 4.2,-4.2 0,-2.32 -1.88,-4.2 -4.2,-4.2 -2.32,0 -4.2,1.88 -4.2,4.2z"/>
   <path class="fil0" d="M3537.22 66.59c0,2.32 1.88,4.2 4.2,4.2 2.32,0 4.2,-1.88 4.2,-4.2 0,-2.32 -1.88,-4.2 -4.2,-4.2 -2.32,0 -4.2,1.88 -4.2,4.2z"/>
   <path class="fil0" d="M3537.22 4.2c0,2.32 1.88,4.2 4.2,4.2 2.32,0 4.2,-1.88 4.2,-4.2 0,-2.32 -1.88,-4.2 -4.2,-4.2 -2.32,0 -4.2,1.88 -4.2,4.2z"/>
   <line class="fil1 str0" x1="3050.79" y1="106.26" x2="3122.7" y2= "178.17" />
   <line class="fil1 str0" x1="3122.7" y1="106.24" x2="3050.79" y2= "178.15" />
   <line class="fil1 str1" x1="931.92" y1="239.57" x2="982.93" y2= "290.58" />
   <line class="fil1 str1" x1="982.93" y1="239.56" x2="931.92" y2= "290.56" />
   <line class="fil1 str0" x1="32.76" y1="1254.32" x2="103.91" y2= "1325.48" />
   <line class="fil1 str0" x1="103.91" y1="1254.3" x2="32.76" y2= "1325.45" />
   <line class="fil1 str2" x1="4319.87" y1="1025.43" x2="4383.7" y2= "1089.25" />
   <line class="fil1 str2" x1="4383.7" y1="1025.4" x2="4319.87" y2= "1089.23" />
   <line class="fil1 str3" x1="3321.99" y1="1902.16" x2="3406.27" y2= "1986.44" />
   <line class="fil1 str3" x1="3406.27" y1="1902.13" x2="3321.99" y2= "1986.41" />
   <path class="fil2" d="M3973.33 207.82l-34.28 0c-8.29,0 -15.02,-7.31 -15.02,-16.31l0 -1.36c0,-9.01 6.72,-16.31 15.02,-16.31l34.28 0c8.29,0 15,7.29 15,16.31l0 1.36c0,9 -6.71,16.31 -15,16.31z"/>
   <path class="fil2" d="M4305.18 207.82l-260.63 0c-8.29,0 -15.01,-7.31 -15.01,-16.31l0 -1.36c0,-9.01 6.72,-16.31 15.01,-16.31l260.63 0c8.29,0 15.02,7.29 15.02,16.31l0 1.36c0,9 -6.72,16.31 -15.02,16.31z"/>
   <path class="fil2" d="M2388.53 1507.77l-34.28 0c-8.29,0 -15.01,-7.31 -15.01,-16.31l0 -1.36c0,-9.01 6.72,-16.31 15.01,-16.31l34.28 0c8.29,0 15,7.29 15,16.31l0 1.36c0,9 -6.71,16.31 -15,16.31z"/>
   <path class="fil2" d="M2720.38 1507.77l-260.63 0c-8.29,0 -15.02,-7.31 -15.02,-16.31l0 -1.36c0,-9.01 6.72,-16.31 15.02,-16.31l260.63 0c8.29,0 15.01,7.29 15.01,16.31l0 1.36c0,9 -6.72,16.31 -15.01,16.31z"/>
   <path class="fil2" d="M1929.78 2663.07l-34.28 0c-8.29,0 -15.02,-7.31 -15.02,-16.31l0 -1.36c0,-9.01 6.72,-16.31 15.02,-16.31l34.28 0c8.29,0 15,7.29 15,16.31l0 1.36c0,9 -6.71,16.31 -15,16.31z"/>
   <path class="fil2" d="M2261.63 2663.07l-260.63 0c-8.29,0 -15.01,-7.31 -15.01,-16.31l0 -1.36c0,-9.01 6.72,-16.31 15.01,-16.31l260.63 0c8.29,0 15.02,7.29 15.02,16.31l0 1.36c0,9 -6.72,16.31 -15.02,16.31z"/>
   <path class="fil2" d="M374.43 3127.8l-34.28 0c-8.29,0 -15.02,-7.31 -15.02,-16.31l0 -1.36c0,-9.01 6.72,-16.31 15.02,-16.31l34.28 0c8.29,0 15,7.3 15,16.31l0 1.36c0,9 -6.71,16.31 -15,16.31z"/>
   <path class="fil2" d="M706.27 3127.8l-260.63 0c-8.29,0 -15.01,-7.31 -15.01,-16.31l0 -1.36c0,-9.01 6.72,-16.31 15.01,-16.31l260.63 0c8.29,0 15.02,7.3 15.02,16.31l0 1.36c0,9 -6.72,16.31 -15.02,16.31z"/>
   <path class="fil2" d="M2298 4059.49l-34.28 0c-8.29,0 -15.02,-7.31 -15.02,-16.31l0 -1.36c0,-9.02 6.72,-16.31 15.02,-16.31l34.28 0c8.29,0 15,7.29 15,16.31l0 1.36c0,9 -6.71,16.31 -15,16.31z"/>
   <path class="fil2" d="M2629.85 4059.49l-260.63 0c-8.29,0 -15.02,-7.31 -15.02,-16.31l0 -1.36c0,-9.02 6.72,-16.31 15.02,-16.31l260.63 0c8.29,0 15.02,7.29 15.02,16.31l0 1.36c0,9 -6.72,16.31 -15.02,16.31z"/>
   <path class="fil1 str4" d="M2904.83 610.93c-28.36,0 -28.36,-30.64 -56.72,-30.64 -28.36,0 -28.36,30.64 -56.73,30.64 -28.36,0 -28.36,-30.64 -56.71,-30.64 -28.36,0 -28.36,30.64 -56.71,30.64 -28.37,0 -28.37,-30.64 -56.73,-30.64 -28.37,0 -28.37,30.64 -56.75,30.64 -28.36,0 -28.36,-30.64 -56.73,-30.64 -28.38,0 -28.38,30.64 -56.77,30.64 -28.38,0 -28.38,-30.64 -56.77,-30.64"/>
   <path class="fil1 str4" d="M2904.83 559.3c-28.36,0 -28.36,-30.64 -56.72,-30.64 -28.36,0 -28.36,30.64 -56.73,30.64 -28.36,0 -28.36,-30.64 -56.71,-30.64 -28.36,0 -28.36,30.64 -56.71,30.64 -28.37,0 -28.37,-30.64 -56.73,-30.64 -28.37,0 -28.37,30.64 -56.75,30.64 -28.36,0 -28.36,-30.64 -56.73,-30.64 -28.38,0 -28.38,30.64 -56.77,30.64 -28.38,0 -28.38,-30.64 -56.77,-30.64"/>
   <path class="fil1 str4" d="M1618.93 2020.84c-28.36,0 -28.36,-30.64 -56.72,-30.64 -28.36,0 -28.36,30.64 -56.72,30.64 -28.36,0 -28.36,-30.64 -56.71,-30.64 -28.36,0 -28.36,30.64 -56.71,30.64 -28.37,0 -28.37,-30.64 -56.73,-30.64 -28.37,0 -28.37,30.64 -56.75,30.64 -28.36,0 -28.36,-30.64 -56.72,-30.64 -28.38,0 -28.38,30.64 -56.77,30.64 -28.38,0 -28.38,-30.64 -56.77,-30.64"/>
   <path class="fil1 str4" d="M1618.93 1969.21c-28.36,0 -28.36,-30.64 -56.72,-30.64 -28.36,0 -28.36,30.64 -56.72,30.64 -28.36,0 -28.36,-30.64 -56.71,-30.64 -28.36,0 -28.36,30.64 -56.71,30.64 -28.37,0 -28.37,-30.64 -56.73,-30.64 -28.37,0 -28.37,30.64 -56.75,30.64 -28.36,0 -28.36,-30.64 -56.72,-30.64 -28.38,0 -28.38,30.64 -56.77,30.64 -28.38,0 -28.38,-30.64 -56.77,-30.64"/>
   <path class="fil1 str4" d="M4178.13 2446.66c-28.36,0 -28.36,-30.64 -56.72,-30.64 -28.36,0 -28.36,30.64 -56.72,30.64 -28.36,0 -28.36,-30.64 -56.72,-30.64 -28.36,0 -28.36,30.64 -56.71,30.64 -28.37,0 -28.37,-30.64 -56.73,-30.64 -28.37,0 -28.37,30.64 -56.75,30.64 -28.36,0 -28.36,-30.64 -56.72,-30.64 -28.38,0 -28.38,30.64 -56.77,30.64 -28.38,0 -28.38,-30.64 -56.77,-30.64"/>
   <path class="fil1 str4" d="M4178.13 2395.03c-28.36,0 -28.36,-30.64 -56.72,-30.64 -28.36,0 -28.36,30.64 -56.72,30.64 -28.36,0 -28.36,-30.64 -56.72,-30.64 -28.36,0 -28.36,30.64 -56.71,30.64 -28.37,0 -28.37,-30.64 -56.73,-30.64 -28.37,0 -28.37,30.64 -56.75,30.64 -28.36,0 -28.36,-30.64 -56.72,-30.64 -28.38,0 -28.38,30.64 -56.77,30.64 -28.38,0 -28.38,-30.64 -56.77,-30.64"/>
   <path class="fil1 str4" d="M1870.72 3993.41c-28.36,0 -28.36,-30.64 -56.72,-30.64 -28.36,0 -28.36,30.64 -56.73,30.64 -28.36,0 -28.36,-30.64 -56.71,-30.64 -28.36,0 -28.36,30.64 -56.71,30.64 -28.37,0 -28.37,-30.64 -56.73,-30.64 -28.37,0 -28.37,30.64 -56.75,30.64 -28.36,0 -28.36,-30.64 -56.72,-30.64 -28.38,0 -28.38,30.64 -56.77,30.64 -28.38,0 -28.38,-30.64 -56.77,-30.64"/>
   <path class="fil1 str4" d="M1870.72 3941.79c-28.36,0 -28.36,-30.64 -56.72,-30.64 -28.36,0 -28.36,30.64 -56.73,30.64 -28.36,0 -28.36,-30.64 -56.71,-30.64 -28.36,0 -28.36,30.64 -56.71,30.64 -28.37,0 -28.37,-30.64 -56.73,-30.64 -28.37,0 -28.37,30.64 -56.75,30.64 -28.36,0 -28.36,-30.64 -56.72,-30.64 -28.38,0 -28.38,30.64 -56.77,30.64 -28.38,0 -28.38,-30.64 -56.77,-30.64"/>
   <path class="fil3" d="M436.54 3610.52c20.27,-0.42 40.37,-7.88 48.58,-1.87 -2.66,8.58 6.5,2.76 -8.33,6.42 -8.37,2.07 -28.45,0.93 -37.46,6.46 22.36,3.95 39.39,11.37 66.56,12.82 23.91,1.28 50.43,-0.84 71.71,-5.19 19.56,-4 98.18,-22.48 114.67,-38.42 -65.51,-47.23 -205.42,-17.46 -255.72,19.78l-0 -0.01z"/>
   <path class="fil4" d="M469.95 3728.13c16.14,65.42 110.79,152.67 170.88,171.51 -6.89,-39.07 -29.99,-89.67 -56.37,-113.68 -24.99,-22.74 -64.56,-55.01 -106.52,-64.99l15.85 17.18c1.48,5.64 2.57,1.38 -2.39,6.46l-21.46 -16.49z"/>
   <path class="fil3" d="M251.42 3516.14c5.71,4.13 -3.38,1.65 9.05,3.03 0.92,0.1 8.53,-0.5 9.87,-0.65 14.28,-1.6 43.37,-7.64 50.31,-1.97 -2.05,8.13 -3.4,5.83 -14.72,6.91l-48.68 4.9c-8.39,2.32 -3.46,0.28 -8.26,3.9 33.41,2.95 61.04,22.47 130.51,11.39 36.05,-5.74 84.47,-24.75 105.44,-42.83 -33.28,-35.65 -126.18,-26.48 -178.45,-7.42l-55.06 22.74 0 -0.01z"/>
   <path class="fil4" d="M163.83 3620.37c0.56,67.7 48.04,166.46 102.6,187.67 3.16,-78.45 -26.84,-160 -98.29,-192.98 -7.43,0.46 -4.91,-7.5 -4.31,5.29l0 0.01z"/>
   <path class="fil4" d="M313.91 3692.47c8.89,59.06 74.01,168.55 124.54,176.22 -4.48,-46.14 -14.18,-82.5 -35.59,-115.99 -14.91,-23.32 -50.97,-60.2 -83.07,-70.31 3.58,10.91 24.93,28.91 22.48,36.19 -6.06,7.23 -14.11,-10.68 -21.54,-19.26l-6.82 -6.86 0.01 0.01z"/>
   <path class="fil3" d="M554.6 3687.15c13.72,5.92 55.38,9.82 73.92,11.36 23.9,1.99 17.09,2.47 20.15,6.51l-0.3 0.23c31.4,3.32 64.1,9.07 95.36,13.85 15.64,2.39 30.92,4.53 46.45,6.84 9.45,1.41 40.09,2.83 46.45,10.58l8.7 -1.3 -56.75 -38.38c-62.8,-32.14 -184.35,-31.81 -233.98,-9.68l0.01 0.01z"/>
   <path class="fil4" d="M836.63 3736.52c-6.35,-7.75 -37,-9.18 -46.45,-10.58 -15.53,-2.3 -30.8,-4.44 -46.45,-6.84 -31.25,-4.78 -63.95,-10.53 -95.35,-13.85 -7.55,7.07 -37.15,0.12 -48.85,-1.39 -7.65,-0.99 -16.33,-2.31 -24.35,-3.72 -21.14,-3.71 -16.29,-2.59 -20.91,0.68 24.43,14.05 24.73,17.99 56.77,30.48 20.4,7.96 44.78,13.18 68.45,16.05 60.41,7.32 101.28,-2.52 157.14,-10.83l-0 -0.01z"/>
   <path class="fil5" d="M648.68 3705.01c-3.05,-4.05 3.75,-4.53 -20.15,-6.51 -18.55,-1.54 -60.21,-5.44 -73.92,-11.36 -27.94,-1.37 -173.55,-39.78 -196.27,-55.48 8.29,-5.1 66.01,-9.13 81,-10.14 9.02,-5.54 29.09,-4.4 37.46,-6.46 14.83,-3.66 5.67,2.15 8.33,-6.42 -8.22,-6.01 -28.31,1.45 -48.58,1.87l-79.82 9.8c-21.36,2.81 -19.53,4.97 -36.29,-2.93 -42.78,-20.15 -114.35,-52.42 -149.21,-80.25 19.45,1.16 67.61,-10.12 77.78,-4.87 4.8,-3.61 -0.14,-1.57 8.26,-3.89l48.68 -4.9c11.33,-1.07 12.67,1.22 14.72,-6.91 -6.94,-5.68 -36.03,0.36 -50.31,1.97 -1.34,0.15 -8.95,0.76 -9.87,0.65 -12.44,-1.37 -3.35,1.11 -9.05,-3.03 -19.71,10.13 -56.72,8.5 -81.88,12.06 -18.05,2.55 -45.17,-20.7 -59.85,-32.32l-52.78 -41.95c-13.85,-11.13 -39.06,-32.22 -48.96,-45.59l-7.95 3.94c8.11,2.79 8.35,6.43 14.48,12.42 5.59,5.46 11.15,8.43 17.13,13.74 13.35,11.87 5.66,8.05 30.9,27.85 91.03,71.44 107.79,81.83 215.6,137.61 98.31,50.86 246.71,94.04 370.57,101.12l-0.01 0z"/>
   <path class="fil6" d="M163.83 3620.37c-0.59,-12.8 -3.12,-4.84 4.31,-5.29l-50.21 -100.27c16.08,7.37 38.91,25.93 56.14,36.94 15.4,9.83 47.4,24.42 59.36,35.29 10.54,9.59 67.65,88.29 80.47,105.44l6.82 6.86c7.43,8.58 15.48,26.49 21.54,19.26 2.45,-7.29 -18.9,-25.28 -22.48,-36.19 -11.51,-9.89 -62.78,-79.47 -65.06,-84.39 14.01,4.51 82.53,37.4 123.01,51.98 19.04,6.86 13.45,7.1 25.8,17.56l66.41 60.58 21.46 16.49c4.97,-5.08 3.87,-0.82 2.39,-6.46l-15.85 -17.18 -65.22 -57.57c14.97,0.69 53.19,14.51 70.83,18.86 23.29,5.74 53.16,8.54 70.71,18.56 4.62,-3.27 -0.23,-4.39 20.91,-0.68 8.03,1.41 16.7,2.73 24.35,3.72 11.69,1.51 41.3,8.45 48.85,1.39l0.3 -0.23c-123.85,-7.07 -272.26,-50.26 -370.57,-101.12 -107.82,-55.77 -124.57,-66.17 -215.6,-137.61 -25.24,-19.8 -17.55,-15.98 -30.9,-27.85 -5.97,-5.31 -11.54,-8.28 -17.13,-13.74 -6.14,-5.99 -6.37,-9.63 -14.48,-12.42 1.47,8.38 4.43,7.09 11.06,13.43 4.88,4.67 6.25,7.18 11.35,11.57 4.69,4.04 8.1,6.29 12.8,10.35 4.84,4.18 6.83,7.39 11.42,11.48l51.48 40.69c13.65,14.04 52.32,107.65 65.72,120.57l-0 -0z"/>
   <path class="fil7" d="M4147.33 3093.52c28.83,4.09 57.53,8.94 86.15,14.57 9.13,1.89 18.37,3.8 27.56,5.82 25.37,5.57 50.64,11.78 75.79,18.65 8.26,2.26 16.49,4.64 24.72,7.05 18.22,5.29 36.31,10.98 54.38,16.98l-1.33 3.99 -1.3 3.9c-0.31,-0.12 -0.55,-0.15 -0.87,-0.28 -17.17,-5.72 -34.4,-11.1 -51.72,-16.21 -3.53,-1.08 -7.11,-2.1 -10.64,-3.13 -29.85,-8.54 -59.92,-16.12 -90.11,-22.73 -3.31,-0.74 -6.71,-1.49 -10.08,-2.2 -33.78,-7.21 -67.93,-13.21 -102.11,-18.03 -3.99,-0.59 -8.01,-1.08 -12,-1.64 -35.57,-4.7 -71.24,-8.1 -106.9,-10.24 -3.53,-0.25 -7.02,-0.43 -10.58,-0.62 -32.66,-1.79 -65.39,-2.41 -98.12,-1.95 -4.49,0.03 -9.1,0.09 -13.61,0.28 -34.27,0.74 -68.61,2.63 -102.82,5.85 -6.4,0.49 -12.74,1.18 -19.18,1.89 -30.38,3.13 -60.69,7.27 -90.91,12.31 -20.66,3.53 -41.23,7.39 -61.77,11.75l-0.84 -4.02 -0.93 -4.05c20.36,-4.3 40.83,-8.2 61.34,-11.66 27.31,-4.64 54.78,-8.44 82.22,-11.48 9.74,-1.08 19.55,-2.1 29.36,-3.03 29.54,-2.75 59.24,-4.55 88.93,-5.44 9.37,-0.31 18.65,-0.56 28.02,-0.71 27.04,-0.34 54.07,0.03 81.04,1.18 9.03,0.37 18.13,0.77 27.13,1.33 30.47,1.79 60.9,4.52 91.22,8.23 9.34,1.08 18.75,2.35 28.06,3.62l-0.09 0.02z"/>
   <path class="fil7" d="M3691.41 3099.83c4.95,1.45 7.95,2.57 8.51,2.72l0.06 0.09c-2.07,1.79 -4.27,3.56 -6.4,5.16 -106.9,85.9 -208.86,49.43 -204.31,46.4 81.01,-81.14 173.9,-62.61 202.11,-54.38l0.03 -0z"/>
   <path class="fil7" d="M3804.81 3089.28c0,0 -46.18,-111.2 -160.7,-88.69 0,0 44.29,94.71 160.7,88.69z"/>
   <path class="fil7" d="M3804.81 3089.28l0 0.06c-0.15,0.46 -0.43,1.95 -1.11,4.27 -5.79,18.75 -34.21,93.48 -132.21,117.51 0,0 13.58,-80.36 113.03,-115.6 6.34,-2.26 13.02,-4.3 20.04,-6.19 0.09,0 0.19,-0.06 0.25,-0.06z"/>
   <path class="fil7" d="M3920.59 3083.31c0,0 -15.09,-103.44 -129.52,-108.98 0,0 21.53,106.47 129.52,108.98z"/>
   <path class="fil7" d="M3920.65 3083.31c0,0 -0.12,1.49 -0.52,4.18 -2.85,16.92 -19.67,81.57 -114.42,114.82 0,0 7.64,-81.97 100.81,-114.54 4.49,-1.67 9.22,-3.19 14.14,-4.45l-0 -0z"/>
   <path class="fil7" d="M4029.26 3085.85c0,0 -25.92,-106.44 -115.69,-119.93 0,0 4.45,109.01 115.69,119.93z"/>
   <path class="fil7" d="M4029.14 3085.82l0.09 0c0,0 -0.06,1.48 -0.43,4.18 -2.38,15.99 -16.92,74.64 -100.56,108.33 0,0 4.86,-78.88 90.01,-108.91 3.53,-1.33 7.11,-2.48 10.92,-3.59l-0.03 -0z"/>
   <path class="fil7" d="M4149 3097.88c0,0 -30.9,-88.62 -109.22,-108.2 0,0 4.76,89.61 109.22,108.2z"/>
   <path class="fil7" d="M4148.88 3097.91l0.09 0c0,0 -0.37,1.45 -1.24,3.99 -5.66,16.76 -33.38,81.41 -124.16,92.83 0,0 23.42,-75.85 112.16,-94.5 4.21,-0.96 8.66,-1.67 13.18,-2.35l-0.03 0.03z"/>
   <path class="fil7" d="M4261.93 3118.33c0,0 -16.64,-103.69 -104.34,-110.21 0,0 10.83,86.39 104.34,110.21z"/>
   <path class="fil7" d="M4261.87 3118.36l0 0.09c-0.22,0.37 -0.84,1.7 -1.95,3.71 -8.29,15.37 -45.1,72.48 -134.56,82.68 0,0 39.97,-71.05 124.44,-84.88 3.83,-0.71 7.83,-1.21 11.88,-1.55 0.09,-0.06 0.09,-0.06 0.19,-0.06z"/>
   <path class="fil8" d="M4415.95 3156.59l-1.33 3.99 -1.3 3.9c-0.31,-0.12 -0.55,-0.15 -0.87,-0.28 -17.17,-5.72 -34.4,-11.1 -51.72,-16.21 -3.53,-1.08 -7.11,-2.1 -10.64,-3.13 -29.85,-8.54 -59.92,-16.12 -90.11,-22.73 -3.31,-0.74 -6.71,-1.49 -10.08,-2.2 -33.78,-7.21 -67.93,-13.21 -102.11,-18.03 -3.99,-0.59 -8.01,-1.08 -12,-1.64 -35.57,-4.7 -71.24,-8.1 -106.9,-10.24 -3.53,-0.25 -7.02,-0.43 -10.58,-0.62 -32.66,-1.79 -65.39,-2.41 -98.12,-1.95 -4.49,0.03 -9.1,0.09 -13.61,0.28 -34.27,0.74 -68.61,2.63 -102.82,5.85 -6.4,0.49 -12.74,1.18 -19.18,1.89 -30.38,3.13 -60.69,7.27 -90.91,12.31 -20.66,3.53 -41.23,7.39 -61.77,11.75l-0.84 -4.02 -0.15 -0.62c163.82,-34.68 453.97,-64.87 785.1,41.7l-0.06 -0.01z"/>
   <path class="fil8" d="M3698.9 3102.21l1.02 0.34 0.06 0.09c-2.07,1.79 -4.27,3.56 -6.4,5.16 -106.9,85.9 -208.86,49.43 -204.31,46.4 0,0 78.6,-30.81 209.63,-52z"/>
   <path class="fil8" d="M3804.81 3089.28l-0.12 -0.31 -5.51 0.49c1.86,-0.03 3.74,-0.12 5.63,-0.22l0 0.03z"/>
   <path class="fil8" d="M3804.81 3089.28l0 0.06c-0.15,0.46 -0.43,1.95 -1.11,4.27 -5.79,18.75 -34.21,93.48 -132.21,117.51 0,0 13.58,-80.36 113.03,-115.6 6.34,-2.26 13.02,-4.3 20.04,-6.19 0.09,0 0.19,-0.06 0.25,-0.06z"/>
   <path class="fil8" d="M3920.59 3083.31l-0.06 -0.4 -6.53 0.09c2.16,0.12 4.36,0.25 6.59,0.31z"/>
   <path class="fil8" d="M3920.65 3083.31c0,0 -0.12,1.49 -0.52,4.18 -2.85,16.92 -19.67,81.57 -114.42,114.82 0,0 7.64,-81.97 100.81,-114.54 4.49,-1.67 9.22,-3.19 14.14,-4.45l-0 -0z"/>
   <path class="fil8" d="M4029.26 3085.85l-0.22 -0.8c-3.34,-0.19 -6.68,-0.34 -9.99,-0.52 3.31,0.52 6.71,0.99 10.21,1.33l0 -0z"/>
   <path class="fil8" d="M4029.14 3085.82l0.09 0c0,0 -0.06,1.48 -0.43,4.18 -2.38,15.99 -16.92,74.64 -100.56,108.33 0,0 4.86,-78.88 90.01,-108.91 3.53,-1.33 7.11,-2.48 10.92,-3.59l-0.03 -0z"/>
   <path class="fil8" d="M4149 3097.88c0,0 -0.19,-0.56 -0.59,-1.61 -5.13,-0.68 -10.27,-1.33 -15.37,-1.98 5.04,1.39 10.36,2.6 15.96,3.59l-0 0z"/>
   <path class="fil8" d="M4148.88 3097.91l0.09 0c0,0 -0.37,1.45 -1.24,3.99 -5.66,16.76 -33.38,81.41 -124.16,92.83 0,0 23.42,-75.85 112.16,-94.5 4.21,-0.96 8.66,-1.67 13.18,-2.35l-0.03 0.03z"/>
   <path class="fil8" d="M4261.93 3118.33c0,0 -0.15,-0.96 -0.49,-2.69 -6.77,-1.42 -13.55,-2.79 -20.26,-4.11 6.43,2.6 13.33,4.89 20.79,6.8l-0.03 0z"/>
   <path class="fil8" d="M4261.87 3118.36l0 0.09c-0.22,0.37 -0.84,1.7 -1.95,3.71 -8.29,15.37 -45.1,72.48 -134.56,82.68 0,0 39.97,-71.05 124.44,-84.88 3.83,-0.71 7.83,-1.21 11.88,-1.55 0.09,-0.06 0.09,-0.06 0.19,-0.06z"/>
   <path class="fil7" d="M135.92 1838.46c-50.22,-16.83 -90.38,-48.94 -110.59,-88.39 0,0 -20.19,-32.17 -24.33,-60.68 -4.14,-28.49 6.04,-65.14 6.04,-65.14 8.17,-43.59 37.5,-85.98 80.85,-116.65 8.25,-5.84 17.25,-11.4 27.65,-14.21 10.42,-2.88 22.5,-2.55 30.47,2.55 12.2,7.83 10.3,23.42 3.1,35.32 -7.18,11.86 -18.63,22.44 -23.82,34.85 -5.13,12.43 -0.95,28.36 14.62,31.65 12.73,2.63 27.02,-4.64 34.14,-13.89 7.18,-9.22 9.02,-20.01 11.45,-30.35 3.59,-15.06 9.67,-31.12 25.08,-41.46 15.33,-10.32 42.39,-10.81 50.44,2.49 5.37,8.92 0.5,20.07 -6.06,29.23 -6.57,9.16 -15.04,18 -17.51,28.08 -2.47,10.08 4.18,22.06 17.17,22.61 8.86,0.42 17.45,-4.62 22.32,-10.71 4.81,-6.1 6.65,-13.12 8.66,-19.99 4.5,-15.26 11.05,-31.49 26.84,-41.92 15.73,-10.42 43.2,-11.09 51.58,2.35 5.51,8.8 1.18,19.97 -5.45,29.11 -6.61,9.1 -15.45,17.47 -19.77,27.25 -4.32,9.77 -2.53,22 8.53,26.64 15.71,6.61 34.83,-5.61 52.69,-10.38 7.6,-2.03 15.49,-2.47 23.05,-1.56 15.65,1.87 25.32,13.32 27.73,26.21 2.68,13.89 -3.02,29.4 -18.65,36.19 -6.99,3.04 -14.7,4.87 -22.48,5.13 -18.55,0.59 -40.28,-5.6 -53.46,5.31 -9.35,7.6 -7.56,19.87 -0.65,28 6.95,8.13 17.78,13.58 26.72,20.37 8.94,6.85 16.32,16.28 13.52,26.34 -4.26,15.32 -30.73,22.64 -48.8,17.15 -18.06,-5.47 -28.95,-19.1 -37.63,-32.44 -3.87,-5.96 -7.62,-12.16 -13.99,-16.6 -6.39,-4.44 -16.04,-6.79 -24.39,-3.83 -12.31,4.3 -15.22,17.64 -10.01,26.62 5.21,8.94 15.89,14.98 24.81,21.83 8.92,6.89 16.73,16.16 14.09,26.25 -3.91,15.04 -29.98,22.38 -47.64,16.97 -17.64,-5.47 -28,-19.08 -35.76,-32.46 -5.31,-9.22 -10.16,-18.98 -19.62,-25.81 -9.49,-6.77 -25.26,-9.63 -36.65,-3.4 -13.99,7.62 -13.44,24.1 -4.97,34.5 8.43,10.44 22.44,17.21 32.72,26.56 10.3,9.29 16.48,23.68 7.04,34.71 -6.14,7.22 -17.64,10.97 -28.42,11.29 -10.79,0.26 -21,-2.45 -30.61,-5.66l-0.04 -0.04z"/>
   <path class="fil8" d="M0.94 1689.04c-4.01,-28.44 6.08,-64.79 6.08,-64.79 8.17,-43.59 37.51,-85.98 80.85,-116.65 8.25,-5.84 17.25,-11.39 27.65,-14.21 10.42,-2.88 22.5,-2.55 30.47,2.55 12.2,7.82 10.3,23.42 3.1,35.31 -7.18,11.86 -18.63,22.44 -23.82,34.85 -5.13,12.43 -0.95,28.36 14.62,31.65 12.73,2.63 27.02,-4.64 34.14,-13.89 7.18,-9.23 9.02,-20.01 11.46,-30.35 3.59,-15.06 9.67,-31.12 25.08,-41.46 15.32,-10.32 42.39,-10.81 50.44,2.49 5.37,8.92 0.5,20.07 -6.06,29.23 -6.57,9.16 -15.04,18 -17.52,28.08 -2.47,10.08 4.18,22.06 17.17,22.6 8.86,0.43 17.45,-4.62 22.32,-10.7 4.81,-6.1 6.65,-13.12 8.66,-19.99 4.5,-15.26 11.05,-31.49 26.84,-41.92 15.73,-10.42 43.2,-11.09 51.58,2.35 5.51,8.8 1.18,19.97 -5.45,29.11 -6.61,9.1 -15.45,17.47 -19.77,27.25 -4.32,9.77 -2.53,22 8.54,26.64 15.71,6.61 34.83,-5.62 52.69,-10.38 7.6,-2.03 15.49,-2.47 23.05,-1.56 15.65,1.87 25.32,13.32 27.73,26.21 0.1,0.51 0.18,1.01 0.26,1.52l-450.11 66.05 -0 0z"/>
   <path class="fil9" d="M131.24 1671.77c16.58,-2.27 33.15,-4.64 49.73,-7.04l19.93 26.66c6.93,9.2 13.77,18.51 20.78,27.65l20.94 27.51c7.08,9.1 14.07,18.26 21.21,27.33 -6.59,-9.47 -13.34,-18.81 -19.99,-28.22l-20.25 -28.04c-6.71,-9.37 -13.62,-18.59 -20.44,-27.9l-18.75 -25.46c15.51,-2.23 31,-4.48 46.53,-6.69 18.33,-2.8 36.67,-5.55 55,-8.31 6.14,7.66 12.39,15.24 18.57,22.87 6.47,7.93 12.87,15.91 19.42,23.78l19.6 23.64c6.63,7.81 13.16,15.69 19.87,23.42 -6.14,-8.19 -12.45,-16.28 -18.67,-24.41l-18.93 -24.19c-6.31,-8.07 -12.75,-16.02 -19.12,-24.05 -5.78,-7.2 -11.5,-14.43 -17.29,-21.61 13.69,-2.09 27.39,-4.18 41.05,-6.33l49.71 -7.93c16.56,-2.78 33.13,-5.43 49.65,-8.33 -16.67,1.99 -33.29,4.24 -49.93,6.37l-49.87 6.79c-13.67,1.89 -27.31,3.81 -40.97,5.78 7.48,-16.24 15.1,-32.4 22.42,-48.7l11.68 -25.91c3.79,-8.68 7.68,-17.31 11.4,-26.03 -4.32,8.43 -8.48,16.95 -12.71,25.4l-12.43 25.54c-8.13,16.67 -15.93,33.45 -23.92,50.18 -18.39,2.64 -36.76,5.31 -55.14,7.93 -15.49,2.35 -30.96,4.68 -46.45,7.02l10.75 -29.34c3.91,-10.73 7.91,-21.41 11.7,-32.17l11.49 -32.23c3.73,-10.79 7.56,-21.53 11.21,-32.35 -4.3,10.58 -8.39,21.23 -12.59,31.83l-12.31 31.95c-4.14,10.64 -8.09,21.35 -12.1,32.01l-11.58 30.84c-16.56,2.49 -33.11,5.03 -49.65,7.62l-49.71 7.91c-7.52,1.28 -15.06,2.51 -22.6,3.75l13.38 -35.07c4.62,-12.18 9.33,-24.33 13.85,-36.55l13.67 -36.61c4.46,-12.24 9,-24.45 13.36,-36.73 -5.01,12.04 -9.81,24.15 -14.74,36.19l-14.44 36.31c-4.85,12.08 -9.53,24.25 -14.27,36.39l-14.17 36.41 -0.1 0.24c-7.87,1.3 -15.71,2.62 -23.56,4.01 7.91,-0.95 15.81,-1.95 23.72,-2.98l0.14 0.2 24.1 31.87c8.07,10.6 16.02,21.29 24.17,31.83l24.33 31.69c8.21,10.5 16.32,21.04 24.59,31.49 -7.72,-10.87 -15.61,-21.61 -23.39,-32.42l-23.66 -32.21c-7.85,-10.76 -15.89,-21.39 -23.84,-32.07l-22.99 -30.82c7.58,-0.99 15.16,-1.97 22.75,-2.94l49.87 -6.79 0.02 0.04z"/>
   <g>
    <path class="fil0" d="M251.66 4498.73c0,2.32 1.88,4.2 4.2,4.2 2.32,0 4.2,-1.88 4.2,-4.2 0,-2.32 -1.88,-4.2 -4.2,-4.2 -2.32,0 -4.2,1.88 -4.2,4.2z"/>
    <path class="fil0" d="M251.66 4436.37c0,2.32 1.88,4.2 4.2,4.2 2.32,0 4.2,-1.88 4.2,-4.2 0,-2.32 -1.88,-4.2 -4.2,-4.2 -2.32,0 -4.2,1.88 -4.2,4.2z"/>
    <path class="fil0" d="M251.66 4373.97c0,2.32 1.88,4.2 4.2,4.2 2.32,0 4.2,-1.88 4.2,-4.2 0,-2.32 -1.88,-4.2 -4.2,-4.2 -2.32,0 -4.2,1.88 -4.2,4.2z"/>
    <path class="fil0" d="M251.66 4311.58c0,2.32 1.88,4.2 4.2,4.2 2.32,0 4.2,-1.88 4.2,-4.2 0,-2.32 -1.88,-4.2 -4.2,-4.2 -2.32,0 -4.2,1.88 -4.2,4.2z"/>
    <path class="fil0" d="M201.33 4498.73c0,2.32 1.88,4.2 4.2,4.2 2.32,0 4.2,-1.88 4.2,-4.2 0,-2.32 -1.88,-4.2 -4.2,-4.2 -2.32,0 -4.2,1.88 -4.2,4.2z"/>
    <path class="fil0" d="M201.33 4436.37c0,2.32 1.88,4.2 4.2,4.2 2.32,0 4.2,-1.88 4.2,-4.2 0,-2.32 -1.88,-4.2 -4.2,-4.2 -2.32,0 -4.2,1.88 -4.2,4.2z"/>
    <path class="fil0" d="M201.33 4373.97c0,2.32 1.88,4.2 4.2,4.2 2.32,0 4.2,-1.88 4.2,-4.2 0,-2.32 -1.88,-4.2 -4.2,-4.2 -2.32,0 -4.2,1.88 -4.2,4.2z"/>
    <path class="fil0" d="M201.33 4311.58c0,2.32 1.88,4.2 4.2,4.2 2.32,0 4.2,-1.88 4.2,-4.2 0,-2.32 -1.88,-4.2 -4.2,-4.2 -2.32,0 -4.2,1.88 -4.2,4.2z"/>
    <path class="fil0" d="M151 4498.73c0,2.32 1.88,4.2 4.2,4.2 2.32,0 4.2,-1.88 4.2,-4.2 0,-2.32 -1.88,-4.2 -4.2,-4.2 -2.32,0 -4.2,1.88 -4.2,4.2z"/>
    <path class="fil0" d="M151 4436.37c0,2.32 1.88,4.2 4.2,4.2 2.32,0 4.2,-1.88 4.2,-4.2 0,-2.32 -1.88,-4.2 -4.2,-4.2 -2.32,0 -4.2,1.88 -4.2,4.2z"/>
    <path class="fil0" d="M151 4373.97c0,2.32 1.88,4.2 4.2,4.2 2.32,0 4.2,-1.88 4.2,-4.2 0,-2.32 -1.88,-4.2 -4.2,-4.2 -2.32,0 -4.2,1.88 -4.2,4.2z"/>
    <path class="fil0" d="M151 4311.58c0,2.32 1.88,4.2 4.2,4.2 2.32,0 4.2,-1.88 4.2,-4.2 0,-2.32 -1.88,-4.2 -4.2,-4.2 -2.32,0 -4.2,1.88 -4.2,4.2z"/>
    <path class="fil0" d="M100.66 4498.73c0,2.32 1.88,4.2 4.2,4.2 2.32,0 4.2,-1.88 4.2,-4.2 0,-2.32 -1.88,-4.2 -4.2,-4.2 -2.32,0 -4.2,1.88 -4.2,4.2z"/>
    <path class="fil0" d="M100.66 4436.37c0,2.32 1.88,4.2 4.2,4.2 2.32,0 4.2,-1.88 4.2,-4.2 0,-2.32 -1.88,-4.2 -4.2,-4.2 -2.32,0 -4.2,1.88 -4.2,4.2z"/>
    <path class="fil0" d="M100.66 4373.97c0,2.32 1.88,4.2 4.2,4.2 2.32,0 4.2,-1.88 4.2,-4.2 0,-2.32 -1.88,-4.2 -4.2,-4.2 -2.32,0 -4.2,1.88 -4.2,4.2z"/>
    <path class="fil0" d="M100.66 4311.58c0,2.32 1.88,4.2 4.2,4.2 2.32,0 4.2,-1.88 4.2,-4.2 0,-2.32 -1.88,-4.2 -4.2,-4.2 -2.32,0 -4.2,1.88 -4.2,4.2z"/>
    <path class="fil0" d="M50.33 4498.73c0,2.32 1.88,4.2 4.2,4.2 2.32,0 4.2,-1.88 4.2,-4.2 0,-2.32 -1.88,-4.2 -4.2,-4.2 -2.32,0 -4.2,1.88 -4.2,4.2z"/>
    <path class="fil0" d="M50.33 4436.37c0,2.32 1.88,4.2 4.2,4.2 2.32,0 4.2,-1.88 4.2,-4.2 0,-2.32 -1.88,-4.2 -4.2,-4.2 -2.32,0 -4.2,1.88 -4.2,4.2z"/>
    <path class="fil0" d="M50.33 4373.97c0,2.32 1.88,4.2 4.2,4.2 2.32,0 4.2,-1.88 4.2,-4.2 0,-2.32 -1.88,-4.2 -4.2,-4.2 -2.32,0 -4.2,1.88 -4.2,4.2z"/>
    <path class="fil0" d="M50.33 4311.58c0,2.32 1.88,4.2 4.2,4.2 2.32,0 4.2,-1.88 4.2,-4.2 0,-2.32 -1.88,-4.2 -4.2,-4.2 -2.32,0 -4.2,1.88 -4.2,4.2z"/>
    <path class="fil0" d="M-0 4498.73c0,2.32 1.88,4.2 4.2,4.2 2.32,0 4.2,-1.88 4.2,-4.2 0,-2.32 -1.88,-4.2 -4.2,-4.2 -2.32,0 -4.2,1.88 -4.2,4.2z"/>
    <path class="fil0" d="M0 4436.37c0,2.32 1.88,4.2 4.2,4.2 2.32,0 4.2,-1.88 4.2,-4.2 0,-2.32 -1.88,-4.2 -4.2,-4.2 -2.32,0 -4.2,1.88 -4.2,4.2z"/>
    <path class="fil0" d="M0 4373.97c0,2.32 1.88,4.2 4.2,4.2 2.32,0 4.2,-1.88 4.2,-4.2 0,-2.32 -1.88,-4.2 -4.2,-4.2 -2.32,0 -4.2,1.88 -4.2,4.2z"/>
    <path class="fil0" d="M0 4311.58c0,2.32 1.88,4.2 4.2,4.2 2.32,0 4.2,-1.88 4.2,-4.2 0,-2.32 -1.88,-4.2 -4.2,-4.2 -2.32,0 -4.2,1.88 -4.2,4.2z"/>
    <path class="fil0" d="M3788.88 4108.14c0,2.32 1.88,4.2 4.2,4.2 2.32,0 4.2,-1.88 4.2,-4.2 0,-2.32 -1.88,-4.2 -4.2,-4.2 -2.32,0 -4.2,1.88 -4.2,4.2z"/>
    <path class="fil0" d="M3788.88 4045.78c0,2.32 1.88,4.2 4.2,4.2 2.32,0 4.2,-1.88 4.2,-4.2 0,-2.32 -1.88,-4.2 -4.2,-4.2 -2.32,0 -4.2,1.88 -4.2,4.2z"/>
    <path class="fil0" d="M3788.88 3983.38c0,2.32 1.88,4.2 4.2,4.2 2.32,0 4.2,-1.88 4.2,-4.2 0,-2.32 -1.88,-4.2 -4.2,-4.2 -2.32,0 -4.2,1.88 -4.2,4.2z"/>
    <path class="fil0" d="M3788.88 3920.99c0,2.32 1.88,4.2 4.2,4.2 2.32,0 4.2,-1.88 4.2,-4.2 0,-2.32 -1.88,-4.2 -4.2,-4.2 -2.32,0 -4.2,1.88 -4.2,4.2z"/>
    <path class="fil0" d="M3738.55 4108.14c0,2.32 1.88,4.2 4.2,4.2 2.32,0 4.2,-1.88 4.2,-4.2 0,-2.32 -1.88,-4.2 -4.2,-4.2 -2.32,0 -4.2,1.88 -4.2,4.2z"/>
    <path class="fil0" d="M3738.55 4045.78c0,2.32 1.88,4.2 4.2,4.2 2.32,0 4.2,-1.88 4.2,-4.2 0,-2.32 -1.88,-4.2 -4.2,-4.2 -2.32,0 -4.2,1.88 -4.2,4.2z"/>
    <path class="fil0" d="M3738.55 3983.38c0,2.32 1.88,4.2 4.2,4.2 2.32,0 4.2,-1.88 4.2,-4.2 0,-2.32 -1.88,-4.2 -4.2,-4.2 -2.32,0 -4.2,1.88 -4.2,4.2z"/>
    <path class="fil0" d="M3738.55 3920.99c0,2.32 1.88,4.2 4.2,4.2 2.32,0 4.2,-1.88 4.2,-4.2 0,-2.32 -1.88,-4.2 -4.2,-4.2 -2.32,0 -4.2,1.88 -4.2,4.2z"/>
    <path class="fil0" d="M3688.21 4108.14c0,2.32 1.88,4.2 4.2,4.2 2.32,0 4.2,-1.88 4.2,-4.2 0,-2.32 -1.88,-4.2 -4.2,-4.2 -2.32,0 -4.2,1.88 -4.2,4.2z"/>
    <path class="fil0" d="M3688.21 4045.78c0,2.32 1.88,4.2 4.2,4.2 2.32,0 4.2,-1.88 4.2,-4.2 0,-2.32 -1.88,-4.2 -4.2,-4.2 -2.32,0 -4.2,1.88 -4.2,4.2z"/>
    <path class="fil0" d="M3688.21 3983.38c0,2.32 1.88,4.2 4.2,4.2 2.32,0 4.2,-1.88 4.2,-4.2 0,-2.32 -1.88,-4.2 -4.2,-4.2 -2.32,0 -4.2,1.88 -4.2,4.2z"/>
    <path class="fil0" d="M3688.21 3920.99c0,2.32 1.88,4.2 4.2,4.2 2.32,0 4.2,-1.88 4.2,-4.2 0,-2.32 -1.88,-4.2 -4.2,-4.2 -2.32,0 -4.2,1.88 -4.2,4.2z"/>
    <path class="fil0" d="M3637.88 4108.14c0,2.32 1.88,4.2 4.2,4.2 2.32,0 4.2,-1.88 4.2,-4.2 0,-2.32 -1.88,-4.2 -4.2,-4.2 -2.32,0 -4.2,1.88 -4.2,4.2z"/>
    <path class="fil0" d="M3637.88 4045.78c0,2.32 1.88,4.2 4.2,4.2 2.32,0 4.2,-1.88 4.2,-4.2 0,-2.32 -1.88,-4.2 -4.2,-4.2 -2.32,0 -4.2,1.88 -4.2,4.2z"/>
    <path class="fil0" d="M3637.88 3983.38c0,2.32 1.88,4.2 4.2,4.2 2.32,0 4.2,-1.88 4.2,-4.2 0,-2.32 -1.88,-4.2 -4.2,-4.2 -2.32,0 -4.2,1.88 -4.2,4.2z"/>
    <path class="fil0" d="M3637.88 3920.99c0,2.32 1.88,4.2 4.2,4.2 2.32,0 4.2,-1.88 4.2,-4.2 0,-2.32 -1.88,-4.2 -4.2,-4.2 -2.32,0 -4.2,1.88 -4.2,4.2z"/>
    <path class="fil0" d="M3587.55 4108.14c0,2.32 1.88,4.2 4.2,4.2 2.32,0 4.2,-1.88 4.2,-4.2 0,-2.32 -1.88,-4.2 -4.2,-4.2 -2.32,0 -4.2,1.88 -4.2,4.2z"/>
    <path class="fil0" d="M3587.55 4045.78c0,2.32 1.88,4.2 4.2,4.2 2.32,0 4.2,-1.88 4.2,-4.2 0,-2.32 -1.88,-4.2 -4.2,-4.2 -2.32,0 -4.2,1.88 -4.2,4.2z"/>
    <path class="fil0" d="M3587.55 3983.38c0,2.32 1.88,4.2 4.2,4.2 2.32,0 4.2,-1.88 4.2,-4.2 0,-2.32 -1.88,-4.2 -4.2,-4.2 -2.32,0 -4.2,1.88 -4.2,4.2z"/>
    <path class="fil0" d="M3587.55 3920.99c0,2.32 1.88,4.2 4.2,4.2 2.32,0 4.2,-1.88 4.2,-4.2 0,-2.32 -1.88,-4.2 -4.2,-4.2 -2.32,0 -4.2,1.88 -4.2,4.2z"/>
    <path class="fil0" d="M3537.22 4108.14c0,2.32 1.88,4.2 4.2,4.2 2.32,0 4.2,-1.88 4.2,-4.2 0,-2.32 -1.88,-4.2 -4.2,-4.2 -2.32,0 -4.2,1.88 -4.2,4.2z"/>
    <path class="fil0" d="M3537.22 4045.78c0,2.32 1.88,4.2 4.2,4.2 2.32,0 4.2,-1.88 4.2,-4.2 0,-2.32 -1.88,-4.2 -4.2,-4.2 -2.32,0 -4.2,1.88 -4.2,4.2z"/>
    <path class="fil0" d="M3537.22 3983.38c0,2.32 1.88,4.2 4.2,4.2 2.32,0 4.2,-1.88 4.2,-4.2 0,-2.32 -1.88,-4.2 -4.2,-4.2 -2.32,0 -4.2,1.88 -4.2,4.2z"/>
    <path class="fil0" d="M3537.22 3920.99c0,2.32 1.88,4.2 4.2,4.2 2.32,0 4.2,-1.88 4.2,-4.2 0,-2.32 -1.88,-4.2 -4.2,-4.2 -2.32,0 -4.2,1.88 -4.2,4.2z"/>
    <line class="fil1 str0" x1="3050.8" y1="4023.05" x2="3122.71" y2= "4094.96" />
    <line class="fil1 str0" x1="3122.71" y1="4023.02" x2="3050.8" y2= "4094.93" />
    <line class="fil1 str1" x1="931.92" y1="4156.36" x2="982.93" y2= "4207.37" />
    <line class="fil1 str1" x1="982.93" y1="4156.34" x2="931.92" y2= "4207.35" />
    <line class="fil1 str0" x1="32.76" y1="5171.11" x2="103.91" y2= "5242.27" />
    <line class="fil1 str0" x1="103.91" y1="5171.09" x2="32.76" y2= "5242.24" />
    <line class="fil1 str2" x1="4319.87" y1="4942.21" x2="4383.7" y2= "5006.04" />
    <line class="fil1 str2" x1="4383.7" y1="4942.19" x2="4319.87" y2= "5006.02" />
    <path class="fil2" d="M3973.33 4124.61l-34.28 0c-8.29,0 -15.02,-7.31 -15.02,-16.31l0 -1.36c0,-9.01 6.72,-16.31 15.02,-16.31l34.28 0c8.29,0 15,7.29 15,16.31l0 1.36c0,9 -6.71,16.31 -15,16.31z"/>
    <path class="fil2" d="M4305.18 4124.61l-260.63 0c-8.29,0 -15.01,-7.31 -15.01,-16.31l0 -1.36c0,-9.01 6.72,-16.31 15.01,-16.31l260.63 0c8.29,0 15.02,7.29 15.02,16.31l0 1.36c0,9 -6.72,16.31 -15.02,16.31z"/>
    <path class="fil2" d="M2388.54 5424.56l-34.28 0c-8.29,0 -15.01,-7.31 -15.01,-16.31l0 -1.36c0,-9.01 6.72,-16.31 15.01,-16.31l34.28 0c8.29,0 15,7.29 15,16.31l0 1.36c0,9 -6.71,16.31 -15,16.31z"/>
    <path class="fil2" d="M2720.39 5424.56l-260.63 0c-8.29,0 -15.02,-7.31 -15.02,-16.31l0 -1.36c0,-9.01 6.72,-16.31 15.02,-16.31l260.63 0c8.29,0 15.01,7.29 15.01,16.31l0 1.36c0,9 -6.72,16.31 -15.01,16.31z"/>
    <path class="fil1 str4" d="M2904.83 4527.72c-28.36,0 -28.36,-30.64 -56.72,-30.64 -28.36,0 -28.36,30.64 -56.73,30.64 -28.36,0 -28.36,-30.64 -56.71,-30.64 -28.36,0 -28.36,30.64 -56.71,30.64 -28.37,0 -28.37,-30.64 -56.73,-30.64 -28.37,0 -28.37,30.64 -56.75,30.64 -28.36,0 -28.36,-30.64 -56.73,-30.64 -28.38,0 -28.38,30.64 -56.77,30.64 -28.38,0 -28.38,-30.64 -56.77,-30.64"/>
    <path class="fil1 str4" d="M2904.83 4476.09c-28.36,0 -28.36,-30.64 -56.72,-30.64 -28.36,0 -28.36,30.64 -56.73,30.64 -28.36,0 -28.36,-30.64 -56.71,-30.64 -28.36,0 -28.36,30.64 -56.71,30.64 -28.37,0 -28.37,-30.64 -56.73,-30.64 -28.37,0 -28.37,30.64 -56.75,30.64 -28.36,0 -28.36,-30.64 -56.73,-30.64 -28.38,0 -28.38,30.64 -56.77,30.64 -28.38,0 -28.38,-30.64 -56.77,-30.64"/>
    <path class="fil7" d="M135.92 5755.25c-50.22,-16.83 -90.38,-48.94 -110.59,-88.39 0,0 -20.19,-32.17 -24.33,-60.68 -4.14,-28.49 6.04,-65.14 6.04,-65.14 8.17,-43.59 37.5,-85.98 80.85,-116.65 8.25,-5.84 17.25,-11.4 27.65,-14.21 10.42,-2.88 22.5,-2.55 30.47,2.55 12.2,7.83 10.3,23.42 3.1,35.32 -7.18,11.86 -18.63,22.44 -23.82,34.85 -5.13,12.43 -0.95,28.36 14.62,31.65 12.73,2.63 27.02,-4.64 34.14,-13.89 7.18,-9.22 9.02,-20.01 11.45,-30.35 3.59,-15.06 9.67,-31.12 25.08,-41.46 15.33,-10.32 42.39,-10.81 50.44,2.49 5.37,8.92 0.5,20.07 -6.06,29.23 -6.57,9.16 -15.04,18 -17.51,28.08 -2.47,10.08 4.18,22.06 17.17,22.61 8.86,0.42 17.45,-4.62 22.32,-10.71 4.81,-6.1 6.65,-13.12 8.66,-19.99 4.5,-15.26 11.05,-31.49 26.84,-41.92 15.73,-10.42 43.2,-11.09 51.58,2.35 5.51,8.8 1.18,19.97 -5.45,29.11 -6.61,9.1 -15.45,17.47 -19.77,27.25 -4.32,9.77 -2.53,22 8.53,26.64 15.71,6.61 34.83,-5.61 52.69,-10.38 7.6,-2.03 15.49,-2.47 23.05,-1.56 15.65,1.87 25.32,13.32 27.73,26.21 2.68,13.89 -3.02,29.4 -18.65,36.19 -6.99,3.04 -14.7,4.87 -22.48,5.13 -18.55,0.59 -40.28,-5.6 -53.46,5.31 -9.35,7.6 -7.56,19.87 -0.65,28 6.95,8.13 17.78,13.58 26.72,20.37 8.94,6.85 16.32,16.28 13.52,26.34 -4.26,15.32 -30.73,22.64 -48.8,17.15 -18.06,-5.47 -28.95,-19.1 -37.63,-32.44 -3.87,-5.96 -7.62,-12.16 -13.99,-16.6 -6.39,-4.44 -16.04,-6.79 -24.39,-3.83 -12.31,4.3 -15.22,17.64 -10.01,26.62 5.21,8.94 15.89,14.98 24.81,21.83 8.92,6.89 16.73,16.16 14.09,26.25 -3.91,15.04 -29.98,22.38 -47.64,16.97 -17.64,-5.47 -28,-19.08 -35.76,-32.46 -5.31,-9.22 -10.16,-18.98 -19.62,-25.81 -9.49,-6.77 -25.26,-9.63 -36.65,-3.4 -13.99,7.62 -13.44,24.1 -4.97,34.5 8.43,10.44 22.44,17.21 32.72,26.56 10.3,9.29 16.48,23.68 7.04,34.71 -6.14,7.22 -17.64,10.97 -28.42,11.29 -10.79,0.26 -21,-2.45 -30.61,-5.66l-0.04 -0.04z"/>
    <path class="fil8" d="M0.95 5605.83c-4.01,-28.44 6.08,-64.79 6.08,-64.79 8.17,-43.59 37.51,-85.98 80.85,-116.65 8.25,-5.84 17.25,-11.39 27.65,-14.21 10.42,-2.88 22.5,-2.55 30.47,2.55 12.2,7.82 10.3,23.42 3.1,35.31 -7.18,11.86 -18.63,22.44 -23.82,34.85 -5.13,12.43 -0.95,28.36 14.62,31.65 12.73,2.63 27.02,-4.64 34.14,-13.89 7.18,-9.23 9.02,-20.01 11.46,-30.35 3.59,-15.06 9.67,-31.12 25.08,-41.46 15.32,-10.32 42.39,-10.81 50.44,2.49 5.37,8.92 0.5,20.07 -6.06,29.23 -6.57,9.16 -15.04,18 -17.52,28.08 -2.47,10.08 4.18,22.06 17.17,22.6 8.86,0.43 17.45,-4.62 22.32,-10.7 4.81,-6.1 6.65,-13.12 8.66,-19.99 4.5,-15.26 11.05,-31.49 26.84,-41.92 15.73,-10.42 43.2,-11.09 51.58,2.35 5.51,8.8 1.18,19.97 -5.45,29.11 -6.61,9.1 -15.45,17.47 -19.77,27.25 -4.32,9.77 -2.53,22 8.54,26.64 15.71,6.61 34.83,-5.62 52.69,-10.38 7.6,-2.03 15.49,-2.47 23.05,-1.56 15.65,1.87 25.32,13.32 27.73,26.21 0.1,0.51 0.18,1.01 0.26,1.52l-450.11 66.05 -0 0z"/>
    <path class="fil9" d="M131.24 5588.56c16.58,-2.27 33.15,-4.64 49.73,-7.04l19.93 26.66c6.93,9.2 13.77,18.51 20.78,27.65l20.94 27.51c7.08,9.1 14.07,18.26 21.21,27.33 -6.59,-9.47 -13.34,-18.81 -19.99,-28.22l-20.25 -28.04c-6.71,-9.37 -13.62,-18.59 -20.44,-27.9l-18.75 -25.46c15.51,-2.23 31,-4.48 46.53,-6.69 18.33,-2.8 36.67,-5.55 55,-8.31 6.14,7.66 12.39,15.24 18.57,22.87 6.47,7.93 12.87,15.91 19.42,23.78l19.6 23.64c6.63,7.81 13.16,15.69 19.87,23.42 -6.14,-8.19 -12.45,-16.28 -18.67,-24.41l-18.93 -24.19c-6.31,-8.07 -12.75,-16.02 -19.12,-24.05 -5.78,-7.2 -11.5,-14.43 -17.29,-21.61 13.69,-2.09 27.39,-4.18 41.05,-6.33l49.71 -7.93c16.56,-2.78 33.13,-5.43 49.65,-8.33 -16.67,1.99 -33.29,4.24 -49.93,6.37l-49.87 6.79c-13.67,1.89 -27.31,3.81 -40.97,5.78 7.48,-16.24 15.1,-32.4 22.42,-48.7l11.68 -25.91c3.79,-8.68 7.68,-17.31 11.4,-26.03 -4.32,8.43 -8.48,16.95 -12.71,25.4l-12.43 25.54c-8.13,16.67 -15.93,33.45 -23.92,50.18 -18.39,2.64 -36.76,5.31 -55.14,7.93 -15.49,2.35 -30.96,4.68 -46.45,7.02l10.75 -29.34c3.91,-10.73 7.91,-21.41 11.7,-32.17l11.49 -32.23c3.73,-10.79 7.56,-21.53 11.21,-32.35 -4.3,10.58 -8.39,21.23 -12.59,31.83l-12.31 31.95c-4.14,10.64 -8.09,21.35 -12.1,32.01l-11.58 30.84c-16.56,2.49 -33.11,5.03 -49.65,7.62l-49.71 7.91c-7.52,1.28 -15.06,2.51 -22.6,3.75l13.38 -35.07c4.62,-12.18 9.33,-24.33 13.85,-36.55l13.67 -36.61c4.46,-12.24 9,-24.45 13.36,-36.73 -5.01,12.04 -9.81,24.15 -14.74,36.19l-14.44 36.31c-4.85,12.08 -9.53,24.25 -14.27,36.39l-14.17 36.41 -0.1 0.24c-7.87,1.3 -15.71,2.62 -23.56,4.01 7.91,-0.95 15.81,-1.95 23.72,-2.98l0.14 0.2 24.1 31.87c8.07,10.6 16.02,21.29 24.17,31.83l24.33 31.69c8.21,10.5 16.32,21.04 24.59,31.49 -7.72,-10.87 -15.61,-21.61 -23.39,-32.42l-23.66 -32.21c-7.85,-10.76 -15.89,-21.39 -23.84,-32.07l-22.99 -30.82c7.58,-0.99 15.16,-1.97 22.75,-2.94l49.87 -6.79 0.02 0.04z"/>
   </g>
  </g>
 </g>
</svg>
