<?xml version="1.0" encoding="UTF-8"?>
<!DOCTYPE svg PUBLIC "-//W3C//DTD SVG 1.1//EN" "http://www.w3.org/Graphics/SVG/1.1/DTD/svg11.dtd">
<!-- Creator: CorelDRAW -->
<svg xmlns="http://www.w3.org/2000/svg" xml:space="preserve" width="212.688mm" height="58.2549mm" version="1.1" style="shape-rendering:geometricPrecision; text-rendering:geometricPrecision; image-rendering:optimizeQuality; fill-rule:evenodd; clip-rule:evenodd"
viewBox="0 0 4819.95 1320.17"
 xmlns:xlink="http://www.w3.org/1999/xlink"
 xmlns:xodm="http://www.corel.com/coreldraw/odm/2003">
 <defs>
  <style type="text/css">
   <![CDATA[
    .fil2 {fill:#5C5112}
    .fil0 {fill:#66980A}
    .fil3 {fill:#86613E}
    .fil1 {fill:#A0C433}
    .fil5 {fill:#31AE4A;fill-rule:nonzero}
    .fil4 {fill:#78CA5A;fill-rule:nonzero}
   ]]>
  </style>
 </defs>
 <g id="Layer_x0020_1">
  <metadata id="CorelCorpID_0Corel-Layer"/>
  <g id="_2906217962720">
   <g>
    <path class="fil0" d="M699.26 857.05c32.47,-0.67 64.66,-12.62 77.82,-2.99 -4.26,13.74 10.41,4.42 -13.34,10.29 -13.41,3.32 -45.57,1.49 -60.01,10.35 35.82,6.32 63.1,18.21 106.61,20.54 38.3,2.05 80.78,-1.35 114.86,-8.32 31.33,-6.41 157.26,-36.01 183.68,-61.54 -104.94,-75.65 -329.04,-27.96 -409.62,31.68z"/>
    <path class="fil1" d="M752.77 1045.44c25.86,104.79 177.47,244.55 273.72,274.73 -11.03,-62.58 -48.04,-143.64 -90.29,-182.09 -40.03,-36.42 -103.41,-88.12 -170.62,-104.1l25.39 27.52c2.37,9.03 4.12,2.21 -3.83,10.35l-34.37 -26.41z"/>
    <path class="fil0" d="M402.74 705.88c9.14,6.61 -5.42,2.64 14.5,4.85 1.48,0.16 13.67,-0.81 15.81,-1.05 22.88,-2.57 69.48,-12.24 80.59,-3.15 -3.29,13.02 -5.44,9.34 -23.58,11.07l-77.98 7.85c-13.44,3.71 -5.54,0.45 -13.23,6.24 53.51,4.72 97.78,35.99 209.05,18.25 57.74,-9.2 135.31,-39.64 168.89,-68.6 -53.31,-57.1 -202.11,-42.42 -285.85,-11.88l-88.2 36.43z"/>
    <path class="fil1" d="M262.43 872.83c0.9,108.44 76.95,266.64 164.35,300.62 5.06,-125.67 -42.99,-256.28 -157.44,-309.11 -11.9,0.73 -7.86,-12.02 -6.91,8.48z"/>
    <path class="fil1" d="M502.83 988.32c14.24,94.6 118.55,269.98 199.48,282.27 -7.17,-73.91 -22.71,-132.15 -57.01,-185.79 -23.89,-37.35 -81.65,-96.43 -133.06,-112.62 5.73,17.47 39.94,46.3 36.01,57.97 -9.71,11.58 -22.6,-17.1 -34.51,-30.85l-10.92 -10.99z"/>
    <path class="fil0" d="M888.37 979.8c21.97,9.48 88.7,15.73 118.41,18.19 38.29,3.18 27.38,3.95 32.28,10.43l-0.48 0.37c50.29,5.32 102.67,14.53 152.74,22.18 25.06,3.83 49.53,7.26 74.4,10.95 15.13,2.25 64.22,4.54 74.4,16.95l13.94 -2.09 -90.9 -61.48c-100.6,-51.48 -295.3,-50.96 -374.8,-15.51z"/>
    <path class="fil1" d="M1340.12 1058.88c-10.18,-12.42 -59.27,-14.71 -74.4,-16.95 -24.87,-3.69 -49.34,-7.11 -74.4,-10.95 -50.06,-7.66 -102.44,-16.87 -152.74,-22.18 -12.1,11.32 -59.51,0.2 -78.25,-2.22 -12.25,-1.58 -26.15,-3.7 -39,-5.95 -33.87,-5.94 -26.1,-4.15 -33.5,1.09 39.13,22.51 39.61,28.81 90.93,48.82 32.68,12.74 71.73,21.11 109.65,25.7 96.77,11.72 162.23,-4.03 251.71,-17.35z"/>
    <path class="fil2" d="M1039.06 1008.42c-4.89,-6.48 6.01,-7.26 -32.28,-10.43 -29.71,-2.46 -96.44,-8.72 -118.41,-18.19 -44.76,-2.19 -278,-63.72 -314.38,-88.87 13.28,-8.16 105.73,-14.63 129.74,-16.24 14.44,-8.87 46.6,-7.04 60.01,-10.35 23.75,-5.87 9.08,3.44 13.34,-10.29 -13.16,-9.62 -45.35,2.32 -77.82,2.99l-127.85 15.7c-34.21,4.51 -31.28,7.96 -58.14,-4.7 -68.52,-32.28 -183.16,-83.97 -239.01,-128.55 31.15,1.86 108.3,-16.22 124.59,-7.81 7.69,-5.79 -0.22,-2.52 13.23,-6.24l77.98 -7.85c18.14,-1.72 20.29,1.96 23.58,-11.07 -11.11,-9.09 -57.71,0.58 -80.59,3.15 -2.14,0.24 -14.33,1.21 -15.81,1.05 -19.92,-2.2 -5.36,1.77 -14.5,-4.85 -31.57,16.23 -90.85,13.62 -131.16,19.32 -28.91,4.08 -72.36,-33.16 -95.87,-51.77l-84.54 -67.2c-22.19,-17.83 -62.57,-51.61 -78.42,-73.03l-12.74 6.31c12.99,4.47 13.38,10.3 23.2,19.9 8.96,8.75 17.87,13.51 27.44,22.01 21.38,19.01 9.07,12.89 49.5,44.61 145.81,114.43 172.65,131.08 345.35,220.43 157.47,81.47 395.18,150.64 593.58,161.97z"/>
    <path class="fil3" d="M262.43 872.83c-0.95,-20.5 -4.99,-7.75 6.91,-8.48l-80.43 -160.61c25.76,11.81 62.33,41.54 89.93,59.17 24.67,15.75 75.93,39.11 95.09,56.53 16.89,15.36 108.36,141.43 128.9,168.89l10.92 10.99c11.9,13.75 24.8,42.43 34.51,30.85 3.93,-11.67 -30.28,-40.49 -36.01,-57.97 -18.44,-15.85 -100.56,-127.29 -104.22,-135.18 22.44,7.22 132.19,59.91 197.04,83.27 30.5,10.99 21.54,11.37 41.33,28.13l106.38 97.04 34.37 26.41c7.96,-8.14 6.2,-1.32 3.83,-10.35l-25.39 -27.52 -104.46 -92.21c23.98,1.11 85.2,23.24 113.45,30.21 37.31,9.2 85.16,13.68 113.27,29.73 7.4,-5.24 -0.37,-7.03 33.5,-1.09 12.86,2.25 26.75,4.37 39,5.95 18.73,2.42 66.15,13.54 78.25,2.22l0.48 -0.37c-198.39,-11.32 -436.1,-80.5 -593.58,-161.97 -172.7,-89.34 -199.53,-106 -345.35,-220.43 -40.43,-31.72 -28.12,-25.6 -49.5,-44.61 -9.56,-8.5 -18.48,-13.26 -27.44,-22.01 -9.83,-9.6 -10.21,-15.43 -23.2,-19.9 2.36,13.42 7.1,11.35 17.71,21.51 7.82,7.48 10.01,11.5 18.18,18.53 7.52,6.47 12.98,10.08 20.51,16.57 7.75,6.69 10.94,11.83 18.3,18.39l82.46 65.18c21.86,22.48 83.8,172.44 105.27,193.13z"/>
   </g>
   <path class="fil4" d="M4767.72 495.19l-1007.47 0c6.29,-70.76 24.98,-137.67 53.83,-197.93l217.86 106.51 -193.69 -151.71c39.16,-66.38 91.2,-122.96 152.29,-165.52l139.54 210.54 -97.97 -236.65c62.84,-35.38 133.27,-56.76 207.87,-60.42l24 258 24.02 -258c74.62,3.67 145.2,25.04 208.04,60.42l-97.97 236.65 139.54 -210.54c61.08,42.73 112.96,99.14 152.29,165.52l-193.71 151.71 217.72 -106.51c28.84,60.26 47.53,127.17 53.82,197.93z"/>
   <path class="fil5" d="M4819.95 810.89l-667.03 0c4.16,-46.97 16.55,-91.4 35.64,-131.41l144.25 70.71 -128.25 -100.71c25.93,-44.07 60.39,-81.64 100.83,-109.9l92.4 139.78 -64.87 -157.11c41.61,-23.49 88.23,-37.68 137.63,-40.12l15.9 171.3 15.9 -171.3c49.39,2.44 96.12,16.63 137.72,40.12l-64.87 157.11 92.41 -139.78c40.43,28.37 74.78,65.83 100.81,109.9l-128.23 100.71 144.12 -70.71c19.11,40.01 31.48,84.44 35.65,131.41z"/>
  </g>
 </g>
</svg>
