<?xml version="1.0" encoding="UTF-8"?>
<!DOCTYPE svg PUBLIC "-//W3C//DTD SVG 1.1//EN" "http://www.w3.org/Graphics/SVG/1.1/DTD/svg11.dtd">
<!-- Creator: CorelDRAW -->
<svg xmlns="http://www.w3.org/2000/svg" xml:space="preserve" width="364.256mm" height="153.582mm" version="1.1" style="shape-rendering:geometricPrecision; text-rendering:geometricPrecision; image-rendering:optimizeQuality; fill-rule:evenodd; clip-rule:evenodd"
viewBox="0 0 11249.48 4743.14"
 xmlns:xlink="http://www.w3.org/1999/xlink"
 xmlns:xodm="http://www.corel.com/coreldraw/odm/2003">
 <defs>
  <style type="text/css">
   <![CDATA[
    .str0 {stroke:white;stroke-width:24.64;stroke-miterlimit:22.9256}
    .str2 {stroke:white;stroke-width:24.86;stroke-miterlimit:22.9256}
    .str1 {stroke:white;stroke-width:5.19;stroke-miterlimit:22.9256}
    .str3 {stroke:white;stroke-width:24.39;stroke-miterlimit:22.9256}
    .fil6 {fill:none}
    .fil1 {fill:none;fill-rule:nonzero}
    .fil2 {fill:black;fill-rule:nonzero}
    .fil4 {fill:#66980A;fill-rule:nonzero}
    .fil0 {fill:#78CA5A;fill-rule:nonzero}
    .fil3 {fill:#A1C533;fill-rule:nonzero}
    .fil5 {fill:#587324;fill-opacity:0.501961}
   ]]>
  </style>
 </defs>
 <g id="Layer_x0020_1">
  <metadata id="CorelCorpID_0Corel-Layer"/>
  <g id="_2520092274096">
   <path class="fil0" d="M10012.98 342.56l-72.25 0c-17.48,0 -31.65,14.48 -31.65,32.33l0 2.71c0,17.87 14.17,32.33 31.65,32.33l72.25 0c17.48,0 31.62,-14.46 31.62,-32.33l0 -2.71c0,-17.84 -14.14,-32.33 -31.62,-32.33z"/>
   <path class="fil0" d="M10712.37 342.56l-549.31 0c-17.48,0 -31.65,14.48 -31.65,32.33l0 2.71c0,17.87 14.17,32.33 31.65,32.33l549.31 0c17.48,0 31.65,-14.46 31.65,-32.33l0 -2.71c0,-17.84 -14.17,-32.33 -31.65,-32.33z"/>
   <path class="fil0" d="M7907.12 4189.81l-72.25 0c-17.47,0 -31.65,14.49 -31.65,32.33l0 2.7c0,17.88 14.17,32.33 31.65,32.33l72.25 0c17.48,0 31.62,-14.46 31.62,-32.33l0 -2.7c0,-17.84 -14.14,-32.33 -31.62,-32.33z"/>
   <path class="fil0" d="M8606.51 4189.81l-549.31 0c-17.48,0 -31.65,14.49 -31.65,32.33l0 2.7c0,17.88 14.17,32.33 31.65,32.33l549.31 0c17.48,0 31.65,-14.46 31.65,-32.33l0 -2.7c0,-17.84 -14.17,-32.33 -31.65,-32.33z"/>
   <line class="fil1 str0" x1="8121" y1="1843.82" x2="8276.23" y2= "1688.59" />
   <line class="fil1 str0" x1="8276.23" y1="1843.87" x2="8121" y2= "1688.64" />
   <path class="fil2" d="M7474.12 206.04c0,-5.01 4.06,-9.07 9.06,-9.07 5.01,0 9.06,4.06 9.06,9.07 0,5.01 -4.06,9.06 -9.06,9.06 -5,0 -9.06,-4.05 -9.06,-9.06z"/>
   <path class="fil2" d="M7474.12 340.65c0,-5 4.06,-9.06 9.06,-9.06 5.01,0 9.06,4.06 9.06,9.06 0,5.01 -4.06,9.06 -9.06,9.06 -5,0 -9.06,-4.06 -9.06,-9.06z"/>
   <path class="fil2" d="M7474.12 475.34c0,-5 4.06,-9.06 9.06,-9.06 5.01,0 9.06,4.06 9.06,9.06 0,5.01 -4.06,9.06 -9.06,9.06 -5,0 -9.06,-4.05 -9.06,-9.06z"/>
   <path class="fil2" d="M7474.12 610.04c0,-5.01 4.06,-9.06 9.06,-9.06 5.01,0 9.06,4.05 9.06,9.06 0,5 -4.06,9.06 -9.06,9.06 -5,0 -9.06,-4.06 -9.06,-9.06z"/>
   <path class="fil2" d="M7365.46 206.04c0,-5.01 4.06,-9.07 9.06,-9.07 5.01,0 9.06,4.06 9.06,9.07 0,5.01 -4.06,9.06 -9.06,9.06 -5,0 -9.06,-4.05 -9.06,-9.06z"/>
   <path class="fil2" d="M7365.46 340.65c0,-5 4.06,-9.06 9.06,-9.06 5.01,0 9.06,4.06 9.06,9.06 0,5.01 -4.06,9.06 -9.06,9.06 -5,0 -9.06,-4.06 -9.06,-9.06z"/>
   <path class="fil2" d="M7365.46 475.34c0,-5 4.06,-9.06 9.06,-9.06 5.01,0 9.06,4.06 9.06,9.06 0,5.01 -4.06,9.06 -9.06,9.06 -5,0 -9.06,-4.05 -9.06,-9.06z"/>
   <path class="fil2" d="M7365.46 610.04c0,-5.01 4.06,-9.06 9.06,-9.06 5.01,0 9.06,4.05 9.06,9.06 0,5 -4.06,9.06 -9.06,9.06 -5,0 -9.06,-4.06 -9.06,-9.06z"/>
   <path class="fil2" d="M7256.82 206.04c0,-5.01 4.05,-9.07 9.06,-9.07 5,0 9.06,4.06 9.06,9.07 0,5.01 -4.06,9.06 -9.06,9.06 -5.01,0 -9.06,-4.05 -9.06,-9.06z"/>
   <path class="fil2" d="M7256.82 340.65c0,-5 4.05,-9.06 9.06,-9.06 5,0 9.06,4.06 9.06,9.06 0,5.01 -4.06,9.06 -9.06,9.06 -5.01,0 -9.06,-4.06 -9.06,-9.06z"/>
   <path class="fil2" d="M7256.82 475.34c0,-5 4.05,-9.06 9.06,-9.06 5,0 9.06,4.06 9.06,9.06 0,5.01 -4.06,9.06 -9.06,9.06 -5.01,0 -9.06,-4.05 -9.06,-9.06z"/>
   <path class="fil2" d="M7256.82 610.04c0,-5.01 4.05,-9.06 9.06,-9.06 5,0 9.06,4.05 9.06,9.06 0,5 -4.06,9.06 -9.06,9.06 -5.01,0 -9.06,-4.06 -9.06,-9.06z"/>
   <path class="fil2" d="M7148.17 206.04c0,-5.01 4.06,-9.07 9.06,-9.07 5,0 9.06,4.06 9.06,9.07 0,5.01 -4.06,9.06 -9.06,9.06 -5.01,0 -9.06,-4.05 -9.06,-9.06z"/>
   <path class="fil2" d="M7148.17 340.65c0,-5 4.06,-9.06 9.06,-9.06 5,0 9.06,4.06 9.06,9.06 0,5.01 -4.06,9.06 -9.06,9.06 -5.01,0 -9.06,-4.06 -9.06,-9.06z"/>
   <path class="fil2" d="M7148.17 475.34c0,-5 4.06,-9.06 9.06,-9.06 5,0 9.06,4.06 9.06,9.06 0,5.01 -4.06,9.06 -9.06,9.06 -5.01,0 -9.06,-4.05 -9.06,-9.06z"/>
   <path class="fil2" d="M7148.17 610.04c0,-5.01 4.06,-9.06 9.06,-9.06 5,0 9.06,4.05 9.06,9.06 0,5 -4.06,9.06 -9.06,9.06 -5.01,0 -9.06,-4.06 -9.06,-9.06z"/>
   <path class="fil2" d="M7039.52 206.04c0,-5.01 4.06,-9.07 9.06,-9.07 5.01,0 9.06,4.06 9.06,9.07 0,5.01 -4.05,9.06 -9.06,9.06 -5,0 -9.06,-4.05 -9.06,-9.06z"/>
   <path class="fil2" d="M7039.52 340.65c0,-5 4.06,-9.06 9.06,-9.06 5.01,0 9.06,4.06 9.06,9.06 0,5.01 -4.05,9.06 -9.06,9.06 -5,0 -9.06,-4.06 -9.06,-9.06z"/>
   <path class="fil2" d="M7039.52 475.34c0,-5 4.06,-9.06 9.06,-9.06 5.01,0 9.06,4.06 9.06,9.06 0,5.01 -4.05,9.06 -9.06,9.06 -5,0 -9.06,-4.05 -9.06,-9.06z"/>
   <path class="fil2" d="M7039.52 610.04c0,-5.01 4.06,-9.06 9.06,-9.06 5.01,0 9.06,4.05 9.06,9.06 0,5 -4.05,9.06 -9.06,9.06 -5,0 -9.06,-4.06 -9.06,-9.06z"/>
   <path class="fil2" d="M6930.86 206.04c0,-5.01 4.05,-9.07 9.06,-9.07 5.01,0 9.07,4.06 9.07,9.07 0,5.01 -4.06,9.06 -9.07,9.06 -5.01,0 -9.06,-4.05 -9.06,-9.06z"/>
   <path class="fil2" d="M6930.87 340.65c0,-5 4.06,-9.06 9.06,-9.06 5,0 9.06,4.06 9.06,9.06 0,5.01 -4.06,9.06 -9.06,9.06 -5.01,0 -9.06,-4.06 -9.06,-9.06z"/>
   <path class="fil2" d="M6930.87 475.34c0,-5 4.06,-9.06 9.06,-9.06 5,0 9.06,4.06 9.06,9.06 0,5.01 -4.06,9.06 -9.06,9.06 -5.01,0 -9.06,-4.05 -9.06,-9.06z"/>
   <path class="fil2" d="M6930.87 610.04c0,-5.01 4.06,-9.06 9.06,-9.06 5,0 9.06,4.05 9.06,9.06 0,5 -4.06,9.06 -9.06,9.06 -5.01,0 -9.06,-4.06 -9.06,-9.06z"/>
   <path class="fil3" d="M10813.61 1002.35c46.78,6.61 93.37,14.52 139.78,23.64 14.82,3.08 29.79,6.19 44.73,9.42 41.16,9.02 82.16,19.13 123,30.28 13.4,3.69 26.79,7.51 40.14,11.46 29.58,8.59 58.94,17.81 88.22,27.57l-2.14 6.45 -2.12 6.32c-0.51,-0.21 -0.92,-0.27 -1.42,-0.48 -27.86,-9.28 -55.8,-18.03 -83.95,-26.28 -5.7,-1.76 -11.54,-3.42 -17.26,-5.05 -48.43,-13.87 -97.23,-26.17 -146.25,-36.87 -5.37,-1.18 -10.88,-2.39 -16.39,-3.58 -54.82,-11.68 -110.21,-21.42 -165.73,-29.27 -6.49,-0.93 -13,-1.74 -19.49,-2.67 -57.71,-7.63 -115.59,-13.13 -173.5,-16.6 -5.75,-0.42 -11.39,-0.7 -17.17,-0.99 -52.98,-2.9 -106.11,-3.92 -159.21,-3.19 -7.3,0.03 -14.75,0.18 -22.1,0.46 -55.61,1.19 -111.33,4.25 -166.85,9.5 -10.4,0.8 -20.69,1.89 -31.13,3.08 -49.27,5.08 -98.51,11.78 -147.54,19.99 -33.55,5.71 -66.9,11.99 -100.23,19.1l-1.36 -6.55 -1.49 -6.57c33.05,-7 66.27,-13.3 99.53,-18.93 44.34,-7.55 88.9,-13.7 133.41,-18.65 15.81,-1.78 31.73,-3.41 47.62,-4.91 47.96,-4.45 96.11,-7.38 144.31,-8.82 15.22,-0.52 30.28,-0.91 45.46,-1.17 43.89,-0.57 87.74,0.07 131.54,1.91 14.65,0.63 29.43,1.26 44.04,2.16 49.47,2.93 98.85,7.33 148.02,13.34 15.15,1.78 30.41,3.84 45.52,5.88z"/>
   <path class="fil3" d="M10073.73 1012.61c8.03,2.37 12.92,4.16 13.83,4.43l0.11 0.15c-3.39,2.9 -6.91,5.76 -10.39,8.37 -188.21,151.23 -331.7,75.4 -331.7,75.4l0.15 -0.1c131.45,-131.69 282.19,-101.59 328,-88.24z"/>
   <path class="fil3" d="M10257.75 995.47c0,0 -74.94,-180.48 -260.78,-143.94 0,0 71.9,153.69 260.78,143.94z"/>
   <path class="fil3" d="M10257.75 995.49l-0.02 0.12c-0.25,0.78 -0.72,3.14 -1.81,6.91 -9.38,30.42 -55.5,151.68 -214.56,190.69 0,0 22.02,-130.4 183.44,-187.6 10.27,-3.66 21.15,-6.97 32.54,-10.05 0.12,0.01 0.29,-0.1 0.41,-0.08z"/>
   <path class="fil3" d="M10445.66 985.79c0,0 -24.5,-167.83 -210.16,-176.84 0,0 34.94,172.77 210.16,176.84z"/>
   <path class="fil3" d="M10445.74 985.81c0,0 -0.21,2.4 -0.85,6.78 -4.62,27.46 -31.9,132.36 -185.7,186.33 0,0 12.41,-133.01 163.59,-185.86 7.3,-2.74 14.94,-5.15 22.95,-7.25z"/>
   <path class="fil3" d="M10621.98 989.94c0,0 -42.05,-172.72 -187.71,-194.59 0,0 7.22,176.92 187.71,194.59z"/>
   <path class="fil3" d="M10621.82 989.87l0.14 0.02c0,0 -0.09,2.42 -0.72,6.79 -3.87,25.94 -27.44,121.11 -163.21,175.77 0,0 7.89,-127.98 146.04,-176.76 5.73,-2.16 11.53,-4.02 17.74,-5.83z"/>
   <path class="fil3" d="M10816.29 1009.46c0,0 -50.15,-143.83 -177.24,-175.56 0,0 7.75,145.43 177.24,175.56z"/>
   <path class="fil3" d="M10816.12 1009.47l0.13 0.02c0,0 -0.6,2.34 -2,6.47 -9.19,27.2 -54.18,132.13 -201.51,150.66 0,0 38,-123.1 182.02,-153.34 6.85,-1.57 14.05,-2.7 21.37,-3.81z"/>
   <path class="fil3" d="M10999.58 1042.64c0,0 -27.02,-168.25 -169.32,-178.86 0,0 17.56,140.2 169.32,178.86z"/>
   <path class="fil3" d="M10999.5 1042.66l-0.02 0.14c-0.36,0.61 -1.35,2.77 -3.17,6.02 -13.47,24.97 -73.19,117.63 -218.34,134.18 0,0 64.88,-115.31 201.96,-137.75 6.25,-1.14 12.72,-1.96 19.3,-2.5 0.14,-0.11 0.14,-0.11 0.28,-0.09z"/>
   <path class="fil4" d="M11246.28 1114.34l-1.06 3.16c-0.51,-0.21 -0.92,-0.27 -1.42,-0.48 -27.86,-9.28 -55.8,-18.03 -83.95,-26.28 -5.7,-1.76 -11.54,-3.42 -17.26,-5.05 -48.43,-13.87 -97.23,-26.17 -146.25,-36.87 -5.37,-1.18 -10.88,-2.39 -16.39,-3.58 -54.82,-11.68 -110.21,-21.42 -165.73,-29.27 -6.49,-0.93 -13,-1.74 -19.49,-2.67 -57.71,-7.63 -115.59,-13.13 -173.5,-16.6 -5.75,-0.42 -11.39,-0.7 -17.17,-0.99 -52.98,-2.9 -106.11,-3.92 -159.21,-3.19 -7.3,0.03 -14.75,0.18 -22.1,0.46 -55.61,1.19 -111.33,4.25 -166.85,9.5 -10.4,0.8 -20.69,1.89 -31.13,3.08 -49.27,5.08 -98.51,11.78 -147.54,19.99 -33.55,5.71 -66.9,11.99 -100.23,19.1l-1.36 -6.55 -0.24 -1.07c271.65,-58.22 752.81,-109.63 1270.87,77.31z"/>
   <path class="fil4" d="M10085.19 1016.24l2.36 0.79 0.11 0.15c-3.39,2.9 -6.91,5.76 -10.39,8.37 -188.21,151.23 -331.7,75.4 -331.7,75.4l0.15 -0.1c0,0 129.38,-49.89 339.46,-84.61z"/>
   <path class="fil4" d="M10257.75 995.47l-0.61 -1.4c-6.26,0.58 -12.46,1.2 -18.63,1.82 6.28,0.04 12.68,-0.08 19.24,-0.42z"/>
   <path class="fil4" d="M10257.75 995.49l-0.02 0.12c-0.25,0.78 -0.72,3.14 -1.81,6.91 -9.38,30.42 -55.5,151.68 -214.56,190.69 0,0 22.02,-130.4 183.44,-187.6 10.27,-3.66 21.15,-6.97 32.54,-10.05 0.12,0.01 0.29,-0.1 0.41,-0.08z"/>
   <path class="fil4" d="M10445.66 985.79l-0.34 -1.97c-7.48,0.12 -14.96,0.23 -22.35,0.42 7.29,0.83 14.85,1.37 22.69,1.55z"/>
   <path class="fil4" d="M10445.74 985.81c0,0 -0.21,2.4 -0.85,6.78 -4.62,27.46 -31.9,132.36 -185.7,186.33 0,0 12.41,-133.01 163.59,-185.86 7.3,-2.74 14.94,-5.15 22.95,-7.25z"/>
   <path class="fil4" d="M10621.98 989.94l-0.63 -2.38c-8.18,-0.48 -16.32,-0.9 -24.44,-1.3 7.96,1.58 16.31,2.82 25.07,3.68z"/>
   <path class="fil4" d="M10621.82 989.87l0.14 0.02c0,0 -0.09,2.42 -0.72,6.79 -3.87,25.94 -27.44,121.11 -163.21,175.77 0,0 7.89,-127.98 146.04,-176.76 5.73,-2.16 11.53,-4.02 17.74,-5.83z"/>
   <path class="fil4" d="M10816.29 1009.46c0,0 -0.29,-0.83 -0.87,-2.35 -8.24,-1.19 -16.43,-2.28 -24.62,-3.37 8.07,2.2 16.54,4.13 25.49,5.72z"/>
   <path class="fil4" d="M10816.12 1009.47l0.13 0.02c0,0 -0.6,2.34 -2,6.47 -9.19,27.2 -54.18,132.13 -201.51,150.66 0,0 38,-123.1 182.02,-153.34 6.85,-1.57 14.05,-2.7 21.37,-3.81z"/>
   <path class="fil4" d="M10999.58 1042.64l-0.17 -1.02c-5.33,-1.23 -10.65,-2.46 -15.96,-3.65 5.21,1.68 10.57,3.25 16.14,4.67z"/>
   <path class="fil4" d="M10999.5 1042.66l-0.02 0.14c-0.36,0.61 -1.35,2.77 -3.17,6.02 -13.47,24.97 -73.19,117.63 -218.34,134.18 0,0 64.88,-115.31 201.96,-137.75 6.25,-1.14 12.72,-1.96 19.3,-2.5 0.14,-0.11 0.14,-0.11 0.28,-0.09z"/>
   <path class="fil5" d="M-0 104.2l89.37 107.04c630.5,156.17 825.62,727.95 887.44,1004.14 47.9,213.91 161.4,413.97 334.2,546.69 201.88,155.03 465.18,188.97 696.3,269.4 205.57,71.54 432.72,196.26 508.19,430.12 52.71,163.29 61.6,502.87 302.87,657.32 81.25,52 226.28,101.08 255.36,213.86 30.59,118.66 -14.55,224.32 -163.28,274.08 -139.08,46.53 -348.21,-21.46 -625.19,0 -233.47,18.1 -255.37,262.23 -422.66,389.34 -204.72,155.58 -490.41,41.24 -721.21,112.32 -167.23,51.52 -315.75,156.35 -485.67,196.07 -215.04,50.28 -438.52,42.59 -655.73,8.26l0 -4208.64z"/>
   <path class="fil6 str1" d="M3780.38 2.6c-61.22,0 -61.22,66.14 -122.44,66.14 -61.22,0 -61.22,-66.14 -122.45,-66.14 -61.21,0 -61.21,66.14 -122.43,66.14 -61.22,0 -61.22,-66.14 -122.42,-66.14 -61.24,0 -61.24,66.14 -122.47,66.14 -61.25,0 -61.25,-66.14 -122.5,-66.14 -61.22,0 -61.22,66.14 -122.45,66.14 -61.27,0 -61.27,-66.14 -122.54,-66.14 -61.27,0 -61.27,66.14 -122.55,66.14"/>
   <path class="fil6 str1" d="M3780.38 114.05c-61.22,0 -61.22,66.14 -122.44,66.14 -61.22,0 -61.22,-66.14 -122.45,-66.14 -61.21,0 -61.21,66.14 -122.43,66.14 -61.22,0 -61.22,-66.14 -122.42,-66.14 -61.24,0 -61.24,66.14 -122.47,66.14 -61.25,0 -61.25,-66.14 -122.5,-66.14 -61.22,0 -61.22,66.14 -122.45,66.14 -61.27,0 -61.27,-66.14 -122.54,-66.14 -61.27,0 -61.27,66.14 -122.55,66.14"/>
   <line class="fil6 str2" x1="1386.68" y1="554.26" x2="1523.85" y2= "414.43" />
   <line class="fil6 str3" x1="1523.85" y1="554.29" x2="1386.68" y2= "414.47" />
   <path class="fil0" d="M2350.87 4675.78l-72.25 0c-17.47,0 -31.65,14.48 -31.65,32.33l0 2.7c0,17.87 14.17,32.33 31.65,32.33l72.25 0c17.48,0 31.62,-14.46 31.62,-32.33l0 -2.7c0,-17.84 -14.14,-32.33 -31.62,-32.33z"/>
   <path class="fil0" d="M3050.26 4675.78l-549.31 0c-17.47,0 -31.65,14.48 -31.65,32.33l0 2.7c0,17.87 14.17,32.33 31.65,32.33l549.31 0c17.48,0 31.65,-14.46 31.65,-32.33l0 -2.7c0,-17.84 -14.17,-32.33 -31.65,-32.33z"/>
  </g>
 </g>
</svg>
