<?xml version="1.0" encoding="UTF-8" standalone="no"?>
<!DOCTYPE svg PUBLIC "-//W3C//DTD SVG 1.1//EN" "http://www.w3.org/Graphics/SVG/1.1/DTD/svg11.dtd">
<svg width="100%" height="100%" viewBox="0 0 1067 125" version="1.1" xmlns="http://www.w3.org/2000/svg" xmlns:xlink="http://www.w3.org/1999/xlink" xml:space="preserve" xmlns:serif="http://www.serif.com/" style="fill-rule:evenodd;clip-rule:evenodd;stroke-linejoin:round;stroke-miterlimit:2;">
    <g transform="matrix(1,0,0,1,1272.94,-666.23)">
        <g transform="matrix(0,-2.72221,-2.5043,0,-1202.63,649.129)">
            <path d="M-9.779,-9.779C-11.431,-9.779 -12.77,-5.401 -12.77,-0.001C-12.77,5.4 -11.431,9.779 -9.779,9.779C-8.127,9.779 -6.788,5.4 -6.788,-0.001C-6.788,-5.401 -8.127,-9.779 -9.779,-9.779" style="fill:rgb(120,202,90);fill-rule:nonzero;"/>
        </g>
        <g transform="matrix(2.5043,0,0,2.72221,-206.044,720.742)">
            <path d="M0,17.156L-37.941,17.156C-37.705,14.704 -37.001,12.385 -35.914,10.299L-27.71,13.988L-35.004,8.732C-33.529,6.432 -31.569,4.472 -29.27,2.998L-24.014,10.292L-27.703,2.093C-25.337,0.867 -22.685,0.127 -19.875,0L-18.971,8.938L-18.066,0C-15.257,0.127 -12.599,0.867 -10.231,2.093L-13.922,10.292L-8.666,2.998C-6.366,4.478 -4.412,6.432 -2.931,8.732L-10.226,13.988L-2.027,10.299C-0.94,12.385 -0.236,14.704 0,17.156" style="fill:rgb(49,174,74);fill-rule:nonzero;"/>
        </g>
        <g transform="matrix(2.5043,0,0,2.72221,-1196.04,747.664)">
            <path d="M0,13.884L-30.705,13.884C-30.513,11.9 -29.943,10.024 -29.064,8.334L-22.424,11.321L-28.328,7.067C-27.134,5.205 -25.548,3.619 -23.687,2.426L-19.434,8.329L-22.419,1.695C-20.504,0.702 -18.358,0.103 -16.084,0L-15.353,7.234L-14.621,0C-12.347,0.103 -10.196,0.702 -8.28,1.695L-11.266,8.329L-7.013,2.426C-5.152,3.624 -3.57,5.205 -2.372,7.067L-8.275,11.321L-1.641,8.334C-0.761,10.024 -0.192,11.9 0,13.884" style="fill:rgb(49,174,74);fill-rule:nonzero;"/>
        </g>
        <g transform="matrix(2.5043,0,0,2.72221,-1126.5,783.278)">
            <path d="M0,2.567L-2.814,2.567C-3.496,2.567 -4.047,2.015 -4.047,1.335L-4.047,1.232C-4.047,0.551 -3.496,0 -2.814,0L0,0C0.681,0 1.233,0.551 1.233,1.232L1.233,1.335C1.233,2.015 0.681,2.567 0,2.567" style="fill:rgb(120,202,90);fill-rule:nonzero;"/>
        </g>
        <g transform="matrix(2.5043,0,0,2.72221,-1058.26,783.278)">
            <path d="M0,2.567L-21.402,2.567C-22.083,2.567 -22.635,2.015 -22.635,1.335L-22.635,1.232C-22.635,0.551 -22.083,0 -21.402,0L0,0C0.681,0 1.233,0.551 1.233,1.232L1.233,1.335C1.233,2.015 0.681,2.567 0,2.567" style="fill:rgb(120,202,90);fill-rule:nonzero;"/>
        </g>
        <g transform="matrix(2.5043,0,0,2.72221,-514.242,744.022)">
            <path d="M0,2.567L-2.815,2.567C-3.496,2.567 -4.048,2.015 -4.048,1.335L-4.048,1.232C-4.048,0.551 -3.496,0 -2.815,0L0,0C0.681,0 1.232,0.551 1.232,1.232L1.232,1.335C1.232,2.015 0.681,2.567 0,2.567" style="fill:rgb(120,202,90);fill-rule:nonzero;"/>
        </g>
        <g transform="matrix(2.5043,0,0,2.72221,-446,744.022)">
            <path d="M0,2.567L-21.402,2.567C-22.083,2.567 -22.635,2.015 -22.635,1.335L-22.635,1.232C-22.635,0.551 -22.083,0 -21.402,0L0,0C0.681,0 1.233,0.551 1.233,1.232L1.233,1.335C1.233,2.015 0.681,2.567 0,2.567" style="fill:rgb(120,202,90);fill-rule:nonzero;"/>
        </g>
        <g transform="matrix(-2.5043,0,0,2.72221,-1232.38,743.992)">
            <path d="M-39.242,-8.821L5.733,-8.821L0,0L-44.975,0L-39.242,-8.821Z" style="fill:rgb(120,202,90);fill-rule:nonzero;"/>
        </g>
        <g transform="matrix(2.5043,0,0,2.72221,-1180.53,695.843)">
            <path d="M0,13.707L-0.094,13.707C-0.716,13.707 -1.22,13.203 -1.22,12.581L-1.22,0L1.127,0L1.127,12.581C1.127,13.203 0.623,13.707 0,13.707" style="fill:white;fill-rule:nonzero;"/>
        </g>
        <g transform="matrix(2.5043,0,0,2.72221,-1222.04,666.23)">
            <path d="M0,15.26L37.125,15.26L29.109,0L-8.015,0L0,15.26Z" style="fill:rgb(0,46,96);fill-rule:nonzero;"/>
        </g>
        <g transform="matrix(2.5043,0,0,2.72221,-1222.04,666.23)">
            <path d="M0,15.26L37.125,15.26L29.109,0L-8.015,0L0,15.26Z" style="fill:rgb(12,107,154);fill-rule:nonzero;"/>
        </g>
        <g transform="matrix(2.5043,0,0,2.72221,-1144.93,674.117)">
            <path d="M0,0.309L-37.125,0.309L-37.287,0L-0.163,0" style="fill:rgb(164,214,239);fill-rule:nonzero;"/>
        </g>
        <g transform="matrix(2.5043,0,0,2.72221,-1140.91,682.425)">
            <path d="M0,0.309L-37.125,0.309L-37.288,0L-0.163,0" style="fill:rgb(164,214,239);fill-rule:nonzero;"/>
        </g>
        <g transform="matrix(2.5043,0,0,2.72221,-1136.9,690.733)">
            <path d="M0,0.31L-37.125,0.31L-37.287,0L-0.163,0" style="fill:rgb(164,214,239);fill-rule:nonzero;"/>
        </g>
        <g transform="matrix(2.5043,0,0,2.72221,-1132.88,699.04)">
            <path d="M0,0.31L-37.125,0.31L-37.287,0L-0.163,0" style="fill:rgb(164,214,239);fill-rule:nonzero;"/>
        </g>
        <g transform="matrix(2.5043,0,0,2.72221,-1167.23,707.772)">
            <path d="M0,-15.26L8.015,0L7.663,0L-0.352,-15.26" style="fill:rgb(164,214,239);fill-rule:nonzero;"/>
        </g>
        <g transform="matrix(2.5043,0,0,2.72221,-1185.76,707.772)">
            <path d="M0,-15.26L8.015,0L7.663,0L-0.353,-15.26" style="fill:rgb(164,214,239);fill-rule:nonzero;"/>
        </g>
        <g transform="matrix(2.5043,0,0,2.72221,-1204.29,707.772)">
            <path d="M0,-15.26L8.015,0L7.663,0L-0.353,-15.26" style="fill:rgb(164,214,239);fill-rule:nonzero;"/>
        </g>
        <g transform="matrix(2.5043,0,0,2.72221,-1222.82,707.772)">
            <path d="M0,-15.26L8.015,0L7.663,0L-0.353,-15.26" style="fill:rgb(164,214,239);fill-rule:nonzero;"/>
        </g>
        <g transform="matrix(2.5043,0,0,2.72221,-1157.97,707.772)">
            <path d="M0,-15.26L8.015,0L7.663,0L-0.352,-15.26" style="fill:rgb(18,62,101);fill-rule:nonzero;"/>
        </g>
        <g transform="matrix(2.5043,0,0,2.72221,-1176.5,707.772)">
            <path d="M0,-15.26L8.015,0L7.663,0L-0.353,-15.26" style="fill:rgb(18,62,101);fill-rule:nonzero;"/>
        </g>
        <g transform="matrix(2.5043,0,0,2.72221,-1195.02,707.772)">
            <path d="M0,-15.26L8.015,0L7.663,0L-0.353,-15.26" style="fill:rgb(18,62,101);fill-rule:nonzero;"/>
        </g>
        <g transform="matrix(2.5043,0,0,2.72221,-1213.55,707.772)">
            <path d="M0,-15.26L8.015,0L7.663,0L-0.353,-15.26" style="fill:rgb(18,62,101);fill-rule:nonzero;"/>
        </g>
        <g transform="matrix(2.5043,0,0,2.72221,-1232.08,707.772)">
            <path d="M0,-15.26L8.015,0L7.663,0L-0.353,-15.26" style="fill:rgb(18,62,101);fill-rule:nonzero;"/>
        </g>
        <g transform="matrix(-1.49408,2.18467,2.00979,1.62409,-1204.07,753.186)">
            <path d="M-31.257,14.082L-29.227,14.082L-7.078,-15.711L-9.108,-15.712L-31.257,14.082Z" style="fill:rgb(0,77,119);fill-rule:nonzero;"/>
        </g>
        <g transform="matrix(1.49408,-2.18467,-2.00979,-1.62409,-1211.54,695.5)">
            <path d="M-8.149,0.676L-6.12,0.676L1.345,16.213L-0.684,16.213L-8.149,0.676Z" style="fill:rgb(18,62,101);fill-rule:nonzero;"/>
        </g>
        <g transform="matrix(-2.5043,0,0,2.72221,-1111.55,743.992)">
            <path d="M-39.242,-8.821L5.733,-8.821L0,0L-44.975,0L-39.242,-8.821Z" style="fill:rgb(120,202,90);fill-rule:nonzero;"/>
        </g>
        <g transform="matrix(2.5043,0,0,2.72221,-1059.7,695.843)">
            <path d="M0,13.707L-0.094,13.707C-0.716,13.707 -1.22,13.203 -1.22,12.581L-1.22,0L1.127,0L1.127,12.581C1.127,13.203 0.623,13.707 0,13.707" style="fill:white;fill-rule:nonzero;"/>
        </g>
        <g transform="matrix(2.5043,0,0,2.72221,-1101.21,666.23)">
            <path d="M0,15.26L37.125,15.26L29.109,0L-8.015,0L0,15.26Z" style="fill:rgb(0,46,96);fill-rule:nonzero;"/>
        </g>
        <g transform="matrix(2.5043,0,0,2.72221,-1101.21,666.23)">
            <path d="M0,15.26L37.125,15.26L29.109,0L-8.015,0L0,15.26Z" style="fill:rgb(12,107,154);fill-rule:nonzero;"/>
        </g>
        <g transform="matrix(2.5043,0,0,2.72221,-1024.09,674.117)">
            <path d="M0,0.309L-37.125,0.309L-37.287,0L-0.163,0" style="fill:rgb(164,214,239);fill-rule:nonzero;"/>
        </g>
        <g transform="matrix(2.5043,0,0,2.72221,-1020.08,682.425)">
            <path d="M0,0.309L-37.125,0.309L-37.288,0L-0.163,0" style="fill:rgb(164,214,239);fill-rule:nonzero;"/>
        </g>
        <g transform="matrix(2.5043,0,0,2.72221,-1016.07,690.733)">
            <path d="M0,0.31L-37.125,0.31L-37.287,0L-0.163,0" style="fill:rgb(164,214,239);fill-rule:nonzero;"/>
        </g>
        <g transform="matrix(2.5043,0,0,2.72221,-1012.05,699.04)">
            <path d="M0,0.31L-37.125,0.31L-37.287,0L-0.163,0" style="fill:rgb(164,214,239);fill-rule:nonzero;"/>
        </g>
        <g transform="matrix(2.5043,0,0,2.72221,-1046.4,707.772)">
            <path d="M0,-15.26L8.015,0L7.663,0L-0.352,-15.26" style="fill:rgb(164,214,239);fill-rule:nonzero;"/>
        </g>
        <g transform="matrix(2.5043,0,0,2.72221,-1064.93,707.772)">
            <path d="M0,-15.26L8.015,0L7.663,0L-0.353,-15.26" style="fill:rgb(164,214,239);fill-rule:nonzero;"/>
        </g>
        <g transform="matrix(2.5043,0,0,2.72221,-1083.46,707.772)">
            <path d="M0,-15.26L8.015,0L7.663,0L-0.353,-15.26" style="fill:rgb(164,214,239);fill-rule:nonzero;"/>
        </g>
        <g transform="matrix(2.5043,0,0,2.72221,-1101.98,707.772)">
            <path d="M0,-15.26L8.015,0L7.663,0L-0.353,-15.26" style="fill:rgb(164,214,239);fill-rule:nonzero;"/>
        </g>
        <g transform="matrix(2.5043,0,0,2.72221,-1037.14,707.772)">
            <path d="M0,-15.26L8.015,0L7.663,0L-0.352,-15.26" style="fill:rgb(18,62,101);fill-rule:nonzero;"/>
        </g>
        <g transform="matrix(2.5043,0,0,2.72221,-1055.66,707.772)">
            <path d="M0,-15.26L8.015,0L7.663,0L-0.353,-15.26" style="fill:rgb(18,62,101);fill-rule:nonzero;"/>
        </g>
        <g transform="matrix(2.5043,0,0,2.72221,-1074.19,707.772)">
            <path d="M0,-15.26L8.015,0L7.663,0L-0.353,-15.26" style="fill:rgb(18,62,101);fill-rule:nonzero;"/>
        </g>
        <g transform="matrix(2.5043,0,0,2.72221,-1092.72,707.772)">
            <path d="M0,-15.26L8.015,0L7.663,0L-0.353,-15.26" style="fill:rgb(18,62,101);fill-rule:nonzero;"/>
        </g>
        <g transform="matrix(2.5043,0,0,2.72221,-1111.25,707.772)">
            <path d="M0,-15.26L8.015,0L7.663,0L-0.353,-15.26" style="fill:rgb(18,62,101);fill-rule:nonzero;"/>
        </g>
        <g transform="matrix(-1.49408,2.18467,2.00979,1.62409,-1083.24,753.186)">
            <path d="M-31.257,14.082L-29.227,14.082L-7.078,-15.711L-9.108,-15.712L-31.257,14.082Z" style="fill:rgb(0,77,119);fill-rule:nonzero;"/>
        </g>
        <g transform="matrix(1.49408,-2.18467,-2.00979,-1.62409,-1090.71,695.5)">
            <path d="M-8.149,0.676L-6.12,0.676L1.345,16.213L-0.684,16.213L-8.149,0.676Z" style="fill:rgb(18,62,101);fill-rule:nonzero;"/>
        </g>
        <g transform="matrix(-2.5043,0,0,2.72221,-1182.2,776.102)">
            <path d="M-39.242,-8.821L5.733,-8.821L0,0L-44.975,0L-39.242,-8.821Z" style="fill:rgb(120,202,90);fill-rule:nonzero;"/>
        </g>
        <g transform="matrix(2.5043,0,0,2.72221,-1130.35,727.954)">
            <path d="M0,13.707L-0.094,13.707C-0.716,13.707 -1.22,13.203 -1.22,12.581L-1.22,0L1.127,0L1.127,12.581C1.127,13.203 0.623,13.707 0,13.707" style="fill:white;fill-rule:nonzero;"/>
        </g>
        <g transform="matrix(2.5043,0,0,2.72221,-1171.86,698.341)">
            <path d="M0,15.26L37.125,15.26L29.109,0L-8.015,0L0,15.26Z" style="fill:rgb(0,46,96);fill-rule:nonzero;"/>
        </g>
        <g transform="matrix(2.5043,0,0,2.72221,-1171.86,698.341)">
            <path d="M0,15.26L37.125,15.26L29.109,0L-8.015,0L0,15.26Z" style="fill:rgb(12,107,154);fill-rule:nonzero;"/>
        </g>
        <g transform="matrix(2.5043,0,0,2.72221,-1094.74,706.228)">
            <path d="M0,0.309L-37.125,0.309L-37.287,0L-0.163,0" style="fill:rgb(164,214,239);fill-rule:nonzero;"/>
        </g>
        <g transform="matrix(2.5043,0,0,2.72221,-1090.73,714.536)">
            <path d="M0,0.309L-37.125,0.309L-37.288,0L-0.163,0" style="fill:rgb(164,214,239);fill-rule:nonzero;"/>
        </g>
        <g transform="matrix(2.5043,0,0,2.72221,-1086.71,722.843)">
            <path d="M0,0.31L-37.125,0.31L-37.287,0L-0.163,0" style="fill:rgb(164,214,239);fill-rule:nonzero;"/>
        </g>
        <g transform="matrix(2.5043,0,0,2.72221,-1082.7,731.151)">
            <path d="M0,0.31L-37.125,0.31L-37.287,0L-0.163,0" style="fill:rgb(164,214,239);fill-rule:nonzero;"/>
        </g>
        <g transform="matrix(2.5043,0,0,2.72221,-1117.05,739.883)">
            <path d="M0,-15.26L8.015,0L7.663,0L-0.352,-15.26" style="fill:rgb(164,214,239);fill-rule:nonzero;"/>
        </g>
        <g transform="matrix(2.5043,0,0,2.72221,-1135.58,739.883)">
            <path d="M0,-15.26L8.015,0L7.663,0L-0.353,-15.26" style="fill:rgb(164,214,239);fill-rule:nonzero;"/>
        </g>
        <g transform="matrix(2.5043,0,0,2.72221,-1154.1,739.883)">
            <path d="M0,-15.26L8.015,0L7.663,0L-0.353,-15.26" style="fill:rgb(164,214,239);fill-rule:nonzero;"/>
        </g>
        <g transform="matrix(2.5043,0,0,2.72221,-1172.63,739.883)">
            <path d="M0,-15.26L8.015,0L7.663,0L-0.353,-15.26" style="fill:rgb(164,214,239);fill-rule:nonzero;"/>
        </g>
        <g transform="matrix(2.5043,0,0,2.72221,-1107.78,739.883)">
            <path d="M0,-15.26L8.015,0L7.663,0L-0.352,-15.26" style="fill:rgb(18,62,101);fill-rule:nonzero;"/>
        </g>
        <g transform="matrix(2.5043,0,0,2.72221,-1126.31,739.883)">
            <path d="M0,-15.26L8.015,0L7.663,0L-0.353,-15.26" style="fill:rgb(18,62,101);fill-rule:nonzero;"/>
        </g>
        <g transform="matrix(2.5043,0,0,2.72221,-1144.84,739.883)">
            <path d="M0,-15.26L8.015,0L7.663,0L-0.353,-15.26" style="fill:rgb(18,62,101);fill-rule:nonzero;"/>
        </g>
        <g transform="matrix(2.5043,0,0,2.72221,-1163.37,739.883)">
            <path d="M0,-15.26L8.015,0L7.663,0L-0.353,-15.26" style="fill:rgb(18,62,101);fill-rule:nonzero;"/>
        </g>
        <g transform="matrix(2.5043,0,0,2.72221,-1181.9,739.883)">
            <path d="M0,-15.26L8.015,0L7.663,0L-0.353,-15.26" style="fill:rgb(18,62,101);fill-rule:nonzero;"/>
        </g>
        <g transform="matrix(-1.49408,2.18467,2.00979,1.62409,-1153.89,785.297)">
            <path d="M-31.257,14.082L-29.227,14.082L-7.078,-15.711L-9.108,-15.712L-31.257,14.082Z" style="fill:rgb(0,77,119);fill-rule:nonzero;"/>
        </g>
        <g transform="matrix(1.49408,-2.18467,-2.00979,-1.62409,-1161.36,727.611)">
            <path d="M-8.149,0.676L-6.12,0.676L1.345,16.213L-0.684,16.213L-8.149,0.676Z" style="fill:rgb(18,62,101);fill-rule:nonzero;"/>
        </g>
        <g transform="matrix(-2.5043,0,0,2.72221,-1061.37,776.102)">
            <path d="M-39.242,-8.821L5.733,-8.821L0,0L-44.975,0L-39.242,-8.821Z" style="fill:rgb(120,202,90);fill-rule:nonzero;"/>
        </g>
        <g transform="matrix(2.5043,0,0,2.72221,-1009.51,727.954)">
            <path d="M0,13.707L-0.094,13.707C-0.716,13.707 -1.22,13.203 -1.22,12.581L-1.22,0L1.127,0L1.127,12.581C1.127,13.203 0.623,13.707 0,13.707" style="fill:white;fill-rule:nonzero;"/>
        </g>
        <g transform="matrix(2.5043,0,0,2.72221,-1051.03,698.341)">
            <path d="M0,15.26L37.125,15.26L29.109,0L-8.015,0L0,15.26Z" style="fill:rgb(0,46,96);fill-rule:nonzero;"/>
        </g>
        <g transform="matrix(2.5043,0,0,2.72221,-1051.03,698.341)">
            <path d="M0,15.26L37.125,15.26L29.109,0L-8.015,0L0,15.26Z" style="fill:rgb(12,107,154);fill-rule:nonzero;"/>
        </g>
        <g transform="matrix(2.5043,0,0,2.72221,-973.91,706.228)">
            <path d="M0,0.309L-37.125,0.309L-37.287,0L-0.163,0" style="fill:rgb(164,214,239);fill-rule:nonzero;"/>
        </g>
        <g transform="matrix(2.5043,0,0,2.72221,-969.896,714.536)">
            <path d="M0,0.309L-37.125,0.309L-37.288,0L-0.163,0" style="fill:rgb(164,214,239);fill-rule:nonzero;"/>
        </g>
        <g transform="matrix(2.5043,0,0,2.72221,-965.882,722.843)">
            <path d="M0,0.31L-37.125,0.31L-37.287,0L-0.163,0" style="fill:rgb(164,214,239);fill-rule:nonzero;"/>
        </g>
        <g transform="matrix(2.5043,0,0,2.72221,-961.867,731.151)">
            <path d="M0,0.31L-37.125,0.31L-37.287,0L-0.163,0" style="fill:rgb(164,214,239);fill-rule:nonzero;"/>
        </g>
        <g transform="matrix(2.5043,0,0,2.72221,-996.216,739.883)">
            <path d="M0,-15.26L8.015,0L7.663,0L-0.352,-15.26" style="fill:rgb(164,214,239);fill-rule:nonzero;"/>
        </g>
        <g transform="matrix(2.5043,0,0,2.72221,-1014.74,739.883)">
            <path d="M0,-15.26L8.015,0L7.663,0L-0.353,-15.26" style="fill:rgb(164,214,239);fill-rule:nonzero;"/>
        </g>
        <g transform="matrix(2.5043,0,0,2.72221,-1033.27,739.883)">
            <path d="M0,-15.26L8.015,0L7.663,0L-0.353,-15.26" style="fill:rgb(164,214,239);fill-rule:nonzero;"/>
        </g>
        <g transform="matrix(2.5043,0,0,2.72221,-1051.8,739.883)">
            <path d="M0,-15.26L8.015,0L7.663,0L-0.353,-15.26" style="fill:rgb(164,214,239);fill-rule:nonzero;"/>
        </g>
        <g transform="matrix(2.5043,0,0,2.72221,-986.952,739.883)">
            <path d="M0,-15.26L8.015,0L7.663,0L-0.352,-15.26" style="fill:rgb(18,62,101);fill-rule:nonzero;"/>
        </g>
        <g transform="matrix(2.5043,0,0,2.72221,-1005.48,739.883)">
            <path d="M0,-15.26L8.015,0L7.663,0L-0.353,-15.26" style="fill:rgb(18,62,101);fill-rule:nonzero;"/>
        </g>
        <g transform="matrix(2.5043,0,0,2.72221,-1024.01,739.883)">
            <path d="M0,-15.26L8.015,0L7.663,0L-0.353,-15.26" style="fill:rgb(18,62,101);fill-rule:nonzero;"/>
        </g>
        <g transform="matrix(2.5043,0,0,2.72221,-1042.54,739.883)">
            <path d="M0,-15.26L8.015,0L7.663,0L-0.353,-15.26" style="fill:rgb(18,62,101);fill-rule:nonzero;"/>
        </g>
        <g transform="matrix(2.5043,0,0,2.72221,-1061.06,739.883)">
            <path d="M0,-15.26L8.015,0L7.663,0L-0.353,-15.26" style="fill:rgb(18,62,101);fill-rule:nonzero;"/>
        </g>
        <g transform="matrix(-1.49408,2.18467,2.00979,1.62409,-1033.06,785.297)">
            <path d="M-31.257,14.082L-29.227,14.082L-7.078,-15.711L-9.108,-15.712L-31.257,14.082Z" style="fill:rgb(0,77,119);fill-rule:nonzero;"/>
        </g>
        <g transform="matrix(1.49408,-2.18467,-2.00979,-1.62409,-1040.53,727.611)">
            <path d="M-8.149,0.676L-6.12,0.676L1.345,16.213L-0.684,16.213L-8.149,0.676Z" style="fill:rgb(18,62,101);fill-rule:nonzero;"/>
        </g>
    </g>
</svg>
