<?xml version="1.0" encoding="UTF-8"?>
<!DOCTYPE svg PUBLIC "-//W3C//DTD SVG 1.1//EN" "http://www.w3.org/Graphics/SVG/1.1/DTD/svg11.dtd">
<!-- Creator: CorelDRAW -->
<svg xmlns="http://www.w3.org/2000/svg" xml:space="preserve" width="284.232mm" height="158.552mm" version="1.1" style="shape-rendering:geometricPrecision; text-rendering:geometricPrecision; image-rendering:optimizeQuality; fill-rule:evenodd; clip-rule:evenodd"
viewBox="0 0 10130.85 5651.26"
 xmlns:xlink="http://www.w3.org/1999/xlink"
 xmlns:xodm="http://www.corel.com/coreldraw/odm/2003">
 <defs>
  <style type="text/css">
   <![CDATA[
    .str1 {stroke:white;stroke-width:33.03;stroke-miterlimit:22.9256}
    .str2 {stroke:white;stroke-width:33.06;stroke-miterlimit:22.9256}
    .str0 {stroke:white;stroke-width:33.08;stroke-miterlimit:22.9256}
    .str3 {stroke:white;stroke-width:6.98;stroke-miterlimit:22.9256}
    .fil1 {fill:none;fill-rule:nonzero}
    .fil0 {fill:black;fill-rule:nonzero}
    .fil4 {fill:#66980A;fill-rule:nonzero}
    .fil2 {fill:#78CA5A;fill-rule:nonzero}
    .fil5 {fill:#8B6340;fill-rule:nonzero}
    .fil3 {fill:#A1C533;fill-rule:nonzero}
   ]]>
  </style>
 </defs>
 <g id="Layer_x0020_1">
  <metadata id="CorelCorpID_0Corel-Layer"/>
  <g id="_2162680680144">
   <path class="fil0" d="M580.93 1343.33c0,5.36 4.34,9.69 9.69,9.69 5.36,0 9.69,-4.34 9.69,-9.69 0,-5.36 -4.34,-9.69 -9.69,-9.69 -5.36,0 -9.69,4.34 -9.69,9.69z"/>
   <path class="fil0" d="M580.93 1199.38c0,5.36 4.34,9.69 9.69,9.69 5.36,0 9.69,-4.34 9.69,-9.69 0,-5.36 -4.34,-9.69 -9.69,-9.69 -5.36,0 -9.69,4.34 -9.69,9.69z"/>
   <path class="fil0" d="M580.93 1055.34c0,5.36 4.34,9.69 9.69,9.69 5.36,0 9.69,-4.34 9.69,-9.69 0,-5.36 -4.34,-9.69 -9.69,-9.69 -5.36,0 -9.69,4.34 -9.69,9.69z"/>
   <path class="fil0" d="M580.93 911.31c0,5.36 4.34,9.69 9.69,9.69 5.36,0 9.69,-4.34 9.69,-9.69 0,-5.36 -4.34,-9.69 -9.69,-9.69 -5.36,0 -9.69,4.34 -9.69,9.69z"/>
   <path class="fil0" d="M464.75 1343.33c0,5.36 4.34,9.69 9.69,9.69 5.36,0 9.69,-4.34 9.69,-9.69 0,-5.36 -4.34,-9.69 -9.69,-9.69 -5.36,0 -9.69,4.34 -9.69,9.69z"/>
   <path class="fil0" d="M464.75 1199.38c0,5.36 4.34,9.69 9.69,9.69 5.36,0 9.69,-4.34 9.69,-9.69 0,-5.36 -4.34,-9.69 -9.69,-9.69 -5.36,0 -9.69,4.34 -9.69,9.69z"/>
   <path class="fil0" d="M464.75 1055.34c0,5.36 4.34,9.69 9.69,9.69 5.36,0 9.69,-4.34 9.69,-9.69 0,-5.36 -4.34,-9.69 -9.69,-9.69 -5.36,0 -9.69,4.34 -9.69,9.69z"/>
   <path class="fil0" d="M464.75 911.31c0,5.36 4.34,9.69 9.69,9.69 5.36,0 9.69,-4.34 9.69,-9.69 0,-5.36 -4.34,-9.69 -9.69,-9.69 -5.36,0 -9.69,4.34 -9.69,9.69z"/>
   <path class="fil0" d="M348.57 1343.33c0,5.36 4.34,9.69 9.69,9.69 5.36,0 9.69,-4.34 9.69,-9.69 0,-5.36 -4.34,-9.69 -9.69,-9.69 -5.36,0 -9.69,4.34 -9.69,9.69z"/>
   <path class="fil0" d="M348.57 1199.38c0,5.36 4.34,9.69 9.69,9.69 5.36,0 9.69,-4.34 9.69,-9.69 0,-5.36 -4.34,-9.69 -9.69,-9.69 -5.36,0 -9.69,4.34 -9.69,9.69z"/>
   <path class="fil0" d="M348.57 1055.34c0,5.36 4.34,9.69 9.69,9.69 5.36,0 9.69,-4.34 9.69,-9.69 0,-5.36 -4.34,-9.69 -9.69,-9.69 -5.36,0 -9.69,4.34 -9.69,9.69z"/>
   <path class="fil0" d="M348.57 911.31c0,5.36 4.34,9.69 9.69,9.69 5.36,0 9.69,-4.34 9.69,-9.69 0,-5.36 -4.34,-9.69 -9.69,-9.69 -5.36,0 -9.69,4.34 -9.69,9.69z"/>
   <path class="fil0" d="M232.37 1343.33c0,5.36 4.34,9.69 9.69,9.69 5.36,0 9.69,-4.34 9.69,-9.69 0,-5.36 -4.34,-9.69 -9.69,-9.69 -5.36,0 -9.69,4.34 -9.69,9.69z"/>
   <path class="fil0" d="M232.37 1199.38c0,5.36 4.34,9.69 9.69,9.69 5.36,0 9.69,-4.34 9.69,-9.69 0,-5.36 -4.34,-9.69 -9.69,-9.69 -5.36,0 -9.69,4.34 -9.69,9.69z"/>
   <path class="fil0" d="M232.37 1055.34c0,5.36 4.34,9.69 9.69,9.69 5.36,0 9.69,-4.34 9.69,-9.69 0,-5.36 -4.34,-9.69 -9.69,-9.69 -5.36,0 -9.69,4.34 -9.69,9.69z"/>
   <path class="fil0" d="M232.37 911.31c0,5.36 4.34,9.69 9.69,9.69 5.36,0 9.69,-4.34 9.69,-9.69 0,-5.36 -4.34,-9.69 -9.69,-9.69 -5.36,0 -9.69,4.34 -9.69,9.69z"/>
   <path class="fil0" d="M116.19 1343.33c0,5.36 4.34,9.69 9.69,9.69 5.36,0 9.69,-4.34 9.69,-9.69 0,-5.36 -4.34,-9.69 -9.69,-9.69 -5.36,0 -9.69,4.34 -9.69,9.69z"/>
   <path class="fil0" d="M116.19 1199.38c0,5.36 4.34,9.69 9.69,9.69 5.36,0 9.69,-4.34 9.69,-9.69 0,-5.36 -4.34,-9.69 -9.69,-9.69 -5.36,0 -9.69,4.34 -9.69,9.69z"/>
   <path class="fil0" d="M116.19 1055.34c0,5.36 4.34,9.69 9.69,9.69 5.36,0 9.69,-4.34 9.69,-9.69 0,-5.36 -4.34,-9.69 -9.69,-9.69 -5.36,0 -9.69,4.34 -9.69,9.69z"/>
   <path class="fil0" d="M116.19 911.31c0,5.36 4.34,9.69 9.69,9.69 5.36,0 9.69,-4.34 9.69,-9.69 0,-5.36 -4.34,-9.69 -9.69,-9.69 -5.36,0 -9.69,4.34 -9.69,9.69z"/>
   <path class="fil0" d="M0.01 1343.33c0,5.36 4.34,9.69 9.69,9.69 5.36,0 9.69,-4.34 9.69,-9.69 0,-5.36 -4.34,-9.69 -9.69,-9.69 -5.36,0 -9.69,4.34 -9.69,9.69z"/>
   <path class="fil0" d="M0.01 1199.38c0,5.36 4.34,9.69 9.69,9.69 5.36,0 9.69,-4.34 9.69,-9.69 0,-5.36 -4.34,-9.69 -9.69,-9.69 -5.36,0 -9.69,4.34 -9.69,9.69z"/>
   <path class="fil0" d="M0.01 1055.34c0,5.36 4.34,9.69 9.69,9.69 5.36,0 9.69,-4.34 9.69,-9.69 0,-5.36 -4.34,-9.69 -9.69,-9.69 -5.36,0 -9.69,4.34 -9.69,9.69z"/>
   <path class="fil0" d="M0.01 911.31c0,5.36 4.34,9.69 9.69,9.69 5.36,0 9.69,-4.34 9.69,-9.69 0,-5.36 -4.34,-9.69 -9.69,-9.69 -5.36,0 -9.69,4.34 -9.69,9.69z"/>
   <path class="fil0" d="M8746.11 441.71c0,5.36 4.34,9.69 9.69,9.69 5.36,0 9.69,-4.34 9.69,-9.69 0,-5.36 -4.34,-9.69 -9.69,-9.69 -5.36,0 -9.69,4.34 -9.69,9.69z"/>
   <path class="fil0" d="M8746.11 297.76c0,5.36 4.34,9.69 9.69,9.69 5.36,0 9.69,-4.34 9.69,-9.69 0,-5.36 -4.34,-9.69 -9.69,-9.69 -5.36,0 -9.69,4.34 -9.69,9.69z"/>
   <path class="fil0" d="M8746.11 153.72c0,5.36 4.34,9.69 9.69,9.69 5.36,0 9.69,-4.34 9.69,-9.69 0,-5.36 -4.34,-9.69 -9.69,-9.69 -5.36,0 -9.69,4.34 -9.69,9.69z"/>
   <path class="fil0" d="M8746.11 9.69c0,5.36 4.34,9.69 9.69,9.69 5.36,0 9.69,-4.34 9.69,-9.69 0,-5.36 -4.34,-9.69 -9.69,-9.69 -5.36,0 -9.69,4.34 -9.69,9.69z"/>
   <path class="fil0" d="M8629.9 441.71c0,5.36 4.34,9.69 9.69,9.69 5.36,0 9.69,-4.34 9.69,-9.69 0,-5.36 -4.34,-9.69 -9.69,-9.69 -5.36,0 -9.69,4.34 -9.69,9.69z"/>
   <path class="fil0" d="M8629.9 297.76c0,5.36 4.34,9.69 9.69,9.69 5.36,0 9.69,-4.34 9.69,-9.69 0,-5.36 -4.34,-9.69 -9.69,-9.69 -5.36,0 -9.69,4.34 -9.69,9.69z"/>
   <path class="fil0" d="M8629.9 153.72c0,5.36 4.34,9.69 9.69,9.69 5.36,0 9.69,-4.34 9.69,-9.69 0,-5.36 -4.34,-9.69 -9.69,-9.69 -5.36,0 -9.69,4.34 -9.69,9.69z"/>
   <path class="fil0" d="M8629.9 9.69c0,5.36 4.34,9.69 9.69,9.69 5.36,0 9.69,-4.34 9.69,-9.69 0,-5.36 -4.34,-9.69 -9.69,-9.69 -5.36,0 -9.69,4.34 -9.69,9.69z"/>
   <path class="fil0" d="M8513.72 441.71c0,5.36 4.34,9.69 9.69,9.69 5.36,0 9.69,-4.34 9.69,-9.69 0,-5.36 -4.34,-9.69 -9.69,-9.69 -5.36,0 -9.69,4.34 -9.69,9.69z"/>
   <path class="fil0" d="M8513.72 297.76c0,5.36 4.34,9.69 9.69,9.69 5.36,0 9.69,-4.34 9.69,-9.69 0,-5.36 -4.34,-9.69 -9.69,-9.69 -5.36,0 -9.69,4.34 -9.69,9.69z"/>
   <path class="fil0" d="M8513.72 153.72c0,5.36 4.34,9.69 9.69,9.69 5.36,0 9.69,-4.34 9.69,-9.69 0,-5.36 -4.34,-9.69 -9.69,-9.69 -5.36,0 -9.69,4.34 -9.69,9.69z"/>
   <path class="fil0" d="M8513.72 9.69c0,5.36 4.34,9.69 9.69,9.69 5.36,0 9.69,-4.34 9.69,-9.69 0,-5.36 -4.34,-9.69 -9.69,-9.69 -5.36,0 -9.69,4.34 -9.69,9.69z"/>
   <path class="fil0" d="M8397.55 441.71c0,5.36 4.34,9.69 9.69,9.69 5.36,0 9.69,-4.34 9.69,-9.69 0,-5.36 -4.34,-9.69 -9.69,-9.69 -5.36,0 -9.69,4.34 -9.69,9.69z"/>
   <path class="fil0" d="M8397.55 297.76c0,5.36 4.34,9.69 9.69,9.69 5.36,0 9.69,-4.34 9.69,-9.69 0,-5.36 -4.34,-9.69 -9.69,-9.69 -5.36,0 -9.69,4.34 -9.69,9.69z"/>
   <path class="fil0" d="M8397.55 153.72c0,5.36 4.34,9.69 9.69,9.69 5.36,0 9.69,-4.34 9.69,-9.69 0,-5.36 -4.34,-9.69 -9.69,-9.69 -5.36,0 -9.69,4.34 -9.69,9.69z"/>
   <path class="fil0" d="M8397.55 9.69c0,5.36 4.34,9.69 9.69,9.69 5.36,0 9.69,-4.34 9.69,-9.69 0,-5.36 -4.34,-9.69 -9.69,-9.69 -5.36,0 -9.69,4.34 -9.69,9.69z"/>
   <path class="fil0" d="M8281.37 441.71c0,5.36 4.34,9.69 9.69,9.69 5.36,0 9.69,-4.34 9.69,-9.69 0,-5.36 -4.34,-9.69 -9.69,-9.69 -5.36,0 -9.69,4.34 -9.69,9.69z"/>
   <path class="fil0" d="M8281.37 297.76c0,5.36 4.34,9.69 9.69,9.69 5.36,0 9.69,-4.34 9.69,-9.69 0,-5.36 -4.34,-9.69 -9.69,-9.69 -5.36,0 -9.69,4.34 -9.69,9.69z"/>
   <path class="fil0" d="M8281.37 153.72c0,5.36 4.34,9.69 9.69,9.69 5.36,0 9.69,-4.34 9.69,-9.69 0,-5.36 -4.34,-9.69 -9.69,-9.69 -5.36,0 -9.69,4.34 -9.69,9.69z"/>
   <path class="fil0" d="M8281.37 9.69c0,5.36 4.34,9.69 9.69,9.69 5.36,0 9.69,-4.34 9.69,-9.69 0,-5.36 -4.34,-9.69 -9.69,-9.69 -5.36,0 -9.69,4.34 -9.69,9.69z"/>
   <path class="fil0" d="M8165.19 441.71c0,5.36 4.34,9.69 9.69,9.69 5.36,0 9.69,-4.34 9.69,-9.69 0,-5.36 -4.34,-9.69 -9.69,-9.69 -5.36,0 -9.69,4.34 -9.69,9.69z"/>
   <path class="fil0" d="M8165.19 297.76c0,5.36 4.34,9.69 9.69,9.69 5.36,0 9.69,-4.34 9.69,-9.69 0,-5.36 -4.34,-9.69 -9.69,-9.69 -5.36,0 -9.69,4.34 -9.69,9.69z"/>
   <path class="fil0" d="M8165.19 153.72c0,5.36 4.34,9.69 9.69,9.69 5.36,0 9.69,-4.34 9.69,-9.69 0,-5.36 -4.34,-9.69 -9.69,-9.69 -5.36,0 -9.69,4.34 -9.69,9.69z"/>
   <path class="fil0" d="M8165.19 9.69c0,5.36 4.34,9.69 9.69,9.69 5.36,0 9.69,-4.34 9.69,-9.69 0,-5.36 -4.34,-9.69 -9.69,-9.69 -5.36,0 -9.69,4.34 -9.69,9.69z"/>
   <line class="fil1 str0" x1="7042.33" y1="245.29" x2="7208.33" y2= "411.28" />
   <line class="fil1 str0" x1="7208.33" y1="245.23" x2="7042.33" y2= "411.24" />
   <line class="fil1 str1" x1="2151.22" y1="553.02" x2="2268.97" y2= "670.77" />
   <line class="fil1 str1" x1="2268.97" y1="552.99" x2="2151.22" y2= "670.72" />
   <line class="fil1 str0" x1="75.63" y1="2895.42" x2="239.87" y2= "3059.69" />
   <line class="fil1 str0" x1="239.87" y1="2895.38" x2="75.63" y2= "3059.62" />
   <line class="fil1 str2" x1="9971.82" y1="2367.06" x2="10119.17" y2= "2514.38" />
   <line class="fil1 str2" x1="10119.17" y1="2367" x2="9971.82" y2= "2514.34" />
   <line class="fil1 str0" x1="7668.36" y1="4390.88" x2="7862.9" y2= "4585.43" />
   <line class="fil1 str0" x1="7862.9" y1="4390.81" x2="7668.36" y2= "4585.35" />
   <path class="fil2" d="M9171.88 479.72l-79.13 0c-19.14,0 -34.68,-16.87 -34.68,-37.64l0 -3.14c0,-20.8 15.51,-37.64 34.68,-37.64l79.13 0c19.14,0 34.62,16.83 34.62,37.64l0 3.14c0,20.78 -15.5,37.64 -34.62,37.64z"/>
   <path class="fil2" d="M9937.91 479.72l-601.62 0c-19.14,0 -34.65,-16.87 -34.65,-37.64l0 -3.14c0,-20.8 15.51,-37.64 34.65,-37.64l601.62 0c19.14,0 34.68,16.83 34.68,37.64l0 3.14c0,20.78 -15.51,37.64 -34.68,37.64z"/>
   <path class="fil2" d="M5513.6 3480.48l-79.13 0c-19.14,0 -34.65,-16.87 -34.65,-37.64l0 -3.14c0,-20.8 15.51,-37.64 34.65,-37.64l79.13 0c19.14,0 34.62,16.83 34.62,37.64l0 3.14c0,20.78 -15.5,37.64 -34.62,37.64z"/>
   <path class="fil2" d="M6279.62 3480.48l-601.62 0c-19.14,0 -34.68,-16.87 -34.68,-37.64l0 -3.14c0,-20.8 15.51,-37.64 34.68,-37.64l601.62 0c19.14,0 34.65,16.83 34.65,37.64l0 3.14c0,20.78 -15.51,37.64 -34.65,37.64z"/>
   <path class="fil1 str3" d="M6705.4 1410.25c-65.46,0 -65.46,-70.73 -130.93,-70.73 -65.46,0 -65.46,70.73 -130.95,70.73 -65.46,0 -65.46,-70.73 -130.91,-70.73 -65.46,0 -65.46,70.73 -130.91,70.73 -65.49,0 -65.49,-70.73 -130.95,-70.73 -65.49,0 -65.49,70.73 -131,70.73 -65.46,0 -65.46,-70.73 -130.95,-70.73 -65.51,0 -65.51,70.73 -131.04,70.73 -65.51,0 -65.51,-70.73 -131.04,-70.73"/>
   <path class="fil1 str3" d="M6705.4 1291.06c-65.46,0 -65.46,-70.73 -130.93,-70.73 -65.46,0 -65.46,70.73 -130.95,70.73 -65.46,0 -65.46,-70.73 -130.91,-70.73 -65.46,0 -65.46,70.73 -130.91,70.73 -65.49,0 -65.49,-70.73 -130.95,-70.73 -65.49,0 -65.49,70.73 -131,70.73 -65.46,0 -65.46,-70.73 -130.95,-70.73 -65.51,0 -65.51,70.73 -131.04,70.73 -65.51,0 -65.51,-70.73 -131.04,-70.73"/>
   <path class="fil1 str3" d="M3737.09 4664.83c-65.46,0 -65.46,-70.73 -130.93,-70.73 -65.46,0 -65.46,70.73 -130.93,70.73 -65.46,0 -65.46,-70.73 -130.91,-70.73 -65.46,0 -65.46,70.73 -130.91,70.73 -65.49,0 -65.49,-70.73 -130.95,-70.73 -65.49,0 -65.49,70.73 -131,70.73 -65.46,0 -65.46,-70.73 -130.93,-70.73 -65.51,0 -65.51,70.73 -131.04,70.73 -65.51,0 -65.51,-70.73 -131.04,-70.73"/>
   <path class="fil1 str3" d="M3737.09 4545.64c-65.46,0 -65.46,-70.73 -130.93,-70.73 -65.46,0 -65.46,70.73 -130.93,70.73 -65.46,0 -65.46,-70.73 -130.91,-70.73 -65.46,0 -65.46,70.73 -130.91,70.73 -65.49,0 -65.49,-70.73 -130.95,-70.73 -65.49,0 -65.49,70.73 -131,70.73 -65.46,0 -65.46,-70.73 -130.93,-70.73 -65.51,0 -65.51,70.73 -131.04,70.73 -65.51,0 -65.51,-70.73 -131.04,-70.73"/>
   <path class="fil1 str3" d="M9644.64 5647.77c-65.46,0 -65.46,-70.73 -130.93,-70.73 -65.46,0 -65.46,70.73 -130.93,70.73 -65.46,0 -65.46,-70.73 -130.93,-70.73 -65.46,0 -65.46,70.73 -130.91,70.73 -65.49,0 -65.49,-70.73 -130.95,-70.73 -65.49,0 -65.49,70.73 -131,70.73 -65.46,0 -65.46,-70.73 -130.93,-70.73 -65.51,0 -65.51,70.73 -131.04,70.73 -65.51,0 -65.51,-70.73 -131.04,-70.73"/>
   <path class="fil1 str3" d="M9644.64 5528.6c-65.46,0 -65.46,-70.73 -130.93,-70.73 -65.46,0 -65.46,70.73 -130.93,70.73 -65.46,0 -65.46,-70.73 -130.93,-70.73 -65.46,0 -65.46,70.73 -130.91,70.73 -65.49,0 -65.49,-70.73 -130.95,-70.73 -65.49,0 -65.49,70.73 -131,70.73 -65.46,0 -65.46,-70.73 -130.93,-70.73 -65.51,0 -65.51,70.73 -131.04,70.73 -65.51,0 -65.51,-70.73 -131.04,-70.73"/>
   <path class="fil3" d="M313.76 4243.83c-115.92,-38.84 -208.63,-112.97 -255.28,-204.04 0,0 -46.61,-74.25 -56.16,-140.07 -9.55,-65.76 13.94,-150.36 13.94,-150.36 18.86,-100.62 86.56,-198.47 186.63,-269.28 19.05,-13.48 39.82,-26.32 63.83,-32.8 24.06,-6.65 51.94,-5.88 70.33,5.88 28.16,18.07 23.78,54.07 7.16,81.53 -16.57,27.37 -43,51.79 -54.98,80.45 -11.84,28.69 -2.2,65.46 33.75,73.06 29.38,6.08 62.38,-10.71 78.8,-32.06 16.57,-21.29 20.83,-46.19 26.43,-70.06 8.28,-34.77 22.32,-71.84 57.89,-95.71 35.38,-23.82 97.85,-24.96 116.43,5.75 12.4,20.59 1.15,46.33 -13.99,67.47 -15.17,21.14 -34.72,41.55 -40.41,64.82 -5.7,23.27 9.64,50.92 39.63,52.18 20.45,0.97 40.28,-10.66 51.52,-24.72 11.11,-14.09 15.35,-30.29 19.99,-46.15 10.39,-35.23 25.51,-72.69 61.96,-96.77 36.31,-24.06 99.72,-25.6 119.07,5.42 12.71,20.32 2.72,46.1 -12.58,67.2 -15.26,21.01 -35.67,40.32 -45.64,62.9 -9.97,22.55 -5.84,50.79 19.69,61.49 36.26,15.26 80.4,-12.95 121.63,-23.96 17.55,-4.69 35.76,-5.7 53.2,-3.61 36.13,4.31 58.44,30.75 64.01,60.51 6.19,32.06 -6.98,67.86 -43.05,83.54 -16.14,7.02 -33.93,11.24 -51.9,11.84 -42.82,1.36 -92.98,-12.92 -123.41,12.26 -21.59,17.55 -17.46,45.88 -1.5,64.64 16.05,18.76 41.04,31.34 61.68,47.02 20.63,15.81 37.67,37.58 31.22,60.81 -9.84,35.37 -70.94,52.26 -112.66,39.59 -41.7,-12.62 -66.83,-44.08 -86.86,-74.88 -8.94,-13.76 -17.59,-28.07 -32.29,-38.32 -14.75,-10.26 -37.03,-15.67 -56.3,-8.85 -28.42,9.93 -35.13,40.71 -23.11,61.45 12.02,20.63 36.68,34.58 57.27,50.4 20.59,15.9 38.62,37.3 32.52,60.59 -9.03,34.72 -69.21,51.66 -109.96,39.17 -40.71,-12.62 -64.64,-44.04 -82.55,-74.93 -12.26,-21.29 -23.45,-43.81 -45.29,-59.58 -21.91,-15.63 -58.31,-22.23 -84.6,-7.85 -32.29,17.59 -31.02,55.64 -11.47,79.64 19.45,24.09 51.79,39.73 75.53,61.31 23.78,21.44 38.03,54.67 16.25,80.12 -14.18,16.67 -40.71,25.32 -65.6,26.07 -24.9,0.6 -48.47,-5.66 -70.66,-13.07l-0.09 -0.09 -0.01 0.02 0.01 0.04z"/>
   <path class="fil4" d="M2.17 3898.92c-9.25,-65.66 14.03,-149.55 14.03,-149.55 18.86,-100.62 86.59,-198.47 186.63,-269.28 19.05,-13.48 39.82,-26.29 63.83,-32.8 24.06,-6.65 51.94,-5.88 70.33,5.88 28.16,18.06 23.78,54.07 7.16,81.5 -16.57,27.37 -43,51.79 -54.98,80.45 -11.84,28.69 -2.2,65.46 33.75,73.06 29.38,6.08 62.38,-10.71 78.8,-32.06 16.57,-21.31 20.83,-46.19 26.46,-70.06 8.28,-34.77 22.32,-71.84 57.89,-95.71 35.37,-23.82 97.85,-24.96 116.43,5.75 12.4,20.59 1.15,46.33 -13.99,67.47 -15.17,21.14 -34.72,41.55 -40.44,64.82 -5.7,23.27 9.64,50.92 39.63,52.17 20.45,0.99 40.28,-10.66 51.52,-24.69 11.11,-14.09 15.35,-30.29 19.99,-46.15 10.39,-35.23 25.51,-72.69 61.96,-96.77 36.31,-24.06 99.72,-25.6 119.07,5.42 12.71,20.32 2.72,46.1 -12.58,67.2 -15.26,21.01 -35.67,40.32 -45.64,62.9 -9.97,22.55 -5.84,50.79 19.72,61.49 36.26,15.26 80.4,-12.97 121.63,-23.96 17.55,-4.69 35.76,-5.7 53.2,-3.61 36.13,4.31 58.44,30.75 64.01,60.51 0.24,1.18 0.42,2.33 0.6,3.5l-1039.02 152.47 0 0 0.01 0.02 -0.01 0.02z"/>
   <path class="fil5" d="M302.95 3859.05c38.27,-5.24 76.53,-10.71 114.8,-16.25l46 61.54c15.99,21.23 31.79,42.73 47.96,63.83l48.34 63.5c16.35,21.01 32.48,42.15 48.96,63.08 -15.21,-21.86 -30.8,-43.42 -46.15,-65.15l-46.75 -64.73c-15.5,-21.62 -31.44,-42.91 -47.18,-64.4l-43.29 -58.77c35.8,-5.15 71.56,-10.34 107.42,-15.44 42.31,-6.47 84.66,-12.8 126.96,-19.18 14.18,17.68 28.6,35.17 42.87,52.79 14.93,18.31 29.71,36.73 44.83,54.89l45.25 54.56c15.3,18.03 30.38,36.22 45.88,54.07 -14.18,-18.9 -28.75,-37.58 -43.09,-56.35l-43.69 -55.85c-14.57,-18.63 -29.42,-36.98 -44.14,-55.52 -13.34,-16.62 -26.55,-33.3 -39.92,-49.89 31.61,-4.82 63.23,-9.64 94.75,-14.61l114.75 -18.31c38.23,-6.42 76.48,-12.53 114.61,-19.23 -38.48,4.6 -76.84,9.79 -115.25,14.7l-115.12 15.67c-31.55,4.36 -63.05,8.79 -94.57,13.34 17.26,-37.49 34.86,-74.79 51.75,-112.42l26.96 -59.8c8.75,-20.03 17.73,-39.96 26.32,-60.09 -9.97,19.45 -19.57,39.12 -29.33,58.63l-28.69 58.95c-18.76,38.48 -36.77,77.21 -55.22,115.83 -42.45,6.09 -84.85,12.26 -127.29,18.31 -35.76,5.42 -71.47,10.81 -107.22,16.2l24.81 -67.74c9.03,-24.77 18.27,-49.43 27.01,-74.25l26.53 -74.4c8.61,-24.9 17.46,-49.7 25.87,-74.67 -9.93,24.42 -19.36,49.01 -29.06,73.47l-28.42 73.76c-9.55,24.57 -18.67,49.28 -27.93,73.89l-26.73 71.18c-38.23,5.75 -76.42,11.62 -114.61,17.59l-114.75 18.27c-17.35,2.95 -34.77,5.8 -52.17,8.66l30.89 -80.96c10.66,-28.12 21.53,-56.16 31.97,-84.37l31.55 -84.51c10.3,-28.25 20.78,-56.44 30.83,-84.78 -11.56,27.79 -22.64,55.74 -34.02,83.54l-33.33 83.82c-11.2,27.88 -22,55.97 -32.94,84l-32.71 84.04 -0.24 0.55c-18.16,3 -36.26,6.05 -54.38,9.25 18.27,-2.2 36.49,-4.51 54.76,-6.87l0.33 0.46 55.64 73.56c18.63,24.47 36.98,49.14 55.79,73.47l56.16 73.16c18.94,24.24 37.67,48.57 56.76,72.69 -17.82,-25.09 -36.03,-49.89 -53.99,-74.84l-54.62 -74.34c-18.12,-24.84 -36.68,-49.38 -55.03,-74.03l-53.07 -71.14c17.5,-2.29 34.99,-4.55 52.51,-6.78l115.12 -15.67 0.05 0.09 -0.06 -0.04 -0.02 0.07z"/>
  </g>
 </g>
</svg>
