<?xml version="1.0" encoding="UTF-8"?>
<!DOCTYPE svg PUBLIC "-//W3C//DTD SVG 1.1//EN" "http://www.w3.org/Graphics/SVG/1.1/DTD/svg11.dtd">
<!-- Creator: CorelDRAW -->
<svg xmlns="http://www.w3.org/2000/svg" xml:space="preserve" width="281.307mm" height="281.279mm" version="1.1" style="shape-rendering:geometricPrecision; text-rendering:geometricPrecision; image-rendering:optimizeQuality; fill-rule:evenodd; clip-rule:evenodd"
viewBox="0 0 11185.55 11184.48"
 xmlns:xlink="http://www.w3.org/1999/xlink"
 xmlns:xodm="http://www.corel.com/coreldraw/odm/2003">
 <defs>
  <style type="text/css">
   <![CDATA[
    .str1 {stroke:white;stroke-width:33.99;stroke-miterlimit:22.9256}
    .str2 {stroke:white;stroke-width:33.35;stroke-miterlimit:22.9256}
    .str0 {stroke:white;stroke-width:7.1;stroke-miterlimit:22.9256}
    .fil0 {fill:none}
    .fil3 {fill:none;fill-rule:nonzero}
    .fil2 {fill:black;fill-rule:nonzero}
    .fil1 {fill:#78CA5A;fill-rule:nonzero}
    .fil4 {fill:#587324;fill-opacity:0.501961}
   ]]>
  </style>
 </defs>
 <g id="Layer_x0020_1">
  <metadata id="CorelCorpID_0Corel-Layer"/>
  <rect class="fil0" x="1.07" y="-0" width="11184.48" height="11184.48"/>
  <g id="_2520075722992">
   <g>
    <g>
     <g>
      <path class="fil0 str0" d="M6272.51 473.57c-64.14,0 -64.14,-69.29 -128.28,-69.29 -64.14,0 -64.14,69.29 -128.28,69.29 -64.13,0 -64.13,-69.29 -128.26,-69.29 -64.13,0 -64.13,69.29 -128.25,69.29 -64.15,0 -64.15,-69.29 -128.3,-69.29 -64.17,0 -64.17,69.29 -128.33,69.29 -64.15,0 -64.15,-69.29 -128.28,-69.29 -64.19,0 -64.19,69.29 -128.39,69.29 -64.19,0 -64.19,-69.29 -128.38,-69.29"/>
     </g>
     <g>
      <path class="fil0 str0" d="M6272.51 356.81c-64.14,0 -64.14,-69.29 -128.28,-69.29 -64.14,0 -64.14,69.29 -128.28,69.29 -64.13,0 -64.13,-69.29 -128.26,-69.29 -64.13,0 -64.13,69.29 -128.25,69.29 -64.15,0 -64.15,-69.29 -128.3,-69.29 -64.17,0 -64.17,69.29 -128.33,69.29 -64.15,0 -64.15,-69.29 -128.28,-69.29 -64.19,0 -64.19,69.29 -128.39,69.29 -64.19,0 -64.19,-69.29 -128.38,-69.29"/>
     </g>
    </g>
    <g>
     <g>
      <path class="fil1" d="M7269.6 2152.56l-75.69 0c-18.31,0 -33.15,15.17 -33.15,33.87l0 2.83c0,18.72 14.84,33.87 33.15,33.87l75.69 0c18.31,0 33.13,-15.15 33.13,-33.87l0 -2.83c0,-18.7 -14.81,-33.87 -33.13,-33.87z"/>
     </g>
     <g>
      <path class="fil1" d="M8002.31 2152.56l-575.48 0c-18.31,0 -33.15,15.17 -33.15,33.87l0 2.83c0,18.72 14.84,33.87 33.15,33.87l575.48 0c18.31,0 33.16,-15.15 33.16,-33.87l0 -2.83c0,-18.7 -14.84,-33.87 -33.16,-33.87z"/>
     </g>
    </g>
    <g>
     <g>
      <path class="fil2" d="M3438.79 1546.57c0,5.24 4.25,9.5 9.49,9.5 5.24,0 9.5,-4.25 9.5,-9.5 0,-5.24 -4.25,-9.5 -9.5,-9.5 -5.24,0 -9.49,4.25 -9.49,9.5z"/>
     </g>
     <g>
      <path class="fil2" d="M3438.79 1405.55c0,5.24 4.25,9.5 9.49,9.5 5.24,0 9.5,-4.25 9.5,-9.5 0,-5.24 -4.25,-9.5 -9.5,-9.5 -5.24,0 -9.49,4.25 -9.49,9.5z"/>
     </g>
     <g>
      <path class="fil2" d="M3438.79 1264.44c0,5.24 4.25,9.5 9.49,9.5 5.24,0 9.5,-4.25 9.5,-9.5 0,-5.24 -4.25,-9.5 -9.5,-9.5 -5.24,0 -9.49,4.25 -9.49,9.5z"/>
     </g>
     <g>
      <path class="fil2" d="M3438.79 1123.32c0,5.24 4.25,9.5 9.49,9.5 5.24,0 9.5,-4.25 9.5,-9.5 0,-5.24 -4.25,-9.5 -9.5,-9.5 -5.24,0 -9.49,4.25 -9.49,9.5z"/>
     </g>
     <g>
      <path class="fil2" d="M3324.96 1546.57c0,5.24 4.25,9.5 9.5,9.5 5.25,0 9.5,-4.25 9.5,-9.5 0,-5.24 -4.25,-9.5 -9.5,-9.5 -5.24,0 -9.5,4.25 -9.5,9.5z"/>
     </g>
     <g>
      <path class="fil2" d="M3324.96 1405.55c0,5.24 4.25,9.5 9.5,9.5 5.25,0 9.5,-4.25 9.5,-9.5 0,-5.24 -4.25,-9.5 -9.5,-9.5 -5.24,0 -9.5,4.25 -9.5,9.5z"/>
     </g>
     <g>
      <path class="fil2" d="M3324.96 1264.44c0,5.24 4.25,9.5 9.5,9.5 5.25,0 9.5,-4.25 9.5,-9.5 0,-5.24 -4.25,-9.5 -9.5,-9.5 -5.24,0 -9.5,4.25 -9.5,9.5z"/>
     </g>
     <g>
      <path class="fil2" d="M3324.96 1123.32c0,5.24 4.25,9.5 9.5,9.5 5.25,0 9.5,-4.25 9.5,-9.5 0,-5.24 -4.25,-9.5 -9.5,-9.5 -5.24,0 -9.5,4.25 -9.5,9.5z"/>
     </g>
     <g>
      <path class="fil2" d="M3211.13 1546.57c0,5.24 4.25,9.5 9.5,9.5 5.24,0 9.5,-4.25 9.5,-9.5 0,-5.24 -4.25,-9.5 -9.5,-9.5 -5.24,0 -9.5,4.25 -9.5,9.5z"/>
     </g>
     <g>
      <path class="fil2" d="M3211.13 1405.55c0,5.24 4.25,9.5 9.5,9.5 5.24,0 9.5,-4.25 9.5,-9.5 0,-5.24 -4.25,-9.5 -9.5,-9.5 -5.24,0 -9.5,4.25 -9.5,9.5z"/>
     </g>
     <g>
      <path class="fil2" d="M3211.13 1264.44c0,5.24 4.25,9.5 9.5,9.5 5.24,0 9.5,-4.25 9.5,-9.5 0,-5.24 -4.25,-9.5 -9.5,-9.5 -5.24,0 -9.5,4.25 -9.5,9.5z"/>
     </g>
     <g>
      <path class="fil2" d="M3211.13 1123.32c0,5.24 4.25,9.5 9.5,9.5 5.24,0 9.5,-4.25 9.5,-9.5 0,-5.24 -4.25,-9.5 -9.5,-9.5 -5.24,0 -9.5,4.25 -9.5,9.5z"/>
     </g>
     <g>
      <path class="fil2" d="M3097.3 1546.57c0,5.24 4.25,9.5 9.5,9.5 5.24,0 9.5,-4.25 9.5,-9.5 0,-5.24 -4.25,-9.5 -9.5,-9.5 -5.24,0 -9.5,4.25 -9.5,9.5z"/>
     </g>
     <g>
      <path class="fil2" d="M3097.3 1405.55c0,5.24 4.25,9.5 9.5,9.5 5.24,0 9.5,-4.25 9.5,-9.5 0,-5.24 -4.25,-9.5 -9.5,-9.5 -5.24,0 -9.5,4.25 -9.5,9.5z"/>
     </g>
     <g>
      <path class="fil2" d="M3097.3 1264.44c0,5.24 4.25,9.5 9.5,9.5 5.24,0 9.5,-4.25 9.5,-9.5 0,-5.24 -4.25,-9.5 -9.5,-9.5 -5.24,0 -9.5,4.25 -9.5,9.5z"/>
     </g>
     <g>
      <path class="fil2" d="M3097.3 1123.32c0,5.24 4.25,9.5 9.5,9.5 5.24,0 9.5,-4.25 9.5,-9.5 0,-5.24 -4.25,-9.5 -9.5,-9.5 -5.24,0 -9.5,4.25 -9.5,9.5z"/>
     </g>
     <g>
      <path class="fil2" d="M2983.48 1546.57c0,5.24 4.25,9.5 9.5,9.5 5.25,0 9.5,-4.25 9.5,-9.5 0,-5.24 -4.25,-9.5 -9.5,-9.5 -5.24,0 -9.5,4.25 -9.5,9.5z"/>
     </g>
     <g>
      <path class="fil2" d="M2983.48 1405.55c0,5.24 4.25,9.5 9.5,9.5 5.25,0 9.5,-4.25 9.5,-9.5 0,-5.24 -4.25,-9.5 -9.5,-9.5 -5.24,0 -9.5,4.25 -9.5,9.5z"/>
     </g>
     <g>
      <path class="fil2" d="M2983.48 1264.44c0,5.24 4.25,9.5 9.5,9.5 5.25,0 9.5,-4.25 9.5,-9.5 0,-5.24 -4.25,-9.5 -9.5,-9.5 -5.24,0 -9.5,4.25 -9.5,9.5z"/>
     </g>
     <g>
      <path class="fil2" d="M2983.48 1123.32c0,5.24 4.25,9.5 9.5,9.5 5.25,0 9.5,-4.25 9.5,-9.5 0,-5.24 -4.25,-9.5 -9.5,-9.5 -5.24,0 -9.5,4.25 -9.5,9.5z"/>
     </g>
     <g>
      <path class="fil2" d="M2869.65 1546.57c0,5.24 4.25,9.5 9.5,9.5 5.24,0 9.5,-4.25 9.5,-9.5 0,-5.24 -4.26,-9.5 -9.5,-9.5 -5.24,0 -9.5,4.25 -9.5,9.5z"/>
     </g>
     <g>
      <path class="fil2" d="M2869.65 1405.55c0,5.24 4.25,9.5 9.5,9.5 5.24,0 9.5,-4.25 9.5,-9.5 0,-5.24 -4.25,-9.5 -9.5,-9.5 -5.24,0 -9.5,4.25 -9.5,9.5z"/>
     </g>
     <g>
      <path class="fil2" d="M2869.65 1264.44c0,5.24 4.25,9.5 9.5,9.5 5.24,0 9.5,-4.25 9.5,-9.5 0,-5.24 -4.25,-9.5 -9.5,-9.5 -5.24,0 -9.5,4.25 -9.5,9.5z"/>
     </g>
     <g>
      <path class="fil2" d="M2869.65 1123.32c0,5.24 4.25,9.5 9.5,9.5 5.24,0 9.5,-4.25 9.5,-9.5 0,-5.24 -4.25,-9.5 -9.5,-9.5 -5.24,0 -9.5,4.25 -9.5,9.5z"/>
     </g>
    </g>
    <g>
     <g>
      <path class="fil2" d="M5661.96 3990.36c0,5.24 4.25,9.49 9.5,9.49 5.24,0 9.49,-4.25 9.49,-9.49 0,-5.24 -4.25,-9.5 -9.49,-9.5 -5.24,0 -9.5,4.25 -9.5,9.5z"/>
     </g>
     <g>
      <path class="fil2" d="M5661.96 3849.34c0,5.24 4.25,9.49 9.5,9.49 5.24,0 9.49,-4.25 9.49,-9.49 0,-5.25 -4.25,-9.5 -9.49,-9.5 -5.24,0 -9.5,4.25 -9.5,9.5z"/>
     </g>
     <g>
      <path class="fil2" d="M5661.96 3708.23c0,5.24 4.25,9.49 9.5,9.49 5.24,0 9.49,-4.25 9.49,-9.49 0,-5.24 -4.25,-9.5 -9.49,-9.5 -5.24,0 -9.5,4.25 -9.5,9.5z"/>
     </g>
     <g>
      <path class="fil2" d="M5661.96 3567.12c0,5.24 4.25,9.5 9.5,9.5 5.24,0 9.49,-4.25 9.49,-9.5 0,-5.25 -4.25,-9.5 -9.49,-9.5 -5.24,0 -9.5,4.25 -9.5,9.5z"/>
     </g>
     <g>
      <path class="fil2" d="M5548.13 3990.36c0,5.24 4.25,9.49 9.5,9.49 5.24,0 9.5,-4.25 9.5,-9.49 0,-5.24 -4.25,-9.5 -9.5,-9.5 -5.24,0 -9.5,4.25 -9.5,9.5z"/>
     </g>
     <g>
      <path class="fil2" d="M5548.13 3849.34c0,5.24 4.25,9.49 9.5,9.49 5.24,0 9.5,-4.25 9.5,-9.49 0,-5.25 -4.25,-9.5 -9.5,-9.5 -5.24,0 -9.5,4.25 -9.5,9.5z"/>
     </g>
     <g>
      <path class="fil2" d="M5548.13 3708.23c0,5.24 4.25,9.49 9.5,9.49 5.24,0 9.5,-4.25 9.5,-9.49 0,-5.24 -4.25,-9.5 -9.5,-9.5 -5.24,0 -9.5,4.25 -9.5,9.5z"/>
     </g>
     <g>
      <path class="fil2" d="M5548.13 3567.12c0,5.24 4.25,9.5 9.5,9.5 5.24,0 9.5,-4.25 9.5,-9.5 0,-5.25 -4.25,-9.5 -9.5,-9.5 -5.24,0 -9.5,4.25 -9.5,9.5z"/>
     </g>
     <g>
      <path class="fil2" d="M5434.3 3990.36c0,5.24 4.25,9.49 9.5,9.49 5.24,0 9.5,-4.25 9.5,-9.49 0,-5.24 -4.25,-9.5 -9.5,-9.5 -5.24,0 -9.5,4.25 -9.5,9.5z"/>
     </g>
     <g>
      <path class="fil2" d="M5434.3 3849.34c0,5.24 4.25,9.49 9.5,9.49 5.24,0 9.5,-4.25 9.5,-9.49 0,-5.25 -4.25,-9.5 -9.5,-9.5 -5.24,0 -9.5,4.25 -9.5,9.5z"/>
     </g>
     <g>
      <path class="fil2" d="M5434.3 3708.23c0,5.24 4.25,9.49 9.5,9.49 5.24,0 9.5,-4.25 9.5,-9.49 0,-5.24 -4.25,-9.5 -9.5,-9.5 -5.24,0 -9.5,4.25 -9.5,9.5z"/>
     </g>
     <g>
      <path class="fil2" d="M5434.3 3567.12c0,5.24 4.25,9.5 9.5,9.5 5.24,0 9.5,-4.25 9.5,-9.5 0,-5.25 -4.25,-9.5 -9.5,-9.5 -5.24,0 -9.5,4.25 -9.5,9.5z"/>
     </g>
     <g>
      <path class="fil2" d="M5320.48 3990.36c0,5.24 4.25,9.49 9.49,9.49 5.24,0 9.5,-4.25 9.5,-9.49 0,-5.24 -4.25,-9.5 -9.5,-9.5 -5.24,0 -9.49,4.25 -9.49,9.5z"/>
     </g>
     <g>
      <path class="fil2" d="M5320.48 3849.34c0,5.24 4.25,9.49 9.49,9.49 5.24,0 9.5,-4.25 9.5,-9.49 0,-5.25 -4.25,-9.5 -9.5,-9.5 -5.24,0 -9.49,4.25 -9.49,9.5z"/>
     </g>
     <g>
      <path class="fil2" d="M5320.48 3708.23c0,5.24 4.25,9.49 9.49,9.49 5.24,0 9.5,-4.25 9.5,-9.49 0,-5.24 -4.25,-9.5 -9.5,-9.5 -5.24,0 -9.49,4.25 -9.49,9.5z"/>
     </g>
     <g>
      <path class="fil2" d="M5320.48 3567.12c0,5.24 4.25,9.5 9.49,9.5 5.24,0 9.5,-4.25 9.5,-9.5 0,-5.25 -4.25,-9.5 -9.5,-9.5 -5.24,0 -9.49,4.25 -9.49,9.5z"/>
     </g>
     <g>
      <path class="fil2" d="M5206.65 3990.36c0,5.24 4.25,9.49 9.49,9.49 5.24,0 9.5,-4.25 9.5,-9.49 0,-5.24 -4.25,-9.5 -9.5,-9.5 -5.24,0 -9.49,4.25 -9.49,9.5z"/>
     </g>
     <g>
      <path class="fil2" d="M5206.65 3849.34c0,5.24 4.25,9.49 9.49,9.49 5.24,0 9.5,-4.25 9.5,-9.49 0,-5.25 -4.25,-9.5 -9.5,-9.5 -5.24,0 -9.49,4.25 -9.49,9.5z"/>
     </g>
     <g>
      <path class="fil2" d="M5206.65 3708.23c0,5.24 4.25,9.49 9.49,9.49 5.24,0 9.5,-4.25 9.5,-9.49 0,-5.24 -4.25,-9.5 -9.5,-9.5 -5.24,0 -9.49,4.25 -9.49,9.5z"/>
     </g>
     <g>
      <path class="fil2" d="M5206.65 3567.12c0,5.24 4.25,9.5 9.49,9.5 5.24,0 9.5,-4.25 9.5,-9.5 0,-5.25 -4.25,-9.5 -9.5,-9.5 -5.24,0 -9.49,4.25 -9.49,9.5z"/>
     </g>
     <g>
      <path class="fil2" d="M5092.82 3990.36c0,5.24 4.25,9.49 9.5,9.49 5.24,0 9.5,-4.25 9.5,-9.49 0,-5.24 -4.25,-9.5 -9.5,-9.5 -5.25,0 -9.5,4.25 -9.5,9.5z"/>
     </g>
     <g>
      <path class="fil2" d="M5092.83 3849.34c0,5.24 4.25,9.49 9.49,9.49 5.24,0 9.5,-4.25 9.5,-9.49 0,-5.25 -4.25,-9.5 -9.5,-9.5 -5.24,0 -9.49,4.25 -9.49,9.5z"/>
     </g>
     <g>
      <path class="fil2" d="M5092.83 3708.23c0,5.24 4.25,9.49 9.49,9.49 5.24,0 9.5,-4.25 9.5,-9.49 0,-5.24 -4.25,-9.5 -9.5,-9.5 -5.24,0 -9.49,4.25 -9.49,9.5z"/>
     </g>
     <g>
      <path class="fil2" d="M5092.83 3567.12c0,5.24 4.25,9.5 9.49,9.5 5.24,0 9.5,-4.25 9.5,-9.5 0,-5.25 -4.25,-9.5 -9.5,-9.5 -5.24,0 -9.49,4.25 -9.49,9.5z"/>
     </g>
    </g>
    <g>
     <g>
      <path class="fil3 str0" d="M11185.55 2059.49c-64.15,0 -64.15,69.29 -128.28,69.29 -64.15,0 -64.15,-69.29 -128.28,-69.29 -64.13,0 -64.13,69.29 -128.26,69.29 -64.13,0 -64.13,-69.29 -128.25,-69.29 -64.15,0 -64.15,69.29 -128.3,69.29 -64.17,0 -64.17,-69.29 -128.33,-69.29 -64.15,0 -64.15,69.29 -128.29,69.29 -64.19,0 -64.19,-69.29 -128.38,-69.29 -64.19,0 -64.19,69.29 -128.38,69.29"/>
     </g>
     <g>
      <path class="fil3 str0" d="M11185.55 2176.25c-64.15,0 -64.15,69.29 -128.28,69.29 -64.15,0 -64.15,-69.29 -128.28,-69.29 -64.13,0 -64.13,69.29 -128.26,69.29 -64.13,0 -64.13,-69.29 -128.25,-69.29 -64.15,0 -64.15,69.29 -128.3,69.29 -64.17,0 -64.17,-69.29 -128.33,-69.29 -64.15,0 -64.15,69.29 -128.29,69.29 -64.19,0 -64.19,-69.29 -128.38,-69.29 -64.19,0 -64.19,69.29 -128.38,69.29"/>
     </g>
    </g>
    <g>
     <g>
      <path class="fil3 str0" d="M1155.83 2246.16c-64.15,0 -64.15,69.29 -128.27,69.29 -64.15,0 -64.15,-69.29 -128.29,-69.29 -64.13,0 -64.13,69.29 -128.26,69.29 -64.13,0 -64.13,-69.29 -128.25,-69.29 -64.15,0 -64.15,69.29 -128.3,69.29 -64.17,0 -64.17,-69.29 -128.33,-69.29 -64.15,0 -64.15,69.29 -128.28,69.29 -64.19,0 -64.19,-69.29 -128.39,-69.29 -64.19,0 -64.19,69.29 -128.38,69.29"/>
     </g>
     <g>
      <path class="fil3 str0" d="M1155.83 2362.93c-64.15,0 -64.15,69.29 -128.27,69.29 -64.15,0 -64.15,-69.29 -128.29,-69.29 -64.13,0 -64.13,69.29 -128.26,69.29 -64.13,0 -64.13,-69.29 -128.25,-69.29 -64.15,0 -64.15,69.29 -128.3,69.29 -64.17,0 -64.17,-69.29 -128.33,-69.29 -64.15,0 -64.15,69.29 -128.28,69.29 -64.19,0 -64.19,-69.29 -128.39,-69.29 -64.19,0 -64.19,69.29 -128.38,69.29"/>
     </g>
    </g>
    <g>
     <g>
      <line class="fil3 str1" x1="7430.44" y1="1049.64" x2="7574.16" y2= "1196.12" />
     </g>
     <g>
      <line class="fil3 str2" x1="7574.16" y1="1049.6" x2="7430.44" y2= "1196.09" />
     </g>
    </g>
   </g>
  </g>
  <path class="fil4" d="M11185.55 9825.51c-1282.6,-87.87 -1172.89,-1761.88 -2461.87,-1754.33 -342.78,2.01 -658.7,154.23 -999.36,187.69 -477.36,46.85 -932.6,-163.09 -1157.81,-484.18 -339.38,-483.87 -112.9,-1114.03 312.35,-1531.22 889.63,-872.78 2670.3,-851.14 3802.44,-337.86 179.53,81.39 348.33,176.32 504.25,282.74l-0 3637.17z"/>
  <path class="fil4" d="M-0 3661.35l0 3571.14c143.62,-46.2 260.84,69.57 415.63,69.51 213.52,-0.06 360.11,-214.43 553.19,-281.93 139.91,-48.9 291.14,-54.14 427.53,-111.99 197.74,-83.87 368.45,-222.37 518.25,-374.15 179.52,-181.86 437.81,-591.98 369.19,-1057.37 30.88,-213 -742.37,-1978.16 -1471.11,-2082.5 -190.67,-27.3 -633.77,115.4 -812.67,267.3z"/>
 </g>
</svg>
