<?xml version="1.0" encoding="UTF-8"?>
<!DOCTYPE svg PUBLIC "-//W3C//DTD SVG 1.1//EN" "http://www.w3.org/Graphics/SVG/1.1/DTD/svg11.dtd">
<!-- Creator: CorelDRAW -->
<svg xmlns="http://www.w3.org/2000/svg" xml:space="preserve" width="285.998mm" height="272.812mm" version="1.1" style="shape-rendering:geometricPrecision; text-rendering:geometricPrecision; image-rendering:optimizeQuality; fill-rule:evenodd; clip-rule:evenodd"
viewBox="0 0 7801.76 7442.08"
 xmlns:xlink="http://www.w3.org/1999/xlink"
 xmlns:xodm="http://www.corel.com/coreldraw/odm/2003">
 <defs>
  <style type="text/css">
   <![CDATA[
    .str1 {stroke:white;stroke-width:25.28;stroke-miterlimit:22.9256}
    .str2 {stroke:white;stroke-width:25.3;stroke-miterlimit:22.9256}
    .str0 {stroke:white;stroke-width:25.32;stroke-miterlimit:22.9256}
    .str3 {stroke:white;stroke-width:5.34;stroke-miterlimit:22.9256}
    .fil1 {fill:none;fill-rule:nonzero}
    .fil5 {fill:#5C5112}
    .fil3 {fill:#66980A}
    .fil6 {fill:#86613E}
    .fil4 {fill:#A0C433}
    .fil0 {fill:black;fill-rule:nonzero}
    .fil8 {fill:#66980A;fill-rule:nonzero}
    .fil2 {fill:#78CA5A;fill-rule:nonzero}
    .fil9 {fill:#8B6340;fill-rule:nonzero}
    .fil7 {fill:#A1C533;fill-rule:nonzero}
   ]]>
  </style>
 </defs>
 <g id="Layer_x0020_1">
  <metadata id="CorelCorpID_0Corel-Layer"/>
  <g id="_1853844820416">
   <path class="fil0" d="M444.63 1028.11c0,4.1 3.32,7.42 7.42,7.42 4.1,0 7.42,-3.32 7.42,-7.42 0,-4.1 -3.32,-7.42 -7.42,-7.42 -4.1,0 -7.42,3.32 -7.42,7.42z"/>
   <path class="fil0" d="M444.63 917.94c0,4.1 3.32,7.42 7.42,7.42 4.1,0 7.42,-3.32 7.42,-7.42 0,-4.1 -3.32,-7.42 -7.42,-7.42 -4.1,0 -7.42,3.32 -7.42,7.42z"/>
   <path class="fil0" d="M444.63 807.7c0,4.1 3.32,7.42 7.42,7.42 4.1,0 7.42,-3.32 7.42,-7.42 0,-4.1 -3.32,-7.42 -7.42,-7.42 -4.1,0 -7.42,3.32 -7.42,7.42z"/>
   <path class="fil0" d="M444.63 697.47c0,4.1 3.32,7.42 7.42,7.42 4.1,0 7.42,-3.32 7.42,-7.42 0,-4.1 -3.32,-7.42 -7.42,-7.42 -4.1,0 -7.42,3.32 -7.42,7.42z"/>
   <path class="fil0" d="M355.71 1028.11c0,4.1 3.32,7.42 7.42,7.42 4.1,0 7.42,-3.32 7.42,-7.42 0,-4.1 -3.32,-7.42 -7.42,-7.42 -4.1,0 -7.42,3.32 -7.42,7.42z"/>
   <path class="fil0" d="M355.71 917.94c0,4.1 3.32,7.42 7.42,7.42 4.1,0 7.42,-3.32 7.42,-7.42 0,-4.1 -3.32,-7.42 -7.42,-7.42 -4.1,0 -7.42,3.32 -7.42,7.42z"/>
   <path class="fil0" d="M355.71 807.7c0,4.1 3.32,7.42 7.42,7.42 4.1,0 7.42,-3.32 7.42,-7.42 0,-4.1 -3.32,-7.42 -7.42,-7.42 -4.1,0 -7.42,3.32 -7.42,7.42z"/>
   <path class="fil0" d="M355.71 697.47c0,4.1 3.32,7.42 7.42,7.42 4.1,0 7.42,-3.32 7.42,-7.42 0,-4.1 -3.32,-7.42 -7.42,-7.42 -4.1,0 -7.42,3.32 -7.42,7.42z"/>
   <path class="fil0" d="M266.79 1028.11c0,4.1 3.32,7.42 7.42,7.42 4.1,0 7.42,-3.32 7.42,-7.42 0,-4.1 -3.32,-7.42 -7.42,-7.42 -4.1,0 -7.42,3.32 -7.42,7.42z"/>
   <path class="fil0" d="M266.79 917.94c0,4.1 3.32,7.42 7.42,7.42 4.1,0 7.42,-3.32 7.42,-7.42 0,-4.1 -3.32,-7.42 -7.42,-7.42 -4.1,0 -7.42,3.32 -7.42,7.42z"/>
   <path class="fil0" d="M266.79 807.7c0,4.1 3.32,7.42 7.42,7.42 4.1,0 7.42,-3.32 7.42,-7.42 0,-4.1 -3.32,-7.42 -7.42,-7.42 -4.1,0 -7.42,3.32 -7.42,7.42z"/>
   <path class="fil0" d="M266.79 697.47c0,4.1 3.32,7.42 7.42,7.42 4.1,0 7.42,-3.32 7.42,-7.42 0,-4.1 -3.32,-7.42 -7.42,-7.42 -4.1,0 -7.42,3.32 -7.42,7.42z"/>
   <path class="fil0" d="M177.86 1028.11c0,4.1 3.32,7.42 7.42,7.42 4.1,0 7.42,-3.32 7.42,-7.42 0,-4.1 -3.32,-7.42 -7.42,-7.42 -4.1,0 -7.42,3.32 -7.42,7.42z"/>
   <path class="fil0" d="M177.86 917.94c0,4.1 3.32,7.42 7.42,7.42 4.1,0 7.42,-3.32 7.42,-7.42 0,-4.1 -3.32,-7.42 -7.42,-7.42 -4.1,0 -7.42,3.32 -7.42,7.42z"/>
   <path class="fil0" d="M177.86 807.7c0,4.1 3.32,7.42 7.42,7.42 4.1,0 7.42,-3.32 7.42,-7.42 0,-4.1 -3.32,-7.42 -7.42,-7.42 -4.1,0 -7.42,3.32 -7.42,7.42z"/>
   <path class="fil0" d="M177.86 697.47c0,4.1 3.32,7.42 7.42,7.42 4.1,0 7.42,-3.32 7.42,-7.42 0,-4.1 -3.32,-7.42 -7.42,-7.42 -4.1,0 -7.42,3.32 -7.42,7.42z"/>
   <path class="fil0" d="M88.94 1028.11c0,4.1 3.32,7.42 7.42,7.42 4.1,0 7.42,-3.32 7.42,-7.42 0,-4.1 -3.32,-7.42 -7.42,-7.42 -4.1,0 -7.42,3.32 -7.42,7.42z"/>
   <path class="fil0" d="M88.94 917.94c0,4.1 3.32,7.42 7.42,7.42 4.1,0 7.42,-3.32 7.42,-7.42 0,-4.1 -3.32,-7.42 -7.42,-7.42 -4.1,0 -7.42,3.32 -7.42,7.42z"/>
   <path class="fil0" d="M88.94 807.7c0,4.1 3.32,7.42 7.42,7.42 4.1,0 7.42,-3.32 7.42,-7.42 0,-4.1 -3.32,-7.42 -7.42,-7.42 -4.1,0 -7.42,3.32 -7.42,7.42z"/>
   <path class="fil0" d="M88.94 697.47c0,4.1 3.32,7.42 7.42,7.42 4.1,0 7.42,-3.32 7.42,-7.42 0,-4.1 -3.32,-7.42 -7.42,-7.42 -4.1,0 -7.42,3.32 -7.42,7.42z"/>
   <path class="fil0" d="M0.02 1028.11c0,4.1 3.32,7.42 7.42,7.42 4.1,0 7.42,-3.32 7.42,-7.42 0,-4.1 -3.32,-7.42 -7.42,-7.42 -4.1,0 -7.42,3.32 -7.42,7.42z"/>
   <path class="fil0" d="M0.02 917.94c0,4.1 3.32,7.42 7.42,7.42 4.1,0 7.42,-3.32 7.42,-7.42 0,-4.1 -3.32,-7.42 -7.42,-7.42 -4.1,0 -7.42,3.32 -7.42,7.42z"/>
   <path class="fil0" d="M0.02 807.7c0,4.1 3.32,7.42 7.42,7.42 4.1,0 7.42,-3.32 7.42,-7.42 0,-4.1 -3.32,-7.42 -7.42,-7.42 -4.1,0 -7.42,3.32 -7.42,7.42z"/>
   <path class="fil0" d="M0.02 697.47c0,4.1 3.32,7.42 7.42,7.42 4.1,0 7.42,-3.32 7.42,-7.42 0,-4.1 -3.32,-7.42 -7.42,-7.42 -4.1,0 -7.42,3.32 -7.42,7.42z"/>
   <path class="fil0" d="M6693.82 338.06c0,4.1 3.32,7.42 7.42,7.42 4.1,0 7.42,-3.32 7.42,-7.42 0,-4.1 -3.32,-7.42 -7.42,-7.42 -4.1,0 -7.42,3.32 -7.42,7.42z"/>
   <path class="fil0" d="M6693.82 227.89c0,4.1 3.32,7.42 7.42,7.42 4.1,0 7.42,-3.32 7.42,-7.42 0,-4.1 -3.32,-7.42 -7.42,-7.42 -4.1,0 -7.42,3.32 -7.42,7.42z"/>
   <path class="fil0" d="M6693.82 117.65c0,4.1 3.32,7.42 7.42,7.42 4.1,0 7.42,-3.32 7.42,-7.42 0,-4.1 -3.32,-7.42 -7.42,-7.42 -4.1,0 -7.42,3.32 -7.42,7.42z"/>
   <path class="fil0" d="M6693.82 7.42c0,4.1 3.32,7.42 7.42,7.42 4.1,0 7.42,-3.32 7.42,-7.42 0,-4.1 -3.32,-7.42 -7.42,-7.42 -4.1,0 -7.42,3.32 -7.42,7.42z"/>
   <path class="fil0" d="M6604.88 338.06c0,4.1 3.32,7.42 7.42,7.42 4.1,0 7.42,-3.32 7.42,-7.42 0,-4.1 -3.32,-7.42 -7.42,-7.42 -4.1,0 -7.42,3.32 -7.42,7.42z"/>
   <path class="fil0" d="M6604.88 227.89c0,4.1 3.32,7.42 7.42,7.42 4.1,0 7.42,-3.32 7.42,-7.42 0,-4.1 -3.32,-7.42 -7.42,-7.42 -4.1,0 -7.42,3.32 -7.42,7.42z"/>
   <path class="fil0" d="M6604.88 117.65c0,4.1 3.32,7.42 7.42,7.42 4.1,0 7.42,-3.32 7.42,-7.42 0,-4.1 -3.32,-7.42 -7.42,-7.42 -4.1,0 -7.42,3.32 -7.42,7.42z"/>
   <path class="fil0" d="M6604.88 7.42c0,4.1 3.32,7.42 7.42,7.42 4.1,0 7.42,-3.32 7.42,-7.42 0,-4.1 -3.32,-7.42 -7.42,-7.42 -4.1,0 -7.42,3.32 -7.42,7.42z"/>
   <path class="fil0" d="M6515.96 338.06c0,4.1 3.32,7.42 7.42,7.42 4.1,0 7.42,-3.32 7.42,-7.42 0,-4.1 -3.32,-7.42 -7.42,-7.42 -4.1,0 -7.42,3.32 -7.42,7.42z"/>
   <path class="fil0" d="M6515.96 227.89c0,4.1 3.32,7.42 7.42,7.42 4.1,0 7.42,-3.32 7.42,-7.42 0,-4.1 -3.32,-7.42 -7.42,-7.42 -4.1,0 -7.42,3.32 -7.42,7.42z"/>
   <path class="fil0" d="M6515.96 117.65c0,4.1 3.32,7.42 7.42,7.42 4.1,0 7.42,-3.32 7.42,-7.42 0,-4.1 -3.32,-7.42 -7.42,-7.42 -4.1,0 -7.42,3.32 -7.42,7.42z"/>
   <path class="fil0" d="M6515.96 7.42c0,4.1 3.32,7.42 7.42,7.42 4.1,0 7.42,-3.32 7.42,-7.42 0,-4.1 -3.32,-7.42 -7.42,-7.42 -4.1,0 -7.42,3.32 -7.42,7.42z"/>
   <path class="fil0" d="M6427.05 338.06c0,4.1 3.32,7.42 7.42,7.42 4.1,0 7.42,-3.32 7.42,-7.42 0,-4.1 -3.32,-7.42 -7.42,-7.42 -4.1,0 -7.42,3.32 -7.42,7.42z"/>
   <path class="fil0" d="M6427.05 227.89c0,4.1 3.32,7.42 7.42,7.42 4.1,0 7.42,-3.32 7.42,-7.42 0,-4.1 -3.32,-7.42 -7.42,-7.42 -4.1,0 -7.42,3.32 -7.42,7.42z"/>
   <path class="fil0" d="M6427.05 117.65c0,4.1 3.32,7.42 7.42,7.42 4.1,0 7.42,-3.32 7.42,-7.42 0,-4.1 -3.32,-7.42 -7.42,-7.42 -4.1,0 -7.42,3.32 -7.42,7.42z"/>
   <path class="fil0" d="M6427.05 7.42c0,4.1 3.32,7.42 7.42,7.42 4.1,0 7.42,-3.32 7.42,-7.42 0,-4.1 -3.32,-7.42 -7.42,-7.42 -4.1,0 -7.42,3.32 -7.42,7.42z"/>
   <path class="fil0" d="M6338.13 338.06c0,4.1 3.32,7.42 7.42,7.42 4.1,0 7.42,-3.32 7.42,-7.42 0,-4.1 -3.32,-7.42 -7.42,-7.42 -4.1,0 -7.42,3.32 -7.42,7.42z"/>
   <path class="fil0" d="M6338.13 227.89c0,4.1 3.32,7.42 7.42,7.42 4.1,0 7.42,-3.32 7.42,-7.42 0,-4.1 -3.32,-7.42 -7.42,-7.42 -4.1,0 -7.42,3.32 -7.42,7.42z"/>
   <path class="fil0" d="M6338.13 117.65c0,4.1 3.32,7.42 7.42,7.42 4.1,0 7.42,-3.32 7.42,-7.42 0,-4.1 -3.32,-7.42 -7.42,-7.42 -4.1,0 -7.42,3.32 -7.42,7.42z"/>
   <path class="fil0" d="M6338.13 7.42c0,4.1 3.32,7.42 7.42,7.42 4.1,0 7.42,-3.32 7.42,-7.42 0,-4.1 -3.32,-7.42 -7.42,-7.42 -4.1,0 -7.42,3.32 -7.42,7.42z"/>
   <path class="fil0" d="M6249.21 338.06c0,4.1 3.32,7.42 7.42,7.42 4.1,0 7.42,-3.32 7.42,-7.42 0,-4.1 -3.32,-7.42 -7.42,-7.42 -4.1,0 -7.42,3.32 -7.42,7.42z"/>
   <path class="fil0" d="M6249.21 227.89c0,4.1 3.32,7.42 7.42,7.42 4.1,0 7.42,-3.32 7.42,-7.42 0,-4.1 -3.32,-7.42 -7.42,-7.42 -4.1,0 -7.42,3.32 -7.42,7.42z"/>
   <path class="fil0" d="M6249.21 117.65c0,4.1 3.32,7.42 7.42,7.42 4.1,0 7.42,-3.32 7.42,-7.42 0,-4.1 -3.32,-7.42 -7.42,-7.42 -4.1,0 -7.42,3.32 -7.42,7.42z"/>
   <path class="fil0" d="M6249.21 7.42c0,4.1 3.32,7.42 7.42,7.42 4.1,0 7.42,-3.32 7.42,-7.42 0,-4.1 -3.32,-7.42 -7.42,-7.42 -4.1,0 -7.42,3.32 -7.42,7.42z"/>
   <line class="fil1 str0" x1="5389.84" y1="187.73" x2="5516.88" y2= "314.77" />
   <line class="fil1 str0" x1="5516.88" y1="187.69" x2="5389.84" y2= "314.74" />
   <line class="fil1 str1" x1="1646.44" y1="423.25" x2="1736.56" y2= "513.37" />
   <line class="fil1 str1" x1="1736.56" y1="423.23" x2="1646.44" y2= "513.33" />
   <line class="fil1 str0" x1="57.9" y1="2216" x2="183.6" y2= "2341.72" />
   <line class="fil1 str0" x1="183.6" y1="2215.97" x2="57.9" y2= "2341.67" />
   <line class="fil1 str2" x1="7631.91" y1="1811.62" x2="7744.68" y2= "1924.37" />
   <line class="fil1 str2" x1="7744.68" y1="1811.57" x2="7631.91" y2= "1924.34" />
   <line class="fil1 str0" x1="5868.97" y1="3360.54" x2="6017.86" y2= "3509.44" />
   <line class="fil1 str0" x1="6017.86" y1="3360.49" x2="5868.97" y2= "3509.38" />
   <path class="fil2" d="M7019.68 367.15l-60.56 0c-14.65,0 -26.54,-12.91 -26.54,-28.81l0 -2.4c0,-15.92 11.87,-28.81 26.54,-28.81l60.56 0c14.65,0 26.5,12.88 26.5,28.81l0 2.4c0,15.9 -11.86,28.81 -26.5,28.81z"/>
   <path class="fil2" d="M7605.96 367.15l-460.45 0c-14.65,0 -26.52,-12.91 -26.52,-28.81l0 -2.4c0,-15.92 11.87,-28.81 26.52,-28.81l460.45 0c14.65,0 26.54,12.88 26.54,28.81l0 2.4c0,15.9 -11.87,28.81 -26.54,28.81z"/>
   <path class="fil2" d="M4219.83 2663.77l-60.56 0c-14.65,0 -26.52,-12.91 -26.52,-28.81l0 -2.4c0,-15.92 11.87,-28.81 26.52,-28.81l60.56 0c14.65,0 26.5,12.88 26.5,28.81l0 2.4c0,15.9 -11.86,28.81 -26.5,28.81z"/>
   <path class="fil2" d="M4806.1 2663.77l-460.45 0c-14.65,0 -26.54,-12.91 -26.54,-28.81l0 -2.4c0,-15.92 11.87,-28.81 26.54,-28.81l460.45 0c14.65,0 26.52,12.88 26.52,28.81l0 2.4c0,15.9 -11.87,28.81 -26.52,28.81z"/>
   <path class="fil2" d="M3409.35 4704.83l-60.56 0c-14.65,0 -26.54,-12.91 -26.54,-28.81l0 -2.4c0,-15.92 11.87,-28.81 26.54,-28.81l60.56 0c14.65,0 26.5,12.88 26.5,28.81l0 2.4c0,15.9 -11.86,28.81 -26.5,28.81z"/>
   <path class="fil2" d="M3995.63 4704.83l-460.45 0c-14.65,0 -26.52,-12.91 -26.52,-28.81l0 -2.4c0,-15.92 11.87,-28.81 26.52,-28.81l460.45 0c14.65,0 26.54,12.88 26.54,28.81l0 2.4c0,15.9 -11.87,28.81 -26.54,28.81z"/>
   <path class="fil2" d="M661.53 5525.87l-60.56 0c-14.65,0 -26.54,-12.91 -26.54,-28.81l0 -2.4c0,-15.92 11.87,-28.81 26.54,-28.81l60.56 0c14.65,0 26.5,12.9 26.5,28.81l0 2.4c0,15.9 -11.86,28.81 -26.5,28.81z"/>
   <path class="fil2" d="M1247.78 5525.87l-460.45 0c-14.65,0 -26.52,-12.91 -26.52,-28.81l0 -2.4c0,-15.92 11.87,-28.81 26.52,-28.81l460.45 0c14.65,0 26.54,12.9 26.54,28.81l0 2.4c0,15.9 -11.87,28.81 -26.54,28.81z"/>
   <path class="fil2" d="M4059.89 7171.88l-60.56 0c-14.65,0 -26.54,-12.91 -26.54,-28.81l0 -2.4c0,-15.94 11.87,-28.81 26.54,-28.81l60.56 0c14.65,0 26.5,12.88 26.5,28.81l0 2.4c0,15.9 -11.86,28.81 -26.5,28.81z"/>
   <path class="fil2" d="M4646.16 7171.88l-460.45 0c-14.65,0 -26.54,-12.91 -26.54,-28.81l0 -2.4c0,-15.94 11.87,-28.81 26.54,-28.81l460.45 0c14.65,0 26.54,12.88 26.54,28.81l0 2.4c0,15.9 -11.87,28.81 -26.54,28.81z"/>
   <path class="fil1 str3" d="M5131.97 1079.33c-50.1,0 -50.1,-54.13 -100.21,-54.13 -50.1,0 -50.1,54.13 -100.22,54.13 -50.1,0 -50.1,-54.13 -100.19,-54.13 -50.1,0 -50.1,54.13 -100.19,54.13 -50.12,0 -50.12,-54.13 -100.22,-54.13 -50.12,0 -50.12,54.13 -100.26,54.13 -50.1,0 -50.1,-54.13 -100.22,-54.13 -50.14,0 -50.14,54.13 -100.29,54.13 -50.14,0 -50.14,-54.13 -100.29,-54.13"/>
   <path class="fil1 str3" d="M5131.97 988.11c-50.1,0 -50.1,-54.13 -100.21,-54.13 -50.1,0 -50.1,54.13 -100.22,54.13 -50.1,0 -50.1,-54.13 -100.19,-54.13 -50.1,0 -50.1,54.13 -100.19,54.13 -50.12,0 -50.12,-54.13 -100.22,-54.13 -50.12,0 -50.12,54.13 -100.26,54.13 -50.1,0 -50.1,-54.13 -100.22,-54.13 -50.14,0 -50.14,54.13 -100.29,54.13 -50.14,0 -50.14,-54.13 -100.29,-54.13"/>
   <path class="fil1 str3" d="M2860.18 3570.21c-50.1,0 -50.1,-54.13 -100.21,-54.13 -50.1,0 -50.1,54.13 -100.21,54.13 -50.1,0 -50.1,-54.13 -100.19,-54.13 -50.1,0 -50.1,54.13 -100.19,54.13 -50.12,0 -50.12,-54.13 -100.22,-54.13 -50.12,0 -50.12,54.13 -100.26,54.13 -50.1,0 -50.1,-54.13 -100.21,-54.13 -50.14,0 -50.14,54.13 -100.29,54.13 -50.14,0 -50.14,-54.13 -100.29,-54.13"/>
   <path class="fil1 str3" d="M2860.18 3478.99c-50.1,0 -50.1,-54.13 -100.21,-54.13 -50.1,0 -50.1,54.13 -100.21,54.13 -50.1,0 -50.1,-54.13 -100.19,-54.13 -50.1,0 -50.1,54.13 -100.19,54.13 -50.12,0 -50.12,-54.13 -100.22,-54.13 -50.12,0 -50.12,54.13 -100.26,54.13 -50.1,0 -50.1,-54.13 -100.21,-54.13 -50.14,0 -50.14,54.13 -100.29,54.13 -50.14,0 -50.14,-54.13 -100.29,-54.13"/>
   <path class="fil1 str3" d="M7381.5 4322.5c-50.1,0 -50.1,-54.13 -100.21,-54.13 -50.1,0 -50.1,54.13 -100.21,54.13 -50.1,0 -50.1,-54.13 -100.21,-54.13 -50.1,0 -50.1,54.13 -100.19,54.13 -50.12,0 -50.12,-54.13 -100.22,-54.13 -50.12,0 -50.12,54.13 -100.26,54.13 -50.1,0 -50.1,-54.13 -100.21,-54.13 -50.14,0 -50.14,54.13 -100.29,54.13 -50.14,0 -50.14,-54.13 -100.29,-54.13"/>
   <path class="fil1 str3" d="M7381.5 4231.29c-50.1,0 -50.1,-54.13 -100.21,-54.13 -50.1,0 -50.1,54.13 -100.21,54.13 -50.1,0 -50.1,-54.13 -100.21,-54.13 -50.1,0 -50.1,54.13 -100.19,54.13 -50.12,0 -50.12,-54.13 -100.22,-54.13 -50.12,0 -50.12,54.13 -100.26,54.13 -50.1,0 -50.1,-54.13 -100.21,-54.13 -50.14,0 -50.14,54.13 -100.29,54.13 -50.14,0 -50.14,-54.13 -100.29,-54.13"/>
   <path class="fil1 str3" d="M3305.01 7055.14c-50.1,0 -50.1,-54.13 -100.21,-54.13 -50.1,0 -50.1,54.13 -100.22,54.13 -50.1,0 -50.1,-54.13 -100.19,-54.13 -50.1,0 -50.1,54.13 -100.19,54.13 -50.12,0 -50.12,-54.13 -100.22,-54.13 -50.12,0 -50.12,54.13 -100.26,54.13 -50.1,0 -50.1,-54.13 -100.21,-54.13 -50.14,0 -50.14,54.13 -100.29,54.13 -50.14,0 -50.14,-54.13 -100.29,-54.13"/>
   <path class="fil1 str3" d="M3305.01 6963.94c-50.1,0 -50.1,-54.13 -100.21,-54.13 -50.1,0 -50.1,54.13 -100.22,54.13 -50.1,0 -50.1,-54.13 -100.19,-54.13 -50.1,0 -50.1,54.13 -100.19,54.13 -50.12,0 -50.12,-54.13 -100.22,-54.13 -50.12,0 -50.12,54.13 -100.26,54.13 -50.1,0 -50.1,-54.13 -100.21,-54.13 -50.14,0 -50.14,54.13 -100.29,54.13 -50.14,0 -50.14,-54.13 -100.29,-54.13"/>
   <path class="fil3" d="M771.25 6378.69c35.81,-0.74 71.32,-13.92 85.83,-3.3 -4.7,15.16 11.48,4.87 -14.72,11.34 -14.79,3.66 -50.26,1.64 -66.18,11.41 39.5,6.98 69.59,20.09 117.59,22.65 42.24,2.26 89.09,-1.48 126.69,-9.17 34.56,-7.07 173.45,-39.72 202.59,-67.88 -115.74,-83.44 -362.92,-30.85 -451.78,34.94l0 -0.02 -0.02 0.01z"/>
   <path class="fil4" d="M830.28 6586.47c28.51,115.58 195.73,269.72 301.89,303.01 -12.17,-69.02 -52.98,-158.42 -99.59,-200.84 -44.15,-40.17 -114.06,-97.18 -188.19,-114.82l28 30.35c2.62,9.97 4.54,2.44 -4.22,11.41l-37.91 -29.13 0.02 0.02z"/>
   <path class="fil3" d="M444.2 6211.95c10.09,7.3 -5.97,2.92 15.99,5.35 1.63,0.18 15.07,-0.88 17.44,-1.15 25.23,-2.83 76.62,-13.5 88.88,-3.48 -3.62,14.36 -6.01,10.3 -26.01,12.21l-86 8.66c-14.82,4.1 -6.11,0.49 -14.59,6.89 59.03,5.21 107.84,39.7 230.57,20.12 63.69,-10.14 149.23,-43.73 186.28,-75.67 -58.79,-62.98 -222.92,-46.78 -315.27,-13.11l-97.27 40.17 0 -0.02 -0.02 0.02z"/>
   <path class="fil4" d="M289.46 6396.09c0.99,119.61 84.87,294.09 181.26,331.56 5.58,-138.6 -47.42,-282.67 -173.65,-340.94 -13.13,0.81 -8.67,-13.25 -7.61,9.35l0 0.02 -0 0.02z"/>
   <path class="fil4" d="M554.61 6523.47c15.7,104.34 130.75,297.78 220.03,311.33 -7.91,-81.52 -25.05,-145.75 -62.88,-204.92 -26.34,-41.2 -90.05,-106.36 -146.76,-124.22 6.33,19.28 44.04,51.07 39.72,63.94 -10.71,12.77 -24.93,-18.87 -38.05,-34.03l-12.05 -12.12 0.02 0.02 -0.02 -0z"/>
   <path class="fil3" d="M979.83 6514.07c24.24,10.46 97.84,17.35 130.59,20.07 42.23,3.52 30.19,4.36 35.6,11.5l-0.53 0.41c55.47,5.87 113.25,16.02 168.47,24.47 27.63,4.22 54.63,8 82.06,12.08 16.69,2.49 70.83,5 82.06,18.69l15.37 -2.3 -100.26 -67.8c-110.95,-56.78 -325.69,-56.2 -413.37,-17.1l0.02 0.02 -0.02 -0.04z"/>
   <path class="fil4" d="M1478.09 6601.29c-11.22,-13.69 -65.37,-16.22 -82.06,-18.69 -27.44,-4.06 -54.41,-7.85 -82.06,-12.08 -55.21,-8.45 -112.98,-18.6 -168.45,-24.47 -13.34,12.49 -65.63,0.21 -86.3,-2.46 -13.51,-1.75 -28.85,-4.08 -43.02,-6.57 -37.35,-6.56 -28.78,-4.57 -36.94,1.2 43.16,24.82 43.69,31.78 100.29,53.85 36.04,14.06 79.11,23.29 120.93,28.36 106.73,12.93 178.93,-4.45 277.62,-19.13l0 -0.02 0 0.02z"/>
   <path class="fil5" d="M1146.04 6545.62c-5.39,-7.16 6.63,-8 -35.6,-11.5 -32.77,-2.72 -106.37,-9.61 -130.59,-20.07 -49.36,-2.42 -306.61,-70.28 -346.75,-98.02 14.65,-9.01 116.62,-16.13 143.1,-17.91 15.94,-9.79 51.39,-7.77 66.18,-11.41 26.2,-6.47 10.02,3.8 14.72,-11.34 -14.52,-10.62 -50.02,2.56 -85.83,3.3l-141.02 17.31c-37.74,4.96 -34.5,8.78 -64.11,-5.18 -75.58,-35.6 -202.02,-92.61 -263.61,-141.78 34.36,2.05 119.45,-17.88 137.41,-8.6 8.48,-6.38 -0.25,-2.77 14.59,-6.87l86 -8.66c20.02,-1.89 22.39,2.16 26.01,-12.21 -12.26,-10.04 -63.65,0.64 -88.88,3.48 -2.37,0.26 -15.81,1.34 -17.44,1.15 -21.98,-2.42 -5.92,1.96 -15.99,-5.35 -34.82,17.9 -100.21,15.02 -144.66,21.3 -31.89,4.5 -79.8,-36.57 -105.74,-57.1l-93.25 -74.11c-24.47,-19.66 -69.01,-56.92 -86.5,-80.54l-14.05 6.96c14.33,4.93 14.75,11.36 25.58,21.94 9.88,9.65 19.7,14.89 30.26,24.28 23.59,20.97 10,14.22 54.59,49.2 160.82,126.21 190.43,144.57 380.9,243.11 173.68,89.85 435.86,166.14 654.68,178.65l-0.02 0 -0.02 -0.04z"/>
   <path class="fil6" d="M289.46 6396.09c-1.04,-22.61 -5.51,-8.55 7.61,-9.35l-88.71 -177.15c28.41,13.02 68.74,45.81 99.18,65.26 27.21,17.37 83.74,43.14 104.87,62.35 18.62,16.94 119.52,155.98 142.17,186.28l12.05 12.12c13.13,15.16 27.35,46.8 38.05,34.03 4.33,-12.88 -33.39,-44.66 -39.72,-63.94 -20.33,-17.47 -110.91,-140.4 -114.94,-149.09 24.75,7.97 145.8,66.08 217.32,91.83 33.64,12.12 23.76,12.54 45.58,31.02l117.33 107.03 37.91 29.13c8.78,-8.97 6.84,-1.45 4.22,-11.41l-28 -30.35 -115.22 -101.71c26.45,1.22 93.97,25.63 125.13,33.32 41.15,10.14 93.92,15.09 124.92,32.79 8.16,-5.78 -0.41,-7.76 36.94,-1.2 14.19,2.49 29.51,4.82 43.02,6.57 20.65,2.67 72.96,14.93 86.3,2.46l0.53 -0.41c-218.81,-12.49 -481,-88.79 -654.68,-178.65 -190.48,-98.53 -220.08,-116.9 -380.9,-243.11 -44.59,-34.98 -31.01,-28.23 -54.59,-49.2 -10.55,-9.38 -20.39,-14.63 -30.26,-24.28 -10.85,-10.58 -11.25,-17.01 -25.58,-21.94 2.6,14.8 7.83,12.53 19.54,23.73 8.62,8.25 11.04,12.68 20.05,20.44 8.28,7.14 14.31,11.11 22.61,18.29 8.55,7.38 12.07,13.06 20.18,20.28l90.95 71.89c24.11,24.8 92.43,190.18 116.11,213.01l0 0 0.02 -0.04z"/>
   <path class="fil7" d="M7327.09 5465.31c50.93,7.23 101.64,15.79 152.2,25.74 16.13,3.34 32.45,6.71 48.69,10.28 44.82,9.84 89.46,20.81 133.9,32.95 14.59,3.99 29.13,8.2 43.67,12.46 32.19,9.35 64.15,19.4 96.07,30l-2.35 7.05 -2.3 6.89c-0.55,-0.21 -0.97,-0.26 -1.54,-0.49 -30.33,-10.1 -60.78,-19.61 -91.37,-28.64 -6.24,-1.91 -12.56,-3.71 -18.8,-5.53 -52.74,-15.09 -105.86,-28.48 -159.2,-40.16 -5.85,-1.31 -11.86,-2.63 -17.81,-3.89 -59.68,-12.74 -120.01,-23.34 -180.4,-31.85 -7.05,-1.04 -14.15,-1.91 -21.2,-2.9 -62.84,-8.3 -125.86,-14.31 -188.86,-18.09 -6.24,-0.44 -12.4,-0.76 -18.69,-1.1 -57.7,-3.16 -115.52,-4.26 -173.35,-3.45 -7.93,0.05 -16.08,0.16 -24.04,0.49 -60.55,1.31 -121.21,4.65 -181.65,10.34 -11.31,0.86 -22.51,2.08 -33.89,3.34 -53.67,5.53 -107.22,12.84 -160.61,21.75 -36.5,6.24 -72.84,13.06 -109.13,20.76l-1.48 -7.1 -1.64 -7.16c35.97,-7.6 72.13,-14.49 108.37,-20.6 48.25,-8.2 96.78,-14.91 145.26,-20.28 17.21,-1.91 34.54,-3.71 51.87,-5.35 52.19,-4.86 104.66,-8.04 157.11,-9.61 16.55,-0.55 32.95,-0.99 49.5,-1.25 47.77,-0.6 95.53,0.05 143.17,2.08 15.95,0.65 32.03,1.36 47.93,2.35 53.83,3.16 107.59,7.98 161.16,14.54 16.5,1.91 33.13,4.15 49.57,6.39l-0.16 0.04 -0.02 0z"/>
   <path class="fil7" d="M6521.62 5476.46c8.75,2.56 14.05,4.54 15.03,4.81l0.11 0.16c-3.66,3.16 -7.54,6.29 -11.31,9.12 -188.86,151.76 -368.99,87.33 -360.95,81.97 143.12,-143.35 307.23,-110.61 357.07,-96.07l0.05 0 0 0.02z"/>
   <path class="fil7" d="M6721.96 5457.82c0,0 -81.59,-196.46 -283.91,-156.69 0,0 78.25,167.32 283.91,156.69z"/>
   <path class="fil7" d="M6721.96 5457.82l0 0.11c-0.26,0.81 -0.76,3.45 -1.96,7.54 -10.23,33.13 -60.44,165.15 -233.57,207.6 0,0 23.99,-141.97 199.69,-204.23 11.2,-3.99 23,-7.6 35.41,-10.94 0.16,0 0.34,-0.11 0.44,-0.11l0 0.02z"/>
   <path class="fil7" d="M6926.51 5447.27c0,0 -26.66,-182.75 -228.82,-192.53 0,0 38.04,188.1 228.82,192.53z"/>
   <path class="fil7" d="M6926.62 5447.27c0,0 -0.21,2.63 -0.92,7.38 -5.04,29.89 -34.75,144.11 -202.15,202.85 0,0 13.5,-144.82 178.1,-202.36 7.93,-2.95 16.29,-5.64 24.98,-7.86l0 0 -0.02 -0.02z"/>
   <path class="fil7" d="M7118.5 5451.76c0,0 -45.79,-188.05 -204.39,-211.88 0,0 7.86,192.59 204.39,211.88z"/>
   <path class="fil7" d="M7118.28 5451.7l0.16 0c0,0 -0.11,2.62 -0.76,7.38 -4.2,28.25 -29.89,131.87 -177.66,191.38 0,0 8.59,-139.36 159.02,-192.41 6.24,-2.35 12.56,-4.38 19.29,-6.34l-0.05 0 -0 -0.02z"/>
   <path class="fil7" d="M7330.04 5473.01c0,0 -54.59,-156.57 -192.96,-191.16 0,0 8.41,158.31 192.96,191.16z"/>
   <path class="fil7" d="M7329.83 5473.06l0.16 0c0,0 -0.65,2.56 -2.19,7.05 -10,29.61 -58.97,143.83 -219.35,164 0,0 41.38,-134 198.15,-166.95 7.44,-1.7 15.3,-2.95 23.29,-4.15l-0.05 0.05 0 0z"/>
   <path class="fil7" d="M7529.55 5509.14c0,0 -29.4,-183.19 -184.34,-194.71 0,0 19.13,152.62 184.34,194.71z"/>
   <path class="fil7" d="M7529.45 5509.19l0 0.16c-0.39,0.65 -1.48,3 -3.45,6.56 -14.65,27.15 -79.68,128.05 -237.73,146.07 0,0 70.61,-125.52 219.85,-149.96 6.77,-1.25 13.83,-2.14 20.99,-2.74 0.16,-0.11 0.16,-0.11 0.34,-0.11l0 0.02z"/>
   <path class="fil8" d="M7801.66 5576.73l-2.35 7.05 -2.3 6.89c-0.55,-0.21 -0.97,-0.26 -1.54,-0.49 -30.33,-10.1 -60.78,-19.61 -91.37,-28.64 -6.24,-1.91 -12.56,-3.71 -18.8,-5.53 -52.74,-15.09 -105.86,-28.48 -159.2,-40.16 -5.85,-1.31 -11.86,-2.63 -17.81,-3.89 -59.68,-12.74 -120.01,-23.34 -180.4,-31.85 -7.05,-1.04 -14.15,-1.91 -21.2,-2.9 -62.84,-8.3 -125.86,-14.31 -188.86,-18.09 -6.24,-0.44 -12.4,-0.76 -18.69,-1.1 -57.7,-3.16 -115.52,-4.26 -173.35,-3.45 -7.93,0.05 -16.08,0.16 -24.04,0.49 -60.55,1.31 -121.21,4.65 -181.65,10.34 -11.31,0.86 -22.51,2.08 -33.89,3.34 -53.67,5.53 -107.22,12.84 -160.61,21.75 -36.5,6.24 -72.84,13.06 -109.13,20.76l-1.48 -7.1 -0.26 -1.1c289.42,-61.27 802.03,-114.6 1387.03,73.67l-0.11 -0.02 0 0.02z"/>
   <path class="fil8" d="M6534.85 5480.66l1.8 0.6 0.11 0.16c-3.66,3.16 -7.54,6.29 -11.31,9.12 -188.86,151.76 -368.99,87.33 -360.95,81.97 0,0 138.86,-54.43 370.35,-91.87l0 0.02z"/>
   <path class="fil8" d="M6721.96 5457.82l-0.21 -0.55 -9.73 0.86c3.29,-0.05 6.61,-0.21 9.95,-0.39l0 0.05 0 0.02z"/>
   <path class="fil8" d="M6721.96 5457.82l0 0.11c-0.26,0.81 -0.76,3.45 -1.96,7.54 -10.23,33.13 -60.44,165.15 -233.57,207.6 0,0 23.99,-141.97 199.69,-204.23 11.2,-3.99 23,-7.6 35.41,-10.94 0.16,0 0.34,-0.11 0.44,-0.11l0 0.02z"/>
   <path class="fil8" d="M6926.51 5447.27l-0.11 -0.71 -11.54 0.16c3.82,0.21 7.7,0.44 11.64,0.55z"/>
   <path class="fil8" d="M6926.62 5447.27c0,0 -0.21,2.63 -0.92,7.38 -5.04,29.89 -34.75,144.11 -202.15,202.85 0,0 13.5,-144.82 178.1,-202.36 7.93,-2.95 16.29,-5.64 24.98,-7.86l0 0 -0.02 -0.02z"/>
   <path class="fil8" d="M7118.5 5451.76l-0.39 -1.41c-5.9,-0.34 -11.8,-0.6 -17.65,-0.92 5.85,0.92 11.86,1.75 18.04,2.35l0 0 0 -0.02z"/>
   <path class="fil8" d="M7118.28 5451.7l0.16 0c0,0 -0.11,2.62 -0.76,7.38 -4.2,28.25 -29.89,131.87 -177.66,191.38 0,0 8.59,-139.36 159.02,-192.41 6.24,-2.35 12.56,-4.38 19.29,-6.34l-0.05 0 -0 -0.02z"/>
   <path class="fil8" d="M7330.04 5473.01c0,0 -0.34,-0.99 -1.04,-2.85 -9.06,-1.2 -18.14,-2.35 -27.15,-3.5 8.9,2.46 18.3,4.59 28.2,6.34l0 0z"/>
   <path class="fil8" d="M7329.83 5473.06l0.16 0c0,0 -0.65,2.56 -2.19,7.05 -10,29.61 -58.97,143.83 -219.35,164 0,0 41.38,-134 198.15,-166.95 7.44,-1.7 15.3,-2.95 23.29,-4.15l-0.05 0.05 0 0z"/>
   <path class="fil8" d="M7529.55 5509.14c0,0 -0.26,-1.7 -0.86,-4.75 -11.96,-2.51 -23.94,-4.93 -35.79,-7.26 11.36,4.59 23.55,8.64 36.73,12.01l-0.05 0 -0.02 0z"/>
   <path class="fil8" d="M7529.45 5509.19l0 0.16c-0.39,0.65 -1.48,3 -3.45,6.56 -14.65,27.15 -79.68,128.05 -237.73,146.07 0,0 70.61,-125.52 219.85,-149.96 6.77,-1.25 13.83,-2.14 20.99,-2.74 0.16,-0.11 0.16,-0.11 0.34,-0.11l0 0.02z"/>
   <path class="fil7" d="M240.15 3248c-88.72,-29.73 -159.67,-86.46 -195.38,-156.16 0,0 -35.67,-56.83 -42.98,-107.2 -7.31,-50.33 10.67,-115.08 10.67,-115.08 14.43,-77.01 66.25,-151.9 142.84,-206.09 14.58,-10.32 30.48,-20.14 48.85,-25.1 18.41,-5.09 39.75,-4.5 53.83,4.5 21.55,13.83 18.2,41.38 5.48,62.4 -12.68,20.95 -32.91,39.64 -42.08,61.57 -9.06,21.96 -1.68,50.1 25.83,55.92 22.49,4.65 47.74,-8.2 60.31,-24.54 12.68,-16.29 15.94,-35.35 20.23,-53.62 6.34,-26.61 17.08,-54.98 44.31,-73.25 27.08,-18.23 74.89,-19.1 89.11,4.4 9.49,15.76 0.88,35.46 -10.71,51.64 -11.61,16.18 -26.57,31.8 -30.93,49.61 -4.36,17.81 7.38,38.97 30.33,39.94 15.65,0.74 30.83,-8.16 39.43,-18.92 8.5,-10.78 11.75,-23.18 15.3,-35.32 7.95,-26.96 19.52,-55.63 47.42,-74.06 27.79,-18.41 76.32,-19.59 91.13,4.15 9.73,15.55 2.08,35.28 -9.63,51.43 -11.68,16.08 -27.3,30.86 -34.93,48.14 -7.63,17.26 -4.47,38.87 15.07,47.06 27.75,11.68 61.53,-9.91 93.09,-18.34 13.43,-3.59 27.37,-4.36 40.72,-2.76 27.65,3.3 44.73,23.53 48.99,46.31 4.74,24.54 -5.34,51.94 -32.95,63.94 -12.35,5.37 -25.97,8.6 -39.72,9.06 -32.77,1.04 -71.16,-9.89 -94.45,9.38 -16.52,13.43 -13.36,35.11 -1.15,49.47 12.28,14.36 31.41,23.99 47.21,35.99 15.79,12.1 28.83,28.76 23.89,46.54 -7.53,27.07 -54.29,40 -86.22,30.3 -31.91,-9.66 -51.15,-33.74 -66.48,-57.31 -6.84,-10.53 -13.46,-21.48 -24.71,-29.33 -11.29,-7.85 -28.34,-11.99 -43.09,-6.77 -21.75,7.6 -26.89,31.16 -17.69,47.03 9.2,15.79 28.07,26.47 43.83,38.57 15.76,12.17 29.56,28.55 24.89,46.37 -6.91,26.57 -52.97,39.54 -84.16,29.98 -31.16,-9.66 -49.47,-33.71 -63.18,-57.35 -9.38,-16.29 -17.95,-33.53 -34.66,-45.6 -16.77,-11.96 -44.63,-17.01 -64.75,-6.01 -24.71,13.46 -23.74,42.58 -8.78,60.95 14.89,18.44 39.64,30.41 57.81,46.92 18.2,16.41 29.11,41.84 12.44,61.32 -10.85,12.76 -31.16,19.38 -50.21,19.95 -19.06,0.46 -37.1,-4.33 -54.08,-10l-0.07 -0.07 -0.01 0.02z"/>
   <path class="fil8" d="M1.68 2984.02c-7.08,-50.25 10.74,-114.46 10.74,-114.46 14.43,-77.01 66.27,-151.9 142.84,-206.09 14.58,-10.32 30.48,-20.12 48.85,-25.1 18.41,-5.09 39.75,-4.5 53.83,4.5 21.55,13.82 18.2,41.38 5.48,62.38 -12.68,20.95 -32.91,39.64 -42.08,61.57 -9.06,21.96 -1.68,50.1 25.83,55.92 22.49,4.65 47.74,-8.2 60.31,-24.54 12.68,-16.31 15.94,-35.35 20.25,-53.62 6.34,-26.61 17.08,-54.98 44.31,-73.25 27.07,-18.23 74.89,-19.1 89.11,4.4 9.49,15.76 0.88,35.46 -10.71,51.64 -11.61,16.18 -26.57,31.8 -30.95,49.61 -4.36,17.81 7.38,38.97 30.33,39.93 15.65,0.76 30.83,-8.16 39.43,-18.9 8.5,-10.78 11.75,-23.18 15.3,-35.32 7.95,-26.96 19.52,-55.63 47.42,-74.06 27.79,-18.41 76.32,-19.59 91.13,4.15 9.73,15.55 2.08,35.28 -9.63,51.43 -11.68,16.08 -27.3,30.86 -34.93,48.14 -7.63,17.26 -4.47,38.87 15.09,47.06 27.75,11.68 61.53,-9.93 93.09,-18.34 13.43,-3.59 27.37,-4.36 40.72,-2.76 27.65,3.3 44.73,23.53 48.99,46.31 0.18,0.9 0.32,1.78 0.46,2.68l-795.21 116.69 0 0 0.01 0.02z"/>
   <path class="fil9" d="M231.88 2953.51c29.29,-4.01 58.57,-8.2 87.86,-12.44l35.21 47.1c12.24,16.25 24.33,32.7 36.71,48.85l37 48.6c12.51,16.08 24.86,32.26 37.47,48.28 -11.64,-16.73 -23.57,-33.23 -35.32,-49.86l-35.78 -49.54c-11.86,-16.55 -24.06,-32.84 -36.11,-49.29l-33.13 -44.98c27.4,-3.94 54.77,-7.91 82.21,-11.82 32.38,-4.95 64.79,-9.8 97.17,-14.68 10.85,13.53 21.89,26.92 32.81,40.4 11.43,14.01 22.74,28.11 34.31,42.01l34.63 41.76c11.71,13.8 23.25,27.72 35.11,41.38 -10.85,-14.47 -22,-28.76 -32.98,-43.13l-33.44 -42.74c-11.15,-14.26 -22.52,-28.3 -33.78,-42.49 -10.21,-12.72 -20.32,-25.49 -30.55,-38.18 24.19,-3.69 48.39,-7.38 72.52,-11.18l87.82 -14.01c29.26,-4.91 58.53,-9.59 87.72,-14.72 -29.45,3.52 -58.81,7.49 -88.21,11.25l-88.11 11.99c-24.15,3.34 -48.25,6.73 -72.38,10.21 13.21,-28.69 26.68,-57.24 39.61,-86.04l20.63 -45.77c6.7,-15.33 13.57,-30.58 20.14,-45.99 -7.63,14.89 -14.98,29.94 -22.45,44.87l-21.96 45.12c-14.36,29.45 -28.14,59.09 -42.26,88.65 -32.49,4.66 -64.94,9.38 -97.42,14.01 -27.37,4.15 -54.7,8.27 -82.06,12.4l18.99 -51.84c6.91,-18.96 13.98,-37.83 20.67,-56.83l20.3 -56.94c6.59,-19.06 13.36,-38.04 19.8,-57.15 -7.6,18.69 -14.82,37.51 -22.24,56.23l-21.75 56.45c-7.31,18.8 -14.29,37.72 -21.38,56.55l-20.46 54.48c-29.26,4.4 -58.49,8.89 -87.72,13.46l-87.82 13.98c-13.28,2.26 -26.61,4.44 -39.93,6.63l23.64 -61.96c8.16,-21.52 16.48,-42.98 24.47,-64.57l24.15 -64.68c7.88,-21.62 15.9,-43.2 23.6,-64.89 -8.85,21.27 -17.33,42.66 -26.04,63.94l-25.51 64.15c-8.57,21.34 -16.84,42.84 -25.21,64.29l-25.03 64.32 -0.18 0.42c-13.9,2.3 -27.75,4.63 -41.62,7.08 13.98,-1.68 27.93,-3.45 41.91,-5.26l0.25 0.35 42.58 56.3c14.26,18.73 28.3,37.61 42.7,56.23l42.98 55.99c14.5,18.55 28.83,37.17 43.44,55.63 -13.64,-19.2 -27.58,-38.18 -41.32,-57.28l-41.8 -56.9c-13.87,-19.01 -28.07,-37.79 -42.12,-56.66l-40.62 -54.45c13.39,-1.75 26.78,-3.48 40.19,-5.19l88.11 -11.99 0.04 0.07 -0.05 -0.03z"/>
   <path class="fil0" d="M6693.82 7257.83c0,4.1 3.32,7.42 7.42,7.42 4.1,0 7.42,-3.32 7.42,-7.42 0,-4.1 -3.32,-7.42 -7.42,-7.42 -4.1,0 -7.42,3.32 -7.42,7.42z"/>
   <path class="fil0" d="M6693.82 7147.66c0,4.1 3.32,7.42 7.42,7.42 4.1,0 7.42,-3.32 7.42,-7.42 0,-4.1 -3.32,-7.42 -7.42,-7.42 -4.1,0 -7.42,3.32 -7.42,7.42z"/>
   <path class="fil0" d="M6693.82 7037.42c0,4.1 3.32,7.42 7.42,7.42 4.1,0 7.42,-3.32 7.42,-7.42 0,-4.1 -3.32,-7.42 -7.42,-7.42 -4.1,0 -7.42,3.32 -7.42,7.42z"/>
   <path class="fil0" d="M6693.82 6927.19c0,4.1 3.32,7.42 7.42,7.42 4.1,0 7.42,-3.32 7.42,-7.42 0,-4.1 -3.32,-7.42 -7.42,-7.42 -4.1,0 -7.42,3.32 -7.42,7.42z"/>
   <path class="fil0" d="M6604.9 7257.83c0,4.1 3.32,7.42 7.42,7.42 4.1,0 7.42,-3.32 7.42,-7.42 0,-4.1 -3.32,-7.42 -7.42,-7.42 -4.1,0 -7.42,3.32 -7.42,7.42z"/>
   <path class="fil0" d="M6604.9 7147.66c0,4.1 3.32,7.42 7.42,7.42 4.1,0 7.42,-3.32 7.42,-7.42 0,-4.1 -3.32,-7.42 -7.42,-7.42 -4.1,0 -7.42,3.32 -7.42,7.42z"/>
   <path class="fil0" d="M6604.9 7037.42c0,4.1 3.32,7.42 7.42,7.42 4.1,0 7.42,-3.32 7.42,-7.42 0,-4.1 -3.32,-7.42 -7.42,-7.42 -4.1,0 -7.42,3.32 -7.42,7.42z"/>
   <path class="fil0" d="M6604.9 6927.19c0,4.1 3.32,7.42 7.42,7.42 4.1,0 7.42,-3.32 7.42,-7.42 0,-4.1 -3.32,-7.42 -7.42,-7.42 -4.1,0 -7.42,3.32 -7.42,7.42z"/>
   <path class="fil0" d="M6515.96 7257.83c0,4.1 3.32,7.42 7.42,7.42 4.1,0 7.42,-3.32 7.42,-7.42 0,-4.1 -3.32,-7.42 -7.42,-7.42 -4.1,0 -7.42,3.32 -7.42,7.42z"/>
   <path class="fil0" d="M6515.96 7147.66c0,4.1 3.32,7.42 7.42,7.42 4.1,0 7.42,-3.32 7.42,-7.42 0,-4.1 -3.32,-7.42 -7.42,-7.42 -4.1,0 -7.42,3.32 -7.42,7.42z"/>
   <path class="fil0" d="M6515.96 7037.42c0,4.1 3.32,7.42 7.42,7.42 4.1,0 7.42,-3.32 7.42,-7.42 0,-4.1 -3.32,-7.42 -7.42,-7.42 -4.1,0 -7.42,3.32 -7.42,7.42z"/>
   <path class="fil0" d="M6515.96 6927.19c0,4.1 3.32,7.42 7.42,7.42 4.1,0 7.42,-3.32 7.42,-7.42 0,-4.1 -3.32,-7.42 -7.42,-7.42 -4.1,0 -7.42,3.32 -7.42,7.42z"/>
   <path class="fil0" d="M6427.05 7257.83c0,4.1 3.32,7.42 7.42,7.42 4.1,0 7.42,-3.32 7.42,-7.42 0,-4.1 -3.32,-7.42 -7.42,-7.42 -4.1,0 -7.42,3.32 -7.42,7.42z"/>
   <path class="fil0" d="M6427.05 7147.66c0,4.1 3.32,7.42 7.42,7.42 4.1,0 7.42,-3.32 7.42,-7.42 0,-4.1 -3.32,-7.42 -7.42,-7.42 -4.1,0 -7.42,3.32 -7.42,7.42z"/>
   <path class="fil0" d="M6427.05 7037.42c0,4.1 3.32,7.42 7.42,7.42 4.1,0 7.42,-3.32 7.42,-7.42 0,-4.1 -3.32,-7.42 -7.42,-7.42 -4.1,0 -7.42,3.32 -7.42,7.42z"/>
   <path class="fil0" d="M6427.05 6927.19c0,4.1 3.32,7.42 7.42,7.42 4.1,0 7.42,-3.32 7.42,-7.42 0,-4.1 -3.32,-7.42 -7.42,-7.42 -4.1,0 -7.42,3.32 -7.42,7.42z"/>
   <path class="fil0" d="M6338.13 7257.83c0,4.1 3.32,7.42 7.42,7.42 4.1,0 7.42,-3.32 7.42,-7.42 0,-4.1 -3.32,-7.42 -7.42,-7.42 -4.1,0 -7.42,3.32 -7.42,7.42z"/>
   <path class="fil0" d="M6338.13 7147.66c0,4.1 3.32,7.42 7.42,7.42 4.1,0 7.42,-3.32 7.42,-7.42 0,-4.1 -3.32,-7.42 -7.42,-7.42 -4.1,0 -7.42,3.32 -7.42,7.42z"/>
   <path class="fil0" d="M6338.13 7037.42c0,4.1 3.32,7.42 7.42,7.42 4.1,0 7.42,-3.32 7.42,-7.42 0,-4.1 -3.32,-7.42 -7.42,-7.42 -4.1,0 -7.42,3.32 -7.42,7.42z"/>
   <path class="fil0" d="M6338.13 6927.19c0,4.1 3.32,7.42 7.42,7.42 4.1,0 7.42,-3.32 7.42,-7.42 0,-4.1 -3.32,-7.42 -7.42,-7.42 -4.1,0 -7.42,3.32 -7.42,7.42z"/>
   <path class="fil0" d="M6249.21 7257.83c0,4.1 3.32,7.42 7.42,7.42 4.1,0 7.42,-3.32 7.42,-7.42 0,-4.1 -3.32,-7.42 -7.42,-7.42 -4.1,0 -7.42,3.32 -7.42,7.42z"/>
   <path class="fil0" d="M6249.21 7147.66c0,4.1 3.32,7.42 7.42,7.42 4.1,0 7.42,-3.32 7.42,-7.42 0,-4.1 -3.32,-7.42 -7.42,-7.42 -4.1,0 -7.42,3.32 -7.42,7.42z"/>
   <path class="fil0" d="M6249.21 7037.42c0,4.1 3.32,7.42 7.42,7.42 4.1,0 7.42,-3.32 7.42,-7.42 0,-4.1 -3.32,-7.42 -7.42,-7.42 -4.1,0 -7.42,3.32 -7.42,7.42z"/>
   <path class="fil0" d="M6249.21 6927.19c0,4.1 3.32,7.42 7.42,7.42 4.1,0 7.42,-3.32 7.42,-7.42 0,-4.1 -3.32,-7.42 -7.42,-7.42 -4.1,0 -7.42,3.32 -7.42,7.42z"/>
   <line class="fil1 str0" x1="5389.85" y1="7107.5" x2="5516.9" y2= "7234.55" />
   <line class="fil1 str0" x1="5516.9" y1="7107.45" x2="5389.85" y2= "7234.49" />
   <line class="fil1 str1" x1="1646.44" y1="7343.02" x2="1736.56" y2= "7433.14" />
   <line class="fil1 str1" x1="1736.56" y1="7342.99" x2="1646.44" y2= "7433.11" />
   <path class="fil2" d="M7019.68 7286.93l-60.56 0c-14.65,0 -26.54,-12.91 -26.54,-28.81l0 -2.4c0,-15.92 11.87,-28.81 26.54,-28.81l60.56 0c14.65,0 26.5,12.88 26.5,28.81l0 2.4c0,15.9 -11.86,28.81 -26.5,28.81z"/>
   <path class="fil2" d="M7605.96 7286.93l-460.45 0c-14.65,0 -26.52,-12.91 -26.52,-28.81l0 -2.4c0,-15.92 11.87,-28.81 26.52,-28.81l460.45 0c14.65,0 26.54,12.88 26.54,28.81l0 2.4c0,15.9 -11.87,28.81 -26.54,28.81z"/>
  </g>
 </g>
</svg>
