<?xml version="1.0" encoding="UTF-8"?>
<!DOCTYPE svg PUBLIC "-//W3C//DTD SVG 1.1//EN" "http://www.w3.org/Graphics/SVG/1.1/DTD/svg11.dtd">
<!-- Creator: CorelDRAW -->
<svg xmlns="http://www.w3.org/2000/svg" xml:space="preserve" width="285.998mm" height="684.289mm" version="1.1" style="shape-rendering:geometricPrecision; text-rendering:geometricPrecision; image-rendering:optimizeQuality; fill-rule:evenodd; clip-rule:evenodd"
viewBox="0 0 9503.29 22737.93"
 xmlns:xlink="http://www.w3.org/1999/xlink"
 xmlns:xodm="http://www.corel.com/coreldraw/odm/2003">
 <defs>
  <style type="text/css">
   <![CDATA[
    .str1 {stroke:white;stroke-width:30.8;stroke-miterlimit:22.9256}
    .str2 {stroke:white;stroke-width:30.82;stroke-miterlimit:22.9256}
    .str0 {stroke:white;stroke-width:30.84;stroke-miterlimit:22.9256}
    .str3 {stroke:white;stroke-width:6.5;stroke-miterlimit:22.9256}
    .fil1 {fill:none;fill-rule:nonzero}
    .fil5 {fill:#5C5112}
    .fil3 {fill:#66980A}
    .fil6 {fill:#86613E}
    .fil4 {fill:#A0C433}
    .fil0 {fill:black;fill-rule:nonzero}
    .fil8 {fill:#66980A;fill-rule:nonzero}
    .fil2 {fill:#78CA5A;fill-rule:nonzero}
    .fil9 {fill:#8B6340;fill-rule:nonzero}
    .fil7 {fill:#A1C533;fill-rule:nonzero}
   ]]>
  </style>
 </defs>
 <g id="Layer_x0020_1">
  <metadata id="CorelCorpID_0Corel-Layer"/>
  <g id="_2541138071568">
   <g>
    <path class="fil0" d="M541.6 1252.34c0,4.99 4.05,9.04 9.04,9.04 4.99,0 9.04,-4.05 9.04,-9.04 0,-4.99 -4.05,-9.04 -9.04,-9.04 -4.99,0 -9.04,4.05 -9.04,9.04z"/>
    <path class="fil0" d="M541.6 1118.14c0,4.99 4.05,9.04 9.04,9.04 4.99,0 9.04,-4.05 9.04,-9.04 0,-4.99 -4.05,-9.04 -9.04,-9.04 -4.99,0 -9.04,4.05 -9.04,9.04z"/>
    <path class="fil0" d="M541.6 983.85c0,4.99 4.05,9.04 9.04,9.04 4.99,0 9.04,-4.05 9.04,-9.04 0,-4.99 -4.05,-9.04 -9.04,-9.04 -4.99,0 -9.04,4.05 -9.04,9.04z"/>
    <path class="fil0" d="M541.6 849.59c0,4.99 4.05,9.04 9.04,9.04 4.99,0 9.04,-4.05 9.04,-9.04 0,-4.99 -4.05,-9.04 -9.04,-9.04 -4.99,0 -9.04,4.05 -9.04,9.04z"/>
    <path class="fil0" d="M433.29 1252.34c0,4.99 4.05,9.04 9.04,9.04 4.99,0 9.04,-4.05 9.04,-9.04 0,-4.99 -4.05,-9.04 -9.04,-9.04 -4.99,0 -9.04,4.05 -9.04,9.04z"/>
    <path class="fil0" d="M433.29 1118.14c0,4.99 4.05,9.04 9.04,9.04 4.99,0 9.04,-4.05 9.04,-9.04 0,-4.99 -4.05,-9.04 -9.04,-9.04 -4.99,0 -9.04,4.05 -9.04,9.04z"/>
    <path class="fil0" d="M433.29 983.85c0,4.99 4.05,9.04 9.04,9.04 4.99,0 9.04,-4.05 9.04,-9.04 0,-4.99 -4.05,-9.04 -9.04,-9.04 -4.99,0 -9.04,4.05 -9.04,9.04z"/>
    <path class="fil0" d="M433.29 849.59c0,4.99 4.05,9.04 9.04,9.04 4.99,0 9.04,-4.05 9.04,-9.04 0,-4.99 -4.05,-9.04 -9.04,-9.04 -4.99,0 -9.04,4.05 -9.04,9.04z"/>
    <path class="fil0" d="M324.98 1252.34c0,4.99 4.05,9.04 9.04,9.04 4.99,0 9.04,-4.05 9.04,-9.04 0,-4.99 -4.05,-9.04 -9.04,-9.04 -4.99,0 -9.04,4.05 -9.04,9.04z"/>
    <path class="fil0" d="M324.98 1118.14c0,4.99 4.05,9.04 9.04,9.04 4.99,0 9.04,-4.05 9.04,-9.04 0,-4.99 -4.05,-9.04 -9.04,-9.04 -4.99,0 -9.04,4.05 -9.04,9.04z"/>
    <path class="fil0" d="M324.98 983.85c0,4.99 4.05,9.04 9.04,9.04 4.99,0 9.04,-4.05 9.04,-9.04 0,-4.99 -4.05,-9.04 -9.04,-9.04 -4.99,0 -9.04,4.05 -9.04,9.04z"/>
    <path class="fil0" d="M324.98 849.59c0,4.99 4.05,9.04 9.04,9.04 4.99,0 9.04,-4.05 9.04,-9.04 0,-4.99 -4.05,-9.04 -9.04,-9.04 -4.99,0 -9.04,4.05 -9.04,9.04z"/>
    <path class="fil0" d="M216.65 1252.34c0,4.99 4.05,9.04 9.04,9.04 4.99,0 9.04,-4.05 9.04,-9.04 0,-4.99 -4.05,-9.04 -9.04,-9.04 -4.99,0 -9.04,4.05 -9.04,9.04z"/>
    <path class="fil0" d="M216.65 1118.14c0,4.99 4.05,9.04 9.04,9.04 4.99,0 9.04,-4.05 9.04,-9.04 0,-4.99 -4.05,-9.04 -9.04,-9.04 -4.99,0 -9.04,4.05 -9.04,9.04z"/>
    <path class="fil0" d="M216.65 983.85c0,4.99 4.05,9.04 9.04,9.04 4.99,0 9.04,-4.05 9.04,-9.04 0,-4.99 -4.05,-9.04 -9.04,-9.04 -4.99,0 -9.04,4.05 -9.04,9.04z"/>
    <path class="fil0" d="M216.65 849.59c0,4.99 4.05,9.04 9.04,9.04 4.99,0 9.04,-4.05 9.04,-9.04 0,-4.99 -4.05,-9.04 -9.04,-9.04 -4.99,0 -9.04,4.05 -9.04,9.04z"/>
    <path class="fil0" d="M108.34 1252.34c0,4.99 4.05,9.04 9.04,9.04 4.99,0 9.04,-4.05 9.04,-9.04 0,-4.99 -4.05,-9.04 -9.04,-9.04 -4.99,0 -9.04,4.05 -9.04,9.04z"/>
    <path class="fil0" d="M108.34 1118.14c0,4.99 4.05,9.04 9.04,9.04 4.99,0 9.04,-4.05 9.04,-9.04 0,-4.99 -4.05,-9.04 -9.04,-9.04 -4.99,0 -9.04,4.05 -9.04,9.04z"/>
    <path class="fil0" d="M108.34 983.85c0,4.99 4.05,9.04 9.04,9.04 4.99,0 9.04,-4.05 9.04,-9.04 0,-4.99 -4.05,-9.04 -9.04,-9.04 -4.99,0 -9.04,4.05 -9.04,9.04z"/>
    <path class="fil0" d="M108.34 849.59c0,4.99 4.05,9.04 9.04,9.04 4.99,0 9.04,-4.05 9.04,-9.04 0,-4.99 -4.05,-9.04 -9.04,-9.04 -4.99,0 -9.04,4.05 -9.04,9.04z"/>
    <path class="fil0" d="M0.03 1252.34c0,4.99 4.05,9.04 9.04,9.04 4.99,0 9.04,-4.05 9.04,-9.04 0,-4.99 -4.05,-9.04 -9.04,-9.04 -4.99,0 -9.04,4.05 -9.04,9.04z"/>
    <path class="fil0" d="M0.03 1118.14c0,4.99 4.05,9.04 9.04,9.04 4.99,0 9.04,-4.05 9.04,-9.04 0,-4.99 -4.05,-9.04 -9.04,-9.04 -4.99,0 -9.04,4.05 -9.04,9.04z"/>
    <path class="fil0" d="M0.03 983.85c0,4.99 4.05,9.04 9.04,9.04 4.99,0 9.04,-4.05 9.04,-9.04 0,-4.99 -4.05,-9.04 -9.04,-9.04 -4.99,0 -9.04,4.05 -9.04,9.04z"/>
    <path class="fil0" d="M0.03 849.59c0,4.99 4.05,9.04 9.04,9.04 4.99,0 9.04,-4.05 9.04,-9.04 0,-4.99 -4.05,-9.04 -9.04,-9.04 -4.99,0 -9.04,4.05 -9.04,9.04z"/>
    <path class="fil0" d="M8153.71 411.79c0,4.99 4.05,9.04 9.04,9.04 4.99,0 9.04,-4.05 9.04,-9.04 0,-4.99 -4.05,-9.04 -9.04,-9.04 -4.99,0 -9.04,4.05 -9.04,9.04z"/>
    <path class="fil0" d="M8153.71 277.59c0,4.99 4.05,9.04 9.04,9.04 4.99,0 9.04,-4.05 9.04,-9.04 0,-4.99 -4.05,-9.04 -9.04,-9.04 -4.99,0 -9.04,4.05 -9.04,9.04z"/>
    <path class="fil0" d="M8153.71 143.3c0,4.99 4.05,9.04 9.04,9.04 4.99,0 9.04,-4.05 9.04,-9.04 0,-4.99 -4.05,-9.04 -9.04,-9.04 -4.99,0 -9.04,4.05 -9.04,9.04z"/>
    <path class="fil0" d="M8153.71 9.04c0,4.99 4.05,9.04 9.04,9.04 4.99,0 9.04,-4.05 9.04,-9.04 0,-4.99 -4.05,-9.04 -9.04,-9.04 -4.99,0 -9.04,4.05 -9.04,9.04z"/>
    <path class="fil0" d="M8045.37 411.79c0,4.99 4.05,9.04 9.04,9.04 4.99,0 9.04,-4.05 9.04,-9.04 0,-4.99 -4.05,-9.04 -9.04,-9.04 -4.99,0 -9.04,4.05 -9.04,9.04z"/>
    <path class="fil0" d="M8045.37 277.59c0,4.99 4.05,9.04 9.04,9.04 4.99,0 9.04,-4.05 9.04,-9.04 0,-4.99 -4.05,-9.04 -9.04,-9.04 -4.99,0 -9.04,4.05 -9.04,9.04z"/>
    <path class="fil0" d="M8045.37 143.3c0,4.99 4.05,9.04 9.04,9.04 4.99,0 9.04,-4.05 9.04,-9.04 0,-4.99 -4.05,-9.04 -9.04,-9.04 -4.99,0 -9.04,4.05 -9.04,9.04z"/>
    <path class="fil0" d="M8045.37 9.04c0,4.99 4.05,9.04 9.04,9.04 4.99,0 9.04,-4.05 9.04,-9.04 0,-4.99 -4.05,-9.04 -9.04,-9.04 -4.99,0 -9.04,4.05 -9.04,9.04z"/>
    <path class="fil0" d="M7937.06 411.79c0,4.99 4.05,9.04 9.04,9.04 4.99,0 9.04,-4.05 9.04,-9.04 0,-4.99 -4.05,-9.04 -9.04,-9.04 -4.99,0 -9.04,4.05 -9.04,9.04z"/>
    <path class="fil0" d="M7937.06 277.59c0,4.99 4.05,9.04 9.04,9.04 4.99,0 9.04,-4.05 9.04,-9.04 0,-4.99 -4.05,-9.04 -9.04,-9.04 -4.99,0 -9.04,4.05 -9.04,9.04z"/>
    <path class="fil0" d="M7937.06 143.3c0,4.99 4.05,9.04 9.04,9.04 4.99,0 9.04,-4.05 9.04,-9.04 0,-4.99 -4.05,-9.04 -9.04,-9.04 -4.99,0 -9.04,4.05 -9.04,9.04z"/>
    <path class="fil0" d="M7937.06 9.04c0,4.99 4.05,9.04 9.04,9.04 4.99,0 9.04,-4.05 9.04,-9.04 0,-4.99 -4.05,-9.04 -9.04,-9.04 -4.99,0 -9.04,4.05 -9.04,9.04z"/>
    <path class="fil0" d="M7828.75 411.79c0,4.99 4.05,9.04 9.04,9.04 4.99,0 9.04,-4.05 9.04,-9.04 0,-4.99 -4.05,-9.04 -9.04,-9.04 -4.99,0 -9.04,4.05 -9.04,9.04z"/>
    <path class="fil0" d="M7828.75 277.59c0,4.99 4.05,9.04 9.04,9.04 4.99,0 9.04,-4.05 9.04,-9.04 0,-4.99 -4.05,-9.04 -9.04,-9.04 -4.99,0 -9.04,4.05 -9.04,9.04z"/>
    <path class="fil0" d="M7828.75 143.3c0,4.99 4.05,9.04 9.04,9.04 4.99,0 9.04,-4.05 9.04,-9.04 0,-4.99 -4.05,-9.04 -9.04,-9.04 -4.99,0 -9.04,4.05 -9.04,9.04z"/>
    <path class="fil0" d="M7828.75 9.04c0,4.99 4.05,9.04 9.04,9.04 4.99,0 9.04,-4.05 9.04,-9.04 0,-4.99 -4.05,-9.04 -9.04,-9.04 -4.99,0 -9.04,4.05 -9.04,9.04z"/>
    <path class="fil0" d="M7720.44 411.79c0,4.99 4.05,9.04 9.04,9.04 4.99,0 9.04,-4.05 9.04,-9.04 0,-4.99 -4.05,-9.04 -9.04,-9.04 -4.99,0 -9.04,4.05 -9.04,9.04z"/>
    <path class="fil0" d="M7720.44 277.59c0,4.99 4.05,9.04 9.04,9.04 4.99,0 9.04,-4.05 9.04,-9.04 0,-4.99 -4.05,-9.04 -9.04,-9.04 -4.99,0 -9.04,4.05 -9.04,9.04z"/>
    <path class="fil0" d="M7720.44 143.3c0,4.99 4.05,9.04 9.04,9.04 4.99,0 9.04,-4.05 9.04,-9.04 0,-4.99 -4.05,-9.04 -9.04,-9.04 -4.99,0 -9.04,4.05 -9.04,9.04z"/>
    <path class="fil0" d="M7720.44 9.04c0,4.99 4.05,9.04 9.04,9.04 4.99,0 9.04,-4.05 9.04,-9.04 0,-4.99 -4.05,-9.04 -9.04,-9.04 -4.99,0 -9.04,4.05 -9.04,9.04z"/>
    <path class="fil0" d="M7612.13 411.79c0,4.99 4.05,9.04 9.04,9.04 4.99,0 9.04,-4.05 9.04,-9.04 0,-4.99 -4.05,-9.04 -9.04,-9.04 -4.99,0 -9.04,4.05 -9.04,9.04z"/>
    <path class="fil0" d="M7612.13 277.59c0,4.99 4.05,9.04 9.04,9.04 4.99,0 9.04,-4.05 9.04,-9.04 0,-4.99 -4.05,-9.04 -9.04,-9.04 -4.99,0 -9.04,4.05 -9.04,9.04z"/>
    <path class="fil0" d="M7612.13 143.3c0,4.99 4.05,9.04 9.04,9.04 4.99,0 9.04,-4.05 9.04,-9.04 0,-4.99 -4.05,-9.04 -9.04,-9.04 -4.99,0 -9.04,4.05 -9.04,9.04z"/>
    <path class="fil0" d="M7612.13 9.04c0,4.99 4.05,9.04 9.04,9.04 4.99,0 9.04,-4.05 9.04,-9.04 0,-4.99 -4.05,-9.04 -9.04,-9.04 -4.99,0 -9.04,4.05 -9.04,9.04z"/>
    <line class="fil1 str0" x1="6565.34" y1="228.67" x2="6720.08" y2= "383.42" />
    <line class="fil1 str0" x1="6720.08" y1="228.63" x2="6565.34" y2= "383.38" />
    <line class="fil1 str1" x1="2005.52" y1="515.56" x2="2115.3" y2= "625.33" />
    <line class="fil1 str1" x1="2115.3" y1="515.53" x2="2005.52" y2= "625.29" />
    <line class="fil1 str0" x1="70.53" y1="2699.3" x2="223.64" y2= "2852.44" />
    <line class="fil1 str0" x1="223.64" y1="2699.26" x2="70.53" y2= "2852.37" />
    <line class="fil1 str2" x1="9296.4" y1="2206.73" x2="9433.76" y2= "2344.07" />
    <line class="fil1 str2" x1="9433.76" y1="2206.66" x2="9296.4" y2= "2344.03" />
    <line class="fil1 str0" x1="7148.96" y1="4093.45" x2="7330.33" y2= "4274.83" />
    <line class="fil1 str0" x1="7330.33" y1="4093.39" x2="7148.96" y2= "4274.76" />
    <path class="fil2" d="M8550.64 447.23l-73.77 0c-17.84,0 -32.32,-15.73 -32.32,-35.1l0 -2.93c0,-19.39 14.46,-35.1 32.32,-35.1l73.77 0c17.84,0 32.28,15.69 32.28,35.1l0 2.93c0,19.37 -14.44,35.1 -32.28,35.1z"/>
    <path class="fil2" d="M9264.79 447.23l-560.88 0c-17.84,0 -32.3,-15.73 -32.3,-35.1l0 -2.93c0,-19.39 14.46,-35.1 32.3,-35.1l560.88 0c17.84,0 32.32,15.69 32.32,35.1l0 2.93c0,19.37 -14.46,35.1 -32.32,35.1z"/>
    <path class="fil2" d="M5140.15 3244.73l-73.77 0c-17.84,0 -32.3,-15.73 -32.3,-35.1l0 -2.93c0,-19.39 14.46,-35.1 32.3,-35.1l73.77 0c17.84,0 32.28,15.69 32.28,35.1l0 2.93c0,19.37 -14.44,35.1 -32.28,35.1z"/>
    <path class="fil2" d="M5854.29 3244.73l-560.88 0c-17.84,0 -32.32,-15.73 -32.32,-35.1l0 -2.93c0,-19.39 14.46,-35.1 32.32,-35.1l560.88 0c17.84,0 32.3,15.69 32.3,35.1l0 2.93c0,19.37 -14.46,35.1 -32.3,35.1z"/>
    <path class="fil2" d="M4152.92 5730.93l-73.77 0c-17.84,0 -32.32,-15.73 -32.32,-35.1l0 -2.93c0,-19.39 14.46,-35.1 32.32,-35.1l73.77 0c17.84,0 32.28,15.69 32.28,35.1l0 2.93c0,19.37 -14.44,35.1 -32.28,35.1z"/>
    <path class="fil2" d="M4867.06 5730.93l-560.88 0c-17.84,0 -32.3,-15.73 -32.3,-35.1l0 -2.93c0,-19.39 14.46,-35.1 32.3,-35.1l560.88 0c17.84,0 32.32,15.69 32.32,35.1l0 2.93c0,19.37 -14.46,35.1 -32.32,35.1z"/>
    <path class="fil2" d="M805.8 6731.04l-73.77 0c-17.84,0 -32.32,-15.73 -32.32,-35.1l0 -2.93c0,-19.39 14.46,-35.1 32.32,-35.1l73.77 0c17.84,0 32.28,15.71 32.28,35.1l0 2.93c0,19.37 -14.44,35.1 -32.28,35.1z"/>
    <path class="fil2" d="M1519.92 6731.04l-560.88 0c-17.84,0 -32.3,-15.73 -32.3,-35.1l0 -2.93c0,-19.39 14.46,-35.1 32.3,-35.1l560.88 0c17.84,0 32.32,15.71 32.32,35.1l0 2.93c0,19.37 -14.46,35.1 -32.32,35.1z"/>
    <path class="fil2" d="M4945.33 8736.03l-73.77 0c-17.84,0 -32.32,-15.73 -32.32,-35.1l0 -2.93c0,-19.41 14.46,-35.1 32.32,-35.1l73.77 0c17.84,0 32.28,15.69 32.28,35.1l0 2.93c0,19.37 -14.44,35.1 -32.28,35.1z"/>
    <path class="fil2" d="M5659.47 8736.03l-560.88 0c-17.84,0 -32.32,-15.73 -32.32,-35.1l0 -2.93c0,-19.41 14.46,-35.1 32.32,-35.1l560.88 0c17.84,0 32.32,15.69 32.32,35.1l0 2.93c0,19.37 -14.46,35.1 -32.32,35.1z"/>
    <path class="fil1 str3" d="M6251.23 1314.72c-61.03,0 -61.03,-65.94 -122.06,-65.94 -61.03,0 -61.03,65.94 -122.08,65.94 -61.03,0 -61.03,-65.94 -122.04,-65.94 -61.03,0 -61.03,65.94 -122.04,65.94 -61.05,0 -61.05,-65.94 -122.08,-65.94 -61.05,0 -61.05,65.94 -122.12,65.94 -61.03,0 -61.03,-65.94 -122.08,-65.94 -61.07,0 -61.07,65.94 -122.17,65.94 -61.07,0 -61.07,-65.94 -122.17,-65.94"/>
    <path class="fil1 str3" d="M6251.23 1203.62c-61.03,0 -61.03,-65.94 -122.06,-65.94 -61.03,0 -61.03,65.94 -122.08,65.94 -61.03,0 -61.03,-65.94 -122.04,-65.94 -61.03,0 -61.03,65.94 -122.04,65.94 -61.05,0 -61.05,-65.94 -122.08,-65.94 -61.05,0 -61.05,65.94 -122.12,65.94 -61.03,0 -61.03,-65.94 -122.08,-65.94 -61.07,0 -61.07,65.94 -122.17,65.94 -61.07,0 -61.07,-65.94 -122.17,-65.94"/>
    <path class="fil1 str3" d="M3483.97 4348.86c-61.03,0 -61.03,-65.94 -122.06,-65.94 -61.03,0 -61.03,65.94 -122.06,65.94 -61.03,0 -61.03,-65.94 -122.04,-65.94 -61.03,0 -61.03,65.94 -122.04,65.94 -61.05,0 -61.05,-65.94 -122.08,-65.94 -61.05,0 -61.05,65.94 -122.12,65.94 -61.03,0 -61.03,-65.94 -122.06,-65.94 -61.07,0 -61.07,65.94 -122.17,65.94 -61.07,0 -61.07,-65.94 -122.17,-65.94"/>
    <path class="fil1 str3" d="M3483.97 4237.75c-61.03,0 -61.03,-65.94 -122.06,-65.94 -61.03,0 -61.03,65.94 -122.06,65.94 -61.03,0 -61.03,-65.94 -122.04,-65.94 -61.03,0 -61.03,65.94 -122.04,65.94 -61.05,0 -61.05,-65.94 -122.08,-65.94 -61.05,0 -61.05,65.94 -122.12,65.94 -61.03,0 -61.03,-65.94 -122.06,-65.94 -61.07,0 -61.07,65.94 -122.17,65.94 -61.07,0 -61.07,-65.94 -122.17,-65.94"/>
    <path class="fil1 str3" d="M8991.37 5265.22c-61.03,0 -61.03,-65.94 -122.06,-65.94 -61.03,0 -61.03,65.94 -122.06,65.94 -61.03,0 -61.03,-65.94 -122.06,-65.94 -61.03,0 -61.03,65.94 -122.04,65.94 -61.05,0 -61.05,-65.94 -122.08,-65.94 -61.05,0 -61.05,65.94 -122.12,65.94 -61.03,0 -61.03,-65.94 -122.06,-65.94 -61.07,0 -61.07,65.94 -122.17,65.94 -61.07,0 -61.07,-65.94 -122.17,-65.94"/>
    <path class="fil1 str3" d="M8991.37 5154.11c-61.03,0 -61.03,-65.94 -122.06,-65.94 -61.03,0 -61.03,65.94 -122.06,65.94 -61.03,0 -61.03,-65.94 -122.06,-65.94 -61.03,0 -61.03,65.94 -122.04,65.94 -61.05,0 -61.05,-65.94 -122.08,-65.94 -61.05,0 -61.05,65.94 -122.12,65.94 -61.03,0 -61.03,-65.94 -122.06,-65.94 -61.07,0 -61.07,65.94 -122.17,65.94 -61.07,0 -61.07,-65.94 -122.17,-65.94"/>
    <path class="fil1 str3" d="M4025.82 8593.83c-61.03,0 -61.03,-65.94 -122.06,-65.94 -61.03,0 -61.03,65.94 -122.08,65.94 -61.03,0 -61.03,-65.94 -122.04,-65.94 -61.03,0 -61.03,65.94 -122.04,65.94 -61.05,0 -61.05,-65.94 -122.08,-65.94 -61.05,0 -61.05,65.94 -122.12,65.94 -61.03,0 -61.03,-65.94 -122.06,-65.94 -61.07,0 -61.07,65.94 -122.17,65.94 -61.07,0 -61.07,-65.94 -122.17,-65.94"/>
    <path class="fil1 str3" d="M4025.82 8482.74c-61.03,0 -61.03,-65.94 -122.06,-65.94 -61.03,0 -61.03,65.94 -122.08,65.94 -61.03,0 -61.03,-65.94 -122.04,-65.94 -61.03,0 -61.03,65.94 -122.04,65.94 -61.05,0 -61.05,-65.94 -122.08,-65.94 -61.05,0 -61.05,65.94 -122.12,65.94 -61.03,0 -61.03,-65.94 -122.06,-65.94 -61.07,0 -61.07,65.94 -122.17,65.94 -61.07,0 -61.07,-65.94 -122.17,-65.94"/>
    <path class="fil3" d="M939.46 7769.85c43.62,-0.9 86.88,-16.96 104.54,-4.02 -5.73,18.47 13.99,5.94 -17.93,13.82 -18.01,4.46 -61.22,2 -80.61,13.9 48.12,8.5 84.77,24.47 143.24,27.59 51.45,2.75 108.52,-1.81 154.32,-11.17 42.09,-8.61 211.28,-48.38 246.77,-82.68 -140.98,-101.64 -442.07,-37.57 -550.31,42.57l0 -0.02 -0.02 0.02z"/>
    <path class="fil4" d="M1011.36 8022.95c34.73,140.78 238.42,328.55 367.73,369.09 -14.83,-84.08 -64.54,-192.97 -121.31,-244.64 -53.78,-48.94 -138.93,-118.38 -229.23,-139.86l34.11 36.97c3.19,12.14 5.53,2.97 -5.14,13.9l-46.18 -35.49 0.02 0.02z"/>
    <path class="fil3" d="M541.08 7566.74c12.29,8.89 -7.27,3.55 19.48,6.52 1.98,0.22 18.36,-1.08 21.24,-1.4 30.73,-3.44 93.33,-16.44 108.27,-4.24 -4.41,17.49 -7.32,12.55 -31.68,14.87l-104.76 10.54c-18.06,4.99 -7.45,0.6 -17.77,8.39 71.9,6.35 131.36,48.35 280.86,24.51 77.58,-12.35 181.78,-53.26 226.91,-92.17 -71.62,-76.72 -271.54,-56.98 -384.03,-15.97l-118.49 48.94 0 -0.02 -0.02 0.02z"/>
    <path class="fil4" d="M352.59 7791.05c1.21,145.69 103.38,358.22 220.8,403.87 6.8,-168.82 -57.76,-344.32 -211.52,-415.29 -15.99,0.99 -10.57,-16.14 -9.27,11.38l0 0.02 -0 0.02z"/>
    <path class="fil4" d="M675.56 7946.21c19.13,127.1 159.27,362.72 268.01,379.23 -9.64,-99.29 -30.51,-177.54 -76.59,-249.61 -32.09,-50.19 -109.69,-129.55 -178.77,-151.31 7.71,23.48 53.65,62.21 48.38,77.88 -13.04,15.56 -30.36,-22.98 -46.35,-41.45l-14.68 -14.76 0.02 0.02 -0.02 -0z"/>
    <path class="fil3" d="M1193.53 7934.76c29.53,12.74 119.18,21.13 159.08,24.45 51.43,4.28 36.78,5.32 43.36,14.01l-0.64 0.5c67.57,7.14 137.94,19.52 205.22,29.81 33.66,5.14 66.54,9.75 99.96,14.72 20.34,3.03 86.27,6.09 99.96,22.77l18.72 -2.8 -122.12 -82.59c-135.15,-69.17 -396.72,-68.45 -503.53,-20.83l0.02 0.02 -0.02 -0.04z"/>
    <path class="fil4" d="M1800.46 8041c-13.66,-16.68 -79.63,-19.75 -99.96,-22.77 -33.42,-4.95 -66.28,-9.56 -99.96,-14.72 -67.25,-10.29 -137.62,-22.66 -205.19,-29.81 -16.25,15.22 -79.95,0.26 -105.13,-2.99 -16.46,-2.13 -35.14,-4.97 -52.4,-8 -45.49,-7.98 -35.06,-5.57 -45,1.46 52.57,30.23 53.22,38.71 122.17,65.59 43.9,17.13 96.37,28.36 147.31,34.54 130,15.75 217.96,-5.42 338.17,-23.31l0 -0.02 0 0.02z"/>
    <path class="fil5" d="M1395.99 7973.19c-6.56,-8.72 8.07,-9.75 -43.36,-14.01 -39.92,-3.31 -129.57,-11.71 -159.08,-24.45 -60.13,-2.95 -373.48,-85.61 -422.37,-119.39 17.84,-10.98 142.06,-19.65 174.31,-21.82 19.41,-11.92 62.6,-9.47 80.61,-13.9 31.91,-7.88 12.2,4.63 17.93,-13.82 -17.69,-12.93 -60.92,3.12 -104.54,4.02l-171.77 21.09c-45.97,6.05 -42.03,10.7 -78.1,-6.31 -92.06,-43.36 -246.08,-112.81 -321.1,-172.7 41.86,2.5 145.5,-21.78 167.38,-10.48 10.33,-7.77 -0.3,-3.38 17.77,-8.37l104.76 -10.54c24.38,-2.3 27.27,2.63 31.68,-14.87 -14.94,-12.22 -77.54,0.77 -108.27,4.24 -2.88,0.32 -19.26,1.63 -21.24,1.4 -26.77,-2.95 -7.21,2.39 -19.48,-6.52 -42.42,21.8 -122.06,18.29 -176.2,25.95 -38.84,5.49 -97.21,-44.55 -128.8,-69.55l-113.58 -90.28c-29.81,-23.95 -84.06,-69.34 -105.36,-98.11l-17.11 8.48c17.45,6 17.97,13.84 31.16,26.73 12.03,11.75 23.99,18.14 36.86,29.57 28.73,25.54 12.18,17.32 66.5,59.93 195.9,153.74 231.97,176.1 463.97,296.14 211.56,109.45 530.92,202.38 797.47,217.61l-0.02 0 -0.02 -0.05z"/>
    <path class="fil6" d="M352.59 7791.05c-1.27,-27.55 -6.72,-10.42 9.27,-11.38l-108.05 -215.78c34.6,15.86 83.74,55.8 120.81,79.5 33.14,21.15 102,52.55 127.74,75.94 22.68,20.64 145.58,190 173.17,226.91l14.68 14.76c15.99,18.47 33.31,57.01 46.35,41.45 5.27,-15.69 -40.67,-54.4 -48.38,-77.88 -24.77,-21.28 -135.1,-171.02 -140.01,-181.61 30.15,9.71 177.6,80.49 264.72,111.86 40.97,14.76 28.95,15.28 55.52,37.79l142.92 130.37 46.18 35.49c10.7,-10.93 8.33,-1.76 5.14,-13.9l-34.11 -36.97 -140.35 -123.89c32.22,1.49 114.47,31.22 152.43,40.59 50.12,12.35 114.4,18.38 152.17,39.94 9.94,-7.04 -0.5,-9.45 45,-1.46 17.28,3.03 35.94,5.87 52.4,8 25.16,3.25 88.88,18.19 105.13,2.99l0.64 -0.5c-266.53,-15.22 -585.91,-108.16 -797.47,-217.61 -232.03,-120.02 -268.07,-142.4 -463.97,-296.14 -54.32,-42.61 -37.77,-34.39 -66.5,-59.93 -12.85,-11.43 -24.84,-17.82 -36.86,-29.57 -13.21,-12.89 -13.71,-20.72 -31.16,-26.73 3.16,18.03 9.53,15.26 23.8,28.9 10.5,10.05 13.45,15.45 24.43,24.9 10.09,8.69 17.43,13.54 27.55,22.27 10.42,8.99 14.7,15.9 24.58,24.71l110.78 87.56c29.37,30.21 112.59,231.66 141.43,259.47l0 0 0.02 -0.04z"/>
    <path class="fil7" d="M8925.09 6657.27c62.04,8.8 123.81,19.24 185.4,31.35 19.65,4.07 39.53,8.18 59.31,12.52 54.6,11.99 108.98,25.35 163.1,40.13 17.77,4.86 35.49,9.99 53.2,15.17 39.21,11.38 78.14,23.63 117.02,36.54l-2.86 8.59 -2.8 8.39c-0.67,-0.26 -1.18,-0.32 -1.87,-0.6 -36.95,-12.31 -74.03,-23.89 -111.3,-34.88 -7.6,-2.32 -15.3,-4.52 -22.9,-6.74 -64.24,-18.38 -128.95,-34.69 -193.92,-48.92 -7.12,-1.59 -14.44,-3.21 -21.69,-4.74 -72.69,-15.51 -146.19,-28.43 -219.74,-38.8 -8.59,-1.27 -17.24,-2.32 -25.83,-3.53 -76.55,-10.11 -153.31,-17.43 -230.05,-22.04 -7.6,-0.54 -15.11,-0.92 -22.77,-1.34 -70.29,-3.85 -140.72,-5.19 -211.15,-4.2 -9.66,0.06 -19.58,0.19 -29.29,0.6 -73.75,1.59 -147.65,5.66 -221.27,12.59 -13.77,1.05 -27.42,2.54 -41.28,4.07 -65.38,6.74 -130.6,15.64 -195.64,26.49 -44.46,7.6 -88.73,15.9 -132.93,25.29l-1.81 -8.65 -2 -8.72c43.82,-9.25 87.87,-17.65 132,-25.09 58.77,-9.99 117.89,-18.16 176.94,-24.71 20.96,-2.32 42.07,-4.52 63.18,-6.52 63.57,-5.92 127.48,-9.79 191.38,-11.71 20.16,-0.67 40.13,-1.21 60.3,-1.53 58.19,-0.73 116.36,0.06 174.4,2.54 19.43,0.8 39.02,1.66 58.38,2.86 65.57,3.85 131.06,9.73 196.3,17.71 20.1,2.32 40.35,5.06 60.39,7.79l-0.19 0.04 -0.02 0z"/>
    <path class="fil7" d="M7943.95 6670.84c10.65,3.12 17.11,5.53 18.31,5.85l0.13 0.19c-4.46,3.85 -9.19,7.66 -13.77,11.1 -230.05,184.86 -449.47,106.37 -439.68,99.85 174.33,-174.61 374.23,-134.74 434.94,-117.02l0.06 0 0 0.02z"/>
    <path class="fil7" d="M8187.99 6648.14c0,0 -99.38,-239.3 -345.83,-190.86 0,0 95.31,203.82 345.83,190.86z"/>
    <path class="fil7" d="M8187.99 6648.14l0 0.13c-0.32,0.99 -0.92,4.2 -2.39,9.19 -12.46,40.35 -73.62,201.17 -284.52,252.88 0,0 29.22,-172.93 243.24,-248.77 13.64,-4.86 28.02,-9.25 43.13,-13.32 0.19,0 0.41,-0.13 0.54,-0.13l0 0.02z"/>
    <path class="fil7" d="M8437.15 6635.29c0,0 -32.47,-222.6 -278.73,-234.52 0,0 46.33,229.12 278.73,234.52z"/>
    <path class="fil7" d="M8437.28 6635.29c0,0 -0.26,3.21 -1.12,8.99 -6.13,36.41 -42.33,175.54 -246.23,247.09 0,0 16.44,-176.4 216.94,-246.49 9.66,-3.6 19.84,-6.87 30.43,-9.58l0 0 -0.02 -0.02z"/>
    <path class="fil7" d="M8671 6640.76c0,0 -55.78,-229.06 -248.96,-258.09 0,0 9.58,234.59 248.96,258.09z"/>
    <path class="fil7" d="M8670.75 6640.69l0.19 0c0,0 -0.13,3.19 -0.92,8.99 -5.12,34.41 -36.41,160.63 -216.4,233.12 0,0 10.46,-169.75 193.7,-234.37 7.6,-2.86 15.3,-5.34 23.5,-7.73l-0.06 0 -0 -0.02z"/>
    <path class="fil7" d="M8928.69 6666.65c0,0 -66.5,-190.71 -235.04,-232.85 0,0 10.24,192.84 235.04,232.85z"/>
    <path class="fil7" d="M8928.43 6666.71l0.19 0c0,0 -0.8,3.12 -2.67,8.59 -12.18,36.07 -71.83,175.19 -267.19,199.77 0,0 50.4,-163.23 241.37,-203.37 9.06,-2.07 18.64,-3.6 28.36,-5.06l-0.06 0.06 0 0z"/>
    <path class="fil7" d="M9171.71 6710.65c0,0 -35.81,-223.14 -224.54,-237.17 0,0 23.31,185.91 224.54,237.17z"/>
    <path class="fil7" d="M9171.58 6710.72l0 0.19c-0.47,0.8 -1.81,3.66 -4.2,7.98 -17.84,33.08 -97.05,155.98 -289.57,177.93 0,0 86.02,-152.9 267.8,-182.66 8.24,-1.53 16.85,-2.61 25.57,-3.34 0.19,-0.13 0.19,-0.13 0.41,-0.13l0 0.02z"/>
    <path class="fil8" d="M9503.16 6792.99l-2.86 8.59 -2.8 8.39c-0.67,-0.26 -1.18,-0.32 -1.87,-0.6 -36.95,-12.31 -74.03,-23.89 -111.3,-34.88 -7.6,-2.32 -15.3,-4.52 -22.9,-6.74 -64.24,-18.38 -128.95,-34.69 -193.92,-48.92 -7.12,-1.59 -14.44,-3.21 -21.69,-4.74 -72.69,-15.51 -146.19,-28.43 -219.74,-38.8 -8.59,-1.27 -17.24,-2.32 -25.83,-3.53 -76.55,-10.11 -153.31,-17.43 -230.05,-22.04 -7.6,-0.54 -15.11,-0.92 -22.77,-1.34 -70.29,-3.85 -140.72,-5.19 -211.15,-4.2 -9.66,0.06 -19.58,0.19 -29.29,0.6 -73.75,1.59 -147.65,5.66 -221.27,12.59 -13.77,1.05 -27.42,2.54 -41.28,4.07 -65.38,6.74 -130.6,15.64 -195.64,26.49 -44.46,7.6 -88.73,15.9 -132.93,25.29l-1.81 -8.65 -0.32 -1.34c352.54,-74.63 976.95,-139.6 1689.54,89.74l-0.13 -0.02 0 0.02z"/>
    <path class="fil8" d="M7960.07 6675.97l2.2 0.73 0.13 0.19c-4.46,3.85 -9.19,7.66 -13.77,11.1 -230.05,184.86 -449.47,106.37 -439.68,99.85 0,0 169.15,-66.3 451.12,-111.9l0 0.02z"/>
    <path class="fil8" d="M8187.99 6648.14l-0.26 -0.67 -11.86 1.05c4,-0.06 8.05,-0.26 12.12,-0.47l0 0.06 0 0.02z"/>
    <path class="fil8" d="M8187.99 6648.14l0 0.13c-0.32,0.99 -0.92,4.2 -2.39,9.19 -12.46,40.35 -73.62,201.17 -284.52,252.88 0,0 29.22,-172.93 243.24,-248.77 13.64,-4.86 28.02,-9.25 43.13,-13.32 0.19,0 0.41,-0.13 0.54,-0.13l0 0.02z"/>
    <path class="fil8" d="M8437.15 6635.29l-0.13 -0.86 -14.05 0.19c4.65,0.26 9.38,0.54 14.18,0.67z"/>
    <path class="fil8" d="M8437.28 6635.29c0,0 -0.26,3.21 -1.12,8.99 -6.13,36.41 -42.33,175.54 -246.23,247.09 0,0 16.44,-176.4 216.94,-246.49 9.66,-3.6 19.84,-6.87 30.43,-9.58l0 0 -0.02 -0.02z"/>
    <path class="fil8" d="M8671 6640.76l-0.47 -1.72c-7.19,-0.41 -14.37,-0.73 -21.5,-1.12 7.12,1.12 14.44,2.13 21.97,2.86l0 0 0 -0.02z"/>
    <path class="fil8" d="M8670.75 6640.69l0.19 0c0,0 -0.13,3.19 -0.92,8.99 -5.12,34.41 -36.41,160.63 -216.4,233.12 0,0 10.46,-169.75 193.7,-234.37 7.6,-2.86 15.3,-5.34 23.5,-7.73l-0.06 0 -0 -0.02z"/>
    <path class="fil8" d="M8928.69 6666.65c0,0 -0.41,-1.21 -1.27,-3.47 -11.04,-1.46 -22.1,-2.86 -33.08,-4.26 10.85,2.99 22.3,5.6 34.35,7.73l0 0z"/>
    <path class="fil8" d="M8928.43 6666.71l0.19 0c0,0 -0.8,3.12 -2.67,8.59 -12.18,36.07 -71.83,175.19 -267.19,199.77 0,0 50.4,-163.23 241.37,-203.37 9.06,-2.07 18.64,-3.6 28.36,-5.06l-0.06 0.06 0 0z"/>
    <path class="fil8" d="M9171.71 6710.65c0,0 -0.32,-2.07 -1.05,-5.79 -14.57,-3.06 -29.16,-6 -43.6,-8.85 13.84,5.6 28.69,10.52 44.74,14.63l-0.06 0 -0.02 0z"/>
    <path class="fil8" d="M9171.58 6710.72l0 0.19c-0.47,0.8 -1.81,3.66 -4.2,7.98 -17.84,33.08 -97.05,155.98 -289.57,177.93 0,0 86.02,-152.9 267.8,-182.66 8.24,-1.53 16.85,-2.61 25.57,-3.34 0.19,-0.13 0.19,-0.13 0.41,-0.13l0 0.02z"/>
    <path class="fil7" d="M292.53 3956.37c-108.07,-36.22 -194.5,-105.32 -237.99,-190.22 0,0 -43.45,-69.23 -52.36,-130.58 -8.91,-61.31 13,-140.18 13,-140.18 17.58,-93.8 80.7,-185.03 173.99,-251.03 17.75,-12.57 37.12,-24.53 59.5,-30.58 22.42,-6.2 48.42,-5.49 65.57,5.49 26.25,16.85 22.17,50.4 6.67,76.01 -15.45,25.52 -40.09,48.29 -51.26,75 -11.04,26.75 -2.04,61.03 31.46,68.11 27.39,5.66 58.15,-9.99 73.47,-29.89 15.45,-19.84 19.41,-43.06 24.64,-65.31 7.73,-32.41 20.81,-66.97 53.97,-89.22 32.99,-22.21 91.22,-23.26 108.55,5.36 11.56,19.2 1.08,43.19 -13.04,62.9 -14.14,19.71 -32.36,38.73 -37.68,60.43 -5.32,21.69 8.99,47.47 36.95,48.66 19.07,0.9 37.55,-9.94 48.03,-23.05 10.35,-13.13 14.31,-28.23 18.64,-43.02 9.68,-32.84 23.78,-67.77 57.76,-90.21 33.85,-22.42 92.97,-23.86 111,5.06 11.86,18.94 2.54,42.97 -11.73,62.65 -14.23,19.58 -33.25,37.59 -42.55,58.64 -9.3,21.02 -5.45,47.34 18.36,57.33 33.81,14.23 74.95,-12.07 113.39,-22.34 16.36,-4.37 33.33,-5.32 49.6,-3.36 33.68,4.02 54.49,28.67 59.68,56.41 5.77,29.89 -6.5,63.27 -40.13,77.88 -15.04,6.54 -31.63,10.48 -48.38,11.04 -39.92,1.27 -86.68,-12.05 -115.05,11.43 -20.12,16.36 -16.27,42.76 -1.4,60.26 14.96,17.49 38.26,29.22 57.5,43.84 19.24,14.74 35.12,35.04 29.09,56.68 -9.17,32.97 -66.13,48.72 -105.02,36.91 -38.86,-11.77 -62.3,-41.1 -80.98,-69.81 -8.33,-12.83 -16.4,-26.17 -30.11,-35.72 -13.75,-9.56 -34.52,-14.61 -52.49,-8.24 -26.49,9.25 -32.75,37.96 -21.54,57.29 11.21,19.24 34.2,32.24 53.39,46.98 19.2,14.83 36,34.78 30.32,56.49 -8.41,32.36 -64.52,48.16 -102.52,36.52 -37.96,-11.77 -60.26,-41.06 -76.95,-69.85 -11.43,-19.84 -21.86,-40.84 -42.22,-55.54 -20.42,-14.57 -54.36,-20.72 -78.87,-7.32 -30.11,16.4 -28.92,51.86 -10.7,74.24 18.14,22.47 48.29,37.04 70.41,57.16 22.17,19.99 35.46,50.96 15.15,74.69 -13.21,15.54 -37.96,23.61 -61.16,24.3 -23.22,0.56 -45.19,-5.27 -65.87,-12.18l-0.09 -0.09 -0.01 0.03z"/>
    <path class="fil8" d="M2.05 3634.82c-8.63,-61.2 13.09,-139.43 13.09,-139.43 17.58,-93.8 80.72,-185.03 173.99,-251.03 17.75,-12.57 37.12,-24.51 59.5,-30.58 22.42,-6.2 48.42,-5.49 65.57,5.49 26.25,16.83 22.17,50.4 6.67,75.99 -15.45,25.52 -40.09,48.29 -51.26,75 -11.04,26.75 -2.04,61.03 31.46,68.11 27.39,5.66 58.15,-9.99 73.47,-29.89 15.45,-19.86 19.41,-43.06 24.66,-65.31 7.73,-32.41 20.81,-66.97 53.97,-89.22 32.97,-22.21 91.22,-23.26 108.55,5.36 11.56,19.2 1.08,43.19 -13.04,62.9 -14.14,19.71 -32.36,38.73 -37.7,60.43 -5.32,21.69 8.99,47.47 36.95,48.64 19.07,0.92 37.55,-9.94 48.03,-23.03 10.35,-13.13 14.31,-28.23 18.64,-43.02 9.68,-32.84 23.78,-67.77 57.76,-90.21 33.85,-22.42 92.97,-23.86 111,5.06 11.86,18.94 2.54,42.97 -11.73,62.65 -14.23,19.58 -33.25,37.59 -42.55,58.64 -9.3,21.02 -5.45,47.34 18.38,57.33 33.81,14.23 74.95,-12.1 113.39,-22.34 16.36,-4.37 33.33,-5.32 49.6,-3.36 33.68,4.02 54.49,28.67 59.68,56.41 0.22,1.1 0.39,2.17 0.56,3.27l-968.64 142.14 0 0 0.01 0.02z"/>
    <path class="fil9" d="M282.46 3597.65c35.68,-4.88 71.34,-9.99 107.02,-15.15l42.89 57.37c14.91,19.8 29.63,39.83 44.72,59.5l45.06 59.2c15.24,19.58 30.28,39.3 45.64,58.81 -14.18,-20.38 -28.71,-40.48 -43.02,-60.73l-43.58 -60.34c-14.44,-20.16 -29.31,-40.01 -43.99,-60.04l-40.35 -54.79c33.38,-4.8 66.71,-9.64 100.13,-14.4 39.45,-6.02 78.91,-11.94 118.36,-17.88 13.21,16.48 26.66,32.8 39.96,49.21 13.92,17.07 27.7,34.24 41.79,51.18l42.18 50.87c14.27,16.81 28.32,33.76 42.76,50.4 -13.21,-17.62 -26.79,-35.04 -40.18,-52.53l-40.74 -52.06c-13.58,-17.37 -27.44,-34.47 -41.15,-51.76 -12.44,-15.49 -24.75,-31.05 -37.21,-46.5 29.46,-4.5 58.94,-8.99 88.34,-13.62l106.98 -17.07c35.64,-5.98 71.3,-11.69 106.85,-17.93 -35.87,4.28 -71.64,9.12 -107.45,13.71l-107.32 14.61c-29.42,4.07 -58.77,8.2 -88.17,12.44 16.1,-34.95 32.49,-69.72 48.25,-104.8l25.13 -55.76c8.16,-18.68 16.53,-37.25 24.53,-56.02 -9.3,18.14 -18.25,36.47 -27.35,54.66l-26.75 54.96c-17.49,35.87 -34.28,71.98 -51.47,107.99 -39.58,5.68 -79.11,11.43 -118.66,17.07 -33.33,5.06 -66.63,10.07 -99.96,15.11l23.13 -63.14c8.41,-23.09 17.02,-46.07 25.18,-69.23l24.73 -69.36c8.03,-23.22 16.27,-46.33 24.12,-69.62 -9.25,22.77 -18.06,45.69 -27.09,68.5l-26.49 68.76c-8.91,22.9 -17.41,45.95 -26.04,68.89l-24.92 66.37c-35.64,5.36 -71.25,10.83 -106.85,16.4l-106.98 17.02c-16.18,2.75 -32.41,5.4 -48.64,8.07l28.79 -75.47c9.94,-26.21 20.08,-52.36 29.81,-78.66l29.42 -78.78c9.6,-26.34 19.37,-52.62 28.75,-79.04 -10.78,25.91 -21.11,51.97 -31.72,77.88l-31.08 78.14c-10.44,25.99 -20.51,52.19 -30.71,78.31l-30.49 78.35 -0.22 0.52c-16.94,2.8 -33.81,5.64 -50.7,8.63 17.02,-2.04 34.02,-4.2 51.05,-6.41l0.3 0.43 51.86 68.58c17.37,22.81 34.47,45.82 52.01,68.5l52.36 68.2c17.67,22.6 35.12,45.28 52.92,67.77 -16.61,-23.39 -33.59,-46.5 -50.33,-69.77l-50.92 -69.31c-16.89,-23.16 -34.2,-46.03 -51.3,-69.02l-49.47 -66.32c16.31,-2.13 32.62,-4.24 48.96,-6.33l107.32 -14.61 0.04 0.09 -0.06 -0.04z"/>
    <path class="fil0" d="M541.6 9681.28c0,4.99 4.05,9.04 9.04,9.04 4.99,0 9.04,-4.05 9.04,-9.04 0,-4.99 -4.05,-9.04 -9.04,-9.04 -4.99,0 -9.04,4.05 -9.04,9.04z"/>
    <path class="fil0" d="M541.6 9547.08c0,4.99 4.05,9.04 9.04,9.04 4.99,0 9.04,-4.05 9.04,-9.04 0,-4.99 -4.05,-9.04 -9.04,-9.04 -4.99,0 -9.04,4.05 -9.04,9.04z"/>
    <path class="fil0" d="M541.6 9412.8c0,4.99 4.05,9.04 9.04,9.04 4.99,0 9.04,-4.05 9.04,-9.04 0,-4.99 -4.05,-9.04 -9.04,-9.04 -4.99,0 -9.04,4.05 -9.04,9.04z"/>
    <path class="fil0" d="M541.6 9278.53c0,4.99 4.05,9.04 9.04,9.04 4.99,0 9.04,-4.05 9.04,-9.04 0,-4.99 -4.05,-9.04 -9.04,-9.04 -4.99,0 -9.04,4.05 -9.04,9.04z"/>
    <path class="fil0" d="M433.29 9681.28c0,4.99 4.05,9.04 9.04,9.04 4.99,0 9.04,-4.05 9.04,-9.04 0,-4.99 -4.05,-9.04 -9.04,-9.04 -4.99,0 -9.04,4.05 -9.04,9.04z"/>
    <path class="fil0" d="M433.29 9547.08c0,4.99 4.05,9.04 9.04,9.04 4.99,0 9.04,-4.05 9.04,-9.04 0,-4.99 -4.05,-9.04 -9.04,-9.04 -4.99,0 -9.04,4.05 -9.04,9.04z"/>
    <path class="fil0" d="M433.29 9412.8c0,4.99 4.05,9.04 9.04,9.04 4.99,0 9.04,-4.05 9.04,-9.04 0,-4.99 -4.05,-9.04 -9.04,-9.04 -4.99,0 -9.04,4.05 -9.04,9.04z"/>
    <path class="fil0" d="M433.29 9278.53c0,4.99 4.05,9.04 9.04,9.04 4.99,0 9.04,-4.05 9.04,-9.04 0,-4.99 -4.05,-9.04 -9.04,-9.04 -4.99,0 -9.04,4.05 -9.04,9.04z"/>
    <path class="fil0" d="M324.98 9681.28c0,4.99 4.05,9.04 9.04,9.04 4.99,0 9.04,-4.05 9.04,-9.04 0,-4.99 -4.05,-9.04 -9.04,-9.04 -4.99,0 -9.04,4.05 -9.04,9.04z"/>
    <path class="fil0" d="M324.98 9547.08c0,4.99 4.05,9.04 9.04,9.04 4.99,0 9.04,-4.05 9.04,-9.04 0,-4.99 -4.05,-9.04 -9.04,-9.04 -4.99,0 -9.04,4.05 -9.04,9.04z"/>
    <path class="fil0" d="M324.98 9412.8c0,4.99 4.05,9.04 9.04,9.04 4.99,0 9.04,-4.05 9.04,-9.04 0,-4.99 -4.05,-9.04 -9.04,-9.04 -4.99,0 -9.04,4.05 -9.04,9.04z"/>
    <path class="fil0" d="M324.98 9278.53c0,4.99 4.05,9.04 9.04,9.04 4.99,0 9.04,-4.05 9.04,-9.04 0,-4.99 -4.05,-9.04 -9.04,-9.04 -4.99,0 -9.04,4.05 -9.04,9.04z"/>
    <path class="fil0" d="M216.65 9681.28c0,4.99 4.05,9.04 9.04,9.04 4.99,0 9.04,-4.05 9.04,-9.04 0,-4.99 -4.05,-9.04 -9.04,-9.04 -4.99,0 -9.04,4.05 -9.04,9.04z"/>
    <path class="fil0" d="M216.65 9547.08c0,4.99 4.05,9.04 9.04,9.04 4.99,0 9.04,-4.05 9.04,-9.04 0,-4.99 -4.05,-9.04 -9.04,-9.04 -4.99,0 -9.04,4.05 -9.04,9.04z"/>
    <path class="fil0" d="M216.65 9412.8c0,4.99 4.05,9.04 9.04,9.04 4.99,0 9.04,-4.05 9.04,-9.04 0,-4.99 -4.05,-9.04 -9.04,-9.04 -4.99,0 -9.04,4.05 -9.04,9.04z"/>
    <path class="fil0" d="M216.65 9278.53c0,4.99 4.05,9.04 9.04,9.04 4.99,0 9.04,-4.05 9.04,-9.04 0,-4.99 -4.05,-9.04 -9.04,-9.04 -4.99,0 -9.04,4.05 -9.04,9.04z"/>
    <path class="fil0" d="M108.34 9681.28c0,4.99 4.05,9.04 9.04,9.04 4.99,0 9.04,-4.05 9.04,-9.04 0,-4.99 -4.05,-9.04 -9.04,-9.04 -4.99,0 -9.04,4.05 -9.04,9.04z"/>
    <path class="fil0" d="M108.34 9547.08c0,4.99 4.05,9.04 9.04,9.04 4.99,0 9.04,-4.05 9.04,-9.04 0,-4.99 -4.05,-9.04 -9.04,-9.04 -4.99,0 -9.04,4.05 -9.04,9.04z"/>
    <path class="fil0" d="M108.34 9412.8c0,4.99 4.05,9.04 9.04,9.04 4.99,0 9.04,-4.05 9.04,-9.04 0,-4.99 -4.05,-9.04 -9.04,-9.04 -4.99,0 -9.04,4.05 -9.04,9.04z"/>
    <path class="fil0" d="M108.34 9278.53c0,4.99 4.05,9.04 9.04,9.04 4.99,0 9.04,-4.05 9.04,-9.04 0,-4.99 -4.05,-9.04 -9.04,-9.04 -4.99,0 -9.04,4.05 -9.04,9.04z"/>
    <path class="fil0" d="M0.03 9681.28c0,4.99 4.05,9.04 9.04,9.04 4.99,0 9.04,-4.05 9.04,-9.04 0,-4.99 -4.05,-9.04 -9.04,-9.04 -4.99,0 -9.04,4.05 -9.04,9.04z"/>
    <path class="fil0" d="M0.03 9547.08c0,4.99 4.05,9.04 9.04,9.04 4.99,0 9.04,-4.05 9.04,-9.04 0,-4.99 -4.05,-9.04 -9.04,-9.04 -4.99,0 -9.04,4.05 -9.04,9.04z"/>
    <path class="fil0" d="M0.03 9412.8c0,4.99 4.05,9.04 9.04,9.04 4.99,0 9.04,-4.05 9.04,-9.04 0,-4.99 -4.05,-9.04 -9.04,-9.04 -4.99,0 -9.04,4.05 -9.04,9.04z"/>
    <path class="fil0" d="M0.03 9278.53c0,4.99 4.05,9.04 9.04,9.04 4.99,0 9.04,-4.05 9.04,-9.04 0,-4.99 -4.05,-9.04 -9.04,-9.04 -4.99,0 -9.04,4.05 -9.04,9.04z"/>
    <path class="fil0" d="M8153.71 8840.73c0,4.99 4.05,9.04 9.04,9.04 4.99,0 9.04,-4.05 9.04,-9.04 0,-4.99 -4.05,-9.04 -9.04,-9.04 -4.99,0 -9.04,4.05 -9.04,9.04z"/>
    <path class="fil0" d="M8153.71 8706.53c0,4.99 4.05,9.04 9.04,9.04 4.99,0 9.04,-4.05 9.04,-9.04 0,-4.99 -4.05,-9.04 -9.04,-9.04 -4.99,0 -9.04,4.05 -9.04,9.04z"/>
    <path class="fil0" d="M8153.71 8572.25c0,4.99 4.05,9.04 9.04,9.04 4.99,0 9.04,-4.05 9.04,-9.04 0,-4.99 -4.05,-9.04 -9.04,-9.04 -4.99,0 -9.04,4.05 -9.04,9.04z"/>
    <path class="fil0" d="M8153.71 8437.98c0,4.99 4.05,9.04 9.04,9.04 4.99,0 9.04,-4.05 9.04,-9.04 0,-4.99 -4.05,-9.04 -9.04,-9.04 -4.99,0 -9.04,4.05 -9.04,9.04z"/>
    <path class="fil0" d="M8045.39 8840.73c0,4.99 4.05,9.04 9.04,9.04 4.99,0 9.04,-4.05 9.04,-9.04 0,-4.99 -4.05,-9.04 -9.04,-9.04 -4.99,0 -9.04,4.05 -9.04,9.04z"/>
    <path class="fil0" d="M8045.39 8706.53c0,4.99 4.05,9.04 9.04,9.04 4.99,0 9.04,-4.05 9.04,-9.04 0,-4.99 -4.05,-9.04 -9.04,-9.04 -4.99,0 -9.04,4.05 -9.04,9.04z"/>
    <path class="fil0" d="M8045.39 8572.25c0,4.99 4.05,9.04 9.04,9.04 4.99,0 9.04,-4.05 9.04,-9.04 0,-4.99 -4.05,-9.04 -9.04,-9.04 -4.99,0 -9.04,4.05 -9.04,9.04z"/>
    <path class="fil0" d="M8045.39 8437.98c0,4.99 4.05,9.04 9.04,9.04 4.99,0 9.04,-4.05 9.04,-9.04 0,-4.99 -4.05,-9.04 -9.04,-9.04 -4.99,0 -9.04,4.05 -9.04,9.04z"/>
    <path class="fil0" d="M7937.06 8840.73c0,4.99 4.05,9.04 9.04,9.04 4.99,0 9.04,-4.05 9.04,-9.04 0,-4.99 -4.05,-9.04 -9.04,-9.04 -4.99,0 -9.04,4.05 -9.04,9.04z"/>
    <path class="fil0" d="M7937.06 8706.53c0,4.99 4.05,9.04 9.04,9.04 4.99,0 9.04,-4.05 9.04,-9.04 0,-4.99 -4.05,-9.04 -9.04,-9.04 -4.99,0 -9.04,4.05 -9.04,9.04z"/>
    <path class="fil0" d="M7937.06 8572.25c0,4.99 4.05,9.04 9.04,9.04 4.99,0 9.04,-4.05 9.04,-9.04 0,-4.99 -4.05,-9.04 -9.04,-9.04 -4.99,0 -9.04,4.05 -9.04,9.04z"/>
    <path class="fil0" d="M7937.06 8437.98c0,4.99 4.05,9.04 9.04,9.04 4.99,0 9.04,-4.05 9.04,-9.04 0,-4.99 -4.05,-9.04 -9.04,-9.04 -4.99,0 -9.04,4.05 -9.04,9.04z"/>
    <path class="fil0" d="M7828.75 8840.73c0,4.99 4.05,9.04 9.04,9.04 4.99,0 9.04,-4.05 9.04,-9.04 0,-4.99 -4.05,-9.04 -9.04,-9.04 -4.99,0 -9.04,4.05 -9.04,9.04z"/>
    <path class="fil0" d="M7828.75 8706.53c0,4.99 4.05,9.04 9.04,9.04 4.99,0 9.04,-4.05 9.04,-9.04 0,-4.99 -4.05,-9.04 -9.04,-9.04 -4.99,0 -9.04,4.05 -9.04,9.04z"/>
    <path class="fil0" d="M7828.75 8572.25c0,4.99 4.05,9.04 9.04,9.04 4.99,0 9.04,-4.05 9.04,-9.04 0,-4.99 -4.05,-9.04 -9.04,-9.04 -4.99,0 -9.04,4.05 -9.04,9.04z"/>
    <path class="fil0" d="M7828.75 8437.98c0,4.99 4.05,9.04 9.04,9.04 4.99,0 9.04,-4.05 9.04,-9.04 0,-4.99 -4.05,-9.04 -9.04,-9.04 -4.99,0 -9.04,4.05 -9.04,9.04z"/>
    <path class="fil0" d="M7720.44 8840.73c0,4.99 4.05,9.04 9.04,9.04 4.99,0 9.04,-4.05 9.04,-9.04 0,-4.99 -4.05,-9.04 -9.04,-9.04 -4.99,0 -9.04,4.05 -9.04,9.04z"/>
    <path class="fil0" d="M7720.44 8706.53c0,4.99 4.05,9.04 9.04,9.04 4.99,0 9.04,-4.05 9.04,-9.04 0,-4.99 -4.05,-9.04 -9.04,-9.04 -4.99,0 -9.04,4.05 -9.04,9.04z"/>
    <path class="fil0" d="M7720.44 8572.25c0,4.99 4.05,9.04 9.04,9.04 4.99,0 9.04,-4.05 9.04,-9.04 0,-4.99 -4.05,-9.04 -9.04,-9.04 -4.99,0 -9.04,4.05 -9.04,9.04z"/>
    <path class="fil0" d="M7720.44 8437.98c0,4.99 4.05,9.04 9.04,9.04 4.99,0 9.04,-4.05 9.04,-9.04 0,-4.99 -4.05,-9.04 -9.04,-9.04 -4.99,0 -9.04,4.05 -9.04,9.04z"/>
    <path class="fil0" d="M7612.13 8840.73c0,4.99 4.05,9.04 9.04,9.04 4.99,0 9.04,-4.05 9.04,-9.04 0,-4.99 -4.05,-9.04 -9.04,-9.04 -4.99,0 -9.04,4.05 -9.04,9.04z"/>
    <path class="fil0" d="M7612.13 8706.53c0,4.99 4.05,9.04 9.04,9.04 4.99,0 9.04,-4.05 9.04,-9.04 0,-4.99 -4.05,-9.04 -9.04,-9.04 -4.99,0 -9.04,4.05 -9.04,9.04z"/>
    <path class="fil0" d="M7612.13 8572.25c0,4.99 4.05,9.04 9.04,9.04 4.99,0 9.04,-4.05 9.04,-9.04 0,-4.99 -4.05,-9.04 -9.04,-9.04 -4.99,0 -9.04,4.05 -9.04,9.04z"/>
    <path class="fil0" d="M7612.13 8437.98c0,4.99 4.05,9.04 9.04,9.04 4.99,0 9.04,-4.05 9.04,-9.04 0,-4.99 -4.05,-9.04 -9.04,-9.04 -4.99,0 -9.04,4.05 -9.04,9.04z"/>
    <line class="fil1 str0" x1="6565.36" y1="8657.61" x2="6720.11" y2= "8812.37" />
    <line class="fil1 str0" x1="6720.11" y1="8657.55" x2="6565.36" y2= "8812.3" />
    <line class="fil1 str1" x1="2005.52" y1="8944.5" x2="2115.3" y2= "9054.27" />
    <line class="fil1 str1" x1="2115.3" y1="8944.46" x2="2005.52" y2= "9054.23" />
    <line class="fil1 str0" x1="70.53" y1="11128.24" x2="223.64" y2= "11281.38" />
    <line class="fil1 str0" x1="223.64" y1="11128.2" x2="70.53" y2= "11281.32" />
    <line class="fil1 str2" x1="9296.4" y1="10635.65" x2="9433.76" y2= "10773.01" />
    <line class="fil1 str2" x1="9433.76" y1="10635.61" x2="9296.4" y2= "10772.97" />
    <path class="fil2" d="M8550.64 8876.17l-73.77 0c-17.84,0 -32.32,-15.73 -32.32,-35.1l0 -2.93c0,-19.39 14.46,-35.1 32.32,-35.1l73.77 0c17.84,0 32.28,15.69 32.28,35.1l0 2.93c0,19.37 -14.44,35.1 -32.28,35.1z"/>
    <path class="fil2" d="M9264.79 8876.17l-560.88 0c-17.84,0 -32.3,-15.73 -32.3,-35.1l0 -2.93c0,-19.39 14.46,-35.1 32.3,-35.1l560.88 0c17.84,0 32.32,15.69 32.32,35.1l0 2.93c0,19.37 -14.46,35.1 -32.32,35.1z"/>
    <path class="fil2" d="M5140.17 11673.67l-73.77 0c-17.84,0 -32.3,-15.73 -32.3,-35.1l0 -2.93c0,-19.39 14.46,-35.1 32.3,-35.1l73.77 0c17.84,0 32.28,15.69 32.28,35.1l0 2.93c0,19.37 -14.44,35.1 -32.28,35.1z"/>
    <path class="fil2" d="M5854.31 11673.67l-560.88 0c-17.84,0 -32.32,-15.73 -32.32,-35.1l0 -2.93c0,-19.39 14.46,-35.1 32.32,-35.1l560.88 0c17.84,0 32.3,15.69 32.3,35.1l0 2.93c0,19.37 -14.46,35.1 -32.3,35.1z"/>
    <path class="fil1 str3" d="M6251.23 9743.67c-61.03,0 -61.03,-65.94 -122.06,-65.94 -61.03,0 -61.03,65.94 -122.08,65.94 -61.03,0 -61.03,-65.94 -122.04,-65.94 -61.03,0 -61.03,65.94 -122.04,65.94 -61.05,0 -61.05,-65.94 -122.08,-65.94 -61.05,0 -61.05,65.94 -122.12,65.94 -61.03,0 -61.03,-65.94 -122.08,-65.94 -61.07,0 -61.07,65.94 -122.17,65.94 -61.07,0 -61.07,-65.94 -122.17,-65.94"/>
    <path class="fil1 str3" d="M6251.23 9632.56c-61.03,0 -61.03,-65.94 -122.06,-65.94 -61.03,0 -61.03,65.94 -122.08,65.94 -61.03,0 -61.03,-65.94 -122.04,-65.94 -61.03,0 -61.03,65.94 -122.04,65.94 -61.05,0 -61.05,-65.94 -122.08,-65.94 -61.05,0 -61.05,65.94 -122.12,65.94 -61.03,0 -61.03,-65.94 -122.08,-65.94 -61.07,0 -61.07,65.94 -122.17,65.94 -61.07,0 -61.07,-65.94 -122.17,-65.94"/>
    <path class="fil7" d="M292.53 12385.31c-108.07,-36.22 -194.5,-105.32 -237.99,-190.22 0,0 -43.45,-69.23 -52.36,-130.58 -8.91,-61.31 13,-140.18 13,-140.18 17.58,-93.8 80.7,-185.03 173.99,-251.03 17.75,-12.57 37.12,-24.53 59.5,-30.58 22.42,-6.2 48.42,-5.49 65.57,5.49 26.25,16.85 22.17,50.4 6.67,76.01 -15.45,25.52 -40.09,48.29 -51.26,75 -11.04,26.75 -2.04,61.03 31.46,68.11 27.39,5.66 58.15,-9.99 73.47,-29.89 15.45,-19.84 19.41,-43.06 24.64,-65.31 7.73,-32.41 20.81,-66.97 53.97,-89.22 32.99,-22.21 91.22,-23.26 108.55,5.36 11.56,19.2 1.08,43.19 -13.04,62.9 -14.14,19.71 -32.36,38.73 -37.68,60.43 -5.32,21.69 8.99,47.47 36.95,48.66 19.07,0.9 37.55,-9.94 48.03,-23.05 10.35,-13.13 14.31,-28.23 18.64,-43.02 9.68,-32.84 23.78,-67.77 57.76,-90.21 33.85,-22.42 92.97,-23.86 111,5.06 11.86,18.94 2.54,42.97 -11.73,62.65 -14.23,19.58 -33.25,37.59 -42.55,58.64 -9.3,21.02 -5.45,47.34 18.36,57.33 33.81,14.23 74.95,-12.07 113.39,-22.34 16.36,-4.37 33.33,-5.32 49.6,-3.36 33.68,4.02 54.49,28.67 59.68,56.41 5.77,29.89 -6.5,63.27 -40.13,77.88 -15.04,6.54 -31.63,10.48 -48.38,11.04 -39.92,1.27 -86.68,-12.05 -115.05,11.43 -20.12,16.36 -16.27,42.76 -1.4,60.26 14.96,17.49 38.26,29.22 57.5,43.84 19.24,14.74 35.12,35.04 29.09,56.68 -9.17,32.97 -66.13,48.72 -105.02,36.91 -38.86,-11.77 -62.3,-41.1 -80.98,-69.81 -8.33,-12.83 -16.4,-26.17 -30.11,-35.72 -13.75,-9.56 -34.52,-14.61 -52.49,-8.24 -26.49,9.25 -32.75,37.96 -21.54,57.29 11.21,19.24 34.2,32.24 53.39,46.98 19.2,14.83 36,34.78 30.32,56.49 -8.41,32.36 -64.52,48.16 -102.52,36.52 -37.96,-11.77 -60.26,-41.06 -76.95,-69.85 -11.43,-19.84 -21.86,-40.84 -42.22,-55.54 -20.42,-14.57 -54.36,-20.72 -78.87,-7.32 -30.11,16.4 -28.92,51.86 -10.7,74.24 18.14,22.47 48.29,37.04 70.41,57.16 22.17,19.99 35.46,50.96 15.15,74.69 -13.21,15.54 -37.96,23.61 -61.16,24.3 -23.22,0.56 -45.19,-5.27 -65.87,-12.18l-0.09 -0.09 -0.01 0.03z"/>
    <path class="fil8" d="M2.07 12063.76c-8.63,-61.2 13.09,-139.43 13.09,-139.43 17.58,-93.8 80.72,-185.03 173.99,-251.03 17.75,-12.57 37.12,-24.51 59.5,-30.58 22.42,-6.2 48.42,-5.49 65.57,5.49 26.25,16.83 22.17,50.4 6.67,75.99 -15.45,25.52 -40.09,48.29 -51.26,75 -11.04,26.75 -2.04,61.03 31.46,68.11 27.39,5.66 58.15,-9.99 73.47,-29.89 15.45,-19.86 19.41,-43.06 24.66,-65.31 7.73,-32.41 20.81,-66.97 53.97,-89.22 32.97,-22.21 91.22,-23.26 108.55,5.36 11.56,19.2 1.08,43.19 -13.04,62.9 -14.14,19.71 -32.36,38.73 -37.7,60.43 -5.32,21.69 8.99,47.47 36.95,48.64 19.07,0.92 37.55,-9.94 48.03,-23.03 10.35,-13.13 14.31,-28.23 18.64,-43.02 9.68,-32.84 23.78,-67.77 57.76,-90.21 33.85,-22.42 92.97,-23.86 111,5.06 11.86,18.94 2.54,42.97 -11.73,62.65 -14.23,19.58 -33.25,37.59 -42.55,58.64 -9.3,21.02 -5.45,47.34 18.38,57.33 33.81,14.23 74.95,-12.1 113.39,-22.34 16.36,-4.37 33.33,-5.32 49.6,-3.36 33.68,4.02 54.49,28.67 59.68,56.41 0.22,1.1 0.39,2.17 0.56,3.27l-968.64 142.14 0 0 0.01 0.02z"/>
    <path class="fil9" d="M282.46 12026.6c35.68,-4.88 71.34,-9.99 107.02,-15.15l42.89 57.37c14.91,19.8 29.63,39.83 44.72,59.5l45.06 59.2c15.24,19.58 30.28,39.3 45.64,58.81 -14.18,-20.38 -28.71,-40.48 -43.02,-60.73l-43.58 -60.34c-14.44,-20.16 -29.31,-40.01 -43.99,-60.04l-40.35 -54.79c33.38,-4.8 66.71,-9.64 100.13,-14.4 39.45,-6.02 78.91,-11.94 118.36,-17.88 13.21,16.48 26.66,32.8 39.96,49.21 13.92,17.07 27.7,34.24 41.79,51.18l42.18 50.87c14.27,16.81 28.32,33.76 42.76,50.4 -13.21,-17.62 -26.79,-35.04 -40.18,-52.53l-40.74 -52.06c-13.58,-17.37 -27.44,-34.47 -41.15,-51.76 -12.44,-15.49 -24.75,-31.05 -37.21,-46.5 29.46,-4.5 58.94,-8.99 88.34,-13.62l106.98 -17.07c35.64,-5.98 71.3,-11.69 106.85,-17.93 -35.87,4.28 -71.64,9.12 -107.45,13.71l-107.32 14.61c-29.42,4.07 -58.77,8.2 -88.17,12.44 16.1,-34.95 32.49,-69.72 48.25,-104.8l25.13 -55.76c8.16,-18.68 16.53,-37.25 24.53,-56.02 -9.3,18.14 -18.25,36.47 -27.35,54.66l-26.75 54.96c-17.49,35.87 -34.28,71.98 -51.47,107.99 -39.58,5.68 -79.11,11.43 -118.66,17.07 -33.33,5.06 -66.63,10.07 -99.96,15.11l23.13 -63.14c8.41,-23.09 17.02,-46.07 25.18,-69.23l24.73 -69.36c8.03,-23.22 16.27,-46.33 24.12,-69.62 -9.25,22.77 -18.06,45.69 -27.09,68.5l-26.49 68.76c-8.91,22.9 -17.41,45.95 -26.04,68.89l-24.92 66.37c-35.64,5.36 -71.25,10.83 -106.85,16.4l-106.98 17.02c-16.18,2.75 -32.41,5.4 -48.64,8.07l28.79 -75.47c9.94,-26.21 20.08,-52.36 29.81,-78.66l29.42 -78.78c9.6,-26.34 19.37,-52.62 28.75,-79.04 -10.78,25.91 -21.11,51.97 -31.72,77.88l-31.08 78.14c-10.44,25.99 -20.51,52.19 -30.71,78.31l-30.49 78.35 -0.22 0.52c-16.94,2.8 -33.81,5.64 -50.7,8.63 17.02,-2.04 34.02,-4.2 51.05,-6.41l0.3 0.43 51.86 68.58c17.37,22.81 34.47,45.82 52.01,68.5l52.36 68.2c17.67,22.6 35.12,45.28 52.92,67.77 -16.61,-23.39 -33.59,-46.5 -50.33,-69.77l-50.92 -69.31c-16.89,-23.16 -34.2,-46.03 -51.3,-69.02l-49.47 -66.32c16.31,-2.13 32.62,-4.24 48.96,-6.33l107.32 -14.61 0.04 0.09 -0.06 -0.04z"/>
    <path class="fil2" d="M4152.92 13830.17l-73.77 0c-17.84,0 -32.32,-15.73 -32.32,-35.1l0 -2.93c0,-19.39 14.46,-35.1 32.32,-35.1l73.77 0c17.84,0 32.28,15.69 32.28,35.1l0 2.93c0,19.37 -14.44,35.1 -32.28,35.1z"/>
    <path class="fil2" d="M4867.06 13830.17l-560.88 0c-17.84,0 -32.3,-15.73 -32.3,-35.1l0 -2.93c0,-19.39 14.46,-35.1 32.3,-35.1l560.88 0c17.84,0 32.32,15.69 32.32,35.1l0 2.93c0,19.37 -14.46,35.1 -32.32,35.1z"/>
    <path class="fil2" d="M805.8 14830.27l-73.77 0c-17.84,0 -32.32,-15.73 -32.32,-35.1l0 -2.93c0,-19.39 14.46,-35.1 32.32,-35.1l73.77 0c17.84,0 32.28,15.71 32.28,35.1l0 2.93c0,19.37 -14.44,35.1 -32.28,35.1z"/>
    <path class="fil2" d="M1519.92 14830.27l-560.88 0c-17.84,0 -32.3,-15.73 -32.3,-35.1l0 -2.93c0,-19.39 14.46,-35.1 32.3,-35.1l560.88 0c17.84,0 32.32,15.71 32.32,35.1l0 2.93c0,19.37 -14.46,35.1 -32.32,35.1z"/>
    <path class="fil2" d="M4945.33 16835.27l-73.77 0c-17.84,0 -32.32,-15.73 -32.32,-35.1l0 -2.93c0,-19.41 14.46,-35.1 32.32,-35.1l73.77 0c17.84,0 32.28,15.69 32.28,35.1l0 2.93c0,19.37 -14.44,35.1 -32.28,35.1z"/>
    <path class="fil2" d="M5659.47 16835.27l-560.88 0c-17.84,0 -32.32,-15.73 -32.32,-35.1l0 -2.93c0,-19.41 14.46,-35.1 32.32,-35.1l560.88 0c17.84,0 32.32,15.69 32.32,35.1l0 2.93c0,19.37 -14.46,35.1 -32.32,35.1z"/>
    <path class="fil1 str3" d="M8991.37 13364.46c-61.03,0 -61.03,-65.94 -122.06,-65.94 -61.03,0 -61.03,65.94 -122.06,65.94 -61.03,0 -61.03,-65.94 -122.06,-65.94 -61.03,0 -61.03,65.94 -122.04,65.94 -61.05,0 -61.05,-65.94 -122.08,-65.94 -61.05,0 -61.05,65.94 -122.12,65.94 -61.03,0 -61.03,-65.94 -122.06,-65.94 -61.07,0 -61.07,65.94 -122.17,65.94 -61.07,0 -61.07,-65.94 -122.17,-65.94"/>
    <path class="fil1 str3" d="M8991.37 13253.35c-61.03,0 -61.03,-65.94 -122.06,-65.94 -61.03,0 -61.03,65.94 -122.06,65.94 -61.03,0 -61.03,-65.94 -122.06,-65.94 -61.03,0 -61.03,65.94 -122.04,65.94 -61.05,0 -61.05,-65.94 -122.08,-65.94 -61.05,0 -61.05,65.94 -122.12,65.94 -61.03,0 -61.03,-65.94 -122.06,-65.94 -61.07,0 -61.07,65.94 -122.17,65.94 -61.07,0 -61.07,-65.94 -122.17,-65.94"/>
    <path class="fil1 str3" d="M4025.82 16693.07c-61.03,0 -61.03,-65.94 -122.06,-65.94 -61.03,0 -61.03,65.94 -122.08,65.94 -61.03,0 -61.03,-65.94 -122.04,-65.94 -61.03,0 -61.03,65.94 -122.04,65.94 -61.05,0 -61.05,-65.94 -122.08,-65.94 -61.05,0 -61.05,65.94 -122.12,65.94 -61.03,0 -61.03,-65.94 -122.06,-65.94 -61.07,0 -61.07,65.94 -122.17,65.94 -61.07,0 -61.07,-65.94 -122.17,-65.94"/>
    <path class="fil1 str3" d="M4025.82 16581.98c-61.03,0 -61.03,-65.94 -122.06,-65.94 -61.03,0 -61.03,65.94 -122.08,65.94 -61.03,0 -61.03,-65.94 -122.04,-65.94 -61.03,0 -61.03,65.94 -122.04,65.94 -61.05,0 -61.05,-65.94 -122.08,-65.94 -61.05,0 -61.05,65.94 -122.12,65.94 -61.03,0 -61.03,-65.94 -122.06,-65.94 -61.07,0 -61.07,65.94 -122.17,65.94 -61.07,0 -61.07,-65.94 -122.17,-65.94"/>
    <path class="fil3" d="M939.46 15869.09c43.62,-0.9 86.88,-16.96 104.54,-4.02 -5.73,18.47 13.99,5.94 -17.93,13.82 -18.01,4.46 -61.22,2 -80.61,13.9 48.12,8.5 84.77,24.47 143.24,27.59 51.45,2.75 108.52,-1.81 154.32,-11.17 42.09,-8.61 211.28,-48.38 246.77,-82.68 -140.98,-101.64 -442.07,-37.57 -550.31,42.57l0 -0.02 -0.02 0.02z"/>
    <path class="fil4" d="M1011.36 16122.18c34.73,140.78 238.42,328.55 367.73,369.09 -14.83,-84.08 -64.54,-192.97 -121.31,-244.64 -53.78,-48.94 -138.93,-118.38 -229.23,-139.86l34.11 36.97c3.19,12.14 5.53,2.97 -5.14,13.9l-46.18 -35.49 0.02 0.02z"/>
    <path class="fil3" d="M541.08 15665.98c12.29,8.89 -7.27,3.55 19.48,6.52 1.98,0.22 18.36,-1.08 21.24,-1.4 30.73,-3.44 93.33,-16.44 108.27,-4.24 -4.41,17.49 -7.32,12.55 -31.68,14.87l-104.76 10.54c-18.06,4.99 -7.45,0.6 -17.77,8.39 71.9,6.35 131.36,48.35 280.86,24.51 77.58,-12.35 181.78,-53.26 226.91,-92.17 -71.62,-76.72 -271.54,-56.98 -384.03,-15.97l-118.49 48.94 0 -0.02 -0.02 0.02z"/>
    <path class="fil4" d="M352.59 15890.28c1.21,145.69 103.38,358.22 220.8,403.87 6.8,-168.82 -57.76,-344.32 -211.52,-415.29 -15.99,0.99 -10.57,-16.14 -9.27,11.38l0 0.02 -0 0.02z"/>
    <path class="fil4" d="M675.56 16045.45c19.13,127.1 159.27,362.72 268.01,379.23 -9.64,-99.29 -30.51,-177.54 -76.59,-249.61 -32.09,-50.19 -109.69,-129.55 -178.77,-151.31 7.71,23.48 53.65,62.21 48.38,77.88 -13.04,15.56 -30.36,-22.98 -46.35,-41.45l-14.68 -14.76 0.02 0.02 -0.02 -0z"/>
    <path class="fil3" d="M1193.53 16033.99c29.53,12.74 119.18,21.13 159.08,24.45 51.43,4.28 36.78,5.32 43.36,14.01l-0.64 0.5c67.57,7.14 137.94,19.52 205.22,29.81 33.66,5.14 66.54,9.75 99.96,14.72 20.34,3.03 86.27,6.09 99.96,22.77l18.72 -2.8 -122.12 -82.59c-135.15,-69.17 -396.72,-68.45 -503.53,-20.83l0.02 0.02 -0.02 -0.04z"/>
    <path class="fil4" d="M1800.46 16140.24c-13.66,-16.68 -79.63,-19.75 -99.96,-22.77 -33.42,-4.95 -66.28,-9.56 -99.96,-14.72 -67.25,-10.29 -137.62,-22.66 -205.19,-29.81 -16.25,15.22 -79.95,0.26 -105.13,-2.99 -16.46,-2.13 -35.14,-4.97 -52.4,-8 -45.49,-7.98 -35.06,-5.57 -45,1.46 52.57,30.23 53.22,38.71 122.17,65.59 43.9,17.13 96.37,28.36 147.31,34.54 130,15.75 217.96,-5.42 338.17,-23.31l0 -0.02 0 0.02z"/>
    <path class="fil5" d="M1395.99 16072.43c-6.56,-8.72 8.07,-9.75 -43.36,-14.01 -39.92,-3.31 -129.57,-11.71 -159.08,-24.45 -60.13,-2.95 -373.48,-85.61 -422.37,-119.39 17.84,-10.98 142.06,-19.65 174.31,-21.82 19.41,-11.92 62.6,-9.47 80.61,-13.9 31.91,-7.88 12.2,4.63 17.93,-13.82 -17.69,-12.93 -60.92,3.12 -104.54,4.02l-171.77 21.09c-45.97,6.05 -42.03,10.7 -78.1,-6.31 -92.06,-43.36 -246.08,-112.81 -321.1,-172.7 41.86,2.5 145.5,-21.78 167.38,-10.48 10.33,-7.77 -0.3,-3.38 17.77,-8.37l104.76 -10.54c24.38,-2.3 27.27,2.63 31.68,-14.87 -14.94,-12.22 -77.54,0.77 -108.27,4.24 -2.88,0.32 -19.26,1.63 -21.24,1.4 -26.77,-2.95 -7.21,2.39 -19.48,-6.52 -42.42,21.8 -122.06,18.29 -176.2,25.95 -38.84,5.49 -97.21,-44.55 -128.8,-69.55l-113.58 -90.28c-29.81,-23.95 -84.06,-69.34 -105.36,-98.11l-17.11 8.48c17.45,6 17.97,13.84 31.16,26.73 12.03,11.75 23.99,18.14 36.86,29.57 28.73,25.54 12.18,17.32 66.5,59.93 195.9,153.74 231.97,176.1 463.97,296.14 211.56,109.45 530.92,202.38 797.47,217.61l-0.02 0 -0.02 -0.05z"/>
    <path class="fil6" d="M352.59 15890.28c-1.27,-27.55 -6.72,-10.42 9.27,-11.38l-108.05 -215.78c34.6,15.86 83.74,55.8 120.81,79.5 33.14,21.15 102,52.55 127.74,75.94 22.68,20.64 145.58,190 173.17,226.91l14.68 14.76c15.99,18.47 33.31,57.01 46.35,41.45 5.27,-15.69 -40.67,-54.4 -48.38,-77.88 -24.77,-21.28 -135.1,-171.02 -140.01,-181.61 30.15,9.71 177.6,80.49 264.72,111.86 40.97,14.76 28.95,15.28 55.52,37.79l142.92 130.37 46.18 35.49c10.7,-10.93 8.33,-1.76 5.14,-13.9l-34.11 -36.97 -140.35 -123.89c32.22,1.49 114.47,31.22 152.43,40.59 50.12,12.35 114.4,18.38 152.17,39.94 9.94,-7.04 -0.5,-9.45 45,-1.46 17.28,3.03 35.94,5.87 52.4,8 25.16,3.25 88.88,18.19 105.13,2.99l0.64 -0.5c-266.53,-15.22 -585.91,-108.16 -797.47,-217.61 -232.03,-120.02 -268.07,-142.4 -463.97,-296.14 -54.32,-42.61 -37.77,-34.39 -66.5,-59.93 -12.85,-11.43 -24.84,-17.82 -36.86,-29.57 -13.21,-12.89 -13.71,-20.72 -31.16,-26.73 3.16,18.03 9.53,15.26 23.8,28.9 10.5,10.05 13.45,15.45 24.43,24.9 10.09,8.69 17.43,13.54 27.55,22.27 10.42,8.99 14.7,15.9 24.58,24.71l110.78 87.56c29.37,30.21 112.59,231.66 141.43,259.47l0 0 0.02 -0.04z"/>
    <path class="fil7" d="M8925.09 14756.5c62.04,8.8 123.81,19.24 185.4,31.35 19.65,4.07 39.53,8.18 59.31,12.52 54.6,11.99 108.98,25.35 163.1,40.13 17.77,4.86 35.49,9.99 53.2,15.17 39.21,11.38 78.14,23.63 117.02,36.54l-2.86 8.59 -2.8 8.39c-0.67,-0.26 -1.18,-0.32 -1.87,-0.6 -36.95,-12.31 -74.03,-23.89 -111.3,-34.88 -7.6,-2.32 -15.3,-4.52 -22.9,-6.74 -64.24,-18.38 -128.95,-34.69 -193.92,-48.92 -7.12,-1.59 -14.44,-3.21 -21.69,-4.74 -72.69,-15.51 -146.19,-28.43 -219.74,-38.8 -8.59,-1.27 -17.24,-2.32 -25.83,-3.53 -76.55,-10.11 -153.31,-17.43 -230.05,-22.04 -7.6,-0.54 -15.11,-0.92 -22.77,-1.34 -70.29,-3.85 -140.72,-5.19 -211.15,-4.2 -9.66,0.06 -19.58,0.19 -29.29,0.6 -73.75,1.59 -147.65,5.66 -221.27,12.59 -13.77,1.05 -27.42,2.54 -41.28,4.07 -65.38,6.74 -130.6,15.64 -195.64,26.49 -44.46,7.6 -88.73,15.9 -132.93,25.29l-1.81 -8.65 -2 -8.72c43.82,-9.25 87.87,-17.65 132,-25.09 58.77,-9.99 117.89,-18.16 176.94,-24.71 20.96,-2.32 42.07,-4.52 63.18,-6.52 63.57,-5.92 127.48,-9.79 191.38,-11.71 20.16,-0.67 40.13,-1.21 60.3,-1.53 58.19,-0.73 116.36,0.06 174.4,2.54 19.43,0.8 39.02,1.66 58.38,2.86 65.57,3.85 131.06,9.73 196.3,17.71 20.1,2.32 40.35,5.06 60.39,7.79l-0.19 0.04 -0.02 0z"/>
    <path class="fil7" d="M7943.95 14770.08c10.65,3.12 17.11,5.53 18.31,5.85l0.13 0.19c-4.46,3.85 -9.19,7.66 -13.77,11.1 -230.05,184.86 -449.47,106.37 -439.68,99.85 174.33,-174.61 374.23,-134.74 434.94,-117.02l0.06 0 0 0.02z"/>
    <path class="fil7" d="M8187.99 14747.38c0,0 -99.38,-239.3 -345.83,-190.86 0,0 95.31,203.82 345.83,190.86z"/>
    <path class="fil7" d="M8187.99 14747.38l0 0.13c-0.32,0.99 -0.92,4.2 -2.39,9.19 -12.46,40.35 -73.62,201.17 -284.52,252.88 0,0 29.22,-172.93 243.24,-248.77 13.64,-4.86 28.02,-9.25 43.13,-13.32 0.19,0 0.41,-0.13 0.54,-0.13l0 0.02z"/>
    <path class="fil7" d="M8437.15 14734.53c0,0 -32.47,-222.6 -278.73,-234.52 0,0 46.33,229.12 278.73,234.52z"/>
    <path class="fil7" d="M8437.28 14734.53c0,0 -0.26,3.21 -1.12,8.99 -6.13,36.41 -42.33,175.54 -246.23,247.09 0,0 16.44,-176.4 216.94,-246.49 9.66,-3.6 19.84,-6.87 30.43,-9.58l0 0 -0.02 -0.02z"/>
    <path class="fil7" d="M8671 14740c0,0 -55.78,-229.06 -248.96,-258.09 0,0 9.58,234.59 248.96,258.09z"/>
    <path class="fil7" d="M8670.75 14739.93l0.19 0c0,0 -0.13,3.19 -0.92,8.99 -5.12,34.41 -36.41,160.63 -216.4,233.12 0,0 10.46,-169.75 193.7,-234.37 7.6,-2.86 15.3,-5.34 23.5,-7.73l-0.06 0 -0 -0.02z"/>
    <path class="fil7" d="M8928.69 14765.88c0,0 -66.5,-190.71 -235.04,-232.85 0,0 10.24,192.84 235.04,232.85z"/>
    <path class="fil7" d="M8928.43 14765.95l0.19 0c0,0 -0.8,3.12 -2.67,8.59 -12.18,36.07 -71.83,175.19 -267.19,199.77 0,0 50.4,-163.23 241.37,-203.37 9.06,-2.07 18.64,-3.6 28.36,-5.06l-0.06 0.06 0 0z"/>
    <path class="fil7" d="M9171.71 14809.89c0,0 -35.81,-223.14 -224.54,-237.17 0,0 23.31,185.91 224.54,237.17z"/>
    <path class="fil7" d="M9171.58 14809.96l0 0.19c-0.47,0.8 -1.81,3.66 -4.2,7.98 -17.84,33.08 -97.05,155.98 -289.57,177.93 0,0 86.02,-152.9 267.8,-182.66 8.24,-1.53 16.85,-2.61 25.57,-3.34 0.19,-0.13 0.19,-0.13 0.41,-0.13l0 0.02z"/>
    <path class="fil8" d="M9503.16 14892.23l-2.86 8.59 -2.8 8.39c-0.67,-0.26 -1.18,-0.32 -1.87,-0.6 -36.95,-12.31 -74.03,-23.89 -111.3,-34.88 -7.6,-2.32 -15.3,-4.52 -22.9,-6.74 -64.24,-18.38 -128.95,-34.69 -193.92,-48.92 -7.12,-1.59 -14.44,-3.21 -21.69,-4.74 -72.69,-15.51 -146.19,-28.43 -219.74,-38.8 -8.59,-1.27 -17.24,-2.32 -25.83,-3.53 -76.55,-10.11 -153.31,-17.43 -230.05,-22.04 -7.6,-0.54 -15.11,-0.92 -22.77,-1.34 -70.29,-3.85 -140.72,-5.19 -211.15,-4.2 -9.66,0.06 -19.58,0.19 -29.29,0.6 -73.75,1.59 -147.65,5.66 -221.27,12.59 -13.77,1.05 -27.42,2.54 -41.28,4.07 -65.38,6.74 -130.6,15.64 -195.64,26.49 -44.46,7.6 -88.73,15.9 -132.93,25.29l-1.81 -8.65 -0.32 -1.34c352.54,-74.63 976.95,-139.6 1689.54,89.74l-0.13 -0.02 0 0.02z"/>
    <path class="fil8" d="M7960.07 14775.2l2.2 0.73 0.13 0.19c-4.46,3.85 -9.19,7.66 -13.77,11.1 -230.05,184.86 -449.47,106.37 -439.68,99.85 0,0 169.15,-66.3 451.12,-111.9l0 0.02z"/>
    <path class="fil8" d="M8187.99 14747.38l-0.26 -0.67 -11.86 1.05c4,-0.06 8.05,-0.26 12.12,-0.47l0 0.06 0 0.02z"/>
    <path class="fil8" d="M8187.99 14747.38l0 0.13c-0.32,0.99 -0.92,4.2 -2.39,9.19 -12.46,40.35 -73.62,201.17 -284.52,252.88 0,0 29.22,-172.93 243.24,-248.77 13.64,-4.86 28.02,-9.25 43.13,-13.32 0.19,0 0.41,-0.13 0.54,-0.13l0 0.02z"/>
    <path class="fil8" d="M8437.15 14734.53l-0.13 -0.86 -14.05 0.19c4.65,0.26 9.38,0.54 14.18,0.67z"/>
    <path class="fil8" d="M8437.28 14734.53c0,0 -0.26,3.21 -1.12,8.99 -6.13,36.41 -42.33,175.54 -246.23,247.09 0,0 16.44,-176.4 216.94,-246.49 9.66,-3.6 19.84,-6.87 30.43,-9.58l0 0 -0.02 -0.02z"/>
    <path class="fil8" d="M8671 14740l-0.47 -1.72c-7.19,-0.41 -14.37,-0.73 -21.5,-1.12 7.12,1.12 14.44,2.13 21.97,2.86l0 0 0 -0.02z"/>
    <path class="fil8" d="M8670.75 14739.93l0.19 0c0,0 -0.13,3.19 -0.92,8.99 -5.12,34.41 -36.41,160.63 -216.4,233.12 0,0 10.46,-169.75 193.7,-234.37 7.6,-2.86 15.3,-5.34 23.5,-7.73l-0.06 0 -0 -0.02z"/>
    <path class="fil8" d="M8928.69 14765.88c0,0 -0.41,-1.21 -1.27,-3.47 -11.04,-1.46 -22.1,-2.86 -33.08,-4.26 10.85,2.99 22.3,5.6 34.35,7.73l0 0z"/>
    <path class="fil8" d="M8928.43 14765.95l0.19 0c0,0 -0.8,3.12 -2.67,8.59 -12.18,36.07 -71.83,175.19 -267.19,199.77 0,0 50.4,-163.23 241.37,-203.37 9.06,-2.07 18.64,-3.6 28.36,-5.06l-0.06 0.06 0 0z"/>
    <path class="fil8" d="M9171.71 14809.89c0,0 -0.32,-2.07 -1.05,-5.79 -14.57,-3.06 -29.16,-6 -43.6,-8.85 13.84,5.6 28.69,10.52 44.74,14.63l-0.06 0 -0.02 0z"/>
    <path class="fil8" d="M9171.58 14809.96l0 0.19c-0.47,0.8 -1.81,3.66 -4.2,7.98 -17.84,33.08 -97.05,155.98 -289.57,177.93 0,0 86.02,-152.9 267.8,-182.66 8.24,-1.53 16.85,-2.61 25.57,-3.34 0.19,-0.13 0.19,-0.13 0.41,-0.13l0 0.02z"/>
    <path class="fil0" d="M541.6 17377.77c0,4.99 4.05,9.04 9.04,9.04 4.99,0 9.04,-4.05 9.04,-9.04 0,-4.99 -4.05,-9.04 -9.04,-9.04 -4.99,0 -9.04,4.05 -9.04,9.04z"/>
    <path class="fil0" d="M433.29 17377.77c0,4.99 4.05,9.04 9.04,9.04 4.99,0 9.04,-4.05 9.04,-9.04 0,-4.99 -4.05,-9.04 -9.04,-9.04 -4.99,0 -9.04,4.05 -9.04,9.04z"/>
    <path class="fil0" d="M324.98 17377.77c0,4.99 4.05,9.04 9.04,9.04 4.99,0 9.04,-4.05 9.04,-9.04 0,-4.99 -4.05,-9.04 -9.04,-9.04 -4.99,0 -9.04,4.05 -9.04,9.04z"/>
    <path class="fil0" d="M216.65 17377.77c0,4.99 4.05,9.04 9.04,9.04 4.99,0 9.04,-4.05 9.04,-9.04 0,-4.99 -4.05,-9.04 -9.04,-9.04 -4.99,0 -9.04,4.05 -9.04,9.04z"/>
    <path class="fil0" d="M108.34 17377.77c0,4.99 4.05,9.04 9.04,9.04 4.99,0 9.04,-4.05 9.04,-9.04 0,-4.99 -4.05,-9.04 -9.04,-9.04 -4.99,0 -9.04,4.05 -9.04,9.04z"/>
    <path class="fil0" d="M0.03 17377.77c0,4.99 4.05,9.04 9.04,9.04 4.99,0 9.04,-4.05 9.04,-9.04 0,-4.99 -4.05,-9.04 -9.04,-9.04 -4.99,0 -9.04,4.05 -9.04,9.04z"/>
    <path class="fil0" d="M8153.71 16939.97c0,4.99 4.05,9.04 9.04,9.04 4.99,0 9.04,-4.05 9.04,-9.04 0,-4.99 -4.05,-9.04 -9.04,-9.04 -4.99,0 -9.04,4.05 -9.04,9.04z"/>
    <path class="fil0" d="M8153.71 16805.77c0,4.99 4.05,9.04 9.04,9.04 4.99,0 9.04,-4.05 9.04,-9.04 0,-4.99 -4.05,-9.04 -9.04,-9.04 -4.99,0 -9.04,4.05 -9.04,9.04z"/>
    <path class="fil0" d="M8153.71 16671.48c0,4.99 4.05,9.04 9.04,9.04 4.99,0 9.04,-4.05 9.04,-9.04 0,-4.99 -4.05,-9.04 -9.04,-9.04 -4.99,0 -9.04,4.05 -9.04,9.04z"/>
    <path class="fil0" d="M8153.71 16537.22c0,4.99 4.05,9.04 9.04,9.04 4.99,0 9.04,-4.05 9.04,-9.04 0,-4.99 -4.05,-9.04 -9.04,-9.04 -4.99,0 -9.04,4.05 -9.04,9.04z"/>
    <path class="fil0" d="M8045.39 16939.97c0,4.99 4.05,9.04 9.04,9.04 4.99,0 9.04,-4.05 9.04,-9.04 0,-4.99 -4.05,-9.04 -9.04,-9.04 -4.99,0 -9.04,4.05 -9.04,9.04z"/>
    <path class="fil0" d="M8045.39 16805.77c0,4.99 4.05,9.04 9.04,9.04 4.99,0 9.04,-4.05 9.04,-9.04 0,-4.99 -4.05,-9.04 -9.04,-9.04 -4.99,0 -9.04,4.05 -9.04,9.04z"/>
    <path class="fil0" d="M8045.39 16671.48c0,4.99 4.05,9.04 9.04,9.04 4.99,0 9.04,-4.05 9.04,-9.04 0,-4.99 -4.05,-9.04 -9.04,-9.04 -4.99,0 -9.04,4.05 -9.04,9.04z"/>
    <path class="fil0" d="M8045.39 16537.22c0,4.99 4.05,9.04 9.04,9.04 4.99,0 9.04,-4.05 9.04,-9.04 0,-4.99 -4.05,-9.04 -9.04,-9.04 -4.99,0 -9.04,4.05 -9.04,9.04z"/>
    <path class="fil0" d="M7937.06 16939.97c0,4.99 4.05,9.04 9.04,9.04 4.99,0 9.04,-4.05 9.04,-9.04 0,-4.99 -4.05,-9.04 -9.04,-9.04 -4.99,0 -9.04,4.05 -9.04,9.04z"/>
    <path class="fil0" d="M7937.06 16805.77c0,4.99 4.05,9.04 9.04,9.04 4.99,0 9.04,-4.05 9.04,-9.04 0,-4.99 -4.05,-9.04 -9.04,-9.04 -4.99,0 -9.04,4.05 -9.04,9.04z"/>
    <path class="fil0" d="M7937.06 16671.48c0,4.99 4.05,9.04 9.04,9.04 4.99,0 9.04,-4.05 9.04,-9.04 0,-4.99 -4.05,-9.04 -9.04,-9.04 -4.99,0 -9.04,4.05 -9.04,9.04z"/>
    <path class="fil0" d="M7937.06 16537.22c0,4.99 4.05,9.04 9.04,9.04 4.99,0 9.04,-4.05 9.04,-9.04 0,-4.99 -4.05,-9.04 -9.04,-9.04 -4.99,0 -9.04,4.05 -9.04,9.04z"/>
    <path class="fil0" d="M7828.75 16939.97c0,4.99 4.05,9.04 9.04,9.04 4.99,0 9.04,-4.05 9.04,-9.04 0,-4.99 -4.05,-9.04 -9.04,-9.04 -4.99,0 -9.04,4.05 -9.04,9.04z"/>
    <path class="fil0" d="M7828.75 16805.77c0,4.99 4.05,9.04 9.04,9.04 4.99,0 9.04,-4.05 9.04,-9.04 0,-4.99 -4.05,-9.04 -9.04,-9.04 -4.99,0 -9.04,4.05 -9.04,9.04z"/>
    <path class="fil0" d="M7828.75 16671.48c0,4.99 4.05,9.04 9.04,9.04 4.99,0 9.04,-4.05 9.04,-9.04 0,-4.99 -4.05,-9.04 -9.04,-9.04 -4.99,0 -9.04,4.05 -9.04,9.04z"/>
    <path class="fil0" d="M7828.75 16537.22c0,4.99 4.05,9.04 9.04,9.04 4.99,0 9.04,-4.05 9.04,-9.04 0,-4.99 -4.05,-9.04 -9.04,-9.04 -4.99,0 -9.04,4.05 -9.04,9.04z"/>
    <path class="fil0" d="M7720.44 16939.97c0,4.99 4.05,9.04 9.04,9.04 4.99,0 9.04,-4.05 9.04,-9.04 0,-4.99 -4.05,-9.04 -9.04,-9.04 -4.99,0 -9.04,4.05 -9.04,9.04z"/>
    <path class="fil0" d="M7720.44 16805.77c0,4.99 4.05,9.04 9.04,9.04 4.99,0 9.04,-4.05 9.04,-9.04 0,-4.99 -4.05,-9.04 -9.04,-9.04 -4.99,0 -9.04,4.05 -9.04,9.04z"/>
    <path class="fil0" d="M7720.44 16671.48c0,4.99 4.05,9.04 9.04,9.04 4.99,0 9.04,-4.05 9.04,-9.04 0,-4.99 -4.05,-9.04 -9.04,-9.04 -4.99,0 -9.04,4.05 -9.04,9.04z"/>
    <path class="fil0" d="M7720.44 16537.22c0,4.99 4.05,9.04 9.04,9.04 4.99,0 9.04,-4.05 9.04,-9.04 0,-4.99 -4.05,-9.04 -9.04,-9.04 -4.99,0 -9.04,4.05 -9.04,9.04z"/>
    <path class="fil0" d="M7612.13 16939.97c0,4.99 4.05,9.04 9.04,9.04 4.99,0 9.04,-4.05 9.04,-9.04 0,-4.99 -4.05,-9.04 -9.04,-9.04 -4.99,0 -9.04,4.05 -9.04,9.04z"/>
    <path class="fil0" d="M7612.13 16805.77c0,4.99 4.05,9.04 9.04,9.04 4.99,0 9.04,-4.05 9.04,-9.04 0,-4.99 -4.05,-9.04 -9.04,-9.04 -4.99,0 -9.04,4.05 -9.04,9.04z"/>
    <path class="fil0" d="M7612.13 16671.48c0,4.99 4.05,9.04 9.04,9.04 4.99,0 9.04,-4.05 9.04,-9.04 0,-4.99 -4.05,-9.04 -9.04,-9.04 -4.99,0 -9.04,4.05 -9.04,9.04z"/>
    <path class="fil0" d="M7612.13 16537.22c0,4.99 4.05,9.04 9.04,9.04 4.99,0 9.04,-4.05 9.04,-9.04 0,-4.99 -4.05,-9.04 -9.04,-9.04 -4.99,0 -9.04,4.05 -9.04,9.04z"/>
    <line class="fil1 str0" x1="6565.36" y1="16756.85" x2="6720.11" y2= "16911.6" />
    <line class="fil1 str0" x1="6720.11" y1="16756.79" x2="6565.36" y2= "16911.54" />
    <line class="fil1 str1" x1="2005.52" y1="17043.74" x2="2115.3" y2= "17153.51" />
    <line class="fil1 str1" x1="2115.3" y1="17043.69" x2="2005.52" y2= "17153.47" />
    <path class="fil2" d="M8550.64 16975.41l-73.77 0c-17.84,0 -32.32,-15.73 -32.32,-35.1l0 -2.93c0,-19.39 14.46,-35.1 32.32,-35.1l73.77 0c17.84,0 32.28,15.69 32.28,35.1l0 2.93c0,19.37 -14.44,35.1 -32.28,35.1z"/>
    <path class="fil2" d="M9264.79 16975.41l-560.88 0c-17.84,0 -32.3,-15.73 -32.3,-35.1l0 -2.93c0,-19.39 14.46,-35.1 32.3,-35.1l560.88 0c17.84,0 32.32,15.69 32.32,35.1l0 2.93c0,19.37 -14.46,35.1 -32.32,35.1z"/>
   </g>
   <g>
    <path class="fil0" d="M541.57 18589.04c0,4.99 4.05,9.04 9.04,9.04 4.99,0 9.04,-4.05 9.04,-9.04 0,-4.99 -4.05,-9.04 -9.04,-9.04 -4.99,0 -9.04,4.05 -9.04,9.04z"/>
    <path class="fil0" d="M541.57 18454.84c0,4.99 4.05,9.04 9.04,9.04 4.99,0 9.04,-4.05 9.04,-9.04 0,-4.99 -4.05,-9.04 -9.04,-9.04 -4.99,0 -9.04,4.05 -9.04,9.04z"/>
    <path class="fil0" d="M541.57 18320.55c0,4.99 4.05,9.04 9.04,9.04 4.99,0 9.04,-4.05 9.04,-9.04 0,-4.99 -4.05,-9.04 -9.04,-9.04 -4.99,0 -9.04,4.05 -9.04,9.04z"/>
    <path class="fil0" d="M541.57 18186.29c0,4.99 4.05,9.04 9.04,9.04 4.99,0 9.04,-4.05 9.04,-9.04 0,-4.99 -4.05,-9.04 -9.04,-9.04 -4.99,0 -9.04,4.05 -9.04,9.04z"/>
    <path class="fil0" d="M433.26 18589.04c0,4.99 4.05,9.04 9.04,9.04 4.99,0 9.04,-4.05 9.04,-9.04 0,-4.99 -4.05,-9.04 -9.04,-9.04 -4.99,0 -9.04,4.05 -9.04,9.04z"/>
    <path class="fil0" d="M433.26 18454.84c0,4.99 4.05,9.04 9.04,9.04 4.99,0 9.04,-4.05 9.04,-9.04 0,-4.99 -4.05,-9.04 -9.04,-9.04 -4.99,0 -9.04,4.05 -9.04,9.04z"/>
    <path class="fil0" d="M433.26 18320.55c0,4.99 4.05,9.04 9.04,9.04 4.99,0 9.04,-4.05 9.04,-9.04 0,-4.99 -4.05,-9.04 -9.04,-9.04 -4.99,0 -9.04,4.05 -9.04,9.04z"/>
    <path class="fil0" d="M433.26 18186.29c0,4.99 4.05,9.04 9.04,9.04 4.99,0 9.04,-4.05 9.04,-9.04 0,-4.99 -4.05,-9.04 -9.04,-9.04 -4.99,0 -9.04,4.05 -9.04,9.04z"/>
    <path class="fil0" d="M324.95 18589.04c0,4.99 4.05,9.04 9.04,9.04 4.99,0 9.04,-4.05 9.04,-9.04 0,-4.99 -4.05,-9.04 -9.04,-9.04 -4.99,0 -9.04,4.05 -9.04,9.04z"/>
    <path class="fil0" d="M324.95 18454.84c0,4.99 4.05,9.04 9.04,9.04 4.99,0 9.04,-4.05 9.04,-9.04 0,-4.99 -4.05,-9.04 -9.04,-9.04 -4.99,0 -9.04,4.05 -9.04,9.04z"/>
    <path class="fil0" d="M324.95 18320.55c0,4.99 4.05,9.04 9.04,9.04 4.99,0 9.04,-4.05 9.04,-9.04 0,-4.99 -4.05,-9.04 -9.04,-9.04 -4.99,0 -9.04,4.05 -9.04,9.04z"/>
    <path class="fil0" d="M324.95 18186.29c0,4.99 4.05,9.04 9.04,9.04 4.99,0 9.04,-4.05 9.04,-9.04 0,-4.99 -4.05,-9.04 -9.04,-9.04 -4.99,0 -9.04,4.05 -9.04,9.04z"/>
    <path class="fil0" d="M216.62 18589.04c0,4.99 4.05,9.04 9.04,9.04 4.99,0 9.04,-4.05 9.04,-9.04 0,-4.99 -4.05,-9.04 -9.04,-9.04 -4.99,0 -9.04,4.05 -9.04,9.04z"/>
    <path class="fil0" d="M216.62 18454.84c0,4.99 4.05,9.04 9.04,9.04 4.99,0 9.04,-4.05 9.04,-9.04 0,-4.99 -4.05,-9.04 -9.04,-9.04 -4.99,0 -9.04,4.05 -9.04,9.04z"/>
    <path class="fil0" d="M216.62 18320.55c0,4.99 4.05,9.04 9.04,9.04 4.99,0 9.04,-4.05 9.04,-9.04 0,-4.99 -4.05,-9.04 -9.04,-9.04 -4.99,0 -9.04,4.05 -9.04,9.04z"/>
    <path class="fil0" d="M216.62 18186.29c0,4.99 4.05,9.04 9.04,9.04 4.99,0 9.04,-4.05 9.04,-9.04 0,-4.99 -4.05,-9.04 -9.04,-9.04 -4.99,0 -9.04,4.05 -9.04,9.04z"/>
    <path class="fil0" d="M108.31 18589.04c0,4.99 4.05,9.04 9.04,9.04 4.99,0 9.04,-4.05 9.04,-9.04 0,-4.99 -4.05,-9.04 -9.04,-9.04 -4.99,0 -9.04,4.05 -9.04,9.04z"/>
    <path class="fil0" d="M108.31 18454.84c0,4.99 4.05,9.04 9.04,9.04 4.99,0 9.04,-4.05 9.04,-9.04 0,-4.99 -4.05,-9.04 -9.04,-9.04 -4.99,0 -9.04,4.05 -9.04,9.04z"/>
    <path class="fil0" d="M108.31 18320.55c0,4.99 4.05,9.04 9.04,9.04 4.99,0 9.04,-4.05 9.04,-9.04 0,-4.99 -4.05,-9.04 -9.04,-9.04 -4.99,0 -9.04,4.05 -9.04,9.04z"/>
    <path class="fil0" d="M108.31 18186.29c0,4.99 4.05,9.04 9.04,9.04 4.99,0 9.04,-4.05 9.04,-9.04 0,-4.99 -4.05,-9.04 -9.04,-9.04 -4.99,0 -9.04,4.05 -9.04,9.04z"/>
    <path class="fil0" d="M-0 18589.04c0,4.99 4.05,9.04 9.04,9.04 4.99,0 9.04,-4.05 9.04,-9.04 0,-4.99 -4.05,-9.04 -9.04,-9.04 -4.99,0 -9.04,4.05 -9.04,9.04z"/>
    <path class="fil0" d="M-0 18454.84c0,4.99 4.05,9.04 9.04,9.04 4.99,0 9.04,-4.05 9.04,-9.04 0,-4.99 -4.05,-9.04 -9.04,-9.04 -4.99,0 -9.04,4.05 -9.04,9.04z"/>
    <path class="fil0" d="M-0 18320.55c0,4.99 4.05,9.04 9.04,9.04 4.99,0 9.04,-4.05 9.04,-9.04 0,-4.99 -4.05,-9.04 -9.04,-9.04 -4.99,0 -9.04,4.05 -9.04,9.04z"/>
    <path class="fil0" d="M-0 18186.29c0,4.99 4.05,9.04 9.04,9.04 4.99,0 9.04,-4.05 9.04,-9.04 0,-4.99 -4.05,-9.04 -9.04,-9.04 -4.99,0 -9.04,4.05 -9.04,9.04z"/>
    <line class="fil1 str0" x1="70.5" y1="20036" x2="223.61" y2= "20189.14" />
    <line class="fil1 str0" x1="223.61" y1="20035.96" x2="70.5" y2= "20189.07" />
    <line class="fil1 str2" x1="9296.37" y1="19543.41" x2="9433.73" y2= "19680.77" />
    <line class="fil1 str2" x1="9433.73" y1="19543.36" x2="9296.37" y2= "19680.73" />
    <path class="fil2" d="M5140.14 20581.43l-73.77 0c-17.84,0 -32.3,-15.73 -32.3,-35.1l0 -2.93c0,-19.39 14.46,-35.1 32.3,-35.1l73.77 0c17.84,0 32.28,15.69 32.28,35.1l0 2.93c0,19.37 -14.44,35.1 -32.28,35.1z"/>
    <path class="fil2" d="M5854.28 20581.43l-560.88 0c-17.84,0 -32.32,-15.73 -32.32,-35.1l0 -2.93c0,-19.39 14.46,-35.1 32.32,-35.1l560.88 0c17.84,0 32.3,15.69 32.3,35.1l0 2.93c0,19.37 -14.46,35.1 -32.3,35.1z"/>
    <path class="fil1 str3" d="M6251.2 18651.42c-61.03,0 -61.03,-65.94 -122.06,-65.94 -61.03,0 -61.03,65.94 -122.08,65.94 -61.03,0 -61.03,-65.94 -122.04,-65.94 -61.03,0 -61.03,65.94 -122.04,65.94 -61.05,0 -61.05,-65.94 -122.08,-65.94 -61.05,0 -61.05,65.94 -122.12,65.94 -61.03,0 -61.03,-65.94 -122.08,-65.94 -61.07,0 -61.07,65.94 -122.17,65.94 -61.07,0 -61.07,-65.94 -122.17,-65.94"/>
    <path class="fil1 str3" d="M6251.2 18540.32c-61.03,0 -61.03,-65.94 -122.06,-65.94 -61.03,0 -61.03,65.94 -122.08,65.94 -61.03,0 -61.03,-65.94 -122.04,-65.94 -61.03,0 -61.03,65.94 -122.04,65.94 -61.05,0 -61.05,-65.94 -122.08,-65.94 -61.05,0 -61.05,65.94 -122.12,65.94 -61.03,0 -61.03,-65.94 -122.08,-65.94 -61.07,0 -61.07,65.94 -122.17,65.94 -61.07,0 -61.07,-65.94 -122.17,-65.94"/>
    <path class="fil7" d="M292.5 21293.07c-108.07,-36.22 -194.5,-105.32 -237.99,-190.22 0,0 -43.45,-69.23 -52.36,-130.58 -8.91,-61.31 13,-140.18 13,-140.18 17.58,-93.8 80.7,-185.03 173.99,-251.03 17.75,-12.57 37.12,-24.53 59.5,-30.58 22.42,-6.2 48.42,-5.49 65.57,5.49 26.25,16.85 22.17,50.4 6.67,76.01 -15.45,25.52 -40.09,48.29 -51.26,75 -11.04,26.75 -2.04,61.03 31.46,68.11 27.39,5.66 58.15,-9.99 73.47,-29.89 15.45,-19.84 19.41,-43.06 24.64,-65.31 7.73,-32.41 20.81,-66.97 53.97,-89.22 32.99,-22.21 91.22,-23.26 108.55,5.36 11.56,19.2 1.08,43.19 -13.04,62.9 -14.14,19.71 -32.36,38.73 -37.68,60.43 -5.32,21.69 8.99,47.47 36.95,48.66 19.07,0.9 37.55,-9.94 48.03,-23.05 10.35,-13.13 14.31,-28.23 18.64,-43.02 9.68,-32.84 23.78,-67.77 57.76,-90.21 33.85,-22.42 92.97,-23.86 111,5.06 11.86,18.94 2.54,42.97 -11.73,62.65 -14.23,19.58 -33.25,37.59 -42.55,58.64 -9.3,21.02 -5.45,47.34 18.36,57.33 33.81,14.23 74.95,-12.07 113.39,-22.34 16.36,-4.37 33.33,-5.32 49.6,-3.36 33.68,4.02 54.49,28.67 59.68,56.41 5.77,29.89 -6.5,63.27 -40.13,77.88 -15.04,6.54 -31.63,10.48 -48.38,11.04 -39.92,1.27 -86.68,-12.05 -115.05,11.43 -20.12,16.36 -16.27,42.76 -1.4,60.26 14.96,17.49 38.26,29.22 57.5,43.84 19.24,14.74 35.12,35.04 29.09,56.68 -9.17,32.97 -66.13,48.72 -105.02,36.91 -38.86,-11.77 -62.3,-41.1 -80.98,-69.81 -8.33,-12.83 -16.4,-26.17 -30.11,-35.72 -13.75,-9.56 -34.52,-14.61 -52.49,-8.24 -26.49,9.25 -32.75,37.96 -21.54,57.29 11.21,19.24 34.2,32.24 53.39,46.98 19.2,14.83 36,34.78 30.32,56.49 -8.41,32.36 -64.52,48.16 -102.52,36.52 -37.96,-11.77 -60.26,-41.06 -76.95,-69.85 -11.43,-19.84 -21.86,-40.84 -42.22,-55.54 -20.42,-14.57 -54.36,-20.72 -78.87,-7.32 -30.11,16.4 -28.92,51.86 -10.7,74.24 18.14,22.47 48.29,37.04 70.41,57.16 22.17,19.99 35.46,50.96 15.15,74.69 -13.21,15.54 -37.96,23.61 -61.16,24.3 -23.22,0.56 -45.19,-5.27 -65.87,-12.18l-0.09 -0.09 -0.01 0.03z"/>
    <path class="fil8" d="M2.04 20971.52c-8.63,-61.2 13.09,-139.43 13.09,-139.43 17.58,-93.8 80.72,-185.03 173.99,-251.03 17.75,-12.57 37.12,-24.51 59.5,-30.58 22.42,-6.2 48.42,-5.49 65.57,5.49 26.25,16.83 22.17,50.4 6.67,75.99 -15.45,25.52 -40.09,48.29 -51.26,75 -11.04,26.75 -2.04,61.03 31.46,68.11 27.39,5.66 58.15,-9.99 73.47,-29.89 15.45,-19.86 19.41,-43.06 24.66,-65.31 7.73,-32.41 20.81,-66.97 53.97,-89.22 32.97,-22.21 91.22,-23.26 108.55,5.36 11.56,19.2 1.08,43.19 -13.04,62.9 -14.14,19.71 -32.36,38.73 -37.7,60.43 -5.32,21.69 8.99,47.47 36.95,48.64 19.07,0.92 37.55,-9.94 48.03,-23.03 10.35,-13.13 14.31,-28.23 18.64,-43.02 9.68,-32.84 23.78,-67.77 57.76,-90.21 33.85,-22.42 92.97,-23.86 111,5.06 11.86,18.94 2.54,42.97 -11.73,62.65 -14.23,19.58 -33.25,37.59 -42.55,58.64 -9.3,21.02 -5.45,47.34 18.38,57.33 33.81,14.23 74.95,-12.1 113.39,-22.34 16.36,-4.37 33.33,-5.32 49.6,-3.36 33.68,4.02 54.49,28.67 59.68,56.41 0.22,1.1 0.39,2.17 0.56,3.27l-968.64 142.14 0 0 0.01 0.02z"/>
    <path class="fil9" d="M282.43 20934.35c35.68,-4.88 71.34,-9.99 107.02,-15.15l42.89 57.37c14.91,19.8 29.63,39.83 44.72,59.5l45.06 59.2c15.24,19.58 30.28,39.3 45.64,58.81 -14.18,-20.38 -28.71,-40.48 -43.02,-60.73l-43.58 -60.34c-14.44,-20.16 -29.31,-40.01 -43.99,-60.04l-40.35 -54.79c33.38,-4.8 66.71,-9.64 100.13,-14.4 39.45,-6.02 78.91,-11.94 118.36,-17.88 13.21,16.48 26.66,32.8 39.96,49.21 13.92,17.07 27.7,34.24 41.79,51.18l42.18 50.87c14.27,16.81 28.32,33.76 42.76,50.4 -13.21,-17.62 -26.79,-35.04 -40.18,-52.53l-40.74 -52.06c-13.58,-17.37 -27.44,-34.47 -41.15,-51.76 -12.44,-15.49 -24.75,-31.05 -37.21,-46.5 29.46,-4.5 58.94,-8.99 88.34,-13.62l106.98 -17.07c35.64,-5.98 71.3,-11.69 106.85,-17.93 -35.87,4.28 -71.64,9.12 -107.45,13.71l-107.32 14.61c-29.42,4.07 -58.77,8.2 -88.17,12.44 16.1,-34.95 32.49,-69.72 48.25,-104.8l25.13 -55.76c8.16,-18.68 16.53,-37.25 24.53,-56.02 -9.3,18.14 -18.25,36.47 -27.35,54.66l-26.75 54.96c-17.49,35.87 -34.28,71.98 -51.47,107.99 -39.58,5.68 -79.11,11.43 -118.66,17.07 -33.33,5.06 -66.63,10.07 -99.96,15.11l23.13 -63.14c8.41,-23.09 17.02,-46.07 25.18,-69.23l24.73 -69.36c8.03,-23.22 16.27,-46.33 24.12,-69.62 -9.25,22.77 -18.06,45.69 -27.09,68.5l-26.49 68.76c-8.91,22.9 -17.41,45.95 -26.04,68.89l-24.92 66.37c-35.64,5.36 -71.25,10.83 -106.85,16.4l-106.98 17.02c-16.18,2.75 -32.41,5.4 -48.64,8.07l28.79 -75.47c9.94,-26.21 20.08,-52.36 29.81,-78.66l29.42 -78.78c9.6,-26.34 19.37,-52.62 28.75,-79.04 -10.78,25.91 -21.11,51.97 -31.72,77.88l-31.08 78.14c-10.44,25.99 -20.51,52.19 -30.71,78.31l-30.49 78.35 -0.22 0.52c-16.94,2.8 -33.81,5.64 -50.7,8.63 17.02,-2.04 34.02,-4.2 51.05,-6.41l0.3 0.43 51.86 68.58c17.37,22.81 34.47,45.82 52.01,68.5l52.36 68.2c17.67,22.6 35.12,45.28 52.92,67.77 -16.61,-23.39 -33.59,-46.5 -50.33,-69.77l-50.92 -69.31c-16.89,-23.16 -34.2,-46.03 -51.3,-69.02l-49.47 -66.32c16.31,-2.13 32.62,-4.24 48.96,-6.33l107.32 -14.61 0.04 0.09 -0.06 -0.04z"/>
    <path class="fil2" d="M4152.89 22737.93l-73.77 0c-17.84,0 -32.32,-15.73 -32.32,-35.1l0 -2.93c0,-19.39 14.46,-35.1 32.32,-35.1l73.77 0c17.84,0 32.28,15.69 32.28,35.1l0 2.93c0,19.37 -14.44,35.1 -32.28,35.1z"/>
    <path class="fil2" d="M4867.03 22737.93l-560.88 0c-17.84,0 -32.3,-15.73 -32.3,-35.1l0 -2.93c0,-19.39 14.46,-35.1 32.3,-35.1l560.88 0c17.84,0 32.32,15.69 32.32,35.1l0 2.93c0,19.37 -14.46,35.1 -32.32,35.1z"/>
    <path class="fil1 str3" d="M8991.34 22272.21c-61.03,0 -61.03,-65.94 -122.06,-65.94 -61.03,0 -61.03,65.94 -122.06,65.94 -61.03,0 -61.03,-65.94 -122.06,-65.94 -61.03,0 -61.03,65.94 -122.04,65.94 -61.05,0 -61.05,-65.94 -122.08,-65.94 -61.05,0 -61.05,65.94 -122.12,65.94 -61.03,0 -61.03,-65.94 -122.06,-65.94 -61.07,0 -61.07,65.94 -122.17,65.94 -61.07,0 -61.07,-65.94 -122.17,-65.94"/>
    <path class="fil1 str3" d="M8991.34 22161.11c-61.03,0 -61.03,-65.94 -122.06,-65.94 -61.03,0 -61.03,65.94 -122.06,65.94 -61.03,0 -61.03,-65.94 -122.06,-65.94 -61.03,0 -61.03,65.94 -122.04,65.94 -61.05,0 -61.05,-65.94 -122.08,-65.94 -61.05,0 -61.05,65.94 -122.12,65.94 -61.03,0 -61.03,-65.94 -122.06,-65.94 -61.07,0 -61.07,65.94 -122.17,65.94 -61.07,0 -61.07,-65.94 -122.17,-65.94"/>
   </g>
  </g>
 </g>
</svg>
