<?xml version="1.0" encoding="UTF-8"?>
<!DOCTYPE svg PUBLIC "-//W3C//DTD SVG 1.1//EN" "http://www.w3.org/Graphics/SVG/1.1/DTD/svg11.dtd">
<!-- Creator: CorelDRAW -->
<svg xmlns="http://www.w3.org/2000/svg" xml:space="preserve" width="209.957mm" height="43.6068mm" version="1.1" style="shape-rendering:geometricPrecision; text-rendering:geometricPrecision; image-rendering:optimizeQuality; fill-rule:evenodd; clip-rule:evenodd"
viewBox="0 0 2095.56 435.24"
 xmlns:xlink="http://www.w3.org/1999/xlink"
 xmlns:xodm="http://www.corel.com/coreldraw/odm/2003">
 <defs>
  <style type="text/css">
   <![CDATA[
    .str1 {stroke:white;stroke-width:1.82;stroke-miterlimit:22.9256}
    .str0 {stroke:white;stroke-width:8.66;stroke-miterlimit:22.9256}
    .fil1 {fill:none;fill-rule:nonzero}
    .fil2 {fill:black;fill-rule:nonzero}
    .fil5 {fill:#66980A;fill-rule:nonzero}
    .fil4 {fill:#66980A;fill-rule:nonzero}
    .fil0 {fill:#78CA5A;fill-rule:nonzero}
    .fil6 {fill:#8B6340;fill-rule:nonzero}
    .fil3 {fill:#A1C533;fill-rule:nonzero}
   ]]>
  </style>
 </defs>
 <g id="Layer_x0020_1">
  <metadata id="CorelCorpID_0Corel-Layer"/>
  <g id="_2520078946160">
   <path class="fil0" d="M828.52 375.54l-14.39 0c-3.48,0 -6.3,-2.89 -6.3,-6.44l0 -0.54c0,-3.56 2.82,-6.44 6.3,-6.44l14.39 0c3.48,0 6.3,2.88 6.3,6.44l0 0.54c0,3.55 -2.82,6.44 -6.3,6.44z"/>
   <path class="fil0" d="M967.85 375.54l-109.43 0c-3.48,0 -6.3,-2.89 -6.3,-6.44l0 -0.54c0,-3.56 2.82,-6.44 6.3,-6.44l109.43 0c3.48,0 6.3,2.88 6.3,6.44l0 0.54c0,3.55 -2.82,6.44 -6.3,6.44z"/>
   <path class="fil0" d="M1949.93 435.24l-14.39 0c-3.48,0 -6.3,-2.89 -6.3,-6.44l0 -0.54c0,-3.56 2.82,-6.44 6.3,-6.44l14.39 0c3.48,0 6.3,2.88 6.3,6.44l0 0.54c0,3.56 -2.82,6.44 -6.3,6.44z"/>
   <path class="fil0" d="M2089.26 435.24l-109.43 0c-3.48,0 -6.3,-2.89 -6.3,-6.44l0 -0.54c0,-3.56 2.82,-6.44 6.3,-6.44l109.43 0c3.48,0 6.3,2.88 6.3,6.44l0 0.54c0,3.56 -2.82,6.44 -6.3,6.44z"/>
   <line class="fil1 str0" x1="1516.54" y1="391.1" x2="1547.47" y2= "422.02" />
   <line class="fil1 str0" x1="1547.47" y1="391.09" x2="1516.54" y2= "422.01" />
   <path class="fil2" d="M1860.44 425.32c0,1 0.81,1.81 1.81,1.81 1,0 1.81,-0.81 1.81,-1.81 0,-1 -0.81,-1.81 -1.81,-1.81 -1,0 -1.81,0.81 -1.81,1.81z"/>
   <path class="fil2" d="M1860.44 398.5c0,1 0.81,1.81 1.81,1.81 1,0 1.81,-0.81 1.81,-1.81 0,-1 -0.81,-1.81 -1.81,-1.81 -1,0 -1.81,0.81 -1.81,1.81z"/>
   <path class="fil2" d="M1860.44 371.67c0,1 0.81,1.81 1.81,1.81 1,0 1.81,-0.81 1.81,-1.81 0,-1 -0.81,-1.81 -1.81,-1.81 -1,0 -1.81,0.81 -1.81,1.81z"/>
   <path class="fil2" d="M1860.44 344.84c0,1 0.81,1.81 1.81,1.81 1,0 1.81,-0.81 1.81,-1.81 0,-1 -0.81,-1.81 -1.81,-1.81 -1,0 -1.81,0.81 -1.81,1.81z"/>
   <path class="fil2" d="M1838.79 425.32c0,1 0.81,1.81 1.81,1.81 1,0 1.81,-0.81 1.81,-1.81 0,-1 -0.81,-1.81 -1.81,-1.81 -1,0 -1.81,0.81 -1.81,1.81z"/>
   <path class="fil2" d="M1838.79 398.5c0,1 0.81,1.81 1.81,1.81 1,0 1.81,-0.81 1.81,-1.81 0,-1 -0.81,-1.81 -1.81,-1.81 -1,0 -1.81,0.81 -1.81,1.81z"/>
   <path class="fil2" d="M1838.79 371.67c0,1 0.81,1.81 1.81,1.81 1,0 1.81,-0.81 1.81,-1.81 0,-1 -0.81,-1.81 -1.81,-1.81 -1,0 -1.81,0.81 -1.81,1.81z"/>
   <path class="fil2" d="M1838.79 344.84c0,1 0.81,1.81 1.81,1.81 1,0 1.81,-0.81 1.81,-1.81 0,-1 -0.81,-1.81 -1.81,-1.81 -1,0 -1.81,0.81 -1.81,1.81z"/>
   <path class="fil2" d="M1817.15 425.32c0,1 0.81,1.81 1.81,1.81 1,0 1.81,-0.81 1.81,-1.81 0,-1 -0.81,-1.81 -1.81,-1.81 -1,0 -1.81,0.81 -1.81,1.81z"/>
   <path class="fil2" d="M1817.15 398.5c0,1 0.81,1.81 1.81,1.81 1,0 1.81,-0.81 1.81,-1.81 0,-1 -0.81,-1.81 -1.81,-1.81 -1,0 -1.81,0.81 -1.81,1.81z"/>
   <path class="fil2" d="M1817.15 371.67c0,1 0.81,1.81 1.81,1.81 1,0 1.81,-0.81 1.81,-1.81 0,-1 -0.81,-1.81 -1.81,-1.81 -1,0 -1.81,0.81 -1.81,1.81z"/>
   <path class="fil2" d="M1817.15 344.84c0,1 0.81,1.81 1.81,1.81 1,0 1.81,-0.81 1.81,-1.81 0,-1 -0.81,-1.81 -1.81,-1.81 -1,0 -1.81,0.81 -1.81,1.81z"/>
   <path class="fil2" d="M1795.5 425.32c0,1 0.81,1.81 1.81,1.81 1,0 1.81,-0.81 1.81,-1.81 0,-1 -0.81,-1.81 -1.81,-1.81 -1,0 -1.81,0.81 -1.81,1.81z"/>
   <path class="fil2" d="M1795.5 398.5c0,1 0.81,1.81 1.81,1.81 1,0 1.81,-0.81 1.81,-1.81 0,-1 -0.81,-1.81 -1.81,-1.81 -1,0 -1.81,0.81 -1.81,1.81z"/>
   <path class="fil2" d="M1795.5 371.67c0,1 0.81,1.81 1.81,1.81 1,0 1.81,-0.81 1.81,-1.81 0,-1 -0.81,-1.81 -1.81,-1.81 -1,0 -1.81,0.81 -1.81,1.81z"/>
   <path class="fil2" d="M1795.5 344.84c0,1 0.81,1.81 1.81,1.81 1,0 1.81,-0.81 1.81,-1.81 0,-1 -0.81,-1.81 -1.81,-1.81 -1,0 -1.81,0.81 -1.81,1.81z"/>
   <path class="fil2" d="M1773.86 425.32c0,1 0.81,1.81 1.81,1.81 1,0 1.81,-0.81 1.81,-1.81 0,-1 -0.81,-1.81 -1.81,-1.81 -1,0 -1.81,0.81 -1.81,1.81z"/>
   <path class="fil2" d="M1773.86 398.5c0,1 0.81,1.81 1.81,1.81 1,0 1.81,-0.81 1.81,-1.81 0,-1 -0.81,-1.81 -1.81,-1.81 -1,0 -1.81,0.81 -1.81,1.81z"/>
   <path class="fil2" d="M1773.86 371.67c0,1 0.81,1.81 1.81,1.81 1,0 1.81,-0.81 1.81,-1.81 0,-1 -0.81,-1.81 -1.81,-1.81 -1,0 -1.81,0.81 -1.81,1.81z"/>
   <path class="fil2" d="M1773.86 344.84c0,1 0.81,1.81 1.81,1.81 1,0 1.81,-0.81 1.81,-1.81 0,-1 -0.81,-1.81 -1.81,-1.81 -1,0 -1.81,0.81 -1.81,1.81z"/>
   <path class="fil2" d="M1752.21 425.32c0,1 0.81,1.81 1.81,1.81 1,0 1.81,-0.81 1.81,-1.81 0,-1 -0.81,-1.81 -1.81,-1.81 -1,0 -1.81,0.81 -1.81,1.81z"/>
   <path class="fil2" d="M1752.21 398.5c0,1 0.81,1.81 1.81,1.81 1,0 1.81,-0.81 1.81,-1.81 0,-1 -0.81,-1.81 -1.81,-1.81 -1,0 -1.81,0.81 -1.81,1.81z"/>
   <path class="fil2" d="M1752.21 371.67c0,1 0.81,1.81 1.81,1.81 1,0 1.81,-0.81 1.81,-1.81 0,-1 -0.81,-1.81 -1.81,-1.81 -1,0 -1.81,0.81 -1.81,1.81z"/>
   <path class="fil2" d="M1752.21 344.84c0,1 0.81,1.81 1.81,1.81 1,0 1.81,-0.81 1.81,-1.81 0,-1 -0.81,-1.81 -1.81,-1.81 -1,0 -1.81,0.81 -1.81,1.81z"/>
   <path class="fil1 str1" d="M1586.06 197.09c-12.2,0 -12.2,-13.18 -24.39,-13.18 -12.2,0 -12.2,13.18 -24.39,13.18 -12.19,0 -12.19,-13.18 -24.39,-13.18 -12.19,0 -12.19,13.18 -24.39,13.18 -12.2,0 -12.2,-13.18 -24.4,-13.18 -12.2,0 -12.2,13.18 -24.4,13.18 -12.2,0 -12.2,-13.18 -24.39,-13.18 -12.21,0 -12.21,13.18 -24.41,13.18 -12.21,0 -12.21,-13.18 -24.41,-13.18"/>
   <path class="fil1 str1" d="M1586.06 174.89c-12.2,0 -12.2,-13.18 -24.39,-13.18 -12.2,0 -12.2,13.18 -24.39,13.18 -12.19,0 -12.19,-13.18 -24.39,-13.18 -12.19,0 -12.19,13.18 -24.39,13.18 -12.2,0 -12.2,-13.18 -24.4,-13.18 -12.2,0 -12.2,13.18 -24.4,13.18 -12.2,0 -12.2,-13.18 -24.39,-13.18 -12.21,0 -12.21,13.18 -24.41,13.18 -12.21,0 -12.21,-13.18 -24.41,-13.18"/>
   <g>
    <path class="fil3" d="M541.06 267c9.32,1.32 18.6,2.89 27.85,4.71 2.95,0.61 5.94,1.23 8.91,1.88 8.2,1.8 16.37,3.81 24.5,6.03 2.67,0.73 5.33,1.5 7.99,2.28 5.89,1.71 11.74,3.55 17.58,5.49l-0.43 1.29 -0.42 1.26c-0.1,-0.04 -0.18,-0.05 -0.28,-0.09 -5.55,-1.85 -11.12,-3.59 -16.72,-5.24 -1.14,-0.35 -2.3,-0.68 -3.44,-1.01 -9.65,-2.76 -19.37,-5.21 -29.13,-7.35 -1.07,-0.24 -2.17,-0.48 -3.26,-0.71 -10.92,-2.33 -21.96,-4.27 -33.01,-5.83 -1.29,-0.19 -2.59,-0.35 -3.88,-0.53 -11.5,-1.52 -23.03,-2.62 -34.56,-3.31 -1.14,-0.08 -2.27,-0.14 -3.42,-0.2 -10.56,-0.58 -21.14,-0.78 -31.72,-0.63 -1.45,0.01 -2.94,0.03 -4.4,0.09 -11.08,0.24 -22.18,0.85 -33.24,1.89 -2.07,0.16 -4.12,0.38 -6.2,0.61 -9.82,1.01 -19.62,2.35 -29.39,3.98 -6.68,1.14 -13.33,2.39 -19.97,3.8l-0.27 -1.3 -0.3 -1.31c6.58,-1.39 13.2,-2.65 19.83,-3.77 8.83,-1.5 17.71,-2.73 26.58,-3.71 3.15,-0.35 6.32,-0.68 9.49,-0.98 9.55,-0.89 19.15,-1.47 28.75,-1.76 3.03,-0.1 6.03,-0.18 9.06,-0.23 8.74,-0.11 17.48,0.01 26.2,0.38 2.92,0.12 5.86,0.25 8.77,0.43 9.85,0.58 19.69,1.46 29.49,2.66 3.02,0.35 6.06,0.76 9.07,1.17z"/>
    <path class="fil3" d="M393.67 269.04c1.6,0.47 2.57,0.83 2.75,0.88l0.02 0.03c-0.67,0.58 -1.38,1.15 -2.07,1.67 -34.56,27.77 -67.52,15.98 -66.05,15 26.19,-26.23 56.22,-20.24 65.34,-17.58z"/>
    <path class="fil3" d="M430.33 265.63c0,0 -14.93,-35.95 -51.95,-28.67 0,0 14.32,30.62 51.95,28.67z"/>
    <path class="fil3" d="M430.33 265.63l-0 0.02c-0.05,0.15 -0.14,0.63 -0.36,1.38 -1.87,6.06 -11.06,30.22 -42.74,37.99 0,0 4.39,-25.98 36.54,-37.37 2.05,-0.73 4.21,-1.39 6.48,-2 0.03,0 0.06,-0.02 0.08,-0.02z"/>
    <path class="fil3" d="M467.76 263.7c0,0 -4.88,-33.44 -41.87,-35.23 0,0 6.96,34.42 41.87,35.23z"/>
    <path class="fil3" d="M467.78 263.7c0,0 -0.04,0.48 -0.17,1.35 -0.92,5.47 -6.36,26.37 -36.99,37.12 0,0 2.47,-26.5 32.59,-37.03 1.45,-0.54 2.98,-1.03 4.57,-1.44z"/>
    <path class="fil3" d="M502.89 264.52c0,0 -8.38,-34.41 -37.4,-38.77 0,0 1.44,35.24 37.4,38.77z"/>
    <path class="fil3" d="M502.85 264.51l0.03 0c0,0 -0.02,0.48 -0.14,1.35 -0.77,5.17 -5.47,24.13 -32.51,35.02 0,0 1.57,-25.5 29.1,-35.21 1.14,-0.43 2.3,-0.8 3.53,-1.16z"/>
    <path class="fil3" d="M541.6 268.41c0,0 -9.99,-28.65 -35.31,-34.98 0,0 1.54,28.97 35.31,34.98z"/>
    <path class="fil3" d="M541.56 268.42l0.03 0c0,0 -0.12,0.47 -0.4,1.29 -1.83,5.42 -10.79,26.32 -40.14,30.01 0,0 7.57,-24.52 36.26,-30.55 1.36,-0.31 2.8,-0.54 4.26,-0.76z"/>
    <path class="fil3" d="M578.11 275.02c0,0 -5.38,-33.52 -33.73,-35.63 0,0 3.5,27.93 33.73,35.63z"/>
    <path class="fil3" d="M578.09 275.03l-0 0.03c-0.07,0.12 -0.27,0.55 -0.63,1.2 -2.68,4.97 -14.58,23.43 -43.5,26.73 0,0 12.92,-22.97 40.23,-27.44 1.24,-0.23 2.53,-0.39 3.84,-0.5 0.03,-0.02 0.03,-0.02 0.06,-0.02z"/>
   </g>
   <g>
    <path class="fil4" d="M627.9 287.39l-0.43 1.29 -0.42 1.26c-0.1,-0.04 -0.18,-0.05 -0.28,-0.09 -5.55,-1.85 -11.12,-3.59 -16.72,-5.24 -1.14,-0.35 -2.3,-0.68 -3.44,-1.01 -9.65,-2.76 -19.37,-5.21 -29.13,-7.35 -1.07,-0.24 -2.17,-0.48 -3.26,-0.71 -10.92,-2.33 -21.96,-4.27 -33.01,-5.83 -1.29,-0.19 -2.59,-0.35 -3.88,-0.53 -11.5,-1.52 -23.03,-2.62 -34.56,-3.31 -1.14,-0.08 -2.27,-0.14 -3.42,-0.2 -10.56,-0.58 -21.14,-0.78 -31.72,-0.63 -1.45,0.01 -2.94,0.03 -4.4,0.09 -11.08,0.24 -22.18,0.85 -33.24,1.89 -2.07,0.16 -4.12,0.38 -6.2,0.61 -9.82,1.01 -19.62,2.35 -29.39,3.98 -6.68,1.14 -13.33,2.39 -19.97,3.8l-0.27 -1.3 -0.05 -0.2c52.96,-11.21 146.76,-20.97 253.81,13.48z"/>
    <path class="fil4" d="M396.09 269.81l0.33 0.11 0.02 0.03c-0.67,0.58 -1.38,1.15 -2.07,1.67 -34.56,27.77 -67.52,15.98 -66.05,15 0,0 25.41,-9.96 67.77,-16.81z"/>
    <path class="fil4" d="M430.33 265.63l-0.04 -0.1 -1.78 0.16c0.6,-0.01 1.21,-0.04 1.82,-0.07z"/>
    <path class="fil4" d="M430.33 265.63l-0 0.02c-0.05,0.15 -0.14,0.63 -0.36,1.38 -1.87,6.06 -11.06,30.22 -42.74,37.99 0,0 4.39,-25.98 36.54,-37.37 2.05,-0.73 4.21,-1.39 6.48,-2 0.03,0 0.06,-0.02 0.08,-0.02z"/>
    <path class="fil4" d="M467.76 263.7l-0.02 -0.13 -2.11 0.03c0.7,0.04 1.41,0.08 2.13,0.1z"/>
    <path class="fil4" d="M467.78 263.7c0,0 -0.04,0.48 -0.17,1.35 -0.92,5.47 -6.36,26.37 -36.99,37.12 0,0 2.47,-26.5 32.59,-37.03 1.45,-0.54 2.98,-1.03 4.57,-1.44z"/>
    <path class="fil4" d="M502.89 264.52l-0.07 -0.26c-1.08,-0.06 -2.16,-0.11 -3.23,-0.17 1.07,0.17 2.17,0.32 3.3,0.43z"/>
    <path class="fil4" d="M502.85 264.51l0.03 0c0,0 -0.02,0.48 -0.14,1.35 -0.77,5.17 -5.47,24.13 -32.51,35.02 0,0 1.57,-25.5 29.1,-35.21 1.14,-0.43 2.3,-0.8 3.53,-1.16z"/>
    <path class="fil4" d="M541.6 268.41c0,0 -0.06,-0.18 -0.19,-0.52 -1.66,-0.22 -3.32,-0.43 -4.97,-0.64 1.63,0.45 3.35,0.84 5.16,1.16z"/>
    <path class="fil4" d="M541.56 268.42l0.03 0c0,0 -0.12,0.47 -0.4,1.29 -1.83,5.42 -10.79,26.32 -40.14,30.01 0,0 7.57,-24.52 36.26,-30.55 1.36,-0.31 2.8,-0.54 4.26,-0.76z"/>
    <path class="fil4" d="M578.11 275.02c0,0 -0.05,-0.31 -0.16,-0.87 -2.19,-0.46 -4.38,-0.9 -6.55,-1.33 2.08,0.84 4.31,1.58 6.72,2.2z"/>
    <path class="fil4" d="M578.09 275.03l-0 0.03c-0.07,0.12 -0.27,0.55 -0.63,1.2 -2.68,4.97 -14.58,23.43 -43.5,26.73 0,0 12.92,-22.97 40.23,-27.44 1.24,-0.23 2.53,-0.39 3.84,-0.5 0.03,-0.02 0.03,-0.02 0.06,-0.02z"/>
   </g>
   <path class="fil3" d="M67.05 171.1c-24.77,-8.3 -44.58,-24.14 -54.55,-43.6 0,0 -9.96,-15.87 -12,-29.93 -2.04,-14.05 2.98,-32.13 2.98,-32.13 4.03,-21.5 18.5,-42.41 39.88,-57.54 4.07,-2.88 8.51,-5.62 13.64,-7.01 5.14,-1.42 11.1,-1.26 15.03,1.26 6.02,3.86 5.08,11.55 1.53,17.42 -3.54,5.85 -9.19,11.07 -11.75,17.19 -2.53,6.13 -0.47,13.99 7.21,15.61 6.28,1.3 13.33,-2.29 16.84,-6.85 3.54,-4.55 4.45,-9.87 5.65,-14.97 1.77,-7.43 4.77,-15.35 12.37,-20.45 7.56,-5.09 20.91,-5.33 24.88,1.23 2.65,4.4 0.25,9.9 -2.99,14.42 -3.24,4.52 -7.42,8.88 -8.64,13.85 -1.22,4.97 2.06,10.88 8.47,11.15 4.37,0.21 8.61,-2.28 11.01,-5.28 2.37,-3.01 3.28,-6.47 4.27,-9.86 2.22,-7.53 5.45,-15.53 13.24,-20.68 7.76,-5.14 21.31,-5.47 25.44,1.16 2.72,4.34 0.58,9.85 -2.69,14.36 -3.26,4.49 -7.62,8.62 -9.75,13.44 -2.13,4.82 -1.25,10.85 4.21,13.14 7.75,3.26 17.18,-2.77 25.99,-5.12 3.75,-1 7.64,-1.22 11.37,-0.77 7.72,0.92 12.49,6.57 13.68,12.93 1.32,6.85 -1.49,14.5 -9.2,17.85 -3.45,1.5 -7.25,2.4 -11.09,2.53 -9.15,0.29 -19.87,-2.76 -26.37,2.62 -4.61,3.75 -3.73,9.8 -0.32,13.81 3.43,4.01 8.77,6.7 13.18,10.05 4.41,3.38 8.05,8.03 6.67,12.99 -2.1,7.56 -15.16,11.17 -24.07,8.46 -8.91,-2.7 -14.28,-9.42 -18.56,-16 -1.91,-2.94 -3.76,-6 -6.9,-8.19 -3.15,-2.19 -7.91,-3.35 -12.03,-1.89 -6.07,2.12 -7.51,8.7 -4.94,13.13 2.57,4.41 7.84,7.39 12.24,10.77 4.4,3.4 8.25,7.97 6.95,12.95 -1.93,7.42 -14.79,11.04 -23.5,8.37 -8.7,-2.7 -13.81,-9.41 -17.64,-16.01 -2.62,-4.55 -5.01,-9.36 -9.68,-12.73 -4.68,-3.34 -12.46,-4.75 -18.08,-1.68 -6.9,3.76 -6.63,11.89 -2.45,17.02 4.16,5.15 11.07,8.49 16.14,13.1 5.08,4.58 8.13,11.68 3.47,17.12 -3.03,3.56 -8.7,5.41 -14.02,5.57 -5.32,0.13 -10.36,-1.21 -15.1,-2.79z"/>
   <path class="fil5" d="M0.47 97.4c-1.98,-14.03 3,-31.96 3,-31.96 4.03,-21.5 18.5,-42.41 39.88,-57.54 4.07,-2.88 8.51,-5.62 13.64,-7.01 5.14,-1.42 11.1,-1.26 15.03,1.26 6.02,3.86 5.08,11.55 1.53,17.42 -3.54,5.85 -9.19,11.07 -11.75,17.19 -2.53,6.13 -0.47,13.99 7.21,15.61 6.28,1.3 13.33,-2.29 16.84,-6.85 3.54,-4.55 4.45,-9.87 5.65,-14.97 1.77,-7.43 4.77,-15.35 12.37,-20.45 7.56,-5.09 20.91,-5.33 24.88,1.23 2.65,4.4 0.25,9.9 -2.99,14.42 -3.24,4.52 -7.42,8.88 -8.64,13.85 -1.22,4.97 2.06,10.88 8.47,11.15 4.37,0.21 8.61,-2.28 11.01,-5.28 2.37,-3.01 3.28,-6.47 4.27,-9.86 2.22,-7.53 5.45,-15.53 13.24,-20.68 7.76,-5.14 21.31,-5.47 25.44,1.16 2.72,4.34 0.58,9.85 -2.69,14.36 -3.26,4.49 -7.62,8.62 -9.75,13.44 -2.13,4.82 -1.25,10.85 4.21,13.14 7.75,3.26 17.18,-2.77 25.99,-5.12 3.75,-1 7.64,-1.22 11.37,-0.77 7.72,0.92 12.49,6.57 13.68,12.93 0.05,0.25 0.09,0.5 0.13,0.75l-222.02 32.58z"/>
   <path class="fil6" d="M64.74 88.88c8.18,-1.12 16.35,-2.29 24.53,-3.47l9.83 13.15c3.42,4.54 6.79,9.13 10.25,13.64l10.33 13.57c3.49,4.49 6.94,9.01 10.46,13.48 -3.25,-4.67 -6.58,-9.28 -9.86,-13.92l-9.99 -13.83c-3.31,-4.62 -6.72,-9.17 -10.08,-13.76l-9.25 -12.56c7.65,-1.1 15.29,-2.21 22.95,-3.3 9.04,-1.38 18.09,-2.74 27.13,-4.1 3.03,3.78 6.11,7.52 9.16,11.28 3.19,3.91 6.35,7.85 9.58,11.73l9.67 11.66c3.27,3.85 6.49,7.74 9.8,11.55 -3.03,-4.04 -6.14,-8.03 -9.21,-12.04l-9.34 -11.93c-3.11,-3.98 -6.29,-7.9 -9.43,-11.86 -2.85,-3.55 -5.67,-7.12 -8.53,-10.66 6.75,-1.03 13.51,-2.06 20.25,-3.12l24.52 -3.91c8.17,-1.37 16.34,-2.68 24.49,-4.11 -8.22,0.98 -16.42,2.09 -24.63,3.14l-24.6 3.35c-6.74,0.93 -13.47,1.88 -20.21,2.85 3.69,-8.01 7.45,-15.98 11.06,-24.02l5.76 -12.78c1.87,-4.28 3.79,-8.54 5.62,-12.84 -2.13,4.16 -4.18,8.36 -6.27,12.53l-6.13 12.6c-4.01,8.22 -7.86,16.5 -11.8,24.75 -9.07,1.3 -18.13,2.62 -27.2,3.91 -7.64,1.16 -15.27,2.31 -22.91,3.46l5.3 -14.47c1.93,-5.29 3.9,-10.56 5.77,-15.87l5.67 -15.9c1.84,-5.32 3.73,-10.62 5.53,-15.96 -2.12,5.22 -4.14,10.47 -6.21,15.7l-6.07 15.76c-2.04,5.25 -3.99,10.53 -5.97,15.79l-5.71 15.21c-8.17,1.23 -16.33,2.48 -24.49,3.76l-24.52 3.9c-3.71,0.63 -7.43,1.24 -11.15,1.85l6.6 -17.3c2.28,-6.01 4.6,-12 6.83,-18.03l6.74 -18.06c2.2,-6.04 4.44,-12.06 6.59,-18.12 -2.47,5.94 -4.84,11.91 -7.27,17.85l-7.12 17.91c-2.39,5.96 -4.7,11.96 -7.04,17.95l-6.99 17.96 -0.05 0.12c-3.88,0.64 -7.75,1.29 -11.62,1.98 3.9,-0.47 7.8,-0.96 11.7,-1.47l0.07 0.1 11.89 15.72c3.98,5.23 7.9,10.5 11.92,15.7l12 15.63c4.05,5.18 8.05,10.38 12.13,15.53 -3.81,-5.36 -7.7,-10.66 -11.54,-15.99l-11.67 -15.89c-3.87,-5.31 -7.84,-10.55 -11.76,-15.82l-11.34 -15.2c3.74,-0.49 7.48,-0.97 11.22,-1.45l24.6 -3.35z"/>
  </g>
 </g>
</svg>
